%TF.GenerationSoftware,KiCad,Pcbnew,(6.0.7)*%
%TF.CreationDate,2022-08-07T08:27:23-07:00*%
%TF.ProjectId,isa_board,6973615f-626f-4617-9264-2e6b69636164,rev?*%
%TF.SameCoordinates,Original*%
%TF.FileFunction,Legend,Top*%
%TF.FilePolarity,Positive*%
%FSLAX46Y46*%
G04 Gerber Fmt 4.6, Leading zero omitted, Abs format (unit mm)*
G04 Created by KiCad (PCBNEW (6.0.7)) date 2022-08-07 08:27:23*
%MOMM*%
%LPD*%
G01*
G04 APERTURE LIST*
%ADD10C,0.150000*%
%ADD11C,0.177800*%
%ADD12C,0.120000*%
G04 APERTURE END LIST*
D10*
X77512142Y-47051153D02*
X78479761Y-47051153D01*
X79689285Y-46264962D02*
X79084523Y-46264962D01*
X79024047Y-46869724D01*
X79084523Y-46809248D01*
X79205476Y-46748772D01*
X79507857Y-46748772D01*
X79628809Y-46809248D01*
X79689285Y-46869724D01*
X79749761Y-46990677D01*
X79749761Y-47293058D01*
X79689285Y-47414010D01*
X79628809Y-47474486D01*
X79507857Y-47534962D01*
X79205476Y-47534962D01*
X79084523Y-47474486D01*
X79024047Y-47414010D01*
X80112619Y-46264962D02*
X80535952Y-47534962D01*
X80959285Y-46264962D01*
X81912977Y-46996807D02*
X82880597Y-46996807D01*
X84150597Y-47480616D02*
X83424882Y-47480616D01*
X83787739Y-47480616D02*
X83787739Y-46210616D01*
X83666787Y-46392045D01*
X83545835Y-46512997D01*
X83424882Y-46573473D01*
X84634406Y-46331569D02*
X84694882Y-46271093D01*
X84815835Y-46210616D01*
X85118216Y-46210616D01*
X85239168Y-46271093D01*
X85299644Y-46331569D01*
X85360120Y-46452521D01*
X85360120Y-46573473D01*
X85299644Y-46754902D01*
X84573930Y-47480616D01*
X85360120Y-47480616D01*
X85722977Y-46210616D02*
X86146311Y-47480616D01*
X86569644Y-46210616D01*
X69995115Y-47534962D02*
X69269401Y-47534962D01*
X69632258Y-47534962D02*
X69632258Y-46264962D01*
X69511306Y-46446391D01*
X69390353Y-46567343D01*
X69269401Y-46627819D01*
X70478925Y-46385915D02*
X70539401Y-46325439D01*
X70660353Y-46264962D01*
X70962734Y-46264962D01*
X71083686Y-46325439D01*
X71144163Y-46385915D01*
X71204639Y-46506867D01*
X71204639Y-46627819D01*
X71144163Y-46809248D01*
X70418448Y-47534962D01*
X71204639Y-47534962D01*
X71567496Y-46264962D02*
X71990829Y-47534962D01*
X72414163Y-46264962D01*
D11*
X198210523Y-40679619D02*
X198210523Y-39663619D01*
X198549190Y-40389333D01*
X198887857Y-39663619D01*
X198887857Y-40679619D01*
X199807095Y-40679619D02*
X199807095Y-40147428D01*
X199758714Y-40050666D01*
X199661952Y-40002285D01*
X199468428Y-40002285D01*
X199371666Y-40050666D01*
X199807095Y-40631238D02*
X199710333Y-40679619D01*
X199468428Y-40679619D01*
X199371666Y-40631238D01*
X199323285Y-40534476D01*
X199323285Y-40437714D01*
X199371666Y-40340952D01*
X199468428Y-40292571D01*
X199710333Y-40292571D01*
X199807095Y-40244190D01*
X200290904Y-40679619D02*
X200290904Y-39663619D01*
X200387666Y-40292571D02*
X200677952Y-40679619D01*
X200677952Y-40002285D02*
X200290904Y-40389333D01*
X201113380Y-40679619D02*
X201113380Y-40002285D01*
X201113380Y-39663619D02*
X201065000Y-39712000D01*
X201113380Y-39760380D01*
X201161761Y-39712000D01*
X201113380Y-39663619D01*
X201113380Y-39760380D01*
X201597190Y-40679619D02*
X201597190Y-39663619D01*
X202032619Y-40679619D02*
X202032619Y-40147428D01*
X201984238Y-40050666D01*
X201887476Y-40002285D01*
X201742333Y-40002285D01*
X201645571Y-40050666D01*
X201597190Y-40099047D01*
X202951857Y-40679619D02*
X202951857Y-40147428D01*
X202903476Y-40050666D01*
X202806714Y-40002285D01*
X202613190Y-40002285D01*
X202516428Y-40050666D01*
X202951857Y-40631238D02*
X202855095Y-40679619D01*
X202613190Y-40679619D01*
X202516428Y-40631238D01*
X202468047Y-40534476D01*
X202468047Y-40437714D01*
X202516428Y-40340952D01*
X202613190Y-40292571D01*
X202855095Y-40292571D01*
X202951857Y-40244190D01*
X203290523Y-40002285D02*
X203677571Y-40002285D01*
X203435666Y-39663619D02*
X203435666Y-40534476D01*
X203484047Y-40631238D01*
X203580809Y-40679619D01*
X203677571Y-40679619D01*
X204451666Y-40679619D02*
X204451666Y-40147428D01*
X204403285Y-40050666D01*
X204306523Y-40002285D01*
X204113000Y-40002285D01*
X204016238Y-40050666D01*
X204451666Y-40631238D02*
X204354904Y-40679619D01*
X204113000Y-40679619D01*
X204016238Y-40631238D01*
X203967857Y-40534476D01*
X203967857Y-40437714D01*
X204016238Y-40340952D01*
X204113000Y-40292571D01*
X204354904Y-40292571D01*
X204451666Y-40244190D01*
X205709571Y-40147428D02*
X206048238Y-40147428D01*
X206193380Y-40679619D02*
X205709571Y-40679619D01*
X205709571Y-39663619D01*
X206193380Y-39663619D01*
X206628809Y-40002285D02*
X206628809Y-40679619D01*
X206628809Y-40099047D02*
X206677190Y-40050666D01*
X206773952Y-40002285D01*
X206919095Y-40002285D01*
X207015857Y-40050666D01*
X207064238Y-40147428D01*
X207064238Y-40679619D01*
X207983476Y-40002285D02*
X207983476Y-40824761D01*
X207935095Y-40921523D01*
X207886714Y-40969904D01*
X207789952Y-41018285D01*
X207644809Y-41018285D01*
X207548047Y-40969904D01*
X207983476Y-40631238D02*
X207886714Y-40679619D01*
X207693190Y-40679619D01*
X207596428Y-40631238D01*
X207548047Y-40582857D01*
X207499666Y-40486095D01*
X207499666Y-40195809D01*
X207548047Y-40099047D01*
X207596428Y-40050666D01*
X207693190Y-40002285D01*
X207886714Y-40002285D01*
X207983476Y-40050666D01*
X208467285Y-40679619D02*
X208467285Y-40002285D01*
X208467285Y-39663619D02*
X208418904Y-39712000D01*
X208467285Y-39760380D01*
X208515666Y-39712000D01*
X208467285Y-39663619D01*
X208467285Y-39760380D01*
X208951095Y-40002285D02*
X208951095Y-40679619D01*
X208951095Y-40099047D02*
X208999476Y-40050666D01*
X209096238Y-40002285D01*
X209241380Y-40002285D01*
X209338142Y-40050666D01*
X209386523Y-40147428D01*
X209386523Y-40679619D01*
X210257380Y-40631238D02*
X210160619Y-40679619D01*
X209967095Y-40679619D01*
X209870333Y-40631238D01*
X209821952Y-40534476D01*
X209821952Y-40147428D01*
X209870333Y-40050666D01*
X209967095Y-40002285D01*
X210160619Y-40002285D01*
X210257380Y-40050666D01*
X210305761Y-40147428D01*
X210305761Y-40244190D01*
X209821952Y-40340952D01*
X211128238Y-40631238D02*
X211031476Y-40679619D01*
X210837952Y-40679619D01*
X210741190Y-40631238D01*
X210692809Y-40534476D01*
X210692809Y-40147428D01*
X210741190Y-40050666D01*
X210837952Y-40002285D01*
X211031476Y-40002285D01*
X211128238Y-40050666D01*
X211176619Y-40147428D01*
X211176619Y-40244190D01*
X210692809Y-40340952D01*
X211612047Y-40679619D02*
X211612047Y-40002285D01*
X211612047Y-40195809D02*
X211660428Y-40099047D01*
X211708809Y-40050666D01*
X211805571Y-40002285D01*
X211902333Y-40002285D01*
X212241000Y-40679619D02*
X212241000Y-40002285D01*
X212241000Y-39663619D02*
X212192619Y-39712000D01*
X212241000Y-39760380D01*
X212289380Y-39712000D01*
X212241000Y-39663619D01*
X212241000Y-39760380D01*
X212724809Y-40002285D02*
X212724809Y-40679619D01*
X212724809Y-40099047D02*
X212773190Y-40050666D01*
X212869952Y-40002285D01*
X213015095Y-40002285D01*
X213111857Y-40050666D01*
X213160238Y-40147428D01*
X213160238Y-40679619D01*
X214079476Y-40002285D02*
X214079476Y-40824761D01*
X214031095Y-40921523D01*
X213982714Y-40969904D01*
X213885952Y-41018285D01*
X213740809Y-41018285D01*
X213644047Y-40969904D01*
X214079476Y-40631238D02*
X213982714Y-40679619D01*
X213789190Y-40679619D01*
X213692428Y-40631238D01*
X213644047Y-40582857D01*
X213595666Y-40486095D01*
X213595666Y-40195809D01*
X213644047Y-40099047D01*
X213692428Y-40050666D01*
X213789190Y-40002285D01*
X213982714Y-40002285D01*
X214079476Y-40050666D01*
D10*
X74941485Y-46319309D02*
X74336723Y-46319309D01*
X74276247Y-46924071D01*
X74336723Y-46863595D01*
X74457675Y-46803119D01*
X74760056Y-46803119D01*
X74881009Y-46863595D01*
X74941485Y-46924071D01*
X75001961Y-47045024D01*
X75001961Y-47347405D01*
X74941485Y-47468357D01*
X74881009Y-47528833D01*
X74760056Y-47589309D01*
X74457675Y-47589309D01*
X74336723Y-47528833D01*
X74276247Y-47468357D01*
X75364818Y-46319309D02*
X75788151Y-47589309D01*
X76211485Y-46319309D01*
X198234714Y-41780285D02*
X198271000Y-41744000D01*
X198343571Y-41707714D01*
X198525000Y-41707714D01*
X198597571Y-41744000D01*
X198633857Y-41780285D01*
X198670142Y-41852857D01*
X198670142Y-41925428D01*
X198633857Y-42034285D01*
X198198428Y-42469714D01*
X198670142Y-42469714D01*
X199141857Y-41707714D02*
X199214428Y-41707714D01*
X199287000Y-41744000D01*
X199323285Y-41780285D01*
X199359571Y-41852857D01*
X199395857Y-41998000D01*
X199395857Y-42179428D01*
X199359571Y-42324571D01*
X199323285Y-42397142D01*
X199287000Y-42433428D01*
X199214428Y-42469714D01*
X199141857Y-42469714D01*
X199069285Y-42433428D01*
X199033000Y-42397142D01*
X198996714Y-42324571D01*
X198960428Y-42179428D01*
X198960428Y-41998000D01*
X198996714Y-41852857D01*
X199033000Y-41780285D01*
X199069285Y-41744000D01*
X199141857Y-41707714D01*
X199686142Y-41780285D02*
X199722428Y-41744000D01*
X199795000Y-41707714D01*
X199976428Y-41707714D01*
X200049000Y-41744000D01*
X200085285Y-41780285D01*
X200121571Y-41852857D01*
X200121571Y-41925428D01*
X200085285Y-42034285D01*
X199649857Y-42469714D01*
X200121571Y-42469714D01*
X200411857Y-41780285D02*
X200448142Y-41744000D01*
X200520714Y-41707714D01*
X200702142Y-41707714D01*
X200774714Y-41744000D01*
X200811000Y-41780285D01*
X200847285Y-41852857D01*
X200847285Y-41925428D01*
X200811000Y-42034285D01*
X200375571Y-42469714D01*
X200847285Y-42469714D01*
X201718142Y-41671428D02*
X201065000Y-42651142D01*
X202081000Y-42034285D02*
X202008428Y-41998000D01*
X201972142Y-41961714D01*
X201935857Y-41889142D01*
X201935857Y-41852857D01*
X201972142Y-41780285D01*
X202008428Y-41744000D01*
X202081000Y-41707714D01*
X202226142Y-41707714D01*
X202298714Y-41744000D01*
X202335000Y-41780285D01*
X202371285Y-41852857D01*
X202371285Y-41889142D01*
X202335000Y-41961714D01*
X202298714Y-41998000D01*
X202226142Y-42034285D01*
X202081000Y-42034285D01*
X202008428Y-42070571D01*
X201972142Y-42106857D01*
X201935857Y-42179428D01*
X201935857Y-42324571D01*
X201972142Y-42397142D01*
X202008428Y-42433428D01*
X202081000Y-42469714D01*
X202226142Y-42469714D01*
X202298714Y-42433428D01*
X202335000Y-42397142D01*
X202371285Y-42324571D01*
X202371285Y-42179428D01*
X202335000Y-42106857D01*
X202298714Y-42070571D01*
X202226142Y-42034285D01*
X203242142Y-41671428D02*
X202589000Y-42651142D01*
X203423571Y-41707714D02*
X203931571Y-41707714D01*
X203605000Y-42469714D01*
%TO.C,J4*%
X92440380Y-38227333D02*
X93154666Y-38227333D01*
X93297523Y-38274952D01*
X93392761Y-38370190D01*
X93440380Y-38513047D01*
X93440380Y-38608285D01*
X92773714Y-37322571D02*
X93440380Y-37322571D01*
X92392761Y-37560666D02*
X93107047Y-37798761D01*
X93107047Y-37179714D01*
%TO.C,C14*%
X85757142Y-118047142D02*
X85709523Y-118094761D01*
X85566666Y-118142380D01*
X85471428Y-118142380D01*
X85328571Y-118094761D01*
X85233333Y-117999523D01*
X85185714Y-117904285D01*
X85138095Y-117713809D01*
X85138095Y-117570952D01*
X85185714Y-117380476D01*
X85233333Y-117285238D01*
X85328571Y-117190000D01*
X85471428Y-117142380D01*
X85566666Y-117142380D01*
X85709523Y-117190000D01*
X85757142Y-117237619D01*
X86709523Y-118142380D02*
X86138095Y-118142380D01*
X86423809Y-118142380D02*
X86423809Y-117142380D01*
X86328571Y-117285238D01*
X86233333Y-117380476D01*
X86138095Y-117428095D01*
X87566666Y-117475714D02*
X87566666Y-118142380D01*
X87328571Y-117094761D02*
X87090476Y-117809047D01*
X87709523Y-117809047D01*
%TO.C,C11*%
X78827142Y-78327857D02*
X78874761Y-78375476D01*
X78922380Y-78518333D01*
X78922380Y-78613571D01*
X78874761Y-78756428D01*
X78779523Y-78851666D01*
X78684285Y-78899285D01*
X78493809Y-78946904D01*
X78350952Y-78946904D01*
X78160476Y-78899285D01*
X78065238Y-78851666D01*
X77970000Y-78756428D01*
X77922380Y-78613571D01*
X77922380Y-78518333D01*
X77970000Y-78375476D01*
X78017619Y-78327857D01*
X78922380Y-77375476D02*
X78922380Y-77946904D01*
X78922380Y-77661190D02*
X77922380Y-77661190D01*
X78065238Y-77756428D01*
X78160476Y-77851666D01*
X78208095Y-77946904D01*
X78922380Y-76423095D02*
X78922380Y-76994523D01*
X78922380Y-76708809D02*
X77922380Y-76708809D01*
X78065238Y-76804047D01*
X78160476Y-76899285D01*
X78208095Y-76994523D01*
%TO.C,D3*%
X69564380Y-44833095D02*
X68564380Y-44833095D01*
X68564380Y-44595000D01*
X68612000Y-44452142D01*
X68707238Y-44356904D01*
X68802476Y-44309285D01*
X68992952Y-44261666D01*
X69135809Y-44261666D01*
X69326285Y-44309285D01*
X69421523Y-44356904D01*
X69516761Y-44452142D01*
X69564380Y-44595000D01*
X69564380Y-44833095D01*
X68564380Y-43928333D02*
X68564380Y-43309285D01*
X68945333Y-43642619D01*
X68945333Y-43499761D01*
X68992952Y-43404523D01*
X69040571Y-43356904D01*
X69135809Y-43309285D01*
X69373904Y-43309285D01*
X69469142Y-43356904D01*
X69516761Y-43404523D01*
X69564380Y-43499761D01*
X69564380Y-43785476D01*
X69516761Y-43880714D01*
X69469142Y-43928333D01*
%TO.C,D1*%
X74136380Y-44715595D02*
X73136380Y-44715595D01*
X73136380Y-44477500D01*
X73184000Y-44334642D01*
X73279238Y-44239404D01*
X73374476Y-44191785D01*
X73564952Y-44144166D01*
X73707809Y-44144166D01*
X73898285Y-44191785D01*
X73993523Y-44239404D01*
X74088761Y-44334642D01*
X74136380Y-44477500D01*
X74136380Y-44715595D01*
X74136380Y-43191785D02*
X74136380Y-43763214D01*
X74136380Y-43477500D02*
X73136380Y-43477500D01*
X73279238Y-43572738D01*
X73374476Y-43667976D01*
X73422095Y-43763214D01*
%TO.C,R1*%
X82153333Y-50832380D02*
X81820000Y-50356190D01*
X81581904Y-50832380D02*
X81581904Y-49832380D01*
X81962857Y-49832380D01*
X82058095Y-49880000D01*
X82105714Y-49927619D01*
X82153333Y-50022857D01*
X82153333Y-50165714D01*
X82105714Y-50260952D01*
X82058095Y-50308571D01*
X81962857Y-50356190D01*
X81581904Y-50356190D01*
X83105714Y-50832380D02*
X82534285Y-50832380D01*
X82820000Y-50832380D02*
X82820000Y-49832380D01*
X82724761Y-49975238D01*
X82629523Y-50070476D01*
X82534285Y-50118095D01*
%TO.C,R8*%
X159623333Y-60992380D02*
X159290000Y-60516190D01*
X159051904Y-60992380D02*
X159051904Y-59992380D01*
X159432857Y-59992380D01*
X159528095Y-60040000D01*
X159575714Y-60087619D01*
X159623333Y-60182857D01*
X159623333Y-60325714D01*
X159575714Y-60420952D01*
X159528095Y-60468571D01*
X159432857Y-60516190D01*
X159051904Y-60516190D01*
X160194761Y-60420952D02*
X160099523Y-60373333D01*
X160051904Y-60325714D01*
X160004285Y-60230476D01*
X160004285Y-60182857D01*
X160051904Y-60087619D01*
X160099523Y-60040000D01*
X160194761Y-59992380D01*
X160385238Y-59992380D01*
X160480476Y-60040000D01*
X160528095Y-60087619D01*
X160575714Y-60182857D01*
X160575714Y-60230476D01*
X160528095Y-60325714D01*
X160480476Y-60373333D01*
X160385238Y-60420952D01*
X160194761Y-60420952D01*
X160099523Y-60468571D01*
X160051904Y-60516190D01*
X160004285Y-60611428D01*
X160004285Y-60801904D01*
X160051904Y-60897142D01*
X160099523Y-60944761D01*
X160194761Y-60992380D01*
X160385238Y-60992380D01*
X160480476Y-60944761D01*
X160528095Y-60897142D01*
X160575714Y-60801904D01*
X160575714Y-60611428D01*
X160528095Y-60516190D01*
X160480476Y-60468571D01*
X160385238Y-60420952D01*
%TO.C,R16*%
X69564380Y-40227857D02*
X69088190Y-40561190D01*
X69564380Y-40799285D02*
X68564380Y-40799285D01*
X68564380Y-40418333D01*
X68612000Y-40323095D01*
X68659619Y-40275476D01*
X68754857Y-40227857D01*
X68897714Y-40227857D01*
X68992952Y-40275476D01*
X69040571Y-40323095D01*
X69088190Y-40418333D01*
X69088190Y-40799285D01*
X69564380Y-39275476D02*
X69564380Y-39846904D01*
X69564380Y-39561190D02*
X68564380Y-39561190D01*
X68707238Y-39656428D01*
X68802476Y-39751666D01*
X68850095Y-39846904D01*
X68564380Y-38418333D02*
X68564380Y-38608809D01*
X68612000Y-38704047D01*
X68659619Y-38751666D01*
X68802476Y-38846904D01*
X68992952Y-38894523D01*
X69373904Y-38894523D01*
X69469142Y-38846904D01*
X69516761Y-38799285D01*
X69564380Y-38704047D01*
X69564380Y-38513571D01*
X69516761Y-38418333D01*
X69469142Y-38370714D01*
X69373904Y-38323095D01*
X69135809Y-38323095D01*
X69040571Y-38370714D01*
X68992952Y-38418333D01*
X68945333Y-38513571D01*
X68945333Y-38704047D01*
X68992952Y-38799285D01*
X69040571Y-38846904D01*
X69135809Y-38894523D01*
%TO.C,C8*%
X74301162Y-57147141D02*
X74253543Y-57194760D01*
X74110686Y-57242379D01*
X74015448Y-57242379D01*
X73872590Y-57194760D01*
X73777352Y-57099522D01*
X73729733Y-57004284D01*
X73682114Y-56813808D01*
X73682114Y-56670951D01*
X73729733Y-56480475D01*
X73777352Y-56385237D01*
X73872590Y-56289999D01*
X74015448Y-56242379D01*
X74110686Y-56242379D01*
X74253543Y-56289999D01*
X74301162Y-56337618D01*
X74872590Y-56670951D02*
X74777352Y-56623332D01*
X74729733Y-56575713D01*
X74682114Y-56480475D01*
X74682114Y-56432856D01*
X74729733Y-56337618D01*
X74777352Y-56289999D01*
X74872590Y-56242379D01*
X75063067Y-56242379D01*
X75158305Y-56289999D01*
X75205924Y-56337618D01*
X75253543Y-56432856D01*
X75253543Y-56480475D01*
X75205924Y-56575713D01*
X75158305Y-56623332D01*
X75063067Y-56670951D01*
X74872590Y-56670951D01*
X74777352Y-56718570D01*
X74729733Y-56766189D01*
X74682114Y-56861427D01*
X74682114Y-57051903D01*
X74729733Y-57147141D01*
X74777352Y-57194760D01*
X74872590Y-57242379D01*
X75063067Y-57242379D01*
X75158305Y-57194760D01*
X75205924Y-57147141D01*
X75253543Y-57051903D01*
X75253543Y-56861427D01*
X75205924Y-56766189D01*
X75158305Y-56718570D01*
X75063067Y-56670951D01*
%TO.C,C1*%
X141037142Y-96946554D02*
X141084761Y-96994173D01*
X141132380Y-97137030D01*
X141132380Y-97232268D01*
X141084761Y-97375126D01*
X140989523Y-97470364D01*
X140894285Y-97517983D01*
X140703809Y-97565602D01*
X140560952Y-97565602D01*
X140370476Y-97517983D01*
X140275238Y-97470364D01*
X140180000Y-97375126D01*
X140132380Y-97232268D01*
X140132380Y-97137030D01*
X140180000Y-96994173D01*
X140227619Y-96946554D01*
X141132380Y-95994173D02*
X141132380Y-96565602D01*
X141132380Y-96279888D02*
X140132380Y-96279888D01*
X140275238Y-96375126D01*
X140370476Y-96470364D01*
X140418095Y-96565602D01*
%TO.C,C29*%
X193127142Y-78327857D02*
X193174761Y-78375476D01*
X193222380Y-78518333D01*
X193222380Y-78613571D01*
X193174761Y-78756428D01*
X193079523Y-78851666D01*
X192984285Y-78899285D01*
X192793809Y-78946904D01*
X192650952Y-78946904D01*
X192460476Y-78899285D01*
X192365238Y-78851666D01*
X192270000Y-78756428D01*
X192222380Y-78613571D01*
X192222380Y-78518333D01*
X192270000Y-78375476D01*
X192317619Y-78327857D01*
X192317619Y-77946904D02*
X192270000Y-77899285D01*
X192222380Y-77804047D01*
X192222380Y-77565952D01*
X192270000Y-77470714D01*
X192317619Y-77423095D01*
X192412857Y-77375476D01*
X192508095Y-77375476D01*
X192650952Y-77423095D01*
X193222380Y-77994523D01*
X193222380Y-77375476D01*
X193222380Y-76899285D02*
X193222380Y-76708809D01*
X193174761Y-76613571D01*
X193127142Y-76565952D01*
X192984285Y-76470714D01*
X192793809Y-76423095D01*
X192412857Y-76423095D01*
X192317619Y-76470714D01*
X192270000Y-76518333D01*
X192222380Y-76613571D01*
X192222380Y-76804047D01*
X192270000Y-76899285D01*
X192317619Y-76946904D01*
X192412857Y-76994523D01*
X192650952Y-76994523D01*
X192746190Y-76946904D01*
X192793809Y-76899285D01*
X192841428Y-76804047D01*
X192841428Y-76613571D01*
X192793809Y-76518333D01*
X192746190Y-76470714D01*
X192650952Y-76423095D01*
%TO.C,R5*%
X110728333Y-57182380D02*
X110395000Y-56706190D01*
X110156904Y-57182380D02*
X110156904Y-56182380D01*
X110537857Y-56182380D01*
X110633095Y-56230000D01*
X110680714Y-56277619D01*
X110728333Y-56372857D01*
X110728333Y-56515714D01*
X110680714Y-56610952D01*
X110633095Y-56658571D01*
X110537857Y-56706190D01*
X110156904Y-56706190D01*
X111633095Y-56182380D02*
X111156904Y-56182380D01*
X111109285Y-56658571D01*
X111156904Y-56610952D01*
X111252142Y-56563333D01*
X111490238Y-56563333D01*
X111585476Y-56610952D01*
X111633095Y-56658571D01*
X111680714Y-56753809D01*
X111680714Y-56991904D01*
X111633095Y-57087142D01*
X111585476Y-57134761D01*
X111490238Y-57182380D01*
X111252142Y-57182380D01*
X111156904Y-57134761D01*
X111109285Y-57087142D01*
%TO.C,C25*%
X193437142Y-60897142D02*
X193389523Y-60944761D01*
X193246666Y-60992380D01*
X193151428Y-60992380D01*
X193008571Y-60944761D01*
X192913333Y-60849523D01*
X192865714Y-60754285D01*
X192818095Y-60563809D01*
X192818095Y-60420952D01*
X192865714Y-60230476D01*
X192913333Y-60135238D01*
X193008571Y-60040000D01*
X193151428Y-59992380D01*
X193246666Y-59992380D01*
X193389523Y-60040000D01*
X193437142Y-60087619D01*
X193818095Y-60087619D02*
X193865714Y-60040000D01*
X193960952Y-59992380D01*
X194199047Y-59992380D01*
X194294285Y-60040000D01*
X194341904Y-60087619D01*
X194389523Y-60182857D01*
X194389523Y-60278095D01*
X194341904Y-60420952D01*
X193770476Y-60992380D01*
X194389523Y-60992380D01*
X195294285Y-59992380D02*
X194818095Y-59992380D01*
X194770476Y-60468571D01*
X194818095Y-60420952D01*
X194913333Y-60373333D01*
X195151428Y-60373333D01*
X195246666Y-60420952D01*
X195294285Y-60468571D01*
X195341904Y-60563809D01*
X195341904Y-60801904D01*
X195294285Y-60897142D01*
X195246666Y-60944761D01*
X195151428Y-60992380D01*
X194913333Y-60992380D01*
X194818095Y-60944761D01*
X194770476Y-60897142D01*
%TO.C,C27*%
X141037142Y-78597857D02*
X141084761Y-78645476D01*
X141132380Y-78788333D01*
X141132380Y-78883571D01*
X141084761Y-79026428D01*
X140989523Y-79121666D01*
X140894285Y-79169285D01*
X140703809Y-79216904D01*
X140560952Y-79216904D01*
X140370476Y-79169285D01*
X140275238Y-79121666D01*
X140180000Y-79026428D01*
X140132380Y-78883571D01*
X140132380Y-78788333D01*
X140180000Y-78645476D01*
X140227619Y-78597857D01*
X140227619Y-78216904D02*
X140180000Y-78169285D01*
X140132380Y-78074047D01*
X140132380Y-77835952D01*
X140180000Y-77740714D01*
X140227619Y-77693095D01*
X140322857Y-77645476D01*
X140418095Y-77645476D01*
X140560952Y-77693095D01*
X141132380Y-78264523D01*
X141132380Y-77645476D01*
X140132380Y-77312142D02*
X140132380Y-76645476D01*
X141132380Y-77074047D01*
%TO.C,C17*%
X89071681Y-97453161D02*
X89119300Y-97500780D01*
X89166919Y-97643637D01*
X89166919Y-97738875D01*
X89119300Y-97881732D01*
X89024062Y-97976970D01*
X88928824Y-98024589D01*
X88738348Y-98072208D01*
X88595491Y-98072208D01*
X88405015Y-98024589D01*
X88309777Y-97976970D01*
X88214539Y-97881732D01*
X88166919Y-97738875D01*
X88166919Y-97643637D01*
X88214539Y-97500780D01*
X88262158Y-97453161D01*
X89166919Y-96500780D02*
X89166919Y-97072208D01*
X89166919Y-96786494D02*
X88166919Y-96786494D01*
X88309777Y-96881732D01*
X88405015Y-96976970D01*
X88452634Y-97072208D01*
X88166919Y-96167446D02*
X88166919Y-95500780D01*
X89166919Y-95929351D01*
%TO.C,C4*%
X193127142Y-96861666D02*
X193174761Y-96909285D01*
X193222380Y-97052142D01*
X193222380Y-97147380D01*
X193174761Y-97290238D01*
X193079523Y-97385476D01*
X192984285Y-97433095D01*
X192793809Y-97480714D01*
X192650952Y-97480714D01*
X192460476Y-97433095D01*
X192365238Y-97385476D01*
X192270000Y-97290238D01*
X192222380Y-97147380D01*
X192222380Y-97052142D01*
X192270000Y-96909285D01*
X192317619Y-96861666D01*
X192555714Y-96004523D02*
X193222380Y-96004523D01*
X192174761Y-96242619D02*
X192889047Y-96480714D01*
X192889047Y-95861666D01*
%TO.C,D2*%
X78454380Y-44805595D02*
X77454380Y-44805595D01*
X77454380Y-44567500D01*
X77502000Y-44424642D01*
X77597238Y-44329404D01*
X77692476Y-44281785D01*
X77882952Y-44234166D01*
X78025809Y-44234166D01*
X78216285Y-44281785D01*
X78311523Y-44329404D01*
X78406761Y-44424642D01*
X78454380Y-44567500D01*
X78454380Y-44805595D01*
X77549619Y-43853214D02*
X77502000Y-43805595D01*
X77454380Y-43710357D01*
X77454380Y-43472261D01*
X77502000Y-43377023D01*
X77549619Y-43329404D01*
X77644857Y-43281785D01*
X77740095Y-43281785D01*
X77882952Y-43329404D01*
X78454380Y-43900833D01*
X78454380Y-43281785D01*
%TO.C,C9*%
X74578220Y-118047142D02*
X74530601Y-118094761D01*
X74387744Y-118142380D01*
X74292506Y-118142380D01*
X74149648Y-118094761D01*
X74054410Y-117999523D01*
X74006791Y-117904285D01*
X73959172Y-117713809D01*
X73959172Y-117570952D01*
X74006791Y-117380476D01*
X74054410Y-117285238D01*
X74149648Y-117190000D01*
X74292506Y-117142380D01*
X74387744Y-117142380D01*
X74530601Y-117190000D01*
X74578220Y-117237619D01*
X75054410Y-118142380D02*
X75244887Y-118142380D01*
X75340125Y-118094761D01*
X75387744Y-118047142D01*
X75482982Y-117904285D01*
X75530601Y-117713809D01*
X75530601Y-117332857D01*
X75482982Y-117237619D01*
X75435363Y-117190000D01*
X75340125Y-117142380D01*
X75149648Y-117142380D01*
X75054410Y-117190000D01*
X75006791Y-117237619D01*
X74959172Y-117332857D01*
X74959172Y-117570952D01*
X75006791Y-117666190D01*
X75054410Y-117713809D01*
X75149648Y-117761428D01*
X75340125Y-117761428D01*
X75435363Y-117713809D01*
X75482982Y-117666190D01*
X75530601Y-117570952D01*
%TO.C,C19*%
X79817029Y-118047142D02*
X79769410Y-118094761D01*
X79626553Y-118142380D01*
X79531315Y-118142380D01*
X79388458Y-118094761D01*
X79293220Y-117999523D01*
X79245601Y-117904285D01*
X79197982Y-117713809D01*
X79197982Y-117570952D01*
X79245601Y-117380476D01*
X79293220Y-117285238D01*
X79388458Y-117190000D01*
X79531315Y-117142380D01*
X79626553Y-117142380D01*
X79769410Y-117190000D01*
X79817029Y-117237619D01*
X80769410Y-118142380D02*
X80197982Y-118142380D01*
X80483696Y-118142380D02*
X80483696Y-117142380D01*
X80388458Y-117285238D01*
X80293220Y-117380476D01*
X80197982Y-117428095D01*
X81245601Y-118142380D02*
X81436077Y-118142380D01*
X81531315Y-118094761D01*
X81578934Y-118047142D01*
X81674172Y-117904285D01*
X81721791Y-117713809D01*
X81721791Y-117332857D01*
X81674172Y-117237619D01*
X81626553Y-117190000D01*
X81531315Y-117142380D01*
X81340839Y-117142380D01*
X81245601Y-117190000D01*
X81197982Y-117237619D01*
X81150363Y-117332857D01*
X81150363Y-117570952D01*
X81197982Y-117666190D01*
X81245601Y-117713809D01*
X81340839Y-117761428D01*
X81531315Y-117761428D01*
X81626553Y-117713809D01*
X81674172Y-117666190D01*
X81721791Y-117570952D01*
%TO.C,C30*%
X141057142Y-115157857D02*
X141104761Y-115205476D01*
X141152380Y-115348333D01*
X141152380Y-115443571D01*
X141104761Y-115586428D01*
X141009523Y-115681666D01*
X140914285Y-115729285D01*
X140723809Y-115776904D01*
X140580952Y-115776904D01*
X140390476Y-115729285D01*
X140295238Y-115681666D01*
X140200000Y-115586428D01*
X140152380Y-115443571D01*
X140152380Y-115348333D01*
X140200000Y-115205476D01*
X140247619Y-115157857D01*
X140152380Y-114824523D02*
X140152380Y-114205476D01*
X140533333Y-114538809D01*
X140533333Y-114395952D01*
X140580952Y-114300714D01*
X140628571Y-114253095D01*
X140723809Y-114205476D01*
X140961904Y-114205476D01*
X141057142Y-114253095D01*
X141104761Y-114300714D01*
X141152380Y-114395952D01*
X141152380Y-114681666D01*
X141104761Y-114776904D01*
X141057142Y-114824523D01*
X140152380Y-113586428D02*
X140152380Y-113491190D01*
X140200000Y-113395952D01*
X140247619Y-113348333D01*
X140342857Y-113300714D01*
X140533333Y-113253095D01*
X140771428Y-113253095D01*
X140961904Y-113300714D01*
X141057142Y-113348333D01*
X141104761Y-113395952D01*
X141152380Y-113491190D01*
X141152380Y-113586428D01*
X141104761Y-113681666D01*
X141057142Y-113729285D01*
X140961904Y-113776904D01*
X140771428Y-113824523D01*
X140533333Y-113824523D01*
X140342857Y-113776904D01*
X140247619Y-113729285D01*
X140200000Y-113681666D01*
X140152380Y-113586428D01*
%TO.C,C3*%
X68863220Y-118047142D02*
X68815601Y-118094761D01*
X68672744Y-118142380D01*
X68577506Y-118142380D01*
X68434648Y-118094761D01*
X68339410Y-117999523D01*
X68291791Y-117904285D01*
X68244172Y-117713809D01*
X68244172Y-117570952D01*
X68291791Y-117380476D01*
X68339410Y-117285238D01*
X68434648Y-117190000D01*
X68577506Y-117142380D01*
X68672744Y-117142380D01*
X68815601Y-117190000D01*
X68863220Y-117237619D01*
X69196553Y-117142380D02*
X69815601Y-117142380D01*
X69482267Y-117523333D01*
X69625125Y-117523333D01*
X69720363Y-117570952D01*
X69767982Y-117618571D01*
X69815601Y-117713809D01*
X69815601Y-117951904D01*
X69767982Y-118047142D01*
X69720363Y-118094761D01*
X69625125Y-118142380D01*
X69339410Y-118142380D01*
X69244172Y-118094761D01*
X69196553Y-118047142D01*
%TO.C,C24*%
X83907142Y-97377857D02*
X83954761Y-97425476D01*
X84002380Y-97568333D01*
X84002380Y-97663571D01*
X83954761Y-97806428D01*
X83859523Y-97901666D01*
X83764285Y-97949285D01*
X83573809Y-97996904D01*
X83430952Y-97996904D01*
X83240476Y-97949285D01*
X83145238Y-97901666D01*
X83050000Y-97806428D01*
X83002380Y-97663571D01*
X83002380Y-97568333D01*
X83050000Y-97425476D01*
X83097619Y-97377857D01*
X83097619Y-96996904D02*
X83050000Y-96949285D01*
X83002380Y-96854047D01*
X83002380Y-96615952D01*
X83050000Y-96520714D01*
X83097619Y-96473095D01*
X83192857Y-96425476D01*
X83288095Y-96425476D01*
X83430952Y-96473095D01*
X84002380Y-97044523D01*
X84002380Y-96425476D01*
X83335714Y-95568333D02*
X84002380Y-95568333D01*
X82954761Y-95806428D02*
X83669047Y-96044523D01*
X83669047Y-95425476D01*
%TO.C,C5*%
X73747142Y-77851666D02*
X73794761Y-77899285D01*
X73842380Y-78042142D01*
X73842380Y-78137380D01*
X73794761Y-78280238D01*
X73699523Y-78375476D01*
X73604285Y-78423095D01*
X73413809Y-78470714D01*
X73270952Y-78470714D01*
X73080476Y-78423095D01*
X72985238Y-78375476D01*
X72890000Y-78280238D01*
X72842380Y-78137380D01*
X72842380Y-78042142D01*
X72890000Y-77899285D01*
X72937619Y-77851666D01*
X72842380Y-76946904D02*
X72842380Y-77423095D01*
X73318571Y-77470714D01*
X73270952Y-77423095D01*
X73223333Y-77327857D01*
X73223333Y-77089761D01*
X73270952Y-76994523D01*
X73318571Y-76946904D01*
X73413809Y-76899285D01*
X73651904Y-76899285D01*
X73747142Y-76946904D01*
X73794761Y-76994523D01*
X73842380Y-77089761D01*
X73842380Y-77327857D01*
X73794761Y-77423095D01*
X73747142Y-77470714D01*
%TO.C,R3*%
X92313333Y-60992380D02*
X91980000Y-60516190D01*
X91741904Y-60992380D02*
X91741904Y-59992380D01*
X92122857Y-59992380D01*
X92218095Y-60040000D01*
X92265714Y-60087619D01*
X92313333Y-60182857D01*
X92313333Y-60325714D01*
X92265714Y-60420952D01*
X92218095Y-60468571D01*
X92122857Y-60516190D01*
X91741904Y-60516190D01*
X92646666Y-59992380D02*
X93265714Y-59992380D01*
X92932380Y-60373333D01*
X93075238Y-60373333D01*
X93170476Y-60420952D01*
X93218095Y-60468571D01*
X93265714Y-60563809D01*
X93265714Y-60801904D01*
X93218095Y-60897142D01*
X93170476Y-60944761D01*
X93075238Y-60992380D01*
X92789523Y-60992380D01*
X92694285Y-60944761D01*
X92646666Y-60897142D01*
%TO.C,J3*%
X60532380Y-68493333D02*
X61246666Y-68493333D01*
X61389523Y-68540952D01*
X61484761Y-68636190D01*
X61532380Y-68779047D01*
X61532380Y-68874285D01*
X60532380Y-68112380D02*
X60532380Y-67493333D01*
X60913333Y-67826666D01*
X60913333Y-67683809D01*
X60960952Y-67588571D01*
X61008571Y-67540952D01*
X61103809Y-67493333D01*
X61341904Y-67493333D01*
X61437142Y-67540952D01*
X61484761Y-67588571D01*
X61532380Y-67683809D01*
X61532380Y-67969523D01*
X61484761Y-68064761D01*
X61437142Y-68112380D01*
%TO.C,C28*%
X139462142Y-60897142D02*
X139414523Y-60944761D01*
X139271666Y-60992380D01*
X139176428Y-60992380D01*
X139033571Y-60944761D01*
X138938333Y-60849523D01*
X138890714Y-60754285D01*
X138843095Y-60563809D01*
X138843095Y-60420952D01*
X138890714Y-60230476D01*
X138938333Y-60135238D01*
X139033571Y-60040000D01*
X139176428Y-59992380D01*
X139271666Y-59992380D01*
X139414523Y-60040000D01*
X139462142Y-60087619D01*
X139843095Y-60087619D02*
X139890714Y-60040000D01*
X139985952Y-59992380D01*
X140224047Y-59992380D01*
X140319285Y-60040000D01*
X140366904Y-60087619D01*
X140414523Y-60182857D01*
X140414523Y-60278095D01*
X140366904Y-60420952D01*
X139795476Y-60992380D01*
X140414523Y-60992380D01*
X140985952Y-60420952D02*
X140890714Y-60373333D01*
X140843095Y-60325714D01*
X140795476Y-60230476D01*
X140795476Y-60182857D01*
X140843095Y-60087619D01*
X140890714Y-60040000D01*
X140985952Y-59992380D01*
X141176428Y-59992380D01*
X141271666Y-60040000D01*
X141319285Y-60087619D01*
X141366904Y-60182857D01*
X141366904Y-60230476D01*
X141319285Y-60325714D01*
X141271666Y-60373333D01*
X141176428Y-60420952D01*
X140985952Y-60420952D01*
X140890714Y-60468571D01*
X140843095Y-60516190D01*
X140795476Y-60611428D01*
X140795476Y-60801904D01*
X140843095Y-60897142D01*
X140890714Y-60944761D01*
X140985952Y-60992380D01*
X141176428Y-60992380D01*
X141271666Y-60944761D01*
X141319285Y-60897142D01*
X141366904Y-60801904D01*
X141366904Y-60611428D01*
X141319285Y-60516190D01*
X141271666Y-60468571D01*
X141176428Y-60420952D01*
%TO.C,R17*%
X83026380Y-40227857D02*
X82550190Y-40561190D01*
X83026380Y-40799285D02*
X82026380Y-40799285D01*
X82026380Y-40418333D01*
X82074000Y-40323095D01*
X82121619Y-40275476D01*
X82216857Y-40227857D01*
X82359714Y-40227857D01*
X82454952Y-40275476D01*
X82502571Y-40323095D01*
X82550190Y-40418333D01*
X82550190Y-40799285D01*
X83026380Y-39275476D02*
X83026380Y-39846904D01*
X83026380Y-39561190D02*
X82026380Y-39561190D01*
X82169238Y-39656428D01*
X82264476Y-39751666D01*
X82312095Y-39846904D01*
X82026380Y-38942142D02*
X82026380Y-38275476D01*
X83026380Y-38704047D01*
%TO.C,C10*%
X78827142Y-97377857D02*
X78874761Y-97425476D01*
X78922380Y-97568333D01*
X78922380Y-97663571D01*
X78874761Y-97806428D01*
X78779523Y-97901666D01*
X78684285Y-97949285D01*
X78493809Y-97996904D01*
X78350952Y-97996904D01*
X78160476Y-97949285D01*
X78065238Y-97901666D01*
X77970000Y-97806428D01*
X77922380Y-97663571D01*
X77922380Y-97568333D01*
X77970000Y-97425476D01*
X78017619Y-97377857D01*
X78922380Y-96425476D02*
X78922380Y-96996904D01*
X78922380Y-96711190D02*
X77922380Y-96711190D01*
X78065238Y-96806428D01*
X78160476Y-96901666D01*
X78208095Y-96996904D01*
X77922380Y-95806428D02*
X77922380Y-95711190D01*
X77970000Y-95615952D01*
X78017619Y-95568333D01*
X78112857Y-95520714D01*
X78303333Y-95473095D01*
X78541428Y-95473095D01*
X78731904Y-95520714D01*
X78827142Y-95568333D01*
X78874761Y-95615952D01*
X78922380Y-95711190D01*
X78922380Y-95806428D01*
X78874761Y-95901666D01*
X78827142Y-95949285D01*
X78731904Y-95996904D01*
X78541428Y-96044523D01*
X78303333Y-96044523D01*
X78112857Y-95996904D01*
X78017619Y-95949285D01*
X77970000Y-95901666D01*
X77922380Y-95806428D01*
%TO.C,R14*%
X74136380Y-40227857D02*
X73660190Y-40561190D01*
X74136380Y-40799285D02*
X73136380Y-40799285D01*
X73136380Y-40418333D01*
X73184000Y-40323095D01*
X73231619Y-40275476D01*
X73326857Y-40227857D01*
X73469714Y-40227857D01*
X73564952Y-40275476D01*
X73612571Y-40323095D01*
X73660190Y-40418333D01*
X73660190Y-40799285D01*
X74136380Y-39275476D02*
X74136380Y-39846904D01*
X74136380Y-39561190D02*
X73136380Y-39561190D01*
X73279238Y-39656428D01*
X73374476Y-39751666D01*
X73422095Y-39846904D01*
X73469714Y-38418333D02*
X74136380Y-38418333D01*
X73088761Y-38656428D02*
X73803047Y-38894523D01*
X73803047Y-38275476D01*
%TO.C,R9*%
X159623333Y-57182380D02*
X159290000Y-56706190D01*
X159051904Y-57182380D02*
X159051904Y-56182380D01*
X159432857Y-56182380D01*
X159528095Y-56230000D01*
X159575714Y-56277619D01*
X159623333Y-56372857D01*
X159623333Y-56515714D01*
X159575714Y-56610952D01*
X159528095Y-56658571D01*
X159432857Y-56706190D01*
X159051904Y-56706190D01*
X160099523Y-57182380D02*
X160290000Y-57182380D01*
X160385238Y-57134761D01*
X160432857Y-57087142D01*
X160528095Y-56944285D01*
X160575714Y-56753809D01*
X160575714Y-56372857D01*
X160528095Y-56277619D01*
X160480476Y-56230000D01*
X160385238Y-56182380D01*
X160194761Y-56182380D01*
X160099523Y-56230000D01*
X160051904Y-56277619D01*
X160004285Y-56372857D01*
X160004285Y-56610952D01*
X160051904Y-56706190D01*
X160099523Y-56753809D01*
X160194761Y-56801428D01*
X160385238Y-56801428D01*
X160480476Y-56753809D01*
X160528095Y-56706190D01*
X160575714Y-56610952D01*
%TO.C,R7*%
X179308333Y-54007380D02*
X178975000Y-53531190D01*
X178736904Y-54007380D02*
X178736904Y-53007380D01*
X179117857Y-53007380D01*
X179213095Y-53055000D01*
X179260714Y-53102619D01*
X179308333Y-53197857D01*
X179308333Y-53340714D01*
X179260714Y-53435952D01*
X179213095Y-53483571D01*
X179117857Y-53531190D01*
X178736904Y-53531190D01*
X179641666Y-53007380D02*
X180308333Y-53007380D01*
X179879761Y-54007380D01*
%TO.C,R10*%
X179467142Y-57817380D02*
X179133809Y-57341190D01*
X178895714Y-57817380D02*
X178895714Y-56817380D01*
X179276666Y-56817380D01*
X179371904Y-56865000D01*
X179419523Y-56912619D01*
X179467142Y-57007857D01*
X179467142Y-57150714D01*
X179419523Y-57245952D01*
X179371904Y-57293571D01*
X179276666Y-57341190D01*
X178895714Y-57341190D01*
X180419523Y-57817380D02*
X179848095Y-57817380D01*
X180133809Y-57817380D02*
X180133809Y-56817380D01*
X180038571Y-56960238D01*
X179943333Y-57055476D01*
X179848095Y-57103095D01*
X181038571Y-56817380D02*
X181133809Y-56817380D01*
X181229047Y-56865000D01*
X181276666Y-56912619D01*
X181324285Y-57007857D01*
X181371904Y-57198333D01*
X181371904Y-57436428D01*
X181324285Y-57626904D01*
X181276666Y-57722142D01*
X181229047Y-57769761D01*
X181133809Y-57817380D01*
X181038571Y-57817380D01*
X180943333Y-57769761D01*
X180895714Y-57722142D01*
X180848095Y-57626904D01*
X180800476Y-57436428D01*
X180800476Y-57198333D01*
X180848095Y-57007857D01*
X180895714Y-56912619D01*
X180943333Y-56865000D01*
X181038571Y-56817380D01*
%TO.C,C26*%
X189953406Y-117929221D02*
X189905787Y-117976840D01*
X189762930Y-118024459D01*
X189667692Y-118024459D01*
X189524835Y-117976840D01*
X189429597Y-117881602D01*
X189381978Y-117786364D01*
X189334359Y-117595888D01*
X189334359Y-117453031D01*
X189381978Y-117262555D01*
X189429597Y-117167317D01*
X189524835Y-117072079D01*
X189667692Y-117024459D01*
X189762930Y-117024459D01*
X189905787Y-117072079D01*
X189953406Y-117119698D01*
X190334359Y-117119698D02*
X190381978Y-117072079D01*
X190477216Y-117024459D01*
X190715311Y-117024459D01*
X190810549Y-117072079D01*
X190858168Y-117119698D01*
X190905787Y-117214936D01*
X190905787Y-117310174D01*
X190858168Y-117453031D01*
X190286740Y-118024459D01*
X190905787Y-118024459D01*
X191762930Y-117024459D02*
X191572454Y-117024459D01*
X191477216Y-117072079D01*
X191429597Y-117119698D01*
X191334359Y-117262555D01*
X191286740Y-117453031D01*
X191286740Y-117833983D01*
X191334359Y-117929221D01*
X191381978Y-117976840D01*
X191477216Y-118024459D01*
X191667692Y-118024459D01*
X191762930Y-117976840D01*
X191810549Y-117929221D01*
X191858168Y-117833983D01*
X191858168Y-117595888D01*
X191810549Y-117500650D01*
X191762930Y-117453031D01*
X191667692Y-117405412D01*
X191477216Y-117405412D01*
X191381978Y-117453031D01*
X191334359Y-117500650D01*
X191286740Y-117595888D01*
%TO.C,J2*%
X60532380Y-87543333D02*
X61246666Y-87543333D01*
X61389523Y-87590952D01*
X61484761Y-87686190D01*
X61532380Y-87829047D01*
X61532380Y-87924285D01*
X60627619Y-87114761D02*
X60580000Y-87067142D01*
X60532380Y-86971904D01*
X60532380Y-86733809D01*
X60580000Y-86638571D01*
X60627619Y-86590952D01*
X60722857Y-86543333D01*
X60818095Y-86543333D01*
X60960952Y-86590952D01*
X61532380Y-87162380D01*
X61532380Y-86543333D01*
%TO.C,R13*%
X91202142Y-53372380D02*
X90868809Y-52896190D01*
X90630714Y-53372380D02*
X90630714Y-52372380D01*
X91011666Y-52372380D01*
X91106904Y-52420000D01*
X91154523Y-52467619D01*
X91202142Y-52562857D01*
X91202142Y-52705714D01*
X91154523Y-52800952D01*
X91106904Y-52848571D01*
X91011666Y-52896190D01*
X90630714Y-52896190D01*
X92154523Y-53372380D02*
X91583095Y-53372380D01*
X91868809Y-53372380D02*
X91868809Y-52372380D01*
X91773571Y-52515238D01*
X91678333Y-52610476D01*
X91583095Y-52658095D01*
X92487857Y-52372380D02*
X93106904Y-52372380D01*
X92773571Y-52753333D01*
X92916428Y-52753333D01*
X93011666Y-52800952D01*
X93059285Y-52848571D01*
X93106904Y-52943809D01*
X93106904Y-53181904D01*
X93059285Y-53277142D01*
X93011666Y-53324761D01*
X92916428Y-53372380D01*
X92630714Y-53372380D01*
X92535476Y-53324761D01*
X92487857Y-53277142D01*
%TO.C,R11*%
X110252142Y-60992380D02*
X109918809Y-60516190D01*
X109680714Y-60992380D02*
X109680714Y-59992380D01*
X110061666Y-59992380D01*
X110156904Y-60040000D01*
X110204523Y-60087619D01*
X110252142Y-60182857D01*
X110252142Y-60325714D01*
X110204523Y-60420952D01*
X110156904Y-60468571D01*
X110061666Y-60516190D01*
X109680714Y-60516190D01*
X111204523Y-60992380D02*
X110633095Y-60992380D01*
X110918809Y-60992380D02*
X110918809Y-59992380D01*
X110823571Y-60135238D01*
X110728333Y-60230476D01*
X110633095Y-60278095D01*
X112156904Y-60992380D02*
X111585476Y-60992380D01*
X111871190Y-60992380D02*
X111871190Y-59992380D01*
X111775952Y-60135238D01*
X111680714Y-60230476D01*
X111585476Y-60278095D01*
%TO.C,C21*%
X79712071Y-57087142D02*
X79664452Y-57134761D01*
X79521595Y-57182380D01*
X79426357Y-57182380D01*
X79283500Y-57134761D01*
X79188262Y-57039523D01*
X79140643Y-56944285D01*
X79093024Y-56753809D01*
X79093024Y-56610952D01*
X79140643Y-56420476D01*
X79188262Y-56325238D01*
X79283500Y-56230000D01*
X79426357Y-56182380D01*
X79521595Y-56182380D01*
X79664452Y-56230000D01*
X79712071Y-56277619D01*
X80093024Y-56277619D02*
X80140643Y-56230000D01*
X80235881Y-56182380D01*
X80473976Y-56182380D01*
X80569214Y-56230000D01*
X80616833Y-56277619D01*
X80664452Y-56372857D01*
X80664452Y-56468095D01*
X80616833Y-56610952D01*
X80045405Y-57182380D01*
X80664452Y-57182380D01*
X81616833Y-57182380D02*
X81045405Y-57182380D01*
X81331119Y-57182380D02*
X81331119Y-56182380D01*
X81235881Y-56325238D01*
X81140643Y-56420476D01*
X81045405Y-56468095D01*
%TO.C,C22*%
X83907142Y-78327857D02*
X83954761Y-78375476D01*
X84002380Y-78518333D01*
X84002380Y-78613571D01*
X83954761Y-78756428D01*
X83859523Y-78851666D01*
X83764285Y-78899285D01*
X83573809Y-78946904D01*
X83430952Y-78946904D01*
X83240476Y-78899285D01*
X83145238Y-78851666D01*
X83050000Y-78756428D01*
X83002380Y-78613571D01*
X83002380Y-78518333D01*
X83050000Y-78375476D01*
X83097619Y-78327857D01*
X83097619Y-77946904D02*
X83050000Y-77899285D01*
X83002380Y-77804047D01*
X83002380Y-77565952D01*
X83050000Y-77470714D01*
X83097619Y-77423095D01*
X83192857Y-77375476D01*
X83288095Y-77375476D01*
X83430952Y-77423095D01*
X84002380Y-77994523D01*
X84002380Y-77375476D01*
X83097619Y-76994523D02*
X83050000Y-76946904D01*
X83002380Y-76851666D01*
X83002380Y-76613571D01*
X83050000Y-76518333D01*
X83097619Y-76470714D01*
X83192857Y-76423095D01*
X83288095Y-76423095D01*
X83430952Y-76470714D01*
X84002380Y-77042142D01*
X84002380Y-76423095D01*
%TO.C,D4*%
X83026380Y-44808095D02*
X82026380Y-44808095D01*
X82026380Y-44570000D01*
X82074000Y-44427142D01*
X82169238Y-44331904D01*
X82264476Y-44284285D01*
X82454952Y-44236666D01*
X82597809Y-44236666D01*
X82788285Y-44284285D01*
X82883523Y-44331904D01*
X82978761Y-44427142D01*
X83026380Y-44570000D01*
X83026380Y-44808095D01*
X82359714Y-43379523D02*
X83026380Y-43379523D01*
X81978761Y-43617619D02*
X82693047Y-43855714D01*
X82693047Y-43236666D01*
%TO.C,C16*%
X88987142Y-78327857D02*
X89034761Y-78375476D01*
X89082380Y-78518333D01*
X89082380Y-78613571D01*
X89034761Y-78756428D01*
X88939523Y-78851666D01*
X88844285Y-78899285D01*
X88653809Y-78946904D01*
X88510952Y-78946904D01*
X88320476Y-78899285D01*
X88225238Y-78851666D01*
X88130000Y-78756428D01*
X88082380Y-78613571D01*
X88082380Y-78518333D01*
X88130000Y-78375476D01*
X88177619Y-78327857D01*
X89082380Y-77375476D02*
X89082380Y-77946904D01*
X89082380Y-77661190D02*
X88082380Y-77661190D01*
X88225238Y-77756428D01*
X88320476Y-77851666D01*
X88368095Y-77946904D01*
X88082380Y-76518333D02*
X88082380Y-76708809D01*
X88130000Y-76804047D01*
X88177619Y-76851666D01*
X88320476Y-76946904D01*
X88510952Y-76994523D01*
X88891904Y-76994523D01*
X88987142Y-76946904D01*
X89034761Y-76899285D01*
X89082380Y-76804047D01*
X89082380Y-76613571D01*
X89034761Y-76518333D01*
X88987142Y-76470714D01*
X88891904Y-76423095D01*
X88653809Y-76423095D01*
X88558571Y-76470714D01*
X88510952Y-76518333D01*
X88463333Y-76613571D01*
X88463333Y-76804047D01*
X88510952Y-76899285D01*
X88558571Y-76946904D01*
X88653809Y-76994523D01*
%TO.C,C2*%
X68453333Y-57087142D02*
X68405714Y-57134761D01*
X68262857Y-57182380D01*
X68167619Y-57182380D01*
X68024761Y-57134761D01*
X67929523Y-57039523D01*
X67881904Y-56944285D01*
X67834285Y-56753809D01*
X67834285Y-56610952D01*
X67881904Y-56420476D01*
X67929523Y-56325238D01*
X68024761Y-56230000D01*
X68167619Y-56182380D01*
X68262857Y-56182380D01*
X68405714Y-56230000D01*
X68453333Y-56277619D01*
X68834285Y-56277619D02*
X68881904Y-56230000D01*
X68977142Y-56182380D01*
X69215238Y-56182380D01*
X69310476Y-56230000D01*
X69358095Y-56277619D01*
X69405714Y-56372857D01*
X69405714Y-56468095D01*
X69358095Y-56610952D01*
X68786666Y-57182380D01*
X69405714Y-57182380D01*
%TO.C,J1*%
X60532380Y-106593333D02*
X61246666Y-106593333D01*
X61389523Y-106640952D01*
X61484761Y-106736190D01*
X61532380Y-106879047D01*
X61532380Y-106974285D01*
X61532380Y-105593333D02*
X61532380Y-106164761D01*
X61532380Y-105879047D02*
X60532380Y-105879047D01*
X60675238Y-105974285D01*
X60770476Y-106069523D01*
X60818095Y-106164761D01*
%TO.C,R2*%
X92313333Y-57182380D02*
X91980000Y-56706190D01*
X91741904Y-57182380D02*
X91741904Y-56182380D01*
X92122857Y-56182380D01*
X92218095Y-56230000D01*
X92265714Y-56277619D01*
X92313333Y-56372857D01*
X92313333Y-56515714D01*
X92265714Y-56610952D01*
X92218095Y-56658571D01*
X92122857Y-56706190D01*
X91741904Y-56706190D01*
X92694285Y-56277619D02*
X92741904Y-56230000D01*
X92837142Y-56182380D01*
X93075238Y-56182380D01*
X93170476Y-56230000D01*
X93218095Y-56277619D01*
X93265714Y-56372857D01*
X93265714Y-56468095D01*
X93218095Y-56610952D01*
X92646666Y-57182380D01*
X93265714Y-57182380D01*
%TO.C,C15*%
X85532030Y-57110910D02*
X85484411Y-57158529D01*
X85341554Y-57206148D01*
X85246316Y-57206148D01*
X85103459Y-57158529D01*
X85008221Y-57063291D01*
X84960602Y-56968053D01*
X84912983Y-56777577D01*
X84912983Y-56634720D01*
X84960602Y-56444244D01*
X85008221Y-56349006D01*
X85103459Y-56253768D01*
X85246316Y-56206148D01*
X85341554Y-56206148D01*
X85484411Y-56253768D01*
X85532030Y-56301387D01*
X86484411Y-57206148D02*
X85912983Y-57206148D01*
X86198697Y-57206148D02*
X86198697Y-56206148D01*
X86103459Y-56349006D01*
X86008221Y-56444244D01*
X85912983Y-56491863D01*
X87389173Y-56206148D02*
X86912983Y-56206148D01*
X86865364Y-56682339D01*
X86912983Y-56634720D01*
X87008221Y-56587101D01*
X87246316Y-56587101D01*
X87341554Y-56634720D01*
X87389173Y-56682339D01*
X87436792Y-56777577D01*
X87436792Y-57015672D01*
X87389173Y-57110910D01*
X87341554Y-57158529D01*
X87246316Y-57206148D01*
X87008221Y-57206148D01*
X86912983Y-57158529D01*
X86865364Y-57110910D01*
%TO.C,C6*%
X73757142Y-96901666D02*
X73804761Y-96949285D01*
X73852380Y-97092142D01*
X73852380Y-97187380D01*
X73804761Y-97330238D01*
X73709523Y-97425476D01*
X73614285Y-97473095D01*
X73423809Y-97520714D01*
X73280952Y-97520714D01*
X73090476Y-97473095D01*
X72995238Y-97425476D01*
X72900000Y-97330238D01*
X72852380Y-97187380D01*
X72852380Y-97092142D01*
X72900000Y-96949285D01*
X72947619Y-96901666D01*
X72852380Y-96044523D02*
X72852380Y-96235000D01*
X72900000Y-96330238D01*
X72947619Y-96377857D01*
X73090476Y-96473095D01*
X73280952Y-96520714D01*
X73661904Y-96520714D01*
X73757142Y-96473095D01*
X73804761Y-96425476D01*
X73852380Y-96330238D01*
X73852380Y-96139761D01*
X73804761Y-96044523D01*
X73757142Y-95996904D01*
X73661904Y-95949285D01*
X73423809Y-95949285D01*
X73328571Y-95996904D01*
X73280952Y-96044523D01*
X73233333Y-96139761D01*
X73233333Y-96330238D01*
X73280952Y-96425476D01*
X73328571Y-96473095D01*
X73423809Y-96520714D01*
%TO.C,J5*%
X134056666Y-52372380D02*
X134056666Y-53086666D01*
X134009047Y-53229523D01*
X133913809Y-53324761D01*
X133770952Y-53372380D01*
X133675714Y-53372380D01*
X135009047Y-52372380D02*
X134532857Y-52372380D01*
X134485238Y-52848571D01*
X134532857Y-52800952D01*
X134628095Y-52753333D01*
X134866190Y-52753333D01*
X134961428Y-52800952D01*
X135009047Y-52848571D01*
X135056666Y-52943809D01*
X135056666Y-53181904D01*
X135009047Y-53277142D01*
X134961428Y-53324761D01*
X134866190Y-53372380D01*
X134628095Y-53372380D01*
X134532857Y-53324761D01*
X134485238Y-53277142D01*
%TO.C,R6*%
X159623333Y-53372380D02*
X159290000Y-52896190D01*
X159051904Y-53372380D02*
X159051904Y-52372380D01*
X159432857Y-52372380D01*
X159528095Y-52420000D01*
X159575714Y-52467619D01*
X159623333Y-52562857D01*
X159623333Y-52705714D01*
X159575714Y-52800952D01*
X159528095Y-52848571D01*
X159432857Y-52896190D01*
X159051904Y-52896190D01*
X160480476Y-52372380D02*
X160290000Y-52372380D01*
X160194761Y-52420000D01*
X160147142Y-52467619D01*
X160051904Y-52610476D01*
X160004285Y-52800952D01*
X160004285Y-53181904D01*
X160051904Y-53277142D01*
X160099523Y-53324761D01*
X160194761Y-53372380D01*
X160385238Y-53372380D01*
X160480476Y-53324761D01*
X160528095Y-53277142D01*
X160575714Y-53181904D01*
X160575714Y-52943809D01*
X160528095Y-52848571D01*
X160480476Y-52800952D01*
X160385238Y-52753333D01*
X160194761Y-52753333D01*
X160099523Y-52800952D01*
X160051904Y-52848571D01*
X160004285Y-52943809D01*
%TO.C,R15*%
X78454380Y-40227857D02*
X77978190Y-40561190D01*
X78454380Y-40799285D02*
X77454380Y-40799285D01*
X77454380Y-40418333D01*
X77502000Y-40323095D01*
X77549619Y-40275476D01*
X77644857Y-40227857D01*
X77787714Y-40227857D01*
X77882952Y-40275476D01*
X77930571Y-40323095D01*
X77978190Y-40418333D01*
X77978190Y-40799285D01*
X78454380Y-39275476D02*
X78454380Y-39846904D01*
X78454380Y-39561190D02*
X77454380Y-39561190D01*
X77597238Y-39656428D01*
X77692476Y-39751666D01*
X77740095Y-39846904D01*
X77454380Y-38370714D02*
X77454380Y-38846904D01*
X77930571Y-38894523D01*
X77882952Y-38846904D01*
X77835333Y-38751666D01*
X77835333Y-38513571D01*
X77882952Y-38418333D01*
X77930571Y-38370714D01*
X78025809Y-38323095D01*
X78263904Y-38323095D01*
X78359142Y-38370714D01*
X78406761Y-38418333D01*
X78454380Y-38513571D01*
X78454380Y-38751666D01*
X78406761Y-38846904D01*
X78359142Y-38894523D01*
%TO.C,R4*%
X110728333Y-53372380D02*
X110395000Y-52896190D01*
X110156904Y-53372380D02*
X110156904Y-52372380D01*
X110537857Y-52372380D01*
X110633095Y-52420000D01*
X110680714Y-52467619D01*
X110728333Y-52562857D01*
X110728333Y-52705714D01*
X110680714Y-52800952D01*
X110633095Y-52848571D01*
X110537857Y-52896190D01*
X110156904Y-52896190D01*
X111585476Y-52705714D02*
X111585476Y-53372380D01*
X111347380Y-52324761D02*
X111109285Y-53039047D01*
X111728333Y-53039047D01*
%TO.C,R12*%
X82312142Y-54642380D02*
X81978809Y-54166190D01*
X81740714Y-54642380D02*
X81740714Y-53642380D01*
X82121666Y-53642380D01*
X82216904Y-53690000D01*
X82264523Y-53737619D01*
X82312142Y-53832857D01*
X82312142Y-53975714D01*
X82264523Y-54070952D01*
X82216904Y-54118571D01*
X82121666Y-54166190D01*
X81740714Y-54166190D01*
X83264523Y-54642380D02*
X82693095Y-54642380D01*
X82978809Y-54642380D02*
X82978809Y-53642380D01*
X82883571Y-53785238D01*
X82788333Y-53880476D01*
X82693095Y-53928095D01*
X83645476Y-53737619D02*
X83693095Y-53690000D01*
X83788333Y-53642380D01*
X84026428Y-53642380D01*
X84121666Y-53690000D01*
X84169285Y-53737619D01*
X84216904Y-53832857D01*
X84216904Y-53928095D01*
X84169285Y-54070952D01*
X83597857Y-54642380D01*
X84216904Y-54642380D01*
%TO.C,U1*%
X177657380Y-44891904D02*
X178466904Y-44891904D01*
X178562142Y-44844285D01*
X178609761Y-44796666D01*
X178657380Y-44701428D01*
X178657380Y-44510952D01*
X178609761Y-44415714D01*
X178562142Y-44368095D01*
X178466904Y-44320476D01*
X177657380Y-44320476D01*
X178657380Y-43320476D02*
X178657380Y-43891904D01*
X178657380Y-43606190D02*
X177657380Y-43606190D01*
X177800238Y-43701428D01*
X177895476Y-43796666D01*
X177943095Y-43891904D01*
X176752380Y-45625238D02*
X176752380Y-46101428D01*
X175752380Y-46101428D01*
X175752380Y-45387142D02*
X175752380Y-44720476D01*
X176752380Y-45149047D01*
X176752380Y-44291904D02*
X176752380Y-44101428D01*
X176704761Y-44006190D01*
X176657142Y-43958571D01*
X176514285Y-43863333D01*
X176323809Y-43815714D01*
X175942857Y-43815714D01*
X175847619Y-43863333D01*
X175800000Y-43910952D01*
X175752380Y-44006190D01*
X175752380Y-44196666D01*
X175800000Y-44291904D01*
X175847619Y-44339523D01*
X175942857Y-44387142D01*
X176180952Y-44387142D01*
X176276190Y-44339523D01*
X176323809Y-44291904D01*
X176371428Y-44196666D01*
X176371428Y-44006190D01*
X176323809Y-43910952D01*
X176276190Y-43863333D01*
X176180952Y-43815714D01*
X175752380Y-43196666D02*
X175752380Y-43101428D01*
X175800000Y-43006190D01*
X175847619Y-42958571D01*
X175942857Y-42910952D01*
X176133333Y-42863333D01*
X176371428Y-42863333D01*
X176561904Y-42910952D01*
X176657142Y-42958571D01*
X176704761Y-43006190D01*
X176752380Y-43101428D01*
X176752380Y-43196666D01*
X176704761Y-43291904D01*
X176657142Y-43339523D01*
X176561904Y-43387142D01*
X176371428Y-43434761D01*
X176133333Y-43434761D01*
X175942857Y-43387142D01*
X175847619Y-43339523D01*
X175800000Y-43291904D01*
X175752380Y-43196666D01*
X175752380Y-41958571D02*
X175752380Y-42434761D01*
X176228571Y-42482380D01*
X176180952Y-42434761D01*
X176133333Y-42339523D01*
X176133333Y-42101428D01*
X176180952Y-42006190D01*
X176228571Y-41958571D01*
X176323809Y-41910952D01*
X176561904Y-41910952D01*
X176657142Y-41958571D01*
X176704761Y-42006190D01*
X176752380Y-42101428D01*
X176752380Y-42339523D01*
X176704761Y-42434761D01*
X176657142Y-42482380D01*
D12*
%TO.C,J4*%
X94064178Y-46851803D02*
X146064178Y-46851803D01*
X146064178Y-36851803D02*
X94064178Y-36851803D01*
X122264178Y-47401803D02*
X122264178Y-46901803D01*
X94064178Y-36851803D02*
X94064178Y-46851803D01*
X118064178Y-46901803D02*
X118064178Y-47401803D01*
X118064178Y-47401803D02*
X122264178Y-47401803D01*
X146064178Y-46851803D02*
X146064178Y-36851803D01*
X136864178Y-46851803D02*
X136864178Y-36851803D01*
%TO.C,C14*%
X88241000Y-114920000D02*
X88241000Y-115706000D01*
X88641000Y-112561000D02*
X88641000Y-115199000D01*
X88761000Y-112782000D02*
X88761000Y-114978000D01*
X88321000Y-112137000D02*
X88321000Y-112840000D01*
X88361000Y-112181000D02*
X88361000Y-112840000D01*
X88201000Y-112016000D02*
X88201000Y-112840000D01*
X87641000Y-114920000D02*
X87641000Y-116148000D01*
X87561000Y-111570000D02*
X87561000Y-112840000D01*
X87681000Y-111633000D02*
X87681000Y-112840000D01*
X87080000Y-114920000D02*
X87080000Y-116371000D01*
X88321000Y-114920000D02*
X88321000Y-115623000D01*
X88401000Y-114920000D02*
X88401000Y-115533000D01*
X88241000Y-112054000D02*
X88241000Y-112840000D01*
X87281000Y-114920000D02*
X87281000Y-116308000D01*
X88041000Y-111876000D02*
X88041000Y-112840000D01*
X87841000Y-114920000D02*
X87841000Y-116029000D01*
X87801000Y-114920000D02*
X87801000Y-116055000D01*
X87721000Y-111656000D02*
X87721000Y-112840000D01*
X87321000Y-114920000D02*
X87321000Y-116294000D01*
X87481000Y-111532000D02*
X87481000Y-112840000D01*
X86440000Y-114920000D02*
X86440000Y-116460000D01*
X87521000Y-111551000D02*
X87521000Y-112840000D01*
X86400000Y-111300000D02*
X86400000Y-112840000D01*
X87881000Y-114920000D02*
X87881000Y-116002000D01*
X88601000Y-112497000D02*
X88601000Y-115263000D01*
X88121000Y-111943000D02*
X88121000Y-112840000D01*
X88801000Y-112869000D02*
X88801000Y-114891000D01*
X88521000Y-112380000D02*
X88521000Y-115380000D01*
X86720000Y-114920000D02*
X86720000Y-116441000D01*
X86680000Y-111315000D02*
X86680000Y-112840000D01*
X87241000Y-114920000D02*
X87241000Y-116322000D01*
X87561000Y-114920000D02*
X87561000Y-116190000D01*
X86880000Y-114920000D02*
X86880000Y-116416000D01*
X83845225Y-112155000D02*
X83845225Y-112655000D01*
X88841000Y-112965000D02*
X88841000Y-114795000D01*
X87121000Y-111400000D02*
X87121000Y-112840000D01*
X87161000Y-111412000D02*
X87161000Y-112840000D01*
X88161000Y-114920000D02*
X88161000Y-115781000D01*
X87401000Y-111498000D02*
X87401000Y-112840000D01*
X86520000Y-111302000D02*
X86520000Y-112840000D01*
X86440000Y-111300000D02*
X86440000Y-112840000D01*
X88001000Y-114920000D02*
X88001000Y-115915000D01*
X87201000Y-111425000D02*
X87201000Y-112840000D01*
X87281000Y-111452000D02*
X87281000Y-112840000D01*
X88441000Y-112275000D02*
X88441000Y-115485000D01*
X88001000Y-111845000D02*
X88001000Y-112840000D01*
X88361000Y-114920000D02*
X88361000Y-115579000D01*
X87441000Y-111515000D02*
X87441000Y-112840000D01*
X87761000Y-111680000D02*
X87761000Y-112840000D01*
X87761000Y-114920000D02*
X87761000Y-116080000D01*
X87801000Y-111705000D02*
X87801000Y-112840000D01*
X88281000Y-112095000D02*
X88281000Y-112840000D01*
X88721000Y-112702000D02*
X88721000Y-115058000D01*
X87000000Y-114920000D02*
X87000000Y-116391000D01*
X89001000Y-113596000D02*
X89001000Y-114164000D01*
X86640000Y-111311000D02*
X86640000Y-112840000D01*
X88081000Y-111909000D02*
X88081000Y-112840000D01*
X87441000Y-114920000D02*
X87441000Y-116245000D01*
X86840000Y-114920000D02*
X86840000Y-116423000D01*
X86560000Y-114920000D02*
X86560000Y-116456000D01*
X86480000Y-114920000D02*
X86480000Y-116459000D01*
X86920000Y-114920000D02*
X86920000Y-116408000D01*
X86760000Y-111324000D02*
X86760000Y-112840000D01*
X87721000Y-114920000D02*
X87721000Y-116104000D01*
X88481000Y-112326000D02*
X88481000Y-115434000D01*
X86520000Y-114920000D02*
X86520000Y-116458000D01*
X88921000Y-113203000D02*
X88921000Y-114557000D01*
X87601000Y-111590000D02*
X87601000Y-112840000D01*
X87921000Y-114920000D02*
X87921000Y-115975000D01*
X87241000Y-111438000D02*
X87241000Y-112840000D01*
X86640000Y-114920000D02*
X86640000Y-116449000D01*
X87361000Y-111482000D02*
X87361000Y-112840000D01*
X86400000Y-114920000D02*
X86400000Y-116460000D01*
X88081000Y-114920000D02*
X88081000Y-115851000D01*
X87881000Y-111758000D02*
X87881000Y-112840000D01*
X88161000Y-111979000D02*
X88161000Y-112840000D01*
X87161000Y-114920000D02*
X87161000Y-116348000D01*
X87961000Y-111815000D02*
X87961000Y-112840000D01*
X87921000Y-111785000D02*
X87921000Y-112840000D01*
X87000000Y-111369000D02*
X87000000Y-112840000D01*
X83595225Y-112405000D02*
X84095225Y-112405000D01*
X87841000Y-111731000D02*
X87841000Y-112840000D01*
X87201000Y-114920000D02*
X87201000Y-116335000D01*
X87401000Y-114920000D02*
X87401000Y-116262000D01*
X86960000Y-114920000D02*
X86960000Y-116400000D01*
X87641000Y-111612000D02*
X87641000Y-112840000D01*
X88881000Y-113075000D02*
X88881000Y-114685000D01*
X87601000Y-114920000D02*
X87601000Y-116170000D01*
X87321000Y-111466000D02*
X87321000Y-112840000D01*
X88961000Y-113362000D02*
X88961000Y-114398000D01*
X87080000Y-111389000D02*
X87080000Y-112840000D01*
X86920000Y-111352000D02*
X86920000Y-112840000D01*
X87481000Y-114920000D02*
X87481000Y-116228000D01*
X87961000Y-114920000D02*
X87961000Y-115945000D01*
X86720000Y-111319000D02*
X86720000Y-112840000D01*
X86840000Y-111337000D02*
X86840000Y-112840000D01*
X87361000Y-114920000D02*
X87361000Y-116278000D01*
X87121000Y-114920000D02*
X87121000Y-116360000D01*
X87521000Y-114920000D02*
X87521000Y-116209000D01*
X86680000Y-114920000D02*
X86680000Y-116445000D01*
X86600000Y-114920000D02*
X86600000Y-116453000D01*
X88561000Y-112437000D02*
X88561000Y-115323000D01*
X88041000Y-114920000D02*
X88041000Y-115884000D01*
X86960000Y-111360000D02*
X86960000Y-112840000D01*
X87681000Y-114920000D02*
X87681000Y-116127000D01*
X86800000Y-114920000D02*
X86800000Y-116430000D01*
X88681000Y-112629000D02*
X88681000Y-115131000D01*
X86560000Y-111304000D02*
X86560000Y-112840000D01*
X88121000Y-114920000D02*
X88121000Y-115817000D01*
X87040000Y-114920000D02*
X87040000Y-116381000D01*
X86800000Y-111330000D02*
X86800000Y-112840000D01*
X87040000Y-111379000D02*
X87040000Y-112840000D01*
X88401000Y-112227000D02*
X88401000Y-112840000D01*
X86480000Y-111301000D02*
X86480000Y-112840000D01*
X88201000Y-114920000D02*
X88201000Y-115744000D01*
X86600000Y-111307000D02*
X86600000Y-112840000D01*
X86760000Y-114920000D02*
X86760000Y-116436000D01*
X86880000Y-111344000D02*
X86880000Y-112840000D01*
X88281000Y-114920000D02*
X88281000Y-115665000D01*
X89020000Y-113880000D02*
G75*
G03*
X89020000Y-113880000I-2620000J0D01*
G01*
%TO.C,C11*%
X77340000Y-75215000D02*
X77340000Y-80155000D01*
X74915000Y-75215000D02*
X74600000Y-75215000D01*
X74600000Y-75215000D02*
X74600000Y-80155000D01*
X77340000Y-75215000D02*
X77025000Y-75215000D01*
X77340000Y-80155000D02*
X77025000Y-80155000D01*
X74915000Y-80155000D02*
X74600000Y-80155000D01*
%TO.C,D3*%
X71850000Y-42170000D02*
X69930000Y-42170000D01*
X69930000Y-42170000D02*
X69930000Y-45030000D01*
X71850000Y-45030000D02*
X71850000Y-42170000D01*
%TO.C,D1*%
X76295000Y-45030000D02*
X76295000Y-42170000D01*
X76295000Y-42170000D02*
X74375000Y-42170000D01*
X74375000Y-42170000D02*
X74375000Y-45030000D01*
%TO.C,R1*%
X78050000Y-48660000D02*
X68810000Y-48660000D01*
X68120000Y-50380000D02*
X68810000Y-50380000D01*
X68810000Y-52100000D02*
X78050000Y-52100000D01*
X78050000Y-52100000D02*
X78050000Y-48660000D01*
X78740000Y-50380000D02*
X78050000Y-50380000D01*
X68810000Y-48660000D02*
X68810000Y-52100000D01*
%TO.C,R8*%
X146280000Y-62260000D02*
X155520000Y-62260000D01*
X145590000Y-60540000D02*
X146280000Y-60540000D01*
X146280000Y-58820000D02*
X146280000Y-62260000D01*
X156210000Y-60540000D02*
X155520000Y-60540000D01*
X155520000Y-58820000D02*
X146280000Y-58820000D01*
X155520000Y-62260000D02*
X155520000Y-58820000D01*
%TO.C,R16*%
X71412500Y-39839724D02*
X71412500Y-39330276D01*
X70367500Y-39839724D02*
X70367500Y-39330276D01*
%TO.C,C8*%
X77068829Y-60255999D02*
X77068829Y-60823999D01*
X75788829Y-58315999D02*
X75788829Y-59499999D01*
X75308829Y-58097999D02*
X75308829Y-59499999D01*
X75107829Y-61579999D02*
X75107829Y-63040999D01*
X76108829Y-58535999D02*
X76108829Y-59499999D01*
X76188829Y-61579999D02*
X76188829Y-62476999D01*
X75828829Y-58339999D02*
X75828829Y-59499999D01*
X75948829Y-58417999D02*
X75948829Y-59499999D01*
X71663054Y-59064999D02*
X72163054Y-59064999D01*
X71913054Y-58814999D02*
X71913054Y-59314999D01*
X74467829Y-57959999D02*
X74467829Y-59499999D01*
X75228829Y-61579999D02*
X75228829Y-63007999D01*
X76108829Y-61579999D02*
X76108829Y-62543999D01*
X76628829Y-59096999D02*
X76628829Y-61982999D01*
X74667829Y-57966999D02*
X74667829Y-59499999D01*
X75628829Y-58229999D02*
X75628829Y-59499999D01*
X75468829Y-61579999D02*
X75468829Y-62921999D01*
X74747829Y-57974999D02*
X74747829Y-59499999D01*
X75428829Y-61579999D02*
X75428829Y-62937999D01*
X74667829Y-61579999D02*
X74667829Y-63112999D01*
X76548829Y-58985999D02*
X76548829Y-62093999D01*
X74507829Y-57959999D02*
X74507829Y-59499999D01*
X75388829Y-58125999D02*
X75388829Y-59499999D01*
X76708829Y-59220999D02*
X76708829Y-61858999D01*
X74627829Y-57963999D02*
X74627829Y-59499999D01*
X76868829Y-59528999D02*
X76868829Y-61550999D01*
X75548829Y-58191999D02*
X75548829Y-59499999D01*
X74507829Y-61579999D02*
X74507829Y-63119999D01*
X74547829Y-57960999D02*
X74547829Y-59499999D01*
X76188829Y-58602999D02*
X76188829Y-59499999D01*
X75348829Y-61579999D02*
X75348829Y-62967999D01*
X74907829Y-57996999D02*
X74907829Y-59499999D01*
X74707829Y-57970999D02*
X74707829Y-59499999D01*
X75868829Y-58364999D02*
X75868829Y-59499999D01*
X76348829Y-61579999D02*
X76348829Y-62324999D01*
X76028829Y-61579999D02*
X76028829Y-62604999D01*
X76268829Y-58675999D02*
X76268829Y-59499999D01*
X75588829Y-61579999D02*
X75588829Y-62868999D01*
X74787829Y-61579999D02*
X74787829Y-63100999D01*
X75027829Y-58019999D02*
X75027829Y-59499999D01*
X75588829Y-58210999D02*
X75588829Y-59499999D01*
X75147829Y-58048999D02*
X75147829Y-59499999D01*
X75308829Y-61579999D02*
X75308829Y-62981999D01*
X75708829Y-58271999D02*
X75708829Y-59499999D01*
X76228829Y-61579999D02*
X76228829Y-62440999D01*
X74987829Y-58011999D02*
X74987829Y-59499999D01*
X76148829Y-58568999D02*
X76148829Y-59499999D01*
X76148829Y-61579999D02*
X76148829Y-62510999D01*
X74907829Y-61579999D02*
X74907829Y-63082999D01*
X76468829Y-58886999D02*
X76468829Y-59499999D01*
X75748829Y-61579999D02*
X75748829Y-62786999D01*
X76468829Y-61579999D02*
X76468829Y-62192999D01*
X75948829Y-61579999D02*
X75948829Y-62661999D01*
X76428829Y-58840999D02*
X76428829Y-59499999D01*
X75508829Y-61579999D02*
X75508829Y-62904999D01*
X75908829Y-61579999D02*
X75908829Y-62688999D01*
X76788829Y-59361999D02*
X76788829Y-61717999D01*
X74707829Y-61579999D02*
X74707829Y-63108999D01*
X75668829Y-61579999D02*
X75668829Y-62829999D01*
X75027829Y-61579999D02*
X75027829Y-63059999D01*
X75147829Y-61579999D02*
X75147829Y-63030999D01*
X75908829Y-58390999D02*
X75908829Y-59499999D01*
X75228829Y-58071999D02*
X75228829Y-59499999D01*
X76028829Y-58474999D02*
X76028829Y-59499999D01*
X76388829Y-58796999D02*
X76388829Y-59499999D01*
X75988829Y-58444999D02*
X75988829Y-59499999D01*
X75268829Y-58084999D02*
X75268829Y-59499999D01*
X75268829Y-61579999D02*
X75268829Y-62994999D01*
X75188829Y-61579999D02*
X75188829Y-63019999D01*
X75428829Y-58141999D02*
X75428829Y-59499999D01*
X75868829Y-61579999D02*
X75868829Y-62714999D01*
X74547829Y-61579999D02*
X74547829Y-63118999D01*
X75067829Y-61579999D02*
X75067829Y-63050999D01*
X75668829Y-58249999D02*
X75668829Y-59499999D01*
X75748829Y-58292999D02*
X75748829Y-59499999D01*
X76268829Y-61579999D02*
X76268829Y-62403999D01*
X76228829Y-58638999D02*
X76228829Y-59499999D01*
X74947829Y-61579999D02*
X74947829Y-63075999D01*
X75188829Y-58059999D02*
X75188829Y-59499999D01*
X75788829Y-61579999D02*
X75788829Y-62763999D01*
X74827829Y-61579999D02*
X74827829Y-63095999D01*
X76308829Y-58713999D02*
X76308829Y-59499999D01*
X75067829Y-58028999D02*
X75067829Y-59499999D01*
X74747829Y-61579999D02*
X74747829Y-63104999D01*
X74987829Y-61579999D02*
X74987829Y-63067999D01*
X76988829Y-59862999D02*
X76988829Y-61216999D01*
X76908829Y-59624999D02*
X76908829Y-61454999D01*
X75508829Y-58174999D02*
X75508829Y-59499999D01*
X76828829Y-59441999D02*
X76828829Y-61637999D01*
X75628829Y-61579999D02*
X75628829Y-62849999D01*
X75828829Y-61579999D02*
X75828829Y-62739999D01*
X76388829Y-61579999D02*
X76388829Y-62282999D01*
X76748829Y-59288999D02*
X76748829Y-61790999D01*
X75548829Y-61579999D02*
X75548829Y-62887999D01*
X75988829Y-61579999D02*
X75988829Y-62634999D01*
X76948829Y-59734999D02*
X76948829Y-61344999D01*
X74627829Y-61579999D02*
X74627829Y-63115999D01*
X74587829Y-57961999D02*
X74587829Y-59499999D01*
X76428829Y-61579999D02*
X76428829Y-62238999D01*
X75388829Y-61579999D02*
X75388829Y-62953999D01*
X77028829Y-60021999D02*
X77028829Y-61057999D01*
X74467829Y-61579999D02*
X74467829Y-63119999D01*
X74587829Y-61579999D02*
X74587829Y-63117999D01*
X76668829Y-59156999D02*
X76668829Y-61922999D01*
X74947829Y-58003999D02*
X74947829Y-59499999D01*
X75348829Y-58111999D02*
X75348829Y-59499999D01*
X76588829Y-59039999D02*
X76588829Y-62039999D01*
X75468829Y-58157999D02*
X75468829Y-59499999D01*
X74827829Y-57983999D02*
X74827829Y-59499999D01*
X74787829Y-57978999D02*
X74787829Y-59499999D01*
X74867829Y-61579999D02*
X74867829Y-63089999D01*
X75107829Y-58038999D02*
X75107829Y-59499999D01*
X76308829Y-61579999D02*
X76308829Y-62365999D01*
X75708829Y-61579999D02*
X75708829Y-62807999D01*
X76508829Y-58934999D02*
X76508829Y-62144999D01*
X74867829Y-57989999D02*
X74867829Y-59499999D01*
X76348829Y-58754999D02*
X76348829Y-59499999D01*
X76068829Y-58504999D02*
X76068829Y-59499999D01*
X76068829Y-61579999D02*
X76068829Y-62574999D01*
X77087829Y-60539999D02*
G75*
G03*
X77087829Y-60539999I-2620000J0D01*
G01*
%TO.C,C1*%
X139344000Y-97700888D02*
X137970000Y-97700888D01*
X135890000Y-97139888D02*
X134374000Y-97139888D01*
X137735000Y-99260888D02*
X136125000Y-99260888D01*
X139510000Y-96819888D02*
X137970000Y-96819888D01*
X139421000Y-97459888D02*
X137970000Y-97459888D01*
X135890000Y-97299888D02*
X134402000Y-97299888D01*
X135890000Y-96939888D02*
X134354000Y-96939888D01*
X135890000Y-96859888D02*
X134351000Y-96859888D01*
X138028000Y-99140888D02*
X135832000Y-99140888D01*
X135890000Y-96979888D02*
X134357000Y-96979888D01*
X138405000Y-93975113D02*
X138405000Y-94475113D01*
X135890000Y-98180888D02*
X134755000Y-98180888D01*
X135890000Y-97940888D02*
X134620000Y-97940888D01*
X137941000Y-99180888D02*
X135919000Y-99180888D01*
X139458000Y-97299888D02*
X137970000Y-97299888D01*
X135890000Y-98420888D02*
X134926000Y-98420888D01*
X135890000Y-98540888D02*
X135029000Y-98540888D01*
X138629000Y-98740888D02*
X137970000Y-98740888D01*
X138934000Y-98420888D02*
X137970000Y-98420888D01*
X135890000Y-98580888D02*
X135066000Y-98580888D01*
X135890000Y-96899888D02*
X134352000Y-96899888D01*
X135890000Y-98100888D02*
X134706000Y-98100888D01*
X135890000Y-98300888D02*
X134835000Y-98300888D01*
X139154000Y-98100888D02*
X137970000Y-98100888D01*
X135890000Y-98220888D02*
X134781000Y-98220888D01*
X139441000Y-97379888D02*
X137970000Y-97379888D01*
X138965000Y-98380888D02*
X137970000Y-98380888D01*
X135890000Y-98620888D02*
X135104000Y-98620888D01*
X137214000Y-99380888D02*
X136646000Y-99380888D01*
X139480000Y-97179888D02*
X137970000Y-97179888D01*
X135890000Y-97179888D02*
X134380000Y-97179888D01*
X135890000Y-97700888D02*
X134516000Y-97700888D01*
X139506000Y-96939888D02*
X137970000Y-96939888D01*
X139052000Y-98260888D02*
X137970000Y-98260888D01*
X139486000Y-97139888D02*
X137970000Y-97139888D01*
X139278000Y-97860888D02*
X137970000Y-97860888D01*
X138108000Y-99100888D02*
X135752000Y-99100888D01*
X139240000Y-97940888D02*
X137970000Y-97940888D01*
X138715000Y-98660888D02*
X137970000Y-98660888D01*
X135890000Y-97099888D02*
X134369000Y-97099888D01*
X139372000Y-97620888D02*
X137970000Y-97620888D01*
X139328000Y-97740888D02*
X137970000Y-97740888D01*
X139410000Y-97500888D02*
X137970000Y-97500888D01*
X135890000Y-97259888D02*
X134394000Y-97259888D01*
X138756000Y-98620888D02*
X137970000Y-98620888D01*
X139079000Y-98220888D02*
X137970000Y-98220888D01*
X138794000Y-98580888D02*
X137970000Y-98580888D01*
X139510000Y-96779888D02*
X137970000Y-96779888D01*
X139509000Y-96859888D02*
X137970000Y-96859888D01*
X135890000Y-98700888D02*
X135187000Y-98700888D01*
X135890000Y-97820888D02*
X134565000Y-97820888D01*
X135890000Y-97620888D02*
X134488000Y-97620888D01*
X135890000Y-98140888D02*
X134730000Y-98140888D01*
X138901000Y-98460888D02*
X137970000Y-98460888D01*
X135890000Y-97419888D02*
X134429000Y-97419888D01*
X135890000Y-97059888D02*
X134365000Y-97059888D01*
X135890000Y-97339888D02*
X134410000Y-97339888D01*
X135890000Y-97019888D02*
X134361000Y-97019888D01*
X139259000Y-97900888D02*
X137970000Y-97900888D01*
X139503000Y-96979888D02*
X137970000Y-96979888D01*
X138655000Y-94225113D02*
X138155000Y-94225113D01*
X139220000Y-97980888D02*
X137970000Y-97980888D01*
X139491000Y-97099888D02*
X137970000Y-97099888D01*
X139495000Y-97059888D02*
X137970000Y-97059888D01*
X138535000Y-98820888D02*
X135325000Y-98820888D01*
X139198000Y-98020888D02*
X137970000Y-98020888D01*
X135890000Y-96819888D02*
X134350000Y-96819888D01*
X138484000Y-98860888D02*
X135376000Y-98860888D01*
X135890000Y-97500888D02*
X134450000Y-97500888D01*
X139508000Y-96899888D02*
X137970000Y-96899888D01*
X139358000Y-97660888D02*
X137970000Y-97660888D01*
X139398000Y-97540888D02*
X137970000Y-97540888D01*
X135890000Y-98020888D02*
X134662000Y-98020888D01*
X135890000Y-97459888D02*
X134439000Y-97459888D01*
X138867000Y-98500888D02*
X137970000Y-98500888D01*
X135890000Y-97980888D02*
X134640000Y-97980888D01*
X137607000Y-99300888D02*
X136253000Y-99300888D01*
X135890000Y-97860888D02*
X134582000Y-97860888D01*
X138583000Y-98780888D02*
X137970000Y-98780888D01*
X135890000Y-97660888D02*
X134502000Y-97660888D01*
X138181000Y-99060888D02*
X135679000Y-99060888D01*
X135890000Y-98060888D02*
X134683000Y-98060888D01*
X135890000Y-97219888D02*
X134387000Y-97219888D01*
X139466000Y-97259888D02*
X137970000Y-97259888D01*
X138430000Y-98900888D02*
X135430000Y-98900888D01*
X137845000Y-99220888D02*
X136015000Y-99220888D01*
X135890000Y-97900888D02*
X134601000Y-97900888D01*
X139450000Y-97339888D02*
X137970000Y-97339888D01*
X139130000Y-98140888D02*
X137970000Y-98140888D01*
X139177000Y-98060888D02*
X137970000Y-98060888D01*
X135890000Y-96779888D02*
X134350000Y-96779888D01*
X139025000Y-98300888D02*
X137970000Y-98300888D01*
X137448000Y-99340888D02*
X136412000Y-99340888D01*
X135890000Y-98740888D02*
X135231000Y-98740888D01*
X135890000Y-98780888D02*
X135277000Y-98780888D01*
X135890000Y-97540888D02*
X134462000Y-97540888D01*
X135890000Y-97780888D02*
X134548000Y-97780888D01*
X139385000Y-97580888D02*
X137970000Y-97580888D01*
X139295000Y-97820888D02*
X137970000Y-97820888D01*
X135890000Y-98380888D02*
X134895000Y-98380888D01*
X139473000Y-97219888D02*
X137970000Y-97219888D01*
X135890000Y-98500888D02*
X134993000Y-98500888D01*
X138313000Y-98980888D02*
X135547000Y-98980888D01*
X138995000Y-98340888D02*
X137970000Y-98340888D01*
X135890000Y-97580888D02*
X134475000Y-97580888D01*
X135890000Y-98660888D02*
X135145000Y-98660888D01*
X138673000Y-98700888D02*
X137970000Y-98700888D01*
X135890000Y-98340888D02*
X134865000Y-98340888D01*
X135890000Y-97379888D02*
X134419000Y-97379888D01*
X138831000Y-98540888D02*
X137970000Y-98540888D01*
X139105000Y-98180888D02*
X137970000Y-98180888D01*
X135890000Y-98460888D02*
X134959000Y-98460888D01*
X135890000Y-97740888D02*
X134532000Y-97740888D01*
X139312000Y-97780888D02*
X137970000Y-97780888D01*
X135890000Y-98260888D02*
X134808000Y-98260888D01*
X138373000Y-98940888D02*
X135487000Y-98940888D01*
X139499000Y-97019888D02*
X137970000Y-97019888D01*
X139431000Y-97419888D02*
X137970000Y-97419888D01*
X138249000Y-99020888D02*
X135611000Y-99020888D01*
X139550000Y-96779888D02*
G75*
G03*
X139550000Y-96779888I-2620000J0D01*
G01*
%TO.C,C29*%
X189215000Y-80155000D02*
X188900000Y-80155000D01*
X191640000Y-80155000D02*
X191325000Y-80155000D01*
X188900000Y-75215000D02*
X188900000Y-80155000D01*
X191640000Y-75215000D02*
X191640000Y-80155000D01*
X189215000Y-75215000D02*
X188900000Y-75215000D01*
X191640000Y-75215000D02*
X191325000Y-75215000D01*
%TO.C,R5*%
X115165000Y-58450000D02*
X124405000Y-58450000D01*
X125095000Y-56730000D02*
X124405000Y-56730000D01*
X115165000Y-55010000D02*
X115165000Y-58450000D01*
X114475000Y-56730000D02*
X115165000Y-56730000D01*
X124405000Y-55010000D02*
X115165000Y-55010000D01*
X124405000Y-58450000D02*
X124405000Y-55010000D01*
%TO.C,C25*%
X188189000Y-62860826D02*
X188189000Y-61552826D01*
X188109000Y-62822826D02*
X188109000Y-61552826D01*
X188670000Y-59472826D02*
X188670000Y-58001826D01*
X188029000Y-62780826D02*
X188029000Y-61552826D01*
X189230000Y-59472826D02*
X189230000Y-57932826D01*
X189030000Y-59472826D02*
X189030000Y-57943826D01*
X187629000Y-62516826D02*
X187629000Y-61552826D01*
X188229000Y-62877826D02*
X188229000Y-61552826D01*
X188790000Y-63048826D02*
X188790000Y-61552826D01*
X191824775Y-62237826D02*
X191824775Y-61737826D01*
X187869000Y-62687826D02*
X187869000Y-61552826D01*
X187709000Y-62577826D02*
X187709000Y-61552826D01*
X187389000Y-62297826D02*
X187389000Y-61552826D01*
X188149000Y-59472826D02*
X188149000Y-58183826D01*
X187749000Y-59472826D02*
X187749000Y-58417826D01*
X187229000Y-62117826D02*
X187229000Y-58907826D01*
X186709000Y-61030826D02*
X186709000Y-59994826D01*
X187189000Y-62066826D02*
X187189000Y-58958826D01*
X187309000Y-62211826D02*
X187309000Y-61552826D01*
X189150000Y-59472826D02*
X189150000Y-57934826D01*
X187989000Y-62759826D02*
X187989000Y-61552826D01*
X188830000Y-63055826D02*
X188830000Y-61552826D01*
X187069000Y-61895826D02*
X187069000Y-59129826D01*
X186669000Y-60796826D02*
X186669000Y-60228826D01*
X188950000Y-63073826D02*
X188950000Y-61552826D01*
X188349000Y-62926826D02*
X188349000Y-61552826D01*
X188630000Y-63013826D02*
X188630000Y-61552826D01*
X189190000Y-63091826D02*
X189190000Y-61552826D01*
X189190000Y-59472826D02*
X189190000Y-57933826D01*
X189070000Y-59472826D02*
X189070000Y-57939826D01*
X187349000Y-62255826D02*
X187349000Y-61552826D01*
X192074775Y-61987826D02*
X191574775Y-61987826D01*
X188029000Y-59472826D02*
X188029000Y-58244826D01*
X187509000Y-62413826D02*
X187509000Y-61552826D01*
X187949000Y-59472826D02*
X187949000Y-58288826D01*
X188069000Y-59472826D02*
X188069000Y-58222826D01*
X188509000Y-62980826D02*
X188509000Y-61552826D01*
X187269000Y-62165826D02*
X187269000Y-61552826D01*
X187789000Y-62634826D02*
X187789000Y-61552826D01*
X186829000Y-61427826D02*
X186829000Y-59597826D01*
X188590000Y-63003826D02*
X188590000Y-61552826D01*
X186989000Y-61763826D02*
X186989000Y-59261826D01*
X187109000Y-61955826D02*
X187109000Y-59069826D01*
X187669000Y-59472826D02*
X187669000Y-58477826D01*
X187909000Y-62712826D02*
X187909000Y-61552826D01*
X188069000Y-62802826D02*
X188069000Y-61552826D01*
X187269000Y-59472826D02*
X187269000Y-58859826D01*
X187869000Y-59472826D02*
X187869000Y-58337826D01*
X188590000Y-59472826D02*
X188590000Y-58021826D01*
X187509000Y-59472826D02*
X187509000Y-58611826D01*
X188710000Y-59472826D02*
X188710000Y-57992826D01*
X188389000Y-59472826D02*
X188389000Y-58084826D01*
X188750000Y-59472826D02*
X188750000Y-57984826D01*
X187029000Y-61831826D02*
X187029000Y-59193826D01*
X188870000Y-63062826D02*
X188870000Y-61552826D01*
X187909000Y-59472826D02*
X187909000Y-58312826D01*
X189110000Y-59472826D02*
X189110000Y-57936826D01*
X188990000Y-59472826D02*
X188990000Y-57947826D01*
X188309000Y-59472826D02*
X188309000Y-58114826D01*
X188670000Y-63023826D02*
X188670000Y-61552826D01*
X187469000Y-59472826D02*
X187469000Y-58648826D01*
X187309000Y-59472826D02*
X187309000Y-58813826D01*
X188630000Y-59472826D02*
X188630000Y-58011826D01*
X187669000Y-62547826D02*
X187669000Y-61552826D01*
X187469000Y-62376826D02*
X187469000Y-61552826D01*
X188509000Y-59472826D02*
X188509000Y-58044826D01*
X188870000Y-59472826D02*
X188870000Y-57962826D01*
X187589000Y-59472826D02*
X187589000Y-58541826D01*
X186869000Y-61523826D02*
X186869000Y-59501826D01*
X186749000Y-61189826D02*
X186749000Y-59835826D01*
X187429000Y-59472826D02*
X187429000Y-58686826D01*
X187589000Y-62483826D02*
X187589000Y-61552826D01*
X188269000Y-59472826D02*
X188269000Y-58130826D01*
X187549000Y-59472826D02*
X187549000Y-58575826D01*
X188950000Y-59472826D02*
X188950000Y-57951826D01*
X186909000Y-61610826D02*
X186909000Y-59414826D01*
X187789000Y-59472826D02*
X187789000Y-58390826D01*
X188109000Y-59472826D02*
X188109000Y-58202826D01*
X188830000Y-59472826D02*
X188830000Y-57969826D01*
X188269000Y-62894826D02*
X188269000Y-61552826D01*
X187149000Y-62012826D02*
X187149000Y-59012826D01*
X188469000Y-59472826D02*
X188469000Y-58057826D01*
X188429000Y-62954826D02*
X188429000Y-61552826D01*
X188309000Y-62910826D02*
X188309000Y-61552826D01*
X188389000Y-62940826D02*
X188389000Y-61552826D01*
X188549000Y-62992826D02*
X188549000Y-61552826D01*
X187629000Y-59472826D02*
X187629000Y-58508826D01*
X189230000Y-63092826D02*
X189230000Y-61552826D01*
X187749000Y-62607826D02*
X187749000Y-61552826D01*
X187389000Y-59472826D02*
X187389000Y-58727826D01*
X189070000Y-63085826D02*
X189070000Y-61552826D01*
X187429000Y-62338826D02*
X187429000Y-61552826D01*
X188549000Y-59472826D02*
X188549000Y-58032826D01*
X187709000Y-59472826D02*
X187709000Y-58447826D01*
X186789000Y-61317826D02*
X186789000Y-59707826D01*
X189150000Y-63090826D02*
X189150000Y-61552826D01*
X188429000Y-59472826D02*
X188429000Y-58070826D01*
X188469000Y-62967826D02*
X188469000Y-61552826D01*
X188910000Y-59472826D02*
X188910000Y-57956826D01*
X187349000Y-59472826D02*
X187349000Y-58769826D01*
X188790000Y-59472826D02*
X188790000Y-57976826D01*
X188349000Y-59472826D02*
X188349000Y-58098826D01*
X187829000Y-59472826D02*
X187829000Y-58363826D01*
X188910000Y-63068826D02*
X188910000Y-61552826D01*
X187829000Y-62661826D02*
X187829000Y-61552826D01*
X188229000Y-59472826D02*
X188229000Y-58147826D01*
X186949000Y-61690826D02*
X186949000Y-59334826D01*
X188990000Y-63077826D02*
X188990000Y-61552826D01*
X189110000Y-63088826D02*
X189110000Y-61552826D01*
X187549000Y-62449826D02*
X187549000Y-61552826D01*
X188189000Y-59472826D02*
X188189000Y-58164826D01*
X187949000Y-62736826D02*
X187949000Y-61552826D01*
X187989000Y-59472826D02*
X187989000Y-58265826D01*
X189270000Y-63092826D02*
X189270000Y-61552826D01*
X188750000Y-63040826D02*
X188750000Y-61552826D01*
X188710000Y-63032826D02*
X188710000Y-61552826D01*
X189030000Y-63081826D02*
X189030000Y-61552826D01*
X189270000Y-59472826D02*
X189270000Y-57932826D01*
X188149000Y-62841826D02*
X188149000Y-61552826D01*
X191890000Y-60512826D02*
G75*
G03*
X191890000Y-60512826I-2620000J0D01*
G01*
%TO.C,C27*%
X138108000Y-80276000D02*
X135752000Y-80276000D01*
X139052000Y-79436000D02*
X137970000Y-79436000D01*
X135890000Y-79676000D02*
X134993000Y-79676000D01*
X135890000Y-78395000D02*
X134387000Y-78395000D01*
X135890000Y-78916000D02*
X134532000Y-78916000D01*
X137607000Y-80476000D02*
X136253000Y-80476000D01*
X139240000Y-79116000D02*
X137970000Y-79116000D01*
X139473000Y-78395000D02*
X137970000Y-78395000D01*
X135890000Y-78155000D02*
X134357000Y-78155000D01*
X135890000Y-78195000D02*
X134361000Y-78195000D01*
X135890000Y-78275000D02*
X134369000Y-78275000D01*
X139198000Y-79196000D02*
X137970000Y-79196000D01*
X138756000Y-79796000D02*
X137970000Y-79796000D01*
X135890000Y-78355000D02*
X134380000Y-78355000D01*
X135890000Y-78235000D02*
X134365000Y-78235000D01*
X135890000Y-79116000D02*
X134620000Y-79116000D01*
X135890000Y-78475000D02*
X134402000Y-78475000D01*
X138535000Y-79996000D02*
X135325000Y-79996000D01*
X139506000Y-78115000D02*
X137970000Y-78115000D01*
X135890000Y-77995000D02*
X134350000Y-77995000D01*
X139130000Y-79316000D02*
X137970000Y-79316000D01*
X135890000Y-78876000D02*
X134516000Y-78876000D01*
X135890000Y-78756000D02*
X134475000Y-78756000D01*
X135890000Y-79236000D02*
X134683000Y-79236000D01*
X139491000Y-78275000D02*
X137970000Y-78275000D01*
X135890000Y-79796000D02*
X135104000Y-79796000D01*
X135890000Y-79436000D02*
X134808000Y-79436000D01*
X138583000Y-79956000D02*
X137970000Y-79956000D01*
X135890000Y-78836000D02*
X134502000Y-78836000D01*
X135890000Y-79916000D02*
X135231000Y-79916000D01*
X139278000Y-79036000D02*
X137970000Y-79036000D01*
X139328000Y-78916000D02*
X137970000Y-78916000D01*
X138934000Y-79596000D02*
X137970000Y-79596000D01*
X135890000Y-78555000D02*
X134419000Y-78555000D01*
X138181000Y-80236000D02*
X135679000Y-80236000D01*
X135890000Y-78996000D02*
X134565000Y-78996000D01*
X139154000Y-79276000D02*
X137970000Y-79276000D01*
X138249000Y-80196000D02*
X135611000Y-80196000D01*
X139510000Y-77955000D02*
X137970000Y-77955000D01*
X135890000Y-78716000D02*
X134462000Y-78716000D01*
X139508000Y-78075000D02*
X137970000Y-78075000D01*
X138373000Y-80116000D02*
X135487000Y-80116000D01*
X135890000Y-77955000D02*
X134350000Y-77955000D01*
X139509000Y-78035000D02*
X137970000Y-78035000D01*
X139495000Y-78235000D02*
X137970000Y-78235000D01*
X139312000Y-78956000D02*
X137970000Y-78956000D01*
X135890000Y-79516000D02*
X134865000Y-79516000D01*
X139259000Y-79076000D02*
X137970000Y-79076000D01*
X135890000Y-78035000D02*
X134351000Y-78035000D01*
X137448000Y-80516000D02*
X136412000Y-80516000D01*
X135890000Y-79156000D02*
X134640000Y-79156000D01*
X139510000Y-77995000D02*
X137970000Y-77995000D01*
X135890000Y-79756000D02*
X135066000Y-79756000D01*
X135890000Y-78676000D02*
X134450000Y-78676000D01*
X137941000Y-80356000D02*
X135919000Y-80356000D01*
X138831000Y-79716000D02*
X137970000Y-79716000D01*
X135890000Y-79956000D02*
X135277000Y-79956000D01*
X139486000Y-78315000D02*
X137970000Y-78315000D01*
X135890000Y-79716000D02*
X135029000Y-79716000D01*
X139431000Y-78595000D02*
X137970000Y-78595000D01*
X135890000Y-79596000D02*
X134926000Y-79596000D01*
X138629000Y-79916000D02*
X137970000Y-79916000D01*
X139385000Y-78756000D02*
X137970000Y-78756000D01*
X135890000Y-78595000D02*
X134429000Y-78595000D01*
X138430000Y-80076000D02*
X135430000Y-80076000D01*
X138655000Y-75400225D02*
X138155000Y-75400225D01*
X139503000Y-78155000D02*
X137970000Y-78155000D01*
X138867000Y-79676000D02*
X137970000Y-79676000D01*
X139220000Y-79156000D02*
X137970000Y-79156000D01*
X135890000Y-79076000D02*
X134601000Y-79076000D01*
X138901000Y-79636000D02*
X137970000Y-79636000D01*
X139480000Y-78355000D02*
X137970000Y-78355000D01*
X138028000Y-80316000D02*
X135832000Y-80316000D01*
X138995000Y-79516000D02*
X137970000Y-79516000D01*
X135890000Y-78635000D02*
X134439000Y-78635000D01*
X138673000Y-79876000D02*
X137970000Y-79876000D01*
X135890000Y-79556000D02*
X134895000Y-79556000D01*
X139372000Y-78796000D02*
X137970000Y-78796000D01*
X139441000Y-78555000D02*
X137970000Y-78555000D01*
X135890000Y-78115000D02*
X134354000Y-78115000D01*
X139079000Y-79396000D02*
X137970000Y-79396000D01*
X138484000Y-80036000D02*
X135376000Y-80036000D01*
X135890000Y-78956000D02*
X134548000Y-78956000D01*
X135890000Y-79316000D02*
X134730000Y-79316000D01*
X139410000Y-78676000D02*
X137970000Y-78676000D01*
X138405000Y-75150225D02*
X138405000Y-75650225D01*
X139105000Y-79356000D02*
X137970000Y-79356000D01*
X135890000Y-79396000D02*
X134781000Y-79396000D01*
X135890000Y-78075000D02*
X134352000Y-78075000D01*
X138715000Y-79836000D02*
X137970000Y-79836000D01*
X135890000Y-79196000D02*
X134662000Y-79196000D01*
X139177000Y-79236000D02*
X137970000Y-79236000D01*
X135890000Y-79276000D02*
X134706000Y-79276000D01*
X135890000Y-78315000D02*
X134374000Y-78315000D01*
X135890000Y-79036000D02*
X134582000Y-79036000D01*
X139499000Y-78195000D02*
X137970000Y-78195000D01*
X135890000Y-78515000D02*
X134410000Y-78515000D01*
X138965000Y-79556000D02*
X137970000Y-79556000D01*
X139421000Y-78635000D02*
X137970000Y-78635000D01*
X135890000Y-79476000D02*
X134835000Y-79476000D01*
X135890000Y-78796000D02*
X134488000Y-78796000D01*
X135890000Y-79836000D02*
X135145000Y-79836000D01*
X139344000Y-78876000D02*
X137970000Y-78876000D01*
X139398000Y-78716000D02*
X137970000Y-78716000D01*
X139295000Y-78996000D02*
X137970000Y-78996000D01*
X139450000Y-78515000D02*
X137970000Y-78515000D01*
X135890000Y-78435000D02*
X134394000Y-78435000D01*
X137214000Y-80556000D02*
X136646000Y-80556000D01*
X135890000Y-79636000D02*
X134959000Y-79636000D01*
X139466000Y-78435000D02*
X137970000Y-78435000D01*
X135890000Y-79356000D02*
X134755000Y-79356000D01*
X135890000Y-79876000D02*
X135187000Y-79876000D01*
X139458000Y-78475000D02*
X137970000Y-78475000D01*
X139025000Y-79476000D02*
X137970000Y-79476000D01*
X138794000Y-79756000D02*
X137970000Y-79756000D01*
X138313000Y-80156000D02*
X135547000Y-80156000D01*
X137735000Y-80436000D02*
X136125000Y-80436000D01*
X139358000Y-78836000D02*
X137970000Y-78836000D01*
X137845000Y-80396000D02*
X136015000Y-80396000D01*
X139550000Y-77955000D02*
G75*
G03*
X139550000Y-77955000I-2620000J0D01*
G01*
%TO.C,C17*%
X84844539Y-94340304D02*
X84844539Y-99280304D01*
X87584539Y-99280304D02*
X87269539Y-99280304D01*
X87584539Y-94340304D02*
X87269539Y-94340304D01*
X87584539Y-94340304D02*
X87584539Y-99280304D01*
X85159539Y-99280304D02*
X84844539Y-99280304D01*
X85159539Y-94340304D02*
X84844539Y-94340304D01*
%TO.C,C4*%
X189215000Y-94225000D02*
X188900000Y-94225000D01*
X189215000Y-99165000D02*
X188900000Y-99165000D01*
X188900000Y-94225000D02*
X188900000Y-99165000D01*
X191640000Y-94225000D02*
X191325000Y-94225000D01*
X191640000Y-94225000D02*
X191640000Y-99165000D01*
X191640000Y-99165000D02*
X191325000Y-99165000D01*
%TO.C,D2*%
X80740000Y-45030000D02*
X80740000Y-42170000D01*
X78820000Y-42170000D02*
X78820000Y-45030000D01*
X80740000Y-42170000D02*
X78820000Y-42170000D01*
%TO.C,G\u002A\u002A\u002A*%
G36*
X194694451Y-38966903D02*
G01*
X194842062Y-38967011D01*
X195004590Y-38967177D01*
X195182775Y-38967396D01*
X195367460Y-38967649D01*
X196935897Y-38969877D01*
X196984840Y-38989647D01*
X197058184Y-39028314D01*
X197122187Y-39080853D01*
X197175809Y-39146189D01*
X197218012Y-39223246D01*
X197223868Y-39237167D01*
X197229234Y-39250945D01*
X197233530Y-39264202D01*
X197236873Y-39278946D01*
X197239381Y-39297185D01*
X197241170Y-39320928D01*
X197242359Y-39352184D01*
X197243064Y-39392959D01*
X197243403Y-39445262D01*
X197243493Y-39511102D01*
X197243467Y-39572604D01*
X197243093Y-39667622D01*
X197241948Y-39748320D01*
X197239781Y-39817466D01*
X197236337Y-39877830D01*
X197231363Y-39932181D01*
X197224605Y-39983291D01*
X197215811Y-40033927D01*
X197204727Y-40086860D01*
X197191133Y-40144720D01*
X197141420Y-40312948D01*
X197075471Y-40477295D01*
X196993974Y-40636319D01*
X196897617Y-40788577D01*
X196857780Y-40843651D01*
X196792275Y-40924144D01*
X196715933Y-41006249D01*
X196631938Y-41087194D01*
X196543471Y-41164207D01*
X196453716Y-41234515D01*
X196365856Y-41295346D01*
X196283963Y-41343461D01*
X196253915Y-41357482D01*
X196226505Y-41364924D01*
X196193631Y-41367617D01*
X196176278Y-41367771D01*
X196120157Y-41363424D01*
X196080102Y-41351660D01*
X196052449Y-41335535D01*
X196023463Y-41313367D01*
X196012857Y-41303554D01*
X195979422Y-41262980D01*
X195958980Y-41219202D01*
X195949684Y-41167491D01*
X195948639Y-41139239D01*
X195948732Y-41119614D01*
X195949741Y-41102693D01*
X195952561Y-41086092D01*
X195958089Y-41067425D01*
X195967222Y-41044307D01*
X195980857Y-41014353D01*
X195999889Y-40975178D01*
X196025215Y-40924396D01*
X196041823Y-40891309D01*
X196074658Y-40825499D01*
X196100406Y-40772544D01*
X196119915Y-40730153D01*
X196134031Y-40696035D01*
X196143605Y-40667900D01*
X196149482Y-40643458D01*
X196152512Y-40620417D01*
X196153542Y-40596486D01*
X196153587Y-40589386D01*
X196145594Y-40515584D01*
X196122431Y-40447468D01*
X196085552Y-40386718D01*
X196036410Y-40335016D01*
X195976458Y-40294042D01*
X195907149Y-40265479D01*
X195864997Y-40255567D01*
X195800060Y-40252234D01*
X195733035Y-40263221D01*
X195668279Y-40287010D01*
X195610147Y-40322083D01*
X195570465Y-40358213D01*
X195557350Y-40375657D01*
X195538074Y-40405769D01*
X195512410Y-40448949D01*
X195480132Y-40505596D01*
X195441016Y-40576110D01*
X195394835Y-40660889D01*
X195341365Y-40760334D01*
X195307286Y-40824206D01*
X195264742Y-40903861D01*
X195223967Y-40979670D01*
X195185774Y-41050160D01*
X195150976Y-41113852D01*
X195120387Y-41169273D01*
X195094818Y-41214947D01*
X195075082Y-41249397D01*
X195061993Y-41271149D01*
X195057470Y-41277736D01*
X195017541Y-41313402D01*
X194968102Y-41337704D01*
X194913037Y-41349909D01*
X194856229Y-41349285D01*
X194801562Y-41335097D01*
X194787444Y-41328732D01*
X194736027Y-41294244D01*
X194696552Y-41249182D01*
X194670450Y-41196066D01*
X194659154Y-41137417D01*
X194659755Y-41103884D01*
X194662543Y-41085528D01*
X194668268Y-41064214D01*
X194677823Y-41037790D01*
X194692101Y-41004104D01*
X194711996Y-40961002D01*
X194738402Y-40906333D01*
X194759492Y-40863549D01*
X194793571Y-40793938D01*
X194820218Y-40737011D01*
X194840134Y-40690416D01*
X194854020Y-40651798D01*
X194862579Y-40618803D01*
X194866512Y-40589077D01*
X194866522Y-40560265D01*
X194863310Y-40530013D01*
X194861820Y-40520290D01*
X194843605Y-40451743D01*
X194811542Y-40390624D01*
X194764168Y-40334265D01*
X194754722Y-40325186D01*
X194694101Y-40279471D01*
X194627646Y-40249149D01*
X194557427Y-40234450D01*
X194485512Y-40235604D01*
X194413972Y-40252841D01*
X194354382Y-40280670D01*
X194198360Y-40381254D01*
X194052857Y-40495015D01*
X193918609Y-40621108D01*
X193796350Y-40758688D01*
X193686812Y-40906911D01*
X193590731Y-41064933D01*
X193508840Y-41231908D01*
X193491032Y-41274068D01*
X193461345Y-41346585D01*
X193460974Y-40323567D01*
X193460927Y-40169638D01*
X193460912Y-40031858D01*
X193460943Y-39909279D01*
X193461035Y-39800952D01*
X193461201Y-39705929D01*
X193461456Y-39623260D01*
X193461813Y-39551997D01*
X193462286Y-39491191D01*
X193462889Y-39439893D01*
X193463637Y-39397155D01*
X193464543Y-39362027D01*
X193465621Y-39333561D01*
X193466884Y-39310807D01*
X193468348Y-39292818D01*
X193470026Y-39278644D01*
X193471933Y-39267337D01*
X193474081Y-39257947D01*
X193476484Y-39249526D01*
X193476800Y-39248507D01*
X193507969Y-39176067D01*
X193553086Y-39110641D01*
X193609742Y-39054590D01*
X193675528Y-39010276D01*
X193748034Y-38980063D01*
X193751641Y-38979009D01*
X193758682Y-38977332D01*
X193768081Y-38975802D01*
X193780577Y-38974413D01*
X193796909Y-38973161D01*
X193817816Y-38972039D01*
X193844036Y-38971044D01*
X193876308Y-38970168D01*
X193915372Y-38969408D01*
X193961966Y-38968759D01*
X194016828Y-38968214D01*
X194080698Y-38967769D01*
X194154314Y-38967418D01*
X194238416Y-38967157D01*
X194333742Y-38966980D01*
X194441030Y-38966882D01*
X194561021Y-38966858D01*
X194694451Y-38966903D01*
G37*
G36*
X194569262Y-40347477D02*
G01*
X194622896Y-40365184D01*
X194670391Y-40395378D01*
X194709603Y-40435806D01*
X194738391Y-40484212D01*
X194754612Y-40538341D01*
X194756123Y-40595938D01*
X194755478Y-40601115D01*
X194750226Y-40623306D01*
X194739080Y-40654200D01*
X194721408Y-40695243D01*
X194696579Y-40747886D01*
X194663961Y-40813578D01*
X194655968Y-40829352D01*
X194620942Y-40899267D01*
X194593616Y-40956671D01*
X194573282Y-41003945D01*
X194559234Y-41043467D01*
X194550764Y-41077617D01*
X194547165Y-41108773D01*
X194547730Y-41139315D01*
X194551753Y-41171622D01*
X194552649Y-41176990D01*
X194573037Y-41247917D01*
X194607819Y-41312929D01*
X194654927Y-41369306D01*
X194712290Y-41414327D01*
X194747718Y-41433382D01*
X194813687Y-41454650D01*
X194883438Y-41461264D01*
X194953711Y-41453950D01*
X195021246Y-41433434D01*
X195082782Y-41400442D01*
X195135060Y-41355701D01*
X195144479Y-41344975D01*
X195153533Y-41331417D01*
X195169733Y-41304232D01*
X195192248Y-41264916D01*
X195220249Y-41214968D01*
X195252907Y-41155884D01*
X195289391Y-41089161D01*
X195328873Y-41016298D01*
X195370522Y-40938791D01*
X195396640Y-40889870D01*
X195439070Y-40810441D01*
X195479700Y-40734865D01*
X195517716Y-40664619D01*
X195552307Y-40601182D01*
X195582662Y-40546031D01*
X195607967Y-40500645D01*
X195627411Y-40466502D01*
X195640183Y-40445079D01*
X195644401Y-40438825D01*
X195684144Y-40402300D01*
X195734672Y-40377176D01*
X195792956Y-40364781D01*
X195815937Y-40363686D01*
X195851836Y-40364739D01*
X195878788Y-40369609D01*
X195904845Y-40380272D01*
X195922804Y-40389937D01*
X195974951Y-40427762D01*
X196012148Y-40473870D01*
X196034272Y-40528032D01*
X196041203Y-40590019D01*
X196040202Y-40611345D01*
X196037931Y-40629455D01*
X196033491Y-40648804D01*
X196025963Y-40671625D01*
X196014430Y-40700155D01*
X195997971Y-40736629D01*
X195975668Y-40783280D01*
X195946603Y-40842345D01*
X195938794Y-40858064D01*
X195841585Y-41053487D01*
X195841832Y-41144466D01*
X195842281Y-41186095D01*
X195844019Y-41215712D01*
X195848037Y-41238399D01*
X195855325Y-41259241D01*
X195866872Y-41283319D01*
X195870095Y-41289580D01*
X195913068Y-41355071D01*
X195967561Y-41408068D01*
X196032229Y-41447670D01*
X196062681Y-41461174D01*
X196088140Y-41469303D01*
X196115162Y-41473380D01*
X196150307Y-41474733D01*
X196166459Y-41474809D01*
X196215238Y-41474133D01*
X196252456Y-41471090D01*
X196283627Y-41464190D01*
X196314266Y-41451942D01*
X196349888Y-41432857D01*
X196373765Y-41418809D01*
X196528212Y-41316713D01*
X196671878Y-41201617D01*
X196804073Y-41074322D01*
X196924111Y-40935628D01*
X197031303Y-40786336D01*
X197124962Y-40627246D01*
X197204401Y-40459161D01*
X197210415Y-40444633D01*
X197243672Y-40363415D01*
X197245845Y-41361923D01*
X197246188Y-41518688D01*
X197246473Y-41659319D01*
X197246661Y-41784779D01*
X197246713Y-41896034D01*
X197246593Y-41994047D01*
X197246260Y-42079784D01*
X197245676Y-42154208D01*
X197244804Y-42218284D01*
X197243604Y-42272975D01*
X197242039Y-42319247D01*
X197240070Y-42358063D01*
X197237658Y-42390389D01*
X197234765Y-42417188D01*
X197231353Y-42439424D01*
X197227383Y-42458062D01*
X197222816Y-42474067D01*
X197217615Y-42488402D01*
X197211741Y-42502032D01*
X197205155Y-42515922D01*
X197199394Y-42527774D01*
X197170400Y-42574535D01*
X197130239Y-42621702D01*
X197083942Y-42664243D01*
X197036543Y-42697124D01*
X197022820Y-42704371D01*
X197010871Y-42710271D01*
X196999940Y-42715670D01*
X196989259Y-42720591D01*
X196978062Y-42725056D01*
X196965580Y-42729086D01*
X196951047Y-42732704D01*
X196933693Y-42735930D01*
X196912752Y-42738788D01*
X196887455Y-42741299D01*
X196857036Y-42743484D01*
X196820726Y-42745366D01*
X196777758Y-42746966D01*
X196727365Y-42748307D01*
X196668777Y-42749409D01*
X196601229Y-42750296D01*
X196523952Y-42750989D01*
X196436178Y-42751509D01*
X196337141Y-42751879D01*
X196226071Y-42752120D01*
X196102202Y-42752255D01*
X195964766Y-42752305D01*
X195812995Y-42752291D01*
X195646122Y-42752237D01*
X195463379Y-42752163D01*
X195345725Y-42752119D01*
X195151161Y-42752031D01*
X194972996Y-42751906D01*
X194810531Y-42751739D01*
X194663065Y-42751525D01*
X194529899Y-42751258D01*
X194410333Y-42750932D01*
X194303668Y-42750542D01*
X194209204Y-42750083D01*
X194126241Y-42749550D01*
X194054080Y-42748936D01*
X193992021Y-42748237D01*
X193939365Y-42747447D01*
X193895411Y-42746561D01*
X193859461Y-42745573D01*
X193830814Y-42744477D01*
X193808771Y-42743270D01*
X193792632Y-42741944D01*
X193781697Y-42740495D01*
X193779173Y-42740002D01*
X193702418Y-42714867D01*
X193632690Y-42675293D01*
X193572036Y-42623156D01*
X193522502Y-42560331D01*
X193486135Y-42488692D01*
X193477394Y-42463507D01*
X193472599Y-42446624D01*
X193468805Y-42429046D01*
X193465897Y-42408591D01*
X193463760Y-42383079D01*
X193462280Y-42350328D01*
X193461340Y-42308158D01*
X193460827Y-42254387D01*
X193460624Y-42186835D01*
X193460603Y-42145483D01*
X193461532Y-42027790D01*
X193464585Y-41924241D01*
X193470159Y-41831969D01*
X193478652Y-41748105D01*
X193490462Y-41669783D01*
X193505985Y-41594136D01*
X193525620Y-41518295D01*
X193549764Y-41439393D01*
X193564662Y-41394953D01*
X193628921Y-41234040D01*
X193708578Y-41079252D01*
X193802625Y-40931900D01*
X193910053Y-40793293D01*
X194029854Y-40664742D01*
X194161018Y-40547556D01*
X194292020Y-40450122D01*
X194349069Y-40412568D01*
X194395687Y-40384661D01*
X194434578Y-40365101D01*
X194468447Y-40352588D01*
X194499996Y-40345822D01*
X194511633Y-40344514D01*
X194569262Y-40347477D01*
G37*
%TO.C,C9*%
X74824887Y-114920000D02*
X74824887Y-116459000D01*
X77225887Y-113075000D02*
X77225887Y-114685000D01*
X76225887Y-114920000D02*
X76225887Y-116002000D01*
X75465887Y-114920000D02*
X75465887Y-116360000D01*
X75745887Y-111498000D02*
X75745887Y-112840000D01*
X76385887Y-111876000D02*
X76385887Y-112840000D01*
X76745887Y-112227000D02*
X76745887Y-112840000D01*
X75625887Y-114920000D02*
X75625887Y-116308000D01*
X76105887Y-111680000D02*
X76105887Y-112840000D01*
X76585887Y-112054000D02*
X76585887Y-112840000D01*
X74744887Y-111300000D02*
X74744887Y-112840000D01*
X77065887Y-112702000D02*
X77065887Y-115058000D01*
X74744887Y-114920000D02*
X74744887Y-116460000D01*
X76465887Y-111943000D02*
X76465887Y-112840000D01*
X76185887Y-111731000D02*
X76185887Y-112840000D01*
X76665887Y-114920000D02*
X76665887Y-115623000D01*
X75865887Y-114920000D02*
X75865887Y-116209000D01*
X75505887Y-114920000D02*
X75505887Y-116348000D01*
X75344887Y-111369000D02*
X75344887Y-112840000D01*
X76065887Y-114920000D02*
X76065887Y-116104000D01*
X75625887Y-111452000D02*
X75625887Y-112840000D01*
X77345887Y-113596000D02*
X77345887Y-114164000D01*
X75745887Y-114920000D02*
X75745887Y-116262000D01*
X75024887Y-114920000D02*
X75024887Y-116445000D01*
X74864887Y-114920000D02*
X74864887Y-116458000D01*
X76545887Y-114920000D02*
X76545887Y-115744000D01*
X75264887Y-114920000D02*
X75264887Y-116408000D01*
X76265887Y-114920000D02*
X76265887Y-115975000D01*
X75344887Y-114920000D02*
X75344887Y-116391000D01*
X76945887Y-112497000D02*
X76945887Y-115263000D01*
X76985887Y-112561000D02*
X76985887Y-115199000D01*
X76665887Y-112137000D02*
X76665887Y-112840000D01*
X75705887Y-114920000D02*
X75705887Y-116278000D01*
X76865887Y-112380000D02*
X76865887Y-115380000D01*
X76745887Y-114920000D02*
X76745887Y-115533000D01*
X76625887Y-112095000D02*
X76625887Y-112840000D01*
X75545887Y-111425000D02*
X75545887Y-112840000D01*
X75064887Y-114920000D02*
X75064887Y-116441000D01*
X76905887Y-112437000D02*
X76905887Y-115323000D01*
X76145887Y-114920000D02*
X76145887Y-116055000D01*
X76465887Y-114920000D02*
X76465887Y-115817000D01*
X74864887Y-111302000D02*
X74864887Y-112840000D01*
X75224887Y-111344000D02*
X75224887Y-112840000D01*
X76305887Y-114920000D02*
X76305887Y-115945000D01*
X75985887Y-114920000D02*
X75985887Y-116148000D01*
X76625887Y-114920000D02*
X76625887Y-115665000D01*
X76185887Y-114920000D02*
X76185887Y-116029000D01*
X74824887Y-111301000D02*
X74824887Y-112840000D01*
X75825887Y-114920000D02*
X75825887Y-116228000D01*
X77025887Y-112629000D02*
X77025887Y-115131000D01*
X76225887Y-111758000D02*
X76225887Y-112840000D01*
X77185887Y-112965000D02*
X77185887Y-114795000D01*
X76265887Y-111785000D02*
X76265887Y-112840000D01*
X75104887Y-111324000D02*
X75104887Y-112840000D01*
X74984887Y-114920000D02*
X74984887Y-116449000D01*
X75104887Y-114920000D02*
X75104887Y-116436000D01*
X75945887Y-111590000D02*
X75945887Y-112840000D01*
X75985887Y-111612000D02*
X75985887Y-112840000D01*
X75264887Y-111352000D02*
X75264887Y-112840000D01*
X75905887Y-111570000D02*
X75905887Y-112840000D01*
X77105887Y-112782000D02*
X77105887Y-114978000D01*
X75665887Y-114920000D02*
X75665887Y-116294000D01*
X75024887Y-111315000D02*
X75024887Y-112840000D01*
X75465887Y-111400000D02*
X75465887Y-112840000D01*
X72190112Y-112155000D02*
X72190112Y-112655000D01*
X77145887Y-112869000D02*
X77145887Y-114891000D01*
X76385887Y-114920000D02*
X76385887Y-115884000D01*
X76025887Y-114920000D02*
X76025887Y-116127000D01*
X75505887Y-111412000D02*
X75505887Y-112840000D01*
X76825887Y-112326000D02*
X76825887Y-115434000D01*
X76105887Y-114920000D02*
X76105887Y-116080000D01*
X76505887Y-114920000D02*
X76505887Y-115781000D01*
X75665887Y-111466000D02*
X75665887Y-112840000D01*
X75585887Y-114920000D02*
X75585887Y-116322000D01*
X74784887Y-114920000D02*
X74784887Y-116460000D01*
X75545887Y-114920000D02*
X75545887Y-116335000D01*
X75064887Y-111319000D02*
X75064887Y-112840000D01*
X75144887Y-111330000D02*
X75144887Y-112840000D01*
X76305887Y-111815000D02*
X76305887Y-112840000D01*
X74984887Y-111311000D02*
X74984887Y-112840000D01*
X74784887Y-111300000D02*
X74784887Y-112840000D01*
X76025887Y-111633000D02*
X76025887Y-112840000D01*
X75905887Y-114920000D02*
X75905887Y-116190000D01*
X75304887Y-111360000D02*
X75304887Y-112840000D01*
X76505887Y-111979000D02*
X76505887Y-112840000D01*
X76345887Y-111845000D02*
X76345887Y-112840000D01*
X74904887Y-111304000D02*
X74904887Y-112840000D01*
X77265887Y-113203000D02*
X77265887Y-114557000D01*
X76585887Y-114920000D02*
X76585887Y-115706000D01*
X74944887Y-114920000D02*
X74944887Y-116453000D01*
X75785887Y-111515000D02*
X75785887Y-112840000D01*
X75585887Y-111438000D02*
X75585887Y-112840000D01*
X77305887Y-113362000D02*
X77305887Y-114398000D01*
X75384887Y-114920000D02*
X75384887Y-116381000D01*
X75424887Y-111389000D02*
X75424887Y-112840000D01*
X74904887Y-114920000D02*
X74904887Y-116456000D01*
X75304887Y-114920000D02*
X75304887Y-116400000D01*
X71940112Y-112405000D02*
X72440112Y-112405000D01*
X76705887Y-112181000D02*
X76705887Y-112840000D01*
X76065887Y-111656000D02*
X76065887Y-112840000D01*
X75424887Y-114920000D02*
X75424887Y-116371000D01*
X76545887Y-112016000D02*
X76545887Y-112840000D01*
X74944887Y-111307000D02*
X74944887Y-112840000D01*
X76345887Y-114920000D02*
X76345887Y-115915000D01*
X75144887Y-114920000D02*
X75144887Y-116430000D01*
X75825887Y-111532000D02*
X75825887Y-112840000D01*
X75384887Y-111379000D02*
X75384887Y-112840000D01*
X75785887Y-114920000D02*
X75785887Y-116245000D01*
X75224887Y-114920000D02*
X75224887Y-116416000D01*
X75184887Y-111337000D02*
X75184887Y-112840000D01*
X76145887Y-111705000D02*
X76145887Y-112840000D01*
X76785887Y-112275000D02*
X76785887Y-115485000D01*
X75865887Y-111551000D02*
X75865887Y-112840000D01*
X76425887Y-114920000D02*
X76425887Y-115851000D01*
X75705887Y-111482000D02*
X75705887Y-112840000D01*
X76425887Y-111909000D02*
X76425887Y-112840000D01*
X75184887Y-114920000D02*
X75184887Y-116423000D01*
X75945887Y-114920000D02*
X75945887Y-116170000D01*
X76705887Y-114920000D02*
X76705887Y-115579000D01*
X77364887Y-113880000D02*
G75*
G03*
X77364887Y-113880000I-2620000J0D01*
G01*
%TO.C,C19*%
X82940887Y-113075000D02*
X82940887Y-114685000D01*
X80979887Y-114920000D02*
X80979887Y-116408000D01*
X81380887Y-111466000D02*
X81380887Y-112840000D01*
X82100887Y-114920000D02*
X82100887Y-115884000D01*
X81700887Y-114920000D02*
X81700887Y-116148000D01*
X81180887Y-111400000D02*
X81180887Y-112840000D01*
X82220887Y-111979000D02*
X82220887Y-112840000D01*
X81820887Y-111680000D02*
X81820887Y-112840000D01*
X80539887Y-114920000D02*
X80539887Y-116459000D01*
X81660887Y-111590000D02*
X81660887Y-112840000D01*
X80699887Y-114920000D02*
X80699887Y-116449000D01*
X80619887Y-111304000D02*
X80619887Y-112840000D01*
X82460887Y-114920000D02*
X82460887Y-115533000D01*
X80819887Y-114920000D02*
X80819887Y-116436000D01*
X82220887Y-114920000D02*
X82220887Y-115781000D01*
X81980887Y-114920000D02*
X81980887Y-115975000D01*
X81420887Y-111482000D02*
X81420887Y-112840000D01*
X81340887Y-114920000D02*
X81340887Y-116308000D01*
X81099887Y-114920000D02*
X81099887Y-116381000D01*
X80659887Y-111307000D02*
X80659887Y-112840000D01*
X81059887Y-114920000D02*
X81059887Y-116391000D01*
X81940887Y-111758000D02*
X81940887Y-112840000D01*
X80579887Y-114920000D02*
X80579887Y-116458000D01*
X83060887Y-113596000D02*
X83060887Y-114164000D01*
X80659887Y-114920000D02*
X80659887Y-116453000D01*
X82380887Y-114920000D02*
X82380887Y-115623000D01*
X82780887Y-112702000D02*
X82780887Y-115058000D01*
X80499887Y-114920000D02*
X80499887Y-116460000D01*
X81460887Y-114920000D02*
X81460887Y-116262000D01*
X80459887Y-114920000D02*
X80459887Y-116460000D01*
X82420887Y-114920000D02*
X82420887Y-115579000D01*
X81700887Y-111612000D02*
X81700887Y-112840000D01*
X80819887Y-111324000D02*
X80819887Y-112840000D01*
X82820887Y-112782000D02*
X82820887Y-114978000D01*
X82260887Y-112016000D02*
X82260887Y-112840000D01*
X82340887Y-112095000D02*
X82340887Y-112840000D01*
X82020887Y-114920000D02*
X82020887Y-115945000D01*
X81500887Y-111515000D02*
X81500887Y-112840000D01*
X80699887Y-111311000D02*
X80699887Y-112840000D01*
X81620887Y-111570000D02*
X81620887Y-112840000D01*
X82740887Y-112629000D02*
X82740887Y-115131000D01*
X81980887Y-111785000D02*
X81980887Y-112840000D01*
X81820887Y-114920000D02*
X81820887Y-116080000D01*
X81180887Y-114920000D02*
X81180887Y-116360000D01*
X81099887Y-111379000D02*
X81099887Y-112840000D01*
X81740887Y-114920000D02*
X81740887Y-116127000D01*
X81660887Y-114920000D02*
X81660887Y-116170000D01*
X81019887Y-114920000D02*
X81019887Y-116400000D01*
X82660887Y-112497000D02*
X82660887Y-115263000D01*
X82980887Y-113203000D02*
X82980887Y-114557000D01*
X82340887Y-114920000D02*
X82340887Y-115665000D01*
X81460887Y-111498000D02*
X81460887Y-112840000D01*
X82100887Y-111876000D02*
X82100887Y-112840000D01*
X81860887Y-111705000D02*
X81860887Y-112840000D01*
X82460887Y-112227000D02*
X82460887Y-112840000D01*
X80899887Y-114920000D02*
X80899887Y-116423000D01*
X81580887Y-114920000D02*
X81580887Y-116209000D01*
X82260887Y-114920000D02*
X82260887Y-115744000D01*
X81139887Y-114920000D02*
X81139887Y-116371000D01*
X82300887Y-112054000D02*
X82300887Y-112840000D01*
X81300887Y-111438000D02*
X81300887Y-112840000D01*
X81540887Y-114920000D02*
X81540887Y-116228000D01*
X82140887Y-114920000D02*
X82140887Y-115851000D01*
X81380887Y-114920000D02*
X81380887Y-116294000D01*
X80939887Y-114920000D02*
X80939887Y-116416000D01*
X82700887Y-112561000D02*
X82700887Y-115199000D01*
X80739887Y-114920000D02*
X80739887Y-116445000D01*
X80539887Y-111301000D02*
X80539887Y-112840000D01*
X83020887Y-113362000D02*
X83020887Y-114398000D01*
X82540887Y-112326000D02*
X82540887Y-115434000D01*
X81220887Y-114920000D02*
X81220887Y-116348000D01*
X82180887Y-114920000D02*
X82180887Y-115817000D01*
X82140887Y-111909000D02*
X82140887Y-112840000D01*
X82900887Y-112965000D02*
X82900887Y-114795000D01*
X82020887Y-111815000D02*
X82020887Y-112840000D01*
X80459887Y-111300000D02*
X80459887Y-112840000D01*
X81139887Y-111389000D02*
X81139887Y-112840000D01*
X80899887Y-111337000D02*
X80899887Y-112840000D01*
X80979887Y-111352000D02*
X80979887Y-112840000D01*
X81260887Y-114920000D02*
X81260887Y-116335000D01*
X82060887Y-114920000D02*
X82060887Y-115915000D01*
X81340887Y-111452000D02*
X81340887Y-112840000D01*
X81620887Y-114920000D02*
X81620887Y-116190000D01*
X81780887Y-114920000D02*
X81780887Y-116104000D01*
X77905112Y-112155000D02*
X77905112Y-112655000D01*
X80739887Y-111315000D02*
X80739887Y-112840000D01*
X81220887Y-111412000D02*
X81220887Y-112840000D01*
X80779887Y-111319000D02*
X80779887Y-112840000D01*
X80579887Y-111302000D02*
X80579887Y-112840000D01*
X81300887Y-114920000D02*
X81300887Y-116322000D01*
X82620887Y-112437000D02*
X82620887Y-115323000D01*
X82300887Y-114920000D02*
X82300887Y-115706000D01*
X81900887Y-114920000D02*
X81900887Y-116029000D01*
X81260887Y-111425000D02*
X81260887Y-112840000D01*
X82380887Y-112137000D02*
X82380887Y-112840000D01*
X81500887Y-114920000D02*
X81500887Y-116245000D01*
X82420887Y-112181000D02*
X82420887Y-112840000D01*
X80939887Y-111344000D02*
X80939887Y-112840000D01*
X81860887Y-114920000D02*
X81860887Y-116055000D01*
X77655112Y-112405000D02*
X78155112Y-112405000D01*
X80859887Y-114920000D02*
X80859887Y-116430000D01*
X82580887Y-112380000D02*
X82580887Y-115380000D01*
X82500887Y-112275000D02*
X82500887Y-115485000D01*
X80779887Y-114920000D02*
X80779887Y-116441000D01*
X81580887Y-111551000D02*
X81580887Y-112840000D01*
X82180887Y-111943000D02*
X82180887Y-112840000D01*
X82860887Y-112869000D02*
X82860887Y-114891000D01*
X81059887Y-111369000D02*
X81059887Y-112840000D01*
X80499887Y-111300000D02*
X80499887Y-112840000D01*
X81420887Y-114920000D02*
X81420887Y-116278000D01*
X81780887Y-111656000D02*
X81780887Y-112840000D01*
X81900887Y-111731000D02*
X81900887Y-112840000D01*
X81740887Y-111633000D02*
X81740887Y-112840000D01*
X81940887Y-114920000D02*
X81940887Y-116002000D01*
X80859887Y-111330000D02*
X80859887Y-112840000D01*
X81019887Y-111360000D02*
X81019887Y-112840000D01*
X80619887Y-114920000D02*
X80619887Y-116456000D01*
X81540887Y-111532000D02*
X81540887Y-112840000D01*
X82060887Y-111845000D02*
X82060887Y-112840000D01*
X83079887Y-113880000D02*
G75*
G03*
X83079887Y-113880000I-2620000J0D01*
G01*
%TO.C,C30*%
X139570000Y-112045000D02*
X139255000Y-112045000D01*
X137145000Y-112045000D02*
X136830000Y-112045000D01*
X136830000Y-112045000D02*
X136830000Y-116985000D01*
X137145000Y-116985000D02*
X136830000Y-116985000D01*
X139570000Y-116985000D02*
X139255000Y-116985000D01*
X139570000Y-112045000D02*
X139570000Y-116985000D01*
%TO.C,C3*%
X70950887Y-112137000D02*
X70950887Y-112840000D01*
X71590887Y-113362000D02*
X71590887Y-114398000D01*
X70790887Y-111979000D02*
X70790887Y-112840000D01*
X69870887Y-114920000D02*
X69870887Y-116322000D01*
X69389887Y-111324000D02*
X69389887Y-112840000D01*
X70790887Y-114920000D02*
X70790887Y-115781000D01*
X70910887Y-114920000D02*
X70910887Y-115665000D01*
X70070887Y-114920000D02*
X70070887Y-116245000D01*
X70110887Y-111532000D02*
X70110887Y-112840000D01*
X71470887Y-112965000D02*
X71470887Y-114795000D01*
X69269887Y-111311000D02*
X69269887Y-112840000D01*
X69069887Y-114920000D02*
X69069887Y-116460000D01*
X70550887Y-111785000D02*
X70550887Y-112840000D01*
X69549887Y-111352000D02*
X69549887Y-112840000D01*
X69349887Y-111319000D02*
X69349887Y-112840000D01*
X70390887Y-111680000D02*
X70390887Y-112840000D01*
X69509887Y-111344000D02*
X69509887Y-112840000D01*
X70590887Y-111815000D02*
X70590887Y-112840000D01*
X69309887Y-114920000D02*
X69309887Y-116445000D01*
X71150887Y-112380000D02*
X71150887Y-115380000D01*
X69990887Y-114920000D02*
X69990887Y-116278000D01*
X69229887Y-111307000D02*
X69229887Y-112840000D01*
X70710887Y-111909000D02*
X70710887Y-112840000D01*
X69349887Y-114920000D02*
X69349887Y-116441000D01*
X71230887Y-112497000D02*
X71230887Y-115263000D01*
X69629887Y-114920000D02*
X69629887Y-116391000D01*
X69790887Y-111412000D02*
X69790887Y-112840000D01*
X70550887Y-114920000D02*
X70550887Y-115975000D01*
X69189887Y-111304000D02*
X69189887Y-112840000D01*
X69389887Y-114920000D02*
X69389887Y-116436000D01*
X69469887Y-114920000D02*
X69469887Y-116423000D01*
X70510887Y-111758000D02*
X70510887Y-112840000D01*
X69189887Y-114920000D02*
X69189887Y-116456000D01*
X69149887Y-111302000D02*
X69149887Y-112840000D01*
X66225112Y-112405000D02*
X66725112Y-112405000D01*
X70150887Y-114920000D02*
X70150887Y-116209000D01*
X70590887Y-114920000D02*
X70590887Y-115945000D01*
X69109887Y-111301000D02*
X69109887Y-112840000D01*
X69149887Y-114920000D02*
X69149887Y-116458000D01*
X70750887Y-111943000D02*
X70750887Y-112840000D01*
X71350887Y-112702000D02*
X71350887Y-115058000D01*
X70270887Y-114920000D02*
X70270887Y-116148000D01*
X71190887Y-112437000D02*
X71190887Y-115323000D01*
X70030887Y-114920000D02*
X70030887Y-116262000D01*
X70350887Y-114920000D02*
X70350887Y-116104000D01*
X70470887Y-111731000D02*
X70470887Y-112840000D01*
X70230887Y-114920000D02*
X70230887Y-116170000D01*
X71030887Y-114920000D02*
X71030887Y-115533000D01*
X69950887Y-114920000D02*
X69950887Y-116294000D01*
X70150887Y-111551000D02*
X70150887Y-112840000D01*
X69429887Y-111330000D02*
X69429887Y-112840000D01*
X69029887Y-111300000D02*
X69029887Y-112840000D01*
X70750887Y-114920000D02*
X70750887Y-115817000D01*
X69429887Y-114920000D02*
X69429887Y-116430000D01*
X69910887Y-111452000D02*
X69910887Y-112840000D01*
X69709887Y-111389000D02*
X69709887Y-112840000D01*
X70910887Y-112095000D02*
X70910887Y-112840000D01*
X69870887Y-111438000D02*
X69870887Y-112840000D01*
X71110887Y-112326000D02*
X71110887Y-115434000D01*
X69669887Y-114920000D02*
X69669887Y-116381000D01*
X70830887Y-114920000D02*
X70830887Y-115744000D01*
X69910887Y-114920000D02*
X69910887Y-116308000D01*
X71510887Y-113075000D02*
X71510887Y-114685000D01*
X70310887Y-111633000D02*
X70310887Y-112840000D01*
X70670887Y-114920000D02*
X70670887Y-115884000D01*
X69269887Y-114920000D02*
X69269887Y-116449000D01*
X71550887Y-113203000D02*
X71550887Y-114557000D01*
X70870887Y-112054000D02*
X70870887Y-112840000D01*
X71270887Y-112561000D02*
X71270887Y-115199000D01*
X69509887Y-114920000D02*
X69509887Y-116416000D01*
X70990887Y-112181000D02*
X70990887Y-112840000D01*
X69309887Y-111315000D02*
X69309887Y-112840000D01*
X71070887Y-112275000D02*
X71070887Y-115485000D01*
X70270887Y-111612000D02*
X70270887Y-112840000D01*
X69750887Y-114920000D02*
X69750887Y-116360000D01*
X71030887Y-112227000D02*
X71030887Y-112840000D01*
X70230887Y-111590000D02*
X70230887Y-112840000D01*
X70870887Y-114920000D02*
X70870887Y-115706000D01*
X69549887Y-114920000D02*
X69549887Y-116408000D01*
X69750887Y-111400000D02*
X69750887Y-112840000D01*
X70470887Y-114920000D02*
X70470887Y-116029000D01*
X70310887Y-114920000D02*
X70310887Y-116127000D01*
X70190887Y-111570000D02*
X70190887Y-112840000D01*
X69469887Y-111337000D02*
X69469887Y-112840000D01*
X70030887Y-111498000D02*
X70030887Y-112840000D01*
X71310887Y-112629000D02*
X71310887Y-115131000D01*
X70350887Y-111656000D02*
X70350887Y-112840000D01*
X69589887Y-111360000D02*
X69589887Y-112840000D01*
X69830887Y-111425000D02*
X69830887Y-112840000D01*
X70110887Y-114920000D02*
X70110887Y-116228000D01*
X70430887Y-114920000D02*
X70430887Y-116055000D01*
X69109887Y-114920000D02*
X69109887Y-116459000D01*
X70510887Y-114920000D02*
X70510887Y-116002000D01*
X70670887Y-111876000D02*
X70670887Y-112840000D01*
X69669887Y-111379000D02*
X69669887Y-112840000D01*
X66475112Y-112155000D02*
X66475112Y-112655000D01*
X70710887Y-114920000D02*
X70710887Y-115851000D01*
X71630887Y-113596000D02*
X71630887Y-114164000D01*
X70190887Y-114920000D02*
X70190887Y-116190000D01*
X70630887Y-111845000D02*
X70630887Y-112840000D01*
X71390887Y-112782000D02*
X71390887Y-114978000D01*
X70430887Y-111705000D02*
X70430887Y-112840000D01*
X69629887Y-111369000D02*
X69629887Y-112840000D01*
X70630887Y-114920000D02*
X70630887Y-115915000D01*
X69990887Y-111482000D02*
X69990887Y-112840000D01*
X69830887Y-114920000D02*
X69830887Y-116335000D01*
X70390887Y-114920000D02*
X70390887Y-116080000D01*
X69709887Y-114920000D02*
X69709887Y-116371000D01*
X69790887Y-114920000D02*
X69790887Y-116348000D01*
X70070887Y-111515000D02*
X70070887Y-112840000D01*
X71430887Y-112869000D02*
X71430887Y-114891000D01*
X69069887Y-111300000D02*
X69069887Y-112840000D01*
X70950887Y-114920000D02*
X70950887Y-115623000D01*
X69029887Y-114920000D02*
X69029887Y-116460000D01*
X69229887Y-114920000D02*
X69229887Y-116453000D01*
X69589887Y-114920000D02*
X69589887Y-116400000D01*
X70990887Y-114920000D02*
X70990887Y-115579000D01*
X69950887Y-111466000D02*
X69950887Y-112840000D01*
X70830887Y-112016000D02*
X70830887Y-112840000D01*
X71649887Y-113880000D02*
G75*
G03*
X71649887Y-113880000I-2620000J0D01*
G01*
%TO.C,C24*%
X82420000Y-94265000D02*
X82420000Y-99205000D01*
X82420000Y-94265000D02*
X82105000Y-94265000D01*
X79995000Y-94265000D02*
X79680000Y-94265000D01*
X79995000Y-99205000D02*
X79680000Y-99205000D01*
X82420000Y-99205000D02*
X82105000Y-99205000D01*
X79680000Y-94265000D02*
X79680000Y-99205000D01*
%TO.C,C5*%
X69835000Y-75215000D02*
X69520000Y-75215000D01*
X72260000Y-75215000D02*
X71945000Y-75215000D01*
X72260000Y-75215000D02*
X72260000Y-80155000D01*
X72260000Y-80155000D02*
X71945000Y-80155000D01*
X69835000Y-80155000D02*
X69520000Y-80155000D01*
X69520000Y-75215000D02*
X69520000Y-80155000D01*
%TO.C,R3*%
X106680000Y-60540000D02*
X105990000Y-60540000D01*
X96750000Y-58820000D02*
X96750000Y-62260000D01*
X105990000Y-62260000D02*
X105990000Y-58820000D01*
X105990000Y-58820000D02*
X96750000Y-58820000D01*
X96750000Y-62260000D02*
X105990000Y-62260000D01*
X96060000Y-60540000D02*
X96750000Y-60540000D01*
%TO.C,J3*%
X149080000Y-63560000D02*
X149080000Y-72760000D01*
X62080000Y-72760000D02*
X202080000Y-72760000D01*
X202080000Y-63560000D02*
X62080000Y-63560000D01*
X62080000Y-63560000D02*
X62080000Y-72760000D01*
X148080000Y-72760000D02*
X148080000Y-63560000D01*
X202080000Y-72760000D02*
X202080000Y-63560000D01*
%TO.C,C28*%
X131980000Y-62280000D02*
X131980000Y-61965000D01*
X136920000Y-62280000D02*
X131980000Y-62280000D01*
X131980000Y-59855000D02*
X131980000Y-59540000D01*
X136920000Y-59540000D02*
X131980000Y-59540000D01*
X136920000Y-62280000D02*
X136920000Y-61965000D01*
X136920000Y-59855000D02*
X136920000Y-59540000D01*
%TO.C,R17*%
X84747500Y-39839724D02*
X84747500Y-39330276D01*
X83702500Y-39839724D02*
X83702500Y-39330276D01*
%TO.C,C10*%
X74915000Y-99205000D02*
X74600000Y-99205000D01*
X77340000Y-94265000D02*
X77025000Y-94265000D01*
X74600000Y-94265000D02*
X74600000Y-99205000D01*
X77340000Y-94265000D02*
X77340000Y-99205000D01*
X77340000Y-99205000D02*
X77025000Y-99205000D01*
X74915000Y-94265000D02*
X74600000Y-94265000D01*
%TO.C,R14*%
X74812500Y-39839724D02*
X74812500Y-39330276D01*
X75857500Y-39839724D02*
X75857500Y-39330276D01*
%TO.C,R9*%
X156210000Y-56730000D02*
X155520000Y-56730000D01*
X146280000Y-58450000D02*
X155520000Y-58450000D01*
X146280000Y-55010000D02*
X146280000Y-58450000D01*
X155520000Y-58450000D02*
X155520000Y-55010000D01*
X145590000Y-56730000D02*
X146280000Y-56730000D01*
X155520000Y-55010000D02*
X146280000Y-55010000D01*
%TO.C,R7*%
X165965000Y-51835000D02*
X165965000Y-55275000D01*
X165965000Y-55275000D02*
X175205000Y-55275000D01*
X175895000Y-53555000D02*
X175205000Y-53555000D01*
X165275000Y-53555000D02*
X165965000Y-53555000D01*
X175205000Y-51835000D02*
X165965000Y-51835000D01*
X175205000Y-55275000D02*
X175205000Y-51835000D01*
%TO.C,R10*%
X175205000Y-55645000D02*
X165965000Y-55645000D01*
X165275000Y-57365000D02*
X165965000Y-57365000D01*
X165965000Y-55645000D02*
X165965000Y-59085000D01*
X175895000Y-57365000D02*
X175205000Y-57365000D01*
X175205000Y-59085000D02*
X175205000Y-55645000D01*
X165965000Y-59085000D02*
X175205000Y-59085000D01*
%TO.C,C26*%
X188035264Y-114340079D02*
X188035264Y-113304079D01*
X189275264Y-116046079D02*
X189275264Y-114862079D01*
X190036264Y-116342079D02*
X190036264Y-114862079D01*
X190156264Y-112782079D02*
X190156264Y-111279079D01*
X188475264Y-115322079D02*
X188475264Y-112322079D01*
X188955264Y-115826079D02*
X188955264Y-114862079D01*
X188395264Y-115205079D02*
X188395264Y-112439079D01*
X189835264Y-112782079D02*
X189835264Y-111354079D01*
X189155264Y-115971079D02*
X189155264Y-114862079D01*
X189555264Y-116187079D02*
X189555264Y-114862079D01*
X189956264Y-112782079D02*
X189956264Y-111321079D01*
X189555264Y-112782079D02*
X189555264Y-111457079D01*
X188635264Y-112782079D02*
X188635264Y-112123079D01*
X189635264Y-116220079D02*
X189635264Y-114862079D01*
X188115264Y-114627079D02*
X188115264Y-113017079D01*
X188315264Y-115073079D02*
X188315264Y-112571079D01*
X189115264Y-112782079D02*
X189115264Y-111700079D01*
X189916264Y-116313079D02*
X189916264Y-114862079D01*
X189435264Y-112782079D02*
X189435264Y-111512079D01*
X189755264Y-112782079D02*
X189755264Y-111380079D01*
X189515264Y-116170079D02*
X189515264Y-114862079D01*
X188955264Y-112782079D02*
X188955264Y-111818079D01*
X188235264Y-114920079D02*
X188235264Y-112724079D01*
X188075264Y-114499079D02*
X188075264Y-113145079D01*
X189595264Y-116204079D02*
X189595264Y-114862079D01*
X189195264Y-115997079D02*
X189195264Y-114862079D01*
X190316264Y-112782079D02*
X190316264Y-111257079D01*
X189315264Y-112782079D02*
X189315264Y-111575079D01*
X189675264Y-112782079D02*
X189675264Y-111408079D01*
X190276264Y-112782079D02*
X190276264Y-111261079D01*
X188195264Y-114833079D02*
X188195264Y-112811079D01*
X190476264Y-116400079D02*
X190476264Y-114862079D01*
X189875264Y-116302079D02*
X189875264Y-114862079D01*
X188355264Y-115141079D02*
X188355264Y-112503079D01*
X190236264Y-112782079D02*
X190236264Y-111266079D01*
X189515264Y-112782079D02*
X189515264Y-111474079D01*
X188715264Y-112782079D02*
X188715264Y-112037079D01*
X188995264Y-112782079D02*
X188995264Y-111787079D01*
X189235264Y-112782079D02*
X189235264Y-111622079D01*
X189755264Y-116264079D02*
X189755264Y-114862079D01*
X188995264Y-115857079D02*
X188995264Y-114862079D01*
X189035264Y-112782079D02*
X189035264Y-111757079D01*
X190476264Y-112782079D02*
X190476264Y-111244079D01*
X189795264Y-112782079D02*
X189795264Y-111367079D01*
X190076264Y-116350079D02*
X190076264Y-114862079D01*
X188915264Y-115793079D02*
X188915264Y-114862079D01*
X188835264Y-115723079D02*
X188835264Y-114862079D01*
X188595264Y-112782079D02*
X188595264Y-112169079D01*
X189315264Y-116069079D02*
X189315264Y-114862079D01*
X190236264Y-116378079D02*
X190236264Y-114862079D01*
X188715264Y-115607079D02*
X188715264Y-114862079D01*
X189355264Y-112782079D02*
X189355264Y-111554079D01*
X188795264Y-112782079D02*
X188795264Y-111958079D01*
X189595264Y-112782079D02*
X189595264Y-111440079D01*
X190196264Y-116372079D02*
X190196264Y-114862079D01*
X190556264Y-116402079D02*
X190556264Y-114862079D01*
X190116264Y-116358079D02*
X190116264Y-114862079D01*
X189715264Y-116250079D02*
X189715264Y-114862079D01*
X188155264Y-114737079D02*
X188155264Y-112907079D01*
X189996264Y-116333079D02*
X189996264Y-114862079D01*
X190436264Y-116398079D02*
X190436264Y-114862079D01*
X188275264Y-115000079D02*
X188275264Y-112644079D01*
X190276264Y-116383079D02*
X190276264Y-114862079D01*
X190196264Y-112782079D02*
X190196264Y-111272079D01*
X190356264Y-112782079D02*
X190356264Y-111253079D01*
X190356264Y-116391079D02*
X190356264Y-114862079D01*
X190156264Y-116365079D02*
X190156264Y-114862079D01*
X189635264Y-112782079D02*
X189635264Y-111424079D01*
X190316264Y-116387079D02*
X190316264Y-114862079D01*
X188755264Y-115648079D02*
X188755264Y-114862079D01*
X190436264Y-112782079D02*
X190436264Y-111246079D01*
X190076264Y-112782079D02*
X190076264Y-111294079D01*
X193401039Y-115297079D02*
X192901039Y-115297079D01*
X189916264Y-112782079D02*
X189916264Y-111331079D01*
X188755264Y-112782079D02*
X188755264Y-111996079D01*
X190396264Y-112782079D02*
X190396264Y-111249079D01*
X188595264Y-115475079D02*
X188595264Y-114862079D01*
X188435264Y-115265079D02*
X188435264Y-112379079D01*
X190396264Y-116395079D02*
X190396264Y-114862079D01*
X189996264Y-112782079D02*
X189996264Y-111311079D01*
X188915264Y-112782079D02*
X188915264Y-111851079D01*
X190516264Y-112782079D02*
X190516264Y-111243079D01*
X189355264Y-116090079D02*
X189355264Y-114862079D01*
X189435264Y-116132079D02*
X189435264Y-114862079D01*
X188875264Y-115759079D02*
X188875264Y-114862079D01*
X193151039Y-115547079D02*
X193151039Y-115047079D01*
X190116264Y-112782079D02*
X190116264Y-111286079D01*
X189475264Y-112782079D02*
X189475264Y-111493079D01*
X188675264Y-112782079D02*
X188675264Y-112079079D01*
X189715264Y-112782079D02*
X189715264Y-111394079D01*
X188675264Y-115565079D02*
X188675264Y-114862079D01*
X189875264Y-112782079D02*
X189875264Y-111342079D01*
X189395264Y-116112079D02*
X189395264Y-114862079D01*
X189795264Y-116277079D02*
X189795264Y-114862079D01*
X188555264Y-115427079D02*
X188555264Y-112217079D01*
X187995264Y-114106079D02*
X187995264Y-113538079D01*
X190596264Y-112782079D02*
X190596264Y-111242079D01*
X189835264Y-116290079D02*
X189835264Y-114862079D01*
X190516264Y-116401079D02*
X190516264Y-114862079D01*
X189075264Y-115917079D02*
X189075264Y-114862079D01*
X190556264Y-112782079D02*
X190556264Y-111242079D01*
X189035264Y-115887079D02*
X189035264Y-114862079D01*
X188875264Y-112782079D02*
X188875264Y-111885079D01*
X189395264Y-112782079D02*
X189395264Y-111532079D01*
X189075264Y-112782079D02*
X189075264Y-111727079D01*
X189195264Y-112782079D02*
X189195264Y-111647079D01*
X189115264Y-115944079D02*
X189115264Y-114862079D01*
X189275264Y-112782079D02*
X189275264Y-111598079D01*
X188515264Y-115376079D02*
X188515264Y-112268079D01*
X188635264Y-115521079D02*
X188635264Y-114862079D01*
X189675264Y-116236079D02*
X189675264Y-114862079D01*
X189235264Y-116022079D02*
X189235264Y-114862079D01*
X188835264Y-112782079D02*
X188835264Y-111921079D01*
X189956264Y-116323079D02*
X189956264Y-114862079D01*
X189155264Y-112782079D02*
X189155264Y-111673079D01*
X189475264Y-116151079D02*
X189475264Y-114862079D01*
X188795264Y-115686079D02*
X188795264Y-114862079D01*
X190036264Y-112782079D02*
X190036264Y-111302079D01*
X190596264Y-116402079D02*
X190596264Y-114862079D01*
X193216264Y-113822079D02*
G75*
G03*
X193216264Y-113822079I-2620000J0D01*
G01*
%TO.C,J2*%
X62080000Y-91810000D02*
X202080000Y-91810000D01*
X149080000Y-82610000D02*
X149080000Y-91810000D01*
X148080000Y-91810000D02*
X148080000Y-82610000D01*
X202080000Y-91810000D02*
X202080000Y-82610000D01*
X62080000Y-82610000D02*
X62080000Y-91810000D01*
X202080000Y-82610000D02*
X62080000Y-82610000D01*
%TO.C,R13*%
X96060000Y-52920000D02*
X96750000Y-52920000D01*
X105990000Y-54640000D02*
X105990000Y-51200000D01*
X96750000Y-54640000D02*
X105990000Y-54640000D01*
X106680000Y-52920000D02*
X105990000Y-52920000D01*
X105990000Y-51200000D02*
X96750000Y-51200000D01*
X96750000Y-51200000D02*
X96750000Y-54640000D01*
%TO.C,R11*%
X114475000Y-60540000D02*
X115165000Y-60540000D01*
X115165000Y-58820000D02*
X115165000Y-62260000D01*
X124405000Y-58820000D02*
X115165000Y-58820000D01*
X125095000Y-60540000D02*
X124405000Y-60540000D01*
X124405000Y-62260000D02*
X124405000Y-58820000D01*
X115165000Y-62260000D02*
X124405000Y-62260000D01*
%TO.C,C21*%
X80194929Y-63116000D02*
X80194929Y-61580000D01*
X77753929Y-60824000D02*
X77753929Y-60256000D01*
X78433929Y-59500000D02*
X78433929Y-58797000D01*
X78553929Y-62404000D02*
X78553929Y-61580000D01*
X78753929Y-62575000D02*
X78753929Y-61580000D01*
X79273929Y-62888000D02*
X79273929Y-61580000D01*
X79553929Y-62995000D02*
X79553929Y-61580000D01*
X78913929Y-62689000D02*
X78913929Y-61580000D01*
X79754929Y-63051000D02*
X79754929Y-61580000D01*
X80074929Y-63105000D02*
X80074929Y-61580000D01*
X79593929Y-59500000D02*
X79593929Y-58072000D01*
X79473929Y-59500000D02*
X79473929Y-58112000D01*
X78193929Y-61983000D02*
X78193929Y-59097000D01*
X78993929Y-62740000D02*
X78993929Y-61580000D01*
X80234929Y-63118000D02*
X80234929Y-61580000D01*
X78793929Y-59500000D02*
X78793929Y-58475000D01*
X79714929Y-59500000D02*
X79714929Y-58039000D01*
X78633929Y-62477000D02*
X78633929Y-61580000D01*
X79954929Y-59500000D02*
X79954929Y-57990000D01*
X78713929Y-62544000D02*
X78713929Y-61580000D01*
X78833929Y-62635000D02*
X78833929Y-61580000D01*
X80154929Y-63113000D02*
X80154929Y-61580000D01*
X78273929Y-62094000D02*
X78273929Y-58986000D01*
X78313929Y-62145000D02*
X78313929Y-58935000D01*
X79073929Y-59500000D02*
X79073929Y-58293000D01*
X80034929Y-63101000D02*
X80034929Y-61580000D01*
X79113929Y-59500000D02*
X79113929Y-58272000D01*
X79033929Y-62764000D02*
X79033929Y-61580000D01*
X79233929Y-59500000D02*
X79233929Y-58211000D01*
X82909704Y-62265000D02*
X82909704Y-61765000D01*
X78073929Y-61791000D02*
X78073929Y-59289000D01*
X79313929Y-62905000D02*
X79313929Y-61580000D01*
X80114929Y-59500000D02*
X80114929Y-57971000D01*
X80354929Y-59500000D02*
X80354929Y-57960000D01*
X79994929Y-63096000D02*
X79994929Y-61580000D01*
X79674929Y-63031000D02*
X79674929Y-61580000D01*
X79033929Y-59500000D02*
X79033929Y-58316000D01*
X78633929Y-59500000D02*
X78633929Y-58603000D01*
X79393929Y-62938000D02*
X79393929Y-61580000D01*
X78673929Y-59500000D02*
X78673929Y-58569000D01*
X78513929Y-62366000D02*
X78513929Y-61580000D01*
X77833929Y-61217000D02*
X77833929Y-59863000D01*
X78473929Y-62325000D02*
X78473929Y-61580000D01*
X78793929Y-62605000D02*
X78793929Y-61580000D01*
X83159704Y-62015000D02*
X82659704Y-62015000D01*
X80234929Y-59500000D02*
X80234929Y-57962000D01*
X79513929Y-59500000D02*
X79513929Y-58098000D01*
X80034929Y-59500000D02*
X80034929Y-57979000D01*
X78953929Y-59500000D02*
X78953929Y-58365000D01*
X78113929Y-61859000D02*
X78113929Y-59221000D01*
X79273929Y-59500000D02*
X79273929Y-58192000D01*
X79914929Y-63083000D02*
X79914929Y-61580000D01*
X78753929Y-59500000D02*
X78753929Y-58505000D01*
X77793929Y-61058000D02*
X77793929Y-60022000D01*
X78473929Y-59500000D02*
X78473929Y-58755000D01*
X79714929Y-63041000D02*
X79714929Y-61580000D01*
X79473929Y-62968000D02*
X79473929Y-61580000D01*
X79153929Y-59500000D02*
X79153929Y-58250000D01*
X78593929Y-62441000D02*
X78593929Y-61580000D01*
X80314929Y-59500000D02*
X80314929Y-57960000D01*
X79433929Y-59500000D02*
X79433929Y-58126000D01*
X79914929Y-59500000D02*
X79914929Y-57997000D01*
X78513929Y-59500000D02*
X78513929Y-58714000D01*
X79113929Y-62808000D02*
X79113929Y-61580000D01*
X79633929Y-59500000D02*
X79633929Y-58060000D01*
X78433929Y-62283000D02*
X78433929Y-61580000D01*
X80194929Y-59500000D02*
X80194929Y-57964000D01*
X79834929Y-59500000D02*
X79834929Y-58012000D01*
X79593929Y-63008000D02*
X79593929Y-61580000D01*
X79313929Y-59500000D02*
X79313929Y-58175000D01*
X80074929Y-59500000D02*
X80074929Y-57975000D01*
X80354929Y-63120000D02*
X80354929Y-61580000D01*
X78353929Y-62193000D02*
X78353929Y-61580000D01*
X79153929Y-62830000D02*
X79153929Y-61580000D01*
X80114929Y-63109000D02*
X80114929Y-61580000D01*
X80154929Y-59500000D02*
X80154929Y-57967000D01*
X79073929Y-62787000D02*
X79073929Y-61580000D01*
X79513929Y-62982000D02*
X79513929Y-61580000D01*
X78673929Y-62511000D02*
X78673929Y-61580000D01*
X79553929Y-59500000D02*
X79553929Y-58085000D01*
X79874929Y-59500000D02*
X79874929Y-58004000D01*
X77913929Y-61455000D02*
X77913929Y-59625000D01*
X78953929Y-62715000D02*
X78953929Y-61580000D01*
X77953929Y-61551000D02*
X77953929Y-59529000D01*
X78913929Y-59500000D02*
X78913929Y-58391000D01*
X78553929Y-59500000D02*
X78553929Y-58676000D01*
X79994929Y-59500000D02*
X79994929Y-57984000D01*
X79834929Y-63068000D02*
X79834929Y-61580000D01*
X79193929Y-59500000D02*
X79193929Y-58230000D01*
X78993929Y-59500000D02*
X78993929Y-58340000D01*
X78833929Y-59500000D02*
X78833929Y-58445000D01*
X79193929Y-62850000D02*
X79193929Y-61580000D01*
X80274929Y-59500000D02*
X80274929Y-57961000D01*
X78393929Y-62239000D02*
X78393929Y-61580000D01*
X79674929Y-59500000D02*
X79674929Y-58049000D01*
X79794929Y-59500000D02*
X79794929Y-58020000D01*
X78393929Y-59500000D02*
X78393929Y-58841000D01*
X77873929Y-61345000D02*
X77873929Y-59735000D01*
X79633929Y-63020000D02*
X79633929Y-61580000D01*
X79794929Y-63060000D02*
X79794929Y-61580000D01*
X79393929Y-59500000D02*
X79393929Y-58142000D01*
X80274929Y-63119000D02*
X80274929Y-61580000D01*
X78033929Y-61718000D02*
X78033929Y-59362000D01*
X78873929Y-62662000D02*
X78873929Y-61580000D01*
X79954929Y-63090000D02*
X79954929Y-61580000D01*
X79353929Y-62922000D02*
X79353929Y-61580000D01*
X79433929Y-62954000D02*
X79433929Y-61580000D01*
X79353929Y-59500000D02*
X79353929Y-58158000D01*
X78353929Y-59500000D02*
X78353929Y-58887000D01*
X77993929Y-61638000D02*
X77993929Y-59442000D01*
X78713929Y-59500000D02*
X78713929Y-58536000D01*
X79233929Y-62869000D02*
X79233929Y-61580000D01*
X78233929Y-62040000D02*
X78233929Y-59040000D01*
X79754929Y-59500000D02*
X79754929Y-58029000D01*
X78873929Y-59500000D02*
X78873929Y-58418000D01*
X78593929Y-59500000D02*
X78593929Y-58639000D01*
X80314929Y-63120000D02*
X80314929Y-61580000D01*
X79874929Y-63076000D02*
X79874929Y-61580000D01*
X78153929Y-61923000D02*
X78153929Y-59157000D01*
X82974929Y-60540000D02*
G75*
G03*
X82974929Y-60540000I-2620000J0D01*
G01*
%TO.C,C22*%
X79995000Y-80155000D02*
X79680000Y-80155000D01*
X79680000Y-75215000D02*
X79680000Y-80155000D01*
X79995000Y-75215000D02*
X79680000Y-75215000D01*
X82420000Y-80155000D02*
X82105000Y-80155000D01*
X82420000Y-75215000D02*
X82420000Y-80155000D01*
X82420000Y-75215000D02*
X82105000Y-75215000D01*
%TO.C,D4*%
X85185000Y-45030000D02*
X85185000Y-42170000D01*
X85185000Y-42170000D02*
X83265000Y-42170000D01*
X83265000Y-42170000D02*
X83265000Y-45030000D01*
%TO.C,C16*%
X85075000Y-80155000D02*
X84760000Y-80155000D01*
X87500000Y-75215000D02*
X87500000Y-80155000D01*
X87500000Y-80155000D02*
X87185000Y-80155000D01*
X87500000Y-75215000D02*
X87185000Y-75215000D01*
X85075000Y-75215000D02*
X84760000Y-75215000D01*
X84760000Y-75215000D02*
X84760000Y-80155000D01*
%TO.C,C2*%
X66539000Y-62094000D02*
X66539000Y-58986000D01*
X66659000Y-59500000D02*
X66659000Y-58841000D01*
X68420000Y-59500000D02*
X68420000Y-57967000D01*
X67459000Y-59500000D02*
X67459000Y-58230000D01*
X67940000Y-63031000D02*
X67940000Y-61580000D01*
X67539000Y-62888000D02*
X67539000Y-61580000D01*
X68340000Y-59500000D02*
X68340000Y-57975000D01*
X67059000Y-62605000D02*
X67059000Y-61580000D01*
X67419000Y-62830000D02*
X67419000Y-61580000D01*
X68540000Y-59500000D02*
X68540000Y-57961000D01*
X71174775Y-62265000D02*
X71174775Y-61765000D01*
X67459000Y-62850000D02*
X67459000Y-61580000D01*
X67299000Y-62764000D02*
X67299000Y-61580000D01*
X66779000Y-62366000D02*
X66779000Y-61580000D01*
X67819000Y-59500000D02*
X67819000Y-58085000D01*
X67379000Y-62808000D02*
X67379000Y-61580000D01*
X67019000Y-62575000D02*
X67019000Y-61580000D01*
X66899000Y-59500000D02*
X66899000Y-58603000D01*
X66459000Y-61983000D02*
X66459000Y-59097000D01*
X68180000Y-63083000D02*
X68180000Y-61580000D01*
X68300000Y-59500000D02*
X68300000Y-57979000D01*
X66179000Y-61455000D02*
X66179000Y-59625000D01*
X68100000Y-63068000D02*
X68100000Y-61580000D01*
X67899000Y-63020000D02*
X67899000Y-61580000D01*
X67179000Y-59500000D02*
X67179000Y-58391000D01*
X67779000Y-62982000D02*
X67779000Y-61580000D01*
X67139000Y-62662000D02*
X67139000Y-61580000D01*
X68180000Y-59500000D02*
X68180000Y-57997000D01*
X66859000Y-59500000D02*
X66859000Y-58639000D01*
X68380000Y-59500000D02*
X68380000Y-57971000D01*
X66819000Y-59500000D02*
X66819000Y-58676000D01*
X68620000Y-59500000D02*
X68620000Y-57960000D01*
X71424775Y-62015000D02*
X70924775Y-62015000D01*
X66699000Y-62283000D02*
X66699000Y-61580000D01*
X68060000Y-59500000D02*
X68060000Y-58020000D01*
X66739000Y-62325000D02*
X66739000Y-61580000D01*
X66379000Y-61859000D02*
X66379000Y-59221000D01*
X66739000Y-59500000D02*
X66739000Y-58755000D01*
X68620000Y-63120000D02*
X68620000Y-61580000D01*
X68500000Y-59500000D02*
X68500000Y-57962000D01*
X67779000Y-59500000D02*
X67779000Y-58098000D01*
X67739000Y-62968000D02*
X67739000Y-61580000D01*
X67859000Y-59500000D02*
X67859000Y-58072000D01*
X67980000Y-59500000D02*
X67980000Y-58039000D01*
X66059000Y-61058000D02*
X66059000Y-60022000D01*
X66939000Y-59500000D02*
X66939000Y-58569000D01*
X68140000Y-63076000D02*
X68140000Y-61580000D01*
X66099000Y-61217000D02*
X66099000Y-59863000D01*
X67099000Y-59500000D02*
X67099000Y-58445000D01*
X66899000Y-62477000D02*
X66899000Y-61580000D01*
X67379000Y-59500000D02*
X67379000Y-58272000D01*
X67619000Y-59500000D02*
X67619000Y-58158000D01*
X67659000Y-59500000D02*
X67659000Y-58142000D01*
X66019000Y-60824000D02*
X66019000Y-60256000D01*
X68460000Y-63116000D02*
X68460000Y-61580000D01*
X67219000Y-59500000D02*
X67219000Y-58365000D01*
X68420000Y-63113000D02*
X68420000Y-61580000D01*
X67619000Y-62922000D02*
X67619000Y-61580000D01*
X66979000Y-62544000D02*
X66979000Y-61580000D01*
X68260000Y-59500000D02*
X68260000Y-57984000D01*
X67019000Y-59500000D02*
X67019000Y-58505000D01*
X68580000Y-59500000D02*
X68580000Y-57960000D01*
X67980000Y-63041000D02*
X67980000Y-61580000D01*
X67899000Y-59500000D02*
X67899000Y-58060000D01*
X68220000Y-59500000D02*
X68220000Y-57990000D01*
X67819000Y-62995000D02*
X67819000Y-61580000D01*
X67579000Y-62905000D02*
X67579000Y-61580000D01*
X67739000Y-59500000D02*
X67739000Y-58112000D01*
X68500000Y-63118000D02*
X68500000Y-61580000D01*
X68380000Y-63109000D02*
X68380000Y-61580000D01*
X66339000Y-61791000D02*
X66339000Y-59289000D01*
X66659000Y-62239000D02*
X66659000Y-61580000D01*
X67579000Y-59500000D02*
X67579000Y-58175000D01*
X66259000Y-61638000D02*
X66259000Y-59442000D01*
X66619000Y-62193000D02*
X66619000Y-61580000D01*
X66299000Y-61718000D02*
X66299000Y-59362000D01*
X67339000Y-62787000D02*
X67339000Y-61580000D01*
X67659000Y-62938000D02*
X67659000Y-61580000D01*
X68340000Y-63105000D02*
X68340000Y-61580000D01*
X67419000Y-59500000D02*
X67419000Y-58250000D01*
X68060000Y-63060000D02*
X68060000Y-61580000D01*
X66619000Y-59500000D02*
X66619000Y-58887000D01*
X68020000Y-59500000D02*
X68020000Y-58029000D01*
X66819000Y-62404000D02*
X66819000Y-61580000D01*
X68020000Y-63051000D02*
X68020000Y-61580000D01*
X68100000Y-59500000D02*
X68100000Y-58012000D01*
X66859000Y-62441000D02*
X66859000Y-61580000D01*
X66979000Y-59500000D02*
X66979000Y-58536000D01*
X67499000Y-59500000D02*
X67499000Y-58211000D01*
X67699000Y-59500000D02*
X67699000Y-58126000D01*
X68580000Y-63120000D02*
X68580000Y-61580000D01*
X67699000Y-62954000D02*
X67699000Y-61580000D01*
X67099000Y-62635000D02*
X67099000Y-61580000D01*
X67859000Y-63008000D02*
X67859000Y-61580000D01*
X66779000Y-59500000D02*
X66779000Y-58714000D01*
X68140000Y-59500000D02*
X68140000Y-58004000D01*
X66699000Y-59500000D02*
X66699000Y-58797000D01*
X68540000Y-63119000D02*
X68540000Y-61580000D01*
X66419000Y-61923000D02*
X66419000Y-59157000D01*
X67139000Y-59500000D02*
X67139000Y-58418000D01*
X67299000Y-59500000D02*
X67299000Y-58316000D01*
X66139000Y-61345000D02*
X66139000Y-59735000D01*
X66939000Y-62511000D02*
X66939000Y-61580000D01*
X67059000Y-59500000D02*
X67059000Y-58475000D01*
X66219000Y-61551000D02*
X66219000Y-59529000D01*
X67219000Y-62715000D02*
X67219000Y-61580000D01*
X67339000Y-59500000D02*
X67339000Y-58293000D01*
X66579000Y-62145000D02*
X66579000Y-58935000D01*
X68220000Y-63090000D02*
X68220000Y-61580000D01*
X67259000Y-62740000D02*
X67259000Y-61580000D01*
X68300000Y-63101000D02*
X68300000Y-61580000D01*
X67499000Y-62869000D02*
X67499000Y-61580000D01*
X68260000Y-63096000D02*
X68260000Y-61580000D01*
X67259000Y-59500000D02*
X67259000Y-58340000D01*
X66499000Y-62040000D02*
X66499000Y-59040000D01*
X67539000Y-59500000D02*
X67539000Y-58192000D01*
X68460000Y-59500000D02*
X68460000Y-57964000D01*
X67179000Y-62689000D02*
X67179000Y-61580000D01*
X67940000Y-59500000D02*
X67940000Y-58049000D01*
X71240000Y-60540000D02*
G75*
G03*
X71240000Y-60540000I-2620000J0D01*
G01*
%TO.C,J1*%
X62080000Y-110860000D02*
X202080000Y-110860000D01*
X148080000Y-110860000D02*
X148080000Y-101660000D01*
X202080000Y-101660000D02*
X62080000Y-101660000D01*
X62080000Y-101660000D02*
X62080000Y-110860000D01*
X149080000Y-101660000D02*
X149080000Y-110860000D01*
X202080000Y-110860000D02*
X202080000Y-101660000D01*
%TO.C,R2*%
X96750000Y-55010000D02*
X96750000Y-58450000D01*
X106680000Y-56730000D02*
X105990000Y-56730000D01*
X96060000Y-56730000D02*
X96750000Y-56730000D01*
X96750000Y-58450000D02*
X105990000Y-58450000D01*
X105990000Y-58450000D02*
X105990000Y-55010000D01*
X105990000Y-55010000D02*
X96750000Y-55010000D01*
%TO.C,C15*%
X87815888Y-61543768D02*
X87815888Y-62507768D01*
X87135888Y-61543768D02*
X87135888Y-62901768D01*
X88415888Y-59184768D02*
X88415888Y-61822768D01*
X86614888Y-57960768D02*
X86614888Y-59463768D01*
X87055888Y-58075768D02*
X87055888Y-59463768D01*
X86254888Y-57924768D02*
X86254888Y-59463768D01*
X87215888Y-61543768D02*
X87215888Y-62868768D01*
X88175888Y-61543768D02*
X88175888Y-62156768D01*
X86454888Y-61543768D02*
X86454888Y-63068768D01*
X87775888Y-61543768D02*
X87775888Y-62538768D01*
X87175888Y-58121768D02*
X87175888Y-59463768D01*
X86854888Y-61543768D02*
X86854888Y-62994768D01*
X87615888Y-58354768D02*
X87615888Y-59463768D01*
X87015888Y-58061768D02*
X87015888Y-59463768D01*
X87015888Y-61543768D02*
X87015888Y-62945768D01*
X88295888Y-59003768D02*
X88295888Y-62003768D01*
X88695888Y-59826768D02*
X88695888Y-61180768D01*
X87575888Y-61543768D02*
X87575888Y-62678768D01*
X88055888Y-58718768D02*
X88055888Y-59463768D01*
X86975888Y-61543768D02*
X86975888Y-62958768D01*
X87375888Y-61543768D02*
X87375888Y-62793768D01*
X87335888Y-58193768D02*
X87335888Y-59463768D01*
X86654888Y-57967768D02*
X86654888Y-59463768D01*
X86414888Y-61543768D02*
X86414888Y-63072768D01*
X87095888Y-58089768D02*
X87095888Y-59463768D01*
X87375888Y-58213768D02*
X87375888Y-59463768D01*
X87335888Y-61543768D02*
X87335888Y-62813768D01*
X86574888Y-61543768D02*
X86574888Y-63053768D01*
X86895888Y-61543768D02*
X86895888Y-62983768D01*
X87935888Y-61543768D02*
X87935888Y-62404768D01*
X87175888Y-61543768D02*
X87175888Y-62885768D01*
X86895888Y-58023768D02*
X86895888Y-59463768D01*
X87535888Y-58303768D02*
X87535888Y-59463768D01*
X86774888Y-57992768D02*
X86774888Y-59463768D01*
X86694888Y-61543768D02*
X86694888Y-63031768D01*
X88015888Y-61543768D02*
X88015888Y-62329768D01*
X86174888Y-57923768D02*
X86174888Y-59463768D01*
X87495888Y-58279768D02*
X87495888Y-59463768D01*
X88535888Y-59405768D02*
X88535888Y-61601768D01*
X87735888Y-58438768D02*
X87735888Y-59463768D01*
X86734888Y-61543768D02*
X86734888Y-63023768D01*
X87095888Y-61543768D02*
X87095888Y-62917768D01*
X86374888Y-57930768D02*
X86374888Y-59463768D01*
X86534888Y-57947768D02*
X86534888Y-59463768D01*
X87295888Y-58174768D02*
X87295888Y-59463768D01*
X86694888Y-57975768D02*
X86694888Y-59463768D01*
X88615888Y-59588768D02*
X88615888Y-61418768D01*
X87655888Y-61543768D02*
X87655888Y-62625768D01*
X87295888Y-61543768D02*
X87295888Y-62832768D01*
X86534888Y-61543768D02*
X86534888Y-63059768D01*
X86414888Y-57934768D02*
X86414888Y-59463768D01*
X86854888Y-58012768D02*
X86854888Y-59463768D01*
X86174888Y-61543768D02*
X86174888Y-63083768D01*
X86294888Y-61543768D02*
X86294888Y-63081768D01*
X86334888Y-61543768D02*
X86334888Y-63079768D01*
X86935888Y-58035768D02*
X86935888Y-59463768D01*
X83370113Y-59028768D02*
X83870113Y-59028768D01*
X87695888Y-61543768D02*
X87695888Y-62598768D01*
X87255888Y-61543768D02*
X87255888Y-62851768D01*
X88215888Y-58898768D02*
X88215888Y-62108768D01*
X87615888Y-61543768D02*
X87615888Y-62652768D01*
X86975888Y-58048768D02*
X86975888Y-59463768D01*
X88735888Y-59985768D02*
X88735888Y-61021768D01*
X88055888Y-61543768D02*
X88055888Y-62288768D01*
X87815888Y-58499768D02*
X87815888Y-59463768D01*
X87415888Y-58235768D02*
X87415888Y-59463768D01*
X88095888Y-58760768D02*
X88095888Y-59463768D01*
X88135888Y-58804768D02*
X88135888Y-59463768D01*
X88375888Y-59120768D02*
X88375888Y-61886768D01*
X86935888Y-61543768D02*
X86935888Y-62971768D01*
X88775888Y-60219768D02*
X88775888Y-60787768D01*
X87655888Y-58381768D02*
X87655888Y-59463768D01*
X87415888Y-61543768D02*
X87415888Y-62771768D01*
X86614888Y-61543768D02*
X86614888Y-63046768D01*
X88495888Y-59325768D02*
X88495888Y-61681768D01*
X86254888Y-61543768D02*
X86254888Y-63082768D01*
X88335888Y-59060768D02*
X88335888Y-61946768D01*
X88655888Y-59698768D02*
X88655888Y-61308768D01*
X86214888Y-61543768D02*
X86214888Y-63083768D01*
X86654888Y-61543768D02*
X86654888Y-63039768D01*
X88255888Y-58949768D02*
X88255888Y-62057768D01*
X86814888Y-61543768D02*
X86814888Y-63004768D01*
X88135888Y-61543768D02*
X88135888Y-62202768D01*
X87935888Y-58602768D02*
X87935888Y-59463768D01*
X83620113Y-58778768D02*
X83620113Y-59278768D01*
X88455888Y-59252768D02*
X88455888Y-61754768D01*
X86214888Y-57923768D02*
X86214888Y-59463768D01*
X86334888Y-57927768D02*
X86334888Y-59463768D01*
X87775888Y-58468768D02*
X87775888Y-59463768D01*
X87135888Y-58105768D02*
X87135888Y-59463768D01*
X86814888Y-58002768D02*
X86814888Y-59463768D01*
X86774888Y-61543768D02*
X86774888Y-63014768D01*
X87455888Y-61543768D02*
X87455888Y-62750768D01*
X88575888Y-59492768D02*
X88575888Y-61514768D01*
X88015888Y-58677768D02*
X88015888Y-59463768D01*
X87215888Y-58138768D02*
X87215888Y-59463768D01*
X86374888Y-61543768D02*
X86374888Y-63076768D01*
X87895888Y-61543768D02*
X87895888Y-62440768D01*
X87695888Y-58408768D02*
X87695888Y-59463768D01*
X87735888Y-61543768D02*
X87735888Y-62568768D01*
X88175888Y-58850768D02*
X88175888Y-59463768D01*
X87055888Y-61543768D02*
X87055888Y-62931768D01*
X87495888Y-61543768D02*
X87495888Y-62727768D01*
X87255888Y-58155768D02*
X87255888Y-59463768D01*
X87855888Y-61543768D02*
X87855888Y-62474768D01*
X86734888Y-57983768D02*
X86734888Y-59463768D01*
X86574888Y-57953768D02*
X86574888Y-59463768D01*
X86494888Y-57942768D02*
X86494888Y-59463768D01*
X87975888Y-61543768D02*
X87975888Y-62367768D01*
X87535888Y-61543768D02*
X87535888Y-62703768D01*
X86494888Y-61543768D02*
X86494888Y-63064768D01*
X87855888Y-58532768D02*
X87855888Y-59463768D01*
X88095888Y-61543768D02*
X88095888Y-62246768D01*
X87975888Y-58639768D02*
X87975888Y-59463768D01*
X87575888Y-58328768D02*
X87575888Y-59463768D01*
X87895888Y-58566768D02*
X87895888Y-59463768D01*
X86454888Y-57938768D02*
X86454888Y-59463768D01*
X86294888Y-57925768D02*
X86294888Y-59463768D01*
X87455888Y-58256768D02*
X87455888Y-59463768D01*
X88794888Y-60503768D02*
G75*
G03*
X88794888Y-60503768I-2620000J0D01*
G01*
%TO.C,C6*%
X72270000Y-94265000D02*
X72270000Y-99205000D01*
X72270000Y-99205000D02*
X71955000Y-99205000D01*
X69845000Y-99205000D02*
X69530000Y-99205000D01*
X72270000Y-94265000D02*
X71955000Y-94265000D01*
X69530000Y-94265000D02*
X69530000Y-99205000D01*
X69845000Y-94265000D02*
X69530000Y-94265000D01*
%TO.C,J5*%
X133180000Y-54190000D02*
X133180000Y-49050000D01*
X133180000Y-56790000D02*
X131850000Y-56790000D01*
X130520000Y-54190000D02*
X130520000Y-49050000D01*
X133180000Y-49050000D02*
X130520000Y-49050000D01*
X133180000Y-55460000D02*
X133180000Y-56790000D01*
X133180000Y-54190000D02*
X130520000Y-54190000D01*
%TO.C,R6*%
X146280000Y-54640000D02*
X155520000Y-54640000D01*
X156210000Y-52920000D02*
X155520000Y-52920000D01*
X155520000Y-51200000D02*
X146280000Y-51200000D01*
X155520000Y-54640000D02*
X155520000Y-51200000D01*
X146280000Y-51200000D02*
X146280000Y-54640000D01*
X145590000Y-52920000D02*
X146280000Y-52920000D01*
%TO.C,R15*%
X79257500Y-39839724D02*
X79257500Y-39330276D01*
X80302500Y-39839724D02*
X80302500Y-39330276D01*
%TO.C,R4*%
X115165000Y-51200000D02*
X115165000Y-54640000D01*
X114475000Y-52920000D02*
X115165000Y-52920000D01*
X124405000Y-51200000D02*
X115165000Y-51200000D01*
X115165000Y-54640000D02*
X124405000Y-54640000D01*
X125095000Y-52920000D02*
X124405000Y-52920000D01*
X124405000Y-54640000D02*
X124405000Y-51200000D01*
%TO.C,R12*%
X68810000Y-55910000D02*
X78050000Y-55910000D01*
X68120000Y-54190000D02*
X68810000Y-54190000D01*
X78050000Y-52470000D02*
X68810000Y-52470000D01*
X78050000Y-55910000D02*
X78050000Y-52470000D01*
X78740000Y-54190000D02*
X78050000Y-54190000D01*
X68810000Y-52470000D02*
X68810000Y-55910000D01*
%TO.C,U1*%
X162618450Y-43152100D02*
X160865850Y-43152100D01*
X162618450Y-38859500D02*
X162618450Y-43152100D01*
X162599183Y-42065507D02*
X161599183Y-42065507D01*
X164566950Y-38859500D02*
X162618450Y-38859500D01*
X160865850Y-43152100D02*
X160865850Y-45107900D01*
X160865850Y-45107900D02*
X162618450Y-45107900D01*
X162566950Y-46200100D02*
X161566950Y-46200100D01*
X162566950Y-47149852D02*
X161566950Y-47149852D01*
X162599183Y-41115755D02*
X161599183Y-41115755D01*
X162618450Y-45107900D02*
X162618450Y-49400500D01*
X162618450Y-49400500D02*
X164566950Y-49400500D01*
%TD*%
M02*
