%TF.GenerationSoftware,KiCad,Pcbnew,(6.0.7)*%
%TF.CreationDate,2022-08-07T08:27:23-07:00*%
%TF.ProjectId,isa_board,6973615f-626f-4617-9264-2e6b69636164,rev?*%
%TF.SameCoordinates,Original*%
%TF.FileFunction,AssemblyDrawing,Top*%
%FSLAX46Y46*%
G04 Gerber Fmt 4.6, Leading zero omitted, Abs format (unit mm)*
G04 Created by KiCad (PCBNEW (6.0.7)) date 2022-08-07 08:27:23*
%MOMM*%
%LPD*%
G01*
G04 APERTURE LIST*
%ADD10C,0.254000*%
%ADD11C,0.150000*%
%ADD12C,0.141000*%
%ADD13C,0.080000*%
%ADD14C,0.060000*%
%ADD15C,0.100000*%
G04 APERTURE END LIST*
D10*
X42903433Y-125307883D02*
X42903433Y-123529883D01*
X43496100Y-124799883D01*
X44088766Y-123529883D01*
X44088766Y-125307883D01*
X45697433Y-125307883D02*
X45697433Y-124376550D01*
X45612766Y-124207216D01*
X45443433Y-124122550D01*
X45104766Y-124122550D01*
X44935433Y-124207216D01*
X45697433Y-125223216D02*
X45528100Y-125307883D01*
X45104766Y-125307883D01*
X44935433Y-125223216D01*
X44850766Y-125053883D01*
X44850766Y-124884550D01*
X44935433Y-124715216D01*
X45104766Y-124630550D01*
X45528100Y-124630550D01*
X45697433Y-124545883D01*
X46544100Y-124122550D02*
X46544100Y-125307883D01*
X46544100Y-124291883D02*
X46628766Y-124207216D01*
X46798100Y-124122550D01*
X47052100Y-124122550D01*
X47221433Y-124207216D01*
X47306100Y-124376550D01*
X47306100Y-125307883D01*
X48914766Y-124122550D02*
X48914766Y-125307883D01*
X48152766Y-124122550D02*
X48152766Y-125053883D01*
X48237433Y-125223216D01*
X48406766Y-125307883D01*
X48660766Y-125307883D01*
X48830100Y-125223216D01*
X48914766Y-125138550D01*
X49507433Y-124122550D02*
X50184766Y-124122550D01*
X49761433Y-125307883D02*
X49761433Y-123783883D01*
X49846100Y-123614550D01*
X50015433Y-123529883D01*
X50184766Y-123529883D01*
X51539433Y-125307883D02*
X51539433Y-124376550D01*
X51454766Y-124207216D01*
X51285433Y-124122550D01*
X50946766Y-124122550D01*
X50777433Y-124207216D01*
X51539433Y-125223216D02*
X51370100Y-125307883D01*
X50946766Y-125307883D01*
X50777433Y-125223216D01*
X50692766Y-125053883D01*
X50692766Y-124884550D01*
X50777433Y-124715216D01*
X50946766Y-124630550D01*
X51370100Y-124630550D01*
X51539433Y-124545883D01*
X53148100Y-125223216D02*
X52978766Y-125307883D01*
X52640100Y-125307883D01*
X52470766Y-125223216D01*
X52386100Y-125138550D01*
X52301433Y-124969216D01*
X52301433Y-124461216D01*
X52386100Y-124291883D01*
X52470766Y-124207216D01*
X52640100Y-124122550D01*
X52978766Y-124122550D01*
X53148100Y-124207216D01*
X53656100Y-124122550D02*
X54333433Y-124122550D01*
X53910100Y-123529883D02*
X53910100Y-125053883D01*
X53994766Y-125223216D01*
X54164100Y-125307883D01*
X54333433Y-125307883D01*
X55688100Y-124122550D02*
X55688100Y-125307883D01*
X54926100Y-124122550D02*
X54926100Y-125053883D01*
X55010766Y-125223216D01*
X55180100Y-125307883D01*
X55434100Y-125307883D01*
X55603433Y-125223216D01*
X55688100Y-125138550D01*
X56534766Y-125307883D02*
X56534766Y-124122550D01*
X56534766Y-124461216D02*
X56619433Y-124291883D01*
X56704100Y-124207216D01*
X56873433Y-124122550D01*
X57042766Y-124122550D01*
X57635433Y-125307883D02*
X57635433Y-124122550D01*
X57635433Y-123529883D02*
X57550766Y-123614550D01*
X57635433Y-123699216D01*
X57720100Y-123614550D01*
X57635433Y-123529883D01*
X57635433Y-123699216D01*
X58482100Y-124122550D02*
X58482100Y-125307883D01*
X58482100Y-124291883D02*
X58566766Y-124207216D01*
X58736100Y-124122550D01*
X58990100Y-124122550D01*
X59159433Y-124207216D01*
X59244100Y-124376550D01*
X59244100Y-125307883D01*
X60852766Y-124122550D02*
X60852766Y-125561883D01*
X60768100Y-125731216D01*
X60683433Y-125815883D01*
X60514100Y-125900550D01*
X60260100Y-125900550D01*
X60090766Y-125815883D01*
X60852766Y-125223216D02*
X60683433Y-125307883D01*
X60344766Y-125307883D01*
X60175433Y-125223216D01*
X60090766Y-125138550D01*
X60006100Y-124969216D01*
X60006100Y-124461216D01*
X60090766Y-124291883D01*
X60175433Y-124207216D01*
X60344766Y-124122550D01*
X60683433Y-124122550D01*
X60852766Y-124207216D01*
X63054100Y-125307883D02*
X63054100Y-123529883D01*
X64070100Y-125307883D01*
X64070100Y-123529883D01*
X65170766Y-125307883D02*
X65001433Y-125223216D01*
X64916766Y-125138550D01*
X64832100Y-124969216D01*
X64832100Y-124461216D01*
X64916766Y-124291883D01*
X65001433Y-124207216D01*
X65170766Y-124122550D01*
X65424766Y-124122550D01*
X65594100Y-124207216D01*
X65678766Y-124291883D01*
X65763433Y-124461216D01*
X65763433Y-124969216D01*
X65678766Y-125138550D01*
X65594100Y-125223216D01*
X65424766Y-125307883D01*
X65170766Y-125307883D01*
X66271433Y-124122550D02*
X66948766Y-124122550D01*
X66525433Y-123529883D02*
X66525433Y-125053883D01*
X66610100Y-125223216D01*
X66779433Y-125307883D01*
X66948766Y-125307883D01*
X68218766Y-125223216D02*
X68049433Y-125307883D01*
X67710766Y-125307883D01*
X67541433Y-125223216D01*
X67456766Y-125053883D01*
X67456766Y-124376550D01*
X67541433Y-124207216D01*
X67710766Y-124122550D01*
X68049433Y-124122550D01*
X68218766Y-124207216D01*
X68303433Y-124376550D01*
X68303433Y-124545883D01*
X67456766Y-124715216D01*
X42903433Y-131033043D02*
X42903433Y-129255043D01*
X43496100Y-130525043D01*
X44088766Y-129255043D01*
X44088766Y-131033043D01*
X45697433Y-131033043D02*
X45697433Y-130101710D01*
X45612766Y-129932376D01*
X45443433Y-129847710D01*
X45104766Y-129847710D01*
X44935433Y-129932376D01*
X45697433Y-130948376D02*
X45528100Y-131033043D01*
X45104766Y-131033043D01*
X44935433Y-130948376D01*
X44850766Y-130779043D01*
X44850766Y-130609710D01*
X44935433Y-130440376D01*
X45104766Y-130355710D01*
X45528100Y-130355710D01*
X45697433Y-130271043D01*
X46290100Y-129847710D02*
X46967433Y-129847710D01*
X46544100Y-129255043D02*
X46544100Y-130779043D01*
X46628766Y-130948376D01*
X46798100Y-131033043D01*
X46967433Y-131033043D01*
X48237433Y-130948376D02*
X48068100Y-131033043D01*
X47729433Y-131033043D01*
X47560100Y-130948376D01*
X47475433Y-130779043D01*
X47475433Y-130101710D01*
X47560100Y-129932376D01*
X47729433Y-129847710D01*
X48068100Y-129847710D01*
X48237433Y-129932376D01*
X48322100Y-130101710D01*
X48322100Y-130271043D01*
X47475433Y-130440376D01*
X49084100Y-131033043D02*
X49084100Y-129847710D01*
X49084100Y-130186376D02*
X49168766Y-130017043D01*
X49253433Y-129932376D01*
X49422766Y-129847710D01*
X49592100Y-129847710D01*
X50184766Y-131033043D02*
X50184766Y-129847710D01*
X50184766Y-129255043D02*
X50100100Y-129339710D01*
X50184766Y-129424376D01*
X50269433Y-129339710D01*
X50184766Y-129255043D01*
X50184766Y-129424376D01*
X51793433Y-131033043D02*
X51793433Y-130101710D01*
X51708766Y-129932376D01*
X51539433Y-129847710D01*
X51200766Y-129847710D01*
X51031433Y-129932376D01*
X51793433Y-130948376D02*
X51624100Y-131033043D01*
X51200766Y-131033043D01*
X51031433Y-130948376D01*
X50946766Y-130779043D01*
X50946766Y-130609710D01*
X51031433Y-130440376D01*
X51200766Y-130355710D01*
X51624100Y-130355710D01*
X51793433Y-130271043D01*
X52894100Y-131033043D02*
X52724766Y-130948376D01*
X52640100Y-130779043D01*
X52640100Y-129255043D01*
X54926100Y-130863710D02*
X55010766Y-130948376D01*
X54926100Y-131033043D01*
X54841433Y-130948376D01*
X54926100Y-130863710D01*
X54926100Y-131033043D01*
X54926100Y-129932376D02*
X55010766Y-130017043D01*
X54926100Y-130101710D01*
X54841433Y-130017043D01*
X54926100Y-129932376D01*
X54926100Y-130101710D01*
X57720100Y-130101710D02*
X57127433Y-130101710D01*
X57127433Y-131033043D02*
X57127433Y-129255043D01*
X57974100Y-129255043D01*
X59667433Y-131033043D02*
X59074766Y-130186376D01*
X58651433Y-131033043D02*
X58651433Y-129255043D01*
X59328766Y-129255043D01*
X59498100Y-129339710D01*
X59582766Y-129424376D01*
X59667433Y-129593710D01*
X59667433Y-129847710D01*
X59582766Y-130017043D01*
X59498100Y-130101710D01*
X59328766Y-130186376D01*
X58651433Y-130186376D01*
X61191433Y-129847710D02*
X61191433Y-131033043D01*
X60768100Y-129170376D02*
X60344766Y-130440376D01*
X61445433Y-130440376D01*
X64747433Y-129170376D02*
X63223433Y-131456376D01*
X67626100Y-131033043D02*
X66610100Y-131033043D01*
X67118100Y-131033043D02*
X67118100Y-129255043D01*
X66948766Y-129509043D01*
X66779433Y-129678376D01*
X66610100Y-129763043D01*
X68388100Y-131033043D02*
X68388100Y-129847710D01*
X68388100Y-130017043D02*
X68472766Y-129932376D01*
X68642100Y-129847710D01*
X68896100Y-129847710D01*
X69065433Y-129932376D01*
X69150100Y-130101710D01*
X69150100Y-131033043D01*
X69150100Y-130101710D02*
X69234766Y-129932376D01*
X69404100Y-129847710D01*
X69658100Y-129847710D01*
X69827433Y-129932376D01*
X69912100Y-130101710D01*
X69912100Y-131033043D01*
X70758766Y-131033043D02*
X70758766Y-129847710D01*
X70758766Y-130017043D02*
X70843433Y-129932376D01*
X71012766Y-129847710D01*
X71266766Y-129847710D01*
X71436100Y-129932376D01*
X71520766Y-130101710D01*
X71520766Y-131033043D01*
X71520766Y-130101710D02*
X71605433Y-129932376D01*
X71774766Y-129847710D01*
X72028766Y-129847710D01*
X72198100Y-129932376D01*
X72282766Y-130101710D01*
X72282766Y-131033043D01*
X43919433Y-133726290D02*
X43834766Y-133810956D01*
X43580766Y-133895623D01*
X43411433Y-133895623D01*
X43157433Y-133810956D01*
X42988100Y-133641623D01*
X42903433Y-133472290D01*
X42818766Y-133133623D01*
X42818766Y-132879623D01*
X42903433Y-132540956D01*
X42988100Y-132371623D01*
X43157433Y-132202290D01*
X43411433Y-132117623D01*
X43580766Y-132117623D01*
X43834766Y-132202290D01*
X43919433Y-132286956D01*
X44935433Y-133895623D02*
X44766100Y-133810956D01*
X44681433Y-133726290D01*
X44596766Y-133556956D01*
X44596766Y-133048956D01*
X44681433Y-132879623D01*
X44766100Y-132794956D01*
X44935433Y-132710290D01*
X45189433Y-132710290D01*
X45358766Y-132794956D01*
X45443433Y-132879623D01*
X45528100Y-133048956D01*
X45528100Y-133556956D01*
X45443433Y-133726290D01*
X45358766Y-133810956D01*
X45189433Y-133895623D01*
X44935433Y-133895623D01*
X46290100Y-132710290D02*
X46290100Y-134488290D01*
X46290100Y-132794956D02*
X46459433Y-132710290D01*
X46798100Y-132710290D01*
X46967433Y-132794956D01*
X47052100Y-132879623D01*
X47136766Y-133048956D01*
X47136766Y-133556956D01*
X47052100Y-133726290D01*
X46967433Y-133810956D01*
X46798100Y-133895623D01*
X46459433Y-133895623D01*
X46290100Y-133810956D01*
X47898766Y-132710290D02*
X47898766Y-134488290D01*
X47898766Y-132794956D02*
X48068100Y-132710290D01*
X48406766Y-132710290D01*
X48576100Y-132794956D01*
X48660766Y-132879623D01*
X48745433Y-133048956D01*
X48745433Y-133556956D01*
X48660766Y-133726290D01*
X48576100Y-133810956D01*
X48406766Y-133895623D01*
X48068100Y-133895623D01*
X47898766Y-133810956D01*
X50184766Y-133810956D02*
X50015433Y-133895623D01*
X49676766Y-133895623D01*
X49507433Y-133810956D01*
X49422766Y-133641623D01*
X49422766Y-132964290D01*
X49507433Y-132794956D01*
X49676766Y-132710290D01*
X50015433Y-132710290D01*
X50184766Y-132794956D01*
X50269433Y-132964290D01*
X50269433Y-133133623D01*
X49422766Y-133302956D01*
X51031433Y-133895623D02*
X51031433Y-132710290D01*
X51031433Y-133048956D02*
X51116100Y-132879623D01*
X51200766Y-132794956D01*
X51370100Y-132710290D01*
X51539433Y-132710290D01*
X53486766Y-133726290D02*
X53571433Y-133810956D01*
X53486766Y-133895623D01*
X53402100Y-133810956D01*
X53486766Y-133726290D01*
X53486766Y-133895623D01*
X53486766Y-132794956D02*
X53571433Y-132879623D01*
X53486766Y-132964290D01*
X53402100Y-132879623D01*
X53486766Y-132794956D01*
X53486766Y-132964290D01*
X56619433Y-133895623D02*
X55603433Y-133895623D01*
X56111433Y-133895623D02*
X56111433Y-132117623D01*
X55942100Y-132371623D01*
X55772766Y-132540956D01*
X55603433Y-132625623D01*
X57635433Y-133895623D02*
X57466100Y-133810956D01*
X57381433Y-133726290D01*
X57296766Y-133556956D01*
X57296766Y-133048956D01*
X57381433Y-132879623D01*
X57466100Y-132794956D01*
X57635433Y-132710290D01*
X57889433Y-132710290D01*
X58058766Y-132794956D01*
X58143433Y-132879623D01*
X58228100Y-133048956D01*
X58228100Y-133556956D01*
X58143433Y-133726290D01*
X58058766Y-133810956D01*
X57889433Y-133895623D01*
X57635433Y-133895623D01*
X58820766Y-132710290D02*
X59752100Y-132710290D01*
X58820766Y-133895623D01*
X59752100Y-133895623D01*
X42818766Y-136673536D02*
X43072766Y-136758203D01*
X43496100Y-136758203D01*
X43665433Y-136673536D01*
X43750100Y-136588870D01*
X43834766Y-136419536D01*
X43834766Y-136250203D01*
X43750100Y-136080870D01*
X43665433Y-135996203D01*
X43496100Y-135911536D01*
X43157433Y-135826870D01*
X42988100Y-135742203D01*
X42903433Y-135657536D01*
X42818766Y-135488203D01*
X42818766Y-135318870D01*
X42903433Y-135149536D01*
X42988100Y-135064870D01*
X43157433Y-134980203D01*
X43580766Y-134980203D01*
X43834766Y-135064870D01*
X44850766Y-136758203D02*
X44681433Y-136673536D01*
X44596766Y-136588870D01*
X44512100Y-136419536D01*
X44512100Y-135911536D01*
X44596766Y-135742203D01*
X44681433Y-135657536D01*
X44850766Y-135572870D01*
X45104766Y-135572870D01*
X45274100Y-135657536D01*
X45358766Y-135742203D01*
X45443433Y-135911536D01*
X45443433Y-136419536D01*
X45358766Y-136588870D01*
X45274100Y-136673536D01*
X45104766Y-136758203D01*
X44850766Y-136758203D01*
X46459433Y-136758203D02*
X46290100Y-136673536D01*
X46205433Y-136504203D01*
X46205433Y-134980203D01*
X47898766Y-136758203D02*
X47898766Y-134980203D01*
X47898766Y-136673536D02*
X47729433Y-136758203D01*
X47390766Y-136758203D01*
X47221433Y-136673536D01*
X47136766Y-136588870D01*
X47052100Y-136419536D01*
X47052100Y-135911536D01*
X47136766Y-135742203D01*
X47221433Y-135657536D01*
X47390766Y-135572870D01*
X47729433Y-135572870D01*
X47898766Y-135657536D01*
X49422766Y-136673536D02*
X49253433Y-136758203D01*
X48914766Y-136758203D01*
X48745433Y-136673536D01*
X48660766Y-136504203D01*
X48660766Y-135826870D01*
X48745433Y-135657536D01*
X48914766Y-135572870D01*
X49253433Y-135572870D01*
X49422766Y-135657536D01*
X49507433Y-135826870D01*
X49507433Y-135996203D01*
X48660766Y-136165536D01*
X50269433Y-136758203D02*
X50269433Y-135572870D01*
X50269433Y-135911536D02*
X50354100Y-135742203D01*
X50438766Y-135657536D01*
X50608100Y-135572870D01*
X50777433Y-135572870D01*
X52724766Y-136758203D02*
X52724766Y-135572870D01*
X52724766Y-135911536D02*
X52809433Y-135742203D01*
X52894100Y-135657536D01*
X53063433Y-135572870D01*
X53232766Y-135572870D01*
X54502766Y-136673536D02*
X54333433Y-136758203D01*
X53994766Y-136758203D01*
X53825433Y-136673536D01*
X53740766Y-136504203D01*
X53740766Y-135826870D01*
X53825433Y-135657536D01*
X53994766Y-135572870D01*
X54333433Y-135572870D01*
X54502766Y-135657536D01*
X54587433Y-135826870D01*
X54587433Y-135996203D01*
X53740766Y-136165536D01*
X55264766Y-136673536D02*
X55434100Y-136758203D01*
X55772766Y-136758203D01*
X55942100Y-136673536D01*
X56026766Y-136504203D01*
X56026766Y-136419536D01*
X55942100Y-136250203D01*
X55772766Y-136165536D01*
X55518766Y-136165536D01*
X55349433Y-136080870D01*
X55264766Y-135911536D01*
X55264766Y-135826870D01*
X55349433Y-135657536D01*
X55518766Y-135572870D01*
X55772766Y-135572870D01*
X55942100Y-135657536D01*
X56788766Y-136758203D02*
X56788766Y-135572870D01*
X56788766Y-134980203D02*
X56704100Y-135064870D01*
X56788766Y-135149536D01*
X56873433Y-135064870D01*
X56788766Y-134980203D01*
X56788766Y-135149536D01*
X57550766Y-136673536D02*
X57720100Y-136758203D01*
X58058766Y-136758203D01*
X58228100Y-136673536D01*
X58312766Y-136504203D01*
X58312766Y-136419536D01*
X58228100Y-136250203D01*
X58058766Y-136165536D01*
X57804766Y-136165536D01*
X57635433Y-136080870D01*
X57550766Y-135911536D01*
X57550766Y-135826870D01*
X57635433Y-135657536D01*
X57804766Y-135572870D01*
X58058766Y-135572870D01*
X58228100Y-135657536D01*
X58820766Y-135572870D02*
X59498100Y-135572870D01*
X59074766Y-134980203D02*
X59074766Y-136504203D01*
X59159433Y-136673536D01*
X59328766Y-136758203D01*
X59498100Y-136758203D01*
X61445433Y-136588870D02*
X61530100Y-136673536D01*
X61445433Y-136758203D01*
X61360766Y-136673536D01*
X61445433Y-136588870D01*
X61445433Y-136758203D01*
X61445433Y-135657536D02*
X61530100Y-135742203D01*
X61445433Y-135826870D01*
X61360766Y-135742203D01*
X61445433Y-135657536D01*
X61445433Y-135826870D01*
X64239433Y-135826870D02*
X64493433Y-135911536D01*
X64578100Y-135996203D01*
X64662766Y-136165536D01*
X64662766Y-136419536D01*
X64578100Y-136588870D01*
X64493433Y-136673536D01*
X64324100Y-136758203D01*
X63646766Y-136758203D01*
X63646766Y-134980203D01*
X64239433Y-134980203D01*
X64408766Y-135064870D01*
X64493433Y-135149536D01*
X64578100Y-135318870D01*
X64578100Y-135488203D01*
X64493433Y-135657536D01*
X64408766Y-135742203D01*
X64239433Y-135826870D01*
X63646766Y-135826870D01*
X65678766Y-136758203D02*
X65509433Y-136673536D01*
X65424766Y-136504203D01*
X65424766Y-134980203D01*
X67118100Y-136758203D02*
X67118100Y-135826870D01*
X67033433Y-135657536D01*
X66864100Y-135572870D01*
X66525433Y-135572870D01*
X66356100Y-135657536D01*
X67118100Y-136673536D02*
X66948766Y-136758203D01*
X66525433Y-136758203D01*
X66356100Y-136673536D01*
X66271433Y-136504203D01*
X66271433Y-136334870D01*
X66356100Y-136165536D01*
X66525433Y-136080870D01*
X66948766Y-136080870D01*
X67118100Y-135996203D01*
X68726766Y-136673536D02*
X68557433Y-136758203D01*
X68218766Y-136758203D01*
X68049433Y-136673536D01*
X67964766Y-136588870D01*
X67880100Y-136419536D01*
X67880100Y-135911536D01*
X67964766Y-135742203D01*
X68049433Y-135657536D01*
X68218766Y-135572870D01*
X68557433Y-135572870D01*
X68726766Y-135657536D01*
X69488766Y-136758203D02*
X69488766Y-134980203D01*
X69658100Y-136080870D02*
X70166100Y-136758203D01*
X70166100Y-135572870D02*
X69488766Y-136250203D01*
X43750100Y-139620783D02*
X42903433Y-139620783D01*
X42903433Y-137842783D01*
X45104766Y-139620783D02*
X45104766Y-138689450D01*
X45020100Y-138520116D01*
X44850766Y-138435450D01*
X44512100Y-138435450D01*
X44342766Y-138520116D01*
X45104766Y-139536116D02*
X44935433Y-139620783D01*
X44512100Y-139620783D01*
X44342766Y-139536116D01*
X44258100Y-139366783D01*
X44258100Y-139197450D01*
X44342766Y-139028116D01*
X44512100Y-138943450D01*
X44935433Y-138943450D01*
X45104766Y-138858783D01*
X45782100Y-138435450D02*
X46205433Y-139620783D01*
X46628766Y-138435450D02*
X46205433Y-139620783D01*
X46036100Y-140044116D01*
X45951433Y-140128783D01*
X45782100Y-140213450D01*
X47983433Y-139536116D02*
X47814100Y-139620783D01*
X47475433Y-139620783D01*
X47306100Y-139536116D01*
X47221433Y-139366783D01*
X47221433Y-138689450D01*
X47306100Y-138520116D01*
X47475433Y-138435450D01*
X47814100Y-138435450D01*
X47983433Y-138520116D01*
X48068100Y-138689450D01*
X48068100Y-138858783D01*
X47221433Y-139028116D01*
X48830100Y-139620783D02*
X48830100Y-138435450D01*
X48830100Y-138774116D02*
X48914766Y-138604783D01*
X48999433Y-138520116D01*
X49168766Y-138435450D01*
X49338100Y-138435450D01*
X49930766Y-139451450D02*
X50015433Y-139536116D01*
X49930766Y-139620783D01*
X49846100Y-139536116D01*
X49930766Y-139451450D01*
X49930766Y-139620783D01*
X49930766Y-138520116D02*
X50015433Y-138604783D01*
X49930766Y-138689450D01*
X49846100Y-138604783D01*
X49930766Y-138520116D01*
X49930766Y-138689450D01*
X51878100Y-137842783D02*
X52894100Y-137842783D01*
X52386100Y-139620783D02*
X52386100Y-137842783D01*
X53317433Y-138435450D02*
X53656100Y-139620783D01*
X53994766Y-138774116D01*
X54333433Y-139620783D01*
X54672100Y-138435450D01*
X55603433Y-139620783D02*
X55434100Y-139536116D01*
X55349433Y-139451450D01*
X55264766Y-139282116D01*
X55264766Y-138774116D01*
X55349433Y-138604783D01*
X55434100Y-138520116D01*
X55603433Y-138435450D01*
X55857433Y-138435450D01*
X56026766Y-138520116D01*
X56111433Y-138604783D01*
X56196100Y-138774116D01*
X56196100Y-139282116D01*
X56111433Y-139451450D01*
X56026766Y-139536116D01*
X55857433Y-139620783D01*
X55603433Y-139620783D01*
X58566766Y-139620783D02*
X58397433Y-139536116D01*
X58312766Y-139366783D01*
X58312766Y-137842783D01*
X60006100Y-139620783D02*
X60006100Y-138689450D01*
X59921433Y-138520116D01*
X59752100Y-138435450D01*
X59413433Y-138435450D01*
X59244100Y-138520116D01*
X60006100Y-139536116D02*
X59836766Y-139620783D01*
X59413433Y-139620783D01*
X59244100Y-139536116D01*
X59159433Y-139366783D01*
X59159433Y-139197450D01*
X59244100Y-139028116D01*
X59413433Y-138943450D01*
X59836766Y-138943450D01*
X60006100Y-138858783D01*
X60683433Y-138435450D02*
X61106766Y-139620783D01*
X61530100Y-138435450D02*
X61106766Y-139620783D01*
X60937433Y-140044116D01*
X60852766Y-140128783D01*
X60683433Y-140213450D01*
X62884766Y-139536116D02*
X62715433Y-139620783D01*
X62376766Y-139620783D01*
X62207433Y-139536116D01*
X62122766Y-139366783D01*
X62122766Y-138689450D01*
X62207433Y-138520116D01*
X62376766Y-138435450D01*
X62715433Y-138435450D01*
X62884766Y-138520116D01*
X62969433Y-138689450D01*
X62969433Y-138858783D01*
X62122766Y-139028116D01*
X63731433Y-139620783D02*
X63731433Y-138435450D01*
X63731433Y-138774116D02*
X63816100Y-138604783D01*
X63900766Y-138520116D01*
X64070100Y-138435450D01*
X64239433Y-138435450D01*
X64747433Y-139536116D02*
X64916766Y-139620783D01*
X65255433Y-139620783D01*
X65424766Y-139536116D01*
X65509433Y-139366783D01*
X65509433Y-139282116D01*
X65424766Y-139112783D01*
X65255433Y-139028116D01*
X65001433Y-139028116D01*
X64832100Y-138943450D01*
X64747433Y-138774116D01*
X64747433Y-138689450D01*
X64832100Y-138520116D01*
X65001433Y-138435450D01*
X65255433Y-138435450D01*
X65424766Y-138520116D01*
D11*
%TO.C,J4*%
X96921320Y-50601803D02*
X96968939Y-50649422D01*
X97016558Y-50792279D01*
X97016558Y-50887517D01*
X96968939Y-51030374D01*
X96873701Y-51125612D01*
X96778463Y-51173231D01*
X96587987Y-51220850D01*
X96445130Y-51220850D01*
X96254654Y-51173231D01*
X96159416Y-51125612D01*
X96064178Y-51030374D01*
X96016558Y-50887517D01*
X96016558Y-50792279D01*
X96064178Y-50649422D01*
X96111797Y-50601803D01*
X96016558Y-49982755D02*
X96016558Y-49792279D01*
X96064178Y-49697041D01*
X96159416Y-49601803D01*
X96349892Y-49554183D01*
X96683225Y-49554183D01*
X96873701Y-49601803D01*
X96968939Y-49697041D01*
X97016558Y-49792279D01*
X97016558Y-49982755D01*
X96968939Y-50077993D01*
X96873701Y-50173231D01*
X96683225Y-50220850D01*
X96349892Y-50220850D01*
X96159416Y-50173231D01*
X96064178Y-50077993D01*
X96016558Y-49982755D01*
X97016558Y-49125612D02*
X96016558Y-49125612D01*
X97016558Y-48554183D01*
X96016558Y-48554183D01*
X97016558Y-48077993D02*
X96016558Y-48077993D01*
X97016558Y-47506564D01*
X96016558Y-47506564D01*
X96635606Y-47030374D02*
X96635606Y-46268469D01*
X96730844Y-45839898D02*
X96730844Y-45363707D01*
X97016558Y-45935136D02*
X96016558Y-45601803D01*
X97016558Y-45268469D01*
X96016558Y-45077993D02*
X96016558Y-44506564D01*
X97016558Y-44792279D02*
X96016558Y-44792279D01*
X96016558Y-44268469D02*
X97016558Y-43601803D01*
X96016558Y-43601803D02*
X97016558Y-44268469D01*
X96635606Y-43220850D02*
X96635606Y-42458945D01*
X96111797Y-42030374D02*
X96064178Y-41982755D01*
X96016558Y-41887517D01*
X96016558Y-41649422D01*
X96064178Y-41554183D01*
X96111797Y-41506564D01*
X96207035Y-41458945D01*
X96302273Y-41458945D01*
X96445130Y-41506564D01*
X97016558Y-42077993D01*
X97016558Y-41458945D01*
X96349892Y-40601803D02*
X97016558Y-40601803D01*
X95968939Y-40839898D02*
X96683225Y-41077993D01*
X96683225Y-40458945D01*
X97016558Y-40077993D02*
X96016558Y-40077993D01*
X96016558Y-39697041D01*
X96064178Y-39601803D01*
X96111797Y-39554183D01*
X96207035Y-39506564D01*
X96349892Y-39506564D01*
X96445130Y-39554183D01*
X96492749Y-39601803D01*
X96540368Y-39697041D01*
X96540368Y-40077993D01*
X97016558Y-39077993D02*
X96016558Y-39077993D01*
X97016558Y-38601803D02*
X96016558Y-38601803D01*
X97016558Y-38030374D01*
X96016558Y-38030374D01*
%TO.C,C14*%
X85185714Y-117177619D02*
X85233333Y-117130000D01*
X85328571Y-117082380D01*
X85566666Y-117082380D01*
X85661904Y-117130000D01*
X85709523Y-117177619D01*
X85757142Y-117272857D01*
X85757142Y-117368095D01*
X85709523Y-117510952D01*
X85138095Y-118082380D01*
X85757142Y-118082380D01*
X86138095Y-117177619D02*
X86185714Y-117130000D01*
X86280952Y-117082380D01*
X86519047Y-117082380D01*
X86614285Y-117130000D01*
X86661904Y-117177619D01*
X86709523Y-117272857D01*
X86709523Y-117368095D01*
X86661904Y-117510952D01*
X86090476Y-118082380D01*
X86709523Y-118082380D01*
X87566666Y-117415714D02*
X87566666Y-118082380D01*
X87138095Y-117415714D02*
X87138095Y-117939523D01*
X87185714Y-118034761D01*
X87280952Y-118082380D01*
X87423809Y-118082380D01*
X87519047Y-118034761D01*
X87566666Y-117987142D01*
X85757142Y-114237142D02*
X85709523Y-114284761D01*
X85566666Y-114332380D01*
X85471428Y-114332380D01*
X85328571Y-114284761D01*
X85233333Y-114189523D01*
X85185714Y-114094285D01*
X85138095Y-113903809D01*
X85138095Y-113760952D01*
X85185714Y-113570476D01*
X85233333Y-113475238D01*
X85328571Y-113380000D01*
X85471428Y-113332380D01*
X85566666Y-113332380D01*
X85709523Y-113380000D01*
X85757142Y-113427619D01*
X86709523Y-114332380D02*
X86138095Y-114332380D01*
X86423809Y-114332380D02*
X86423809Y-113332380D01*
X86328571Y-113475238D01*
X86233333Y-113570476D01*
X86138095Y-113618095D01*
X87566666Y-113665714D02*
X87566666Y-114332380D01*
X87328571Y-113284761D02*
X87090476Y-113999047D01*
X87709523Y-113999047D01*
%TO.C,H3*%
X50847380Y-100337857D02*
X49847380Y-100337857D01*
X50561666Y-100004523D01*
X49847380Y-99671190D01*
X50847380Y-99671190D01*
X50847380Y-99052142D02*
X50799761Y-99147380D01*
X50752142Y-99195000D01*
X50656904Y-99242619D01*
X50371190Y-99242619D01*
X50275952Y-99195000D01*
X50228333Y-99147380D01*
X50180714Y-99052142D01*
X50180714Y-98909285D01*
X50228333Y-98814047D01*
X50275952Y-98766428D01*
X50371190Y-98718809D01*
X50656904Y-98718809D01*
X50752142Y-98766428D01*
X50799761Y-98814047D01*
X50847380Y-98909285D01*
X50847380Y-99052142D01*
X50180714Y-97861666D02*
X50847380Y-97861666D01*
X50180714Y-98290238D02*
X50704523Y-98290238D01*
X50799761Y-98242619D01*
X50847380Y-98147380D01*
X50847380Y-98004523D01*
X50799761Y-97909285D01*
X50752142Y-97861666D01*
X50180714Y-97385476D02*
X50847380Y-97385476D01*
X50275952Y-97385476D02*
X50228333Y-97337857D01*
X50180714Y-97242619D01*
X50180714Y-97099761D01*
X50228333Y-97004523D01*
X50323571Y-96956904D01*
X50847380Y-96956904D01*
X50180714Y-96623571D02*
X50180714Y-96242619D01*
X49847380Y-96480714D02*
X50704523Y-96480714D01*
X50799761Y-96433095D01*
X50847380Y-96337857D01*
X50847380Y-96242619D01*
X50847380Y-95909285D02*
X49847380Y-95909285D01*
X50323571Y-95909285D02*
X50323571Y-95337857D01*
X50847380Y-95337857D02*
X49847380Y-95337857D01*
X50847380Y-94718809D02*
X50799761Y-94814047D01*
X50752142Y-94861666D01*
X50656904Y-94909285D01*
X50371190Y-94909285D01*
X50275952Y-94861666D01*
X50228333Y-94814047D01*
X50180714Y-94718809D01*
X50180714Y-94575952D01*
X50228333Y-94480714D01*
X50275952Y-94433095D01*
X50371190Y-94385476D01*
X50656904Y-94385476D01*
X50752142Y-94433095D01*
X50799761Y-94480714D01*
X50847380Y-94575952D01*
X50847380Y-94718809D01*
X50847380Y-93814047D02*
X50799761Y-93909285D01*
X50704523Y-93956904D01*
X49847380Y-93956904D01*
X50799761Y-93052142D02*
X50847380Y-93147380D01*
X50847380Y-93337857D01*
X50799761Y-93433095D01*
X50704523Y-93480714D01*
X50323571Y-93480714D01*
X50228333Y-93433095D01*
X50180714Y-93337857D01*
X50180714Y-93147380D01*
X50228333Y-93052142D01*
X50323571Y-93004523D01*
X50418809Y-93004523D01*
X50514047Y-93480714D01*
%TO.C,C11*%
X73922380Y-78804047D02*
X73922380Y-79375476D01*
X73922380Y-79089761D02*
X72922380Y-79089761D01*
X73065238Y-79185000D01*
X73160476Y-79280238D01*
X73208095Y-79375476D01*
X72922380Y-78185000D02*
X72922380Y-78089761D01*
X72970000Y-77994523D01*
X73017619Y-77946904D01*
X73112857Y-77899285D01*
X73303333Y-77851666D01*
X73541428Y-77851666D01*
X73731904Y-77899285D01*
X73827142Y-77946904D01*
X73874761Y-77994523D01*
X73922380Y-78089761D01*
X73922380Y-78185000D01*
X73874761Y-78280238D01*
X73827142Y-78327857D01*
X73731904Y-78375476D01*
X73541428Y-78423095D01*
X73303333Y-78423095D01*
X73112857Y-78375476D01*
X73017619Y-78327857D01*
X72970000Y-78280238D01*
X72922380Y-78185000D01*
X72922380Y-77232619D02*
X72922380Y-77137380D01*
X72970000Y-77042142D01*
X73017619Y-76994523D01*
X73112857Y-76946904D01*
X73303333Y-76899285D01*
X73541428Y-76899285D01*
X73731904Y-76946904D01*
X73827142Y-76994523D01*
X73874761Y-77042142D01*
X73922380Y-77137380D01*
X73922380Y-77232619D01*
X73874761Y-77327857D01*
X73827142Y-77375476D01*
X73731904Y-77423095D01*
X73541428Y-77470714D01*
X73303333Y-77470714D01*
X73112857Y-77423095D01*
X73017619Y-77375476D01*
X72970000Y-77327857D01*
X72922380Y-77232619D01*
X73255714Y-76470714D02*
X73922380Y-76470714D01*
X73350952Y-76470714D02*
X73303333Y-76423095D01*
X73255714Y-76327857D01*
X73255714Y-76185000D01*
X73303333Y-76089761D01*
X73398571Y-76042142D01*
X73922380Y-76042142D01*
D12*
X76305714Y-78289285D02*
X76350476Y-78334047D01*
X76395238Y-78468333D01*
X76395238Y-78557857D01*
X76350476Y-78692142D01*
X76260952Y-78781666D01*
X76171428Y-78826428D01*
X75992380Y-78871190D01*
X75858095Y-78871190D01*
X75679047Y-78826428D01*
X75589523Y-78781666D01*
X75500000Y-78692142D01*
X75455238Y-78557857D01*
X75455238Y-78468333D01*
X75500000Y-78334047D01*
X75544761Y-78289285D01*
X76395238Y-77394047D02*
X76395238Y-77931190D01*
X76395238Y-77662619D02*
X75455238Y-77662619D01*
X75589523Y-77752142D01*
X75679047Y-77841666D01*
X75723809Y-77931190D01*
X76395238Y-76498809D02*
X76395238Y-77035952D01*
X76395238Y-76767380D02*
X75455238Y-76767380D01*
X75589523Y-76856904D01*
X75679047Y-76946428D01*
X75723809Y-77035952D01*
D11*
%TO.C,D3*%
X69692380Y-44672857D02*
X69692380Y-45149047D01*
X68692380Y-45149047D01*
X69168571Y-44339523D02*
X69168571Y-44006190D01*
X69692380Y-43863333D02*
X69692380Y-44339523D01*
X68692380Y-44339523D01*
X68692380Y-43863333D01*
X69692380Y-43434761D02*
X68692380Y-43434761D01*
X68692380Y-43196666D01*
X68740000Y-43053809D01*
X68835238Y-42958571D01*
X68930476Y-42910952D01*
X69120952Y-42863333D01*
X69263809Y-42863333D01*
X69454285Y-42910952D01*
X69549523Y-42958571D01*
X69644761Y-43053809D01*
X69692380Y-43196666D01*
X69692380Y-43434761D01*
D13*
X70426190Y-43969047D02*
X69926190Y-43969047D01*
X69926190Y-43850000D01*
X69950000Y-43778571D01*
X69997619Y-43730952D01*
X70045238Y-43707142D01*
X70140476Y-43683333D01*
X70211904Y-43683333D01*
X70307142Y-43707142D01*
X70354761Y-43730952D01*
X70402380Y-43778571D01*
X70426190Y-43850000D01*
X70426190Y-43969047D01*
X69926190Y-43516666D02*
X69926190Y-43207142D01*
X70116666Y-43373809D01*
X70116666Y-43302380D01*
X70140476Y-43254761D01*
X70164285Y-43230952D01*
X70211904Y-43207142D01*
X70330952Y-43207142D01*
X70378571Y-43230952D01*
X70402380Y-43254761D01*
X70426190Y-43302380D01*
X70426190Y-43445238D01*
X70402380Y-43492857D01*
X70378571Y-43516666D01*
D11*
%TO.C,D1*%
X74137380Y-44672857D02*
X74137380Y-45149047D01*
X73137380Y-45149047D01*
X73613571Y-44339523D02*
X73613571Y-44006190D01*
X74137380Y-43863333D02*
X74137380Y-44339523D01*
X73137380Y-44339523D01*
X73137380Y-43863333D01*
X74137380Y-43434761D02*
X73137380Y-43434761D01*
X73137380Y-43196666D01*
X73185000Y-43053809D01*
X73280238Y-42958571D01*
X73375476Y-42910952D01*
X73565952Y-42863333D01*
X73708809Y-42863333D01*
X73899285Y-42910952D01*
X73994523Y-42958571D01*
X74089761Y-43053809D01*
X74137380Y-43196666D01*
X74137380Y-43434761D01*
D13*
X75561190Y-44399047D02*
X75061190Y-44399047D01*
X75061190Y-44280000D01*
X75085000Y-44208571D01*
X75132619Y-44160952D01*
X75180238Y-44137142D01*
X75275476Y-44113333D01*
X75346904Y-44113333D01*
X75442142Y-44137142D01*
X75489761Y-44160952D01*
X75537380Y-44208571D01*
X75561190Y-44280000D01*
X75561190Y-44399047D01*
X75561190Y-43637142D02*
X75561190Y-43922857D01*
X75561190Y-43780000D02*
X75061190Y-43780000D01*
X75132619Y-43827619D01*
X75180238Y-43875238D01*
X75204047Y-43922857D01*
D11*
%TO.C,R1*%
X72501428Y-52885714D02*
X72501428Y-53552380D01*
X72263333Y-52504761D02*
X72025238Y-53219047D01*
X72644285Y-53219047D01*
X73025238Y-53457142D02*
X73072857Y-53504761D01*
X73025238Y-53552380D01*
X72977619Y-53504761D01*
X73025238Y-53457142D01*
X73025238Y-53552380D01*
X73406190Y-52552380D02*
X74072857Y-52552380D01*
X73644285Y-53552380D01*
X74453809Y-53552380D02*
X74453809Y-52552380D01*
X74549047Y-53171428D02*
X74834761Y-53552380D01*
X74834761Y-52885714D02*
X74453809Y-53266666D01*
X73263333Y-50827380D02*
X72930000Y-50351190D01*
X72691904Y-50827380D02*
X72691904Y-49827380D01*
X73072857Y-49827380D01*
X73168095Y-49875000D01*
X73215714Y-49922619D01*
X73263333Y-50017857D01*
X73263333Y-50160714D01*
X73215714Y-50255952D01*
X73168095Y-50303571D01*
X73072857Y-50351190D01*
X72691904Y-50351190D01*
X74215714Y-50827380D02*
X73644285Y-50827380D01*
X73930000Y-50827380D02*
X73930000Y-49827380D01*
X73834761Y-49970238D01*
X73739523Y-50065476D01*
X73644285Y-50113095D01*
%TO.C,H7*%
X217932619Y-93052142D02*
X218932619Y-93052142D01*
X218218333Y-93385476D01*
X218932619Y-93718809D01*
X217932619Y-93718809D01*
X217932619Y-94337857D02*
X217980238Y-94242619D01*
X218027857Y-94195000D01*
X218123095Y-94147380D01*
X218408809Y-94147380D01*
X218504047Y-94195000D01*
X218551666Y-94242619D01*
X218599285Y-94337857D01*
X218599285Y-94480714D01*
X218551666Y-94575952D01*
X218504047Y-94623571D01*
X218408809Y-94671190D01*
X218123095Y-94671190D01*
X218027857Y-94623571D01*
X217980238Y-94575952D01*
X217932619Y-94480714D01*
X217932619Y-94337857D01*
X218599285Y-95528333D02*
X217932619Y-95528333D01*
X218599285Y-95099761D02*
X218075476Y-95099761D01*
X217980238Y-95147380D01*
X217932619Y-95242619D01*
X217932619Y-95385476D01*
X217980238Y-95480714D01*
X218027857Y-95528333D01*
X218599285Y-96004523D02*
X217932619Y-96004523D01*
X218504047Y-96004523D02*
X218551666Y-96052142D01*
X218599285Y-96147380D01*
X218599285Y-96290238D01*
X218551666Y-96385476D01*
X218456428Y-96433095D01*
X217932619Y-96433095D01*
X218599285Y-96766428D02*
X218599285Y-97147380D01*
X218932619Y-96909285D02*
X218075476Y-96909285D01*
X217980238Y-96956904D01*
X217932619Y-97052142D01*
X217932619Y-97147380D01*
X217932619Y-97480714D02*
X218932619Y-97480714D01*
X218456428Y-97480714D02*
X218456428Y-98052142D01*
X217932619Y-98052142D02*
X218932619Y-98052142D01*
X217932619Y-98671190D02*
X217980238Y-98575952D01*
X218027857Y-98528333D01*
X218123095Y-98480714D01*
X218408809Y-98480714D01*
X218504047Y-98528333D01*
X218551666Y-98575952D01*
X218599285Y-98671190D01*
X218599285Y-98814047D01*
X218551666Y-98909285D01*
X218504047Y-98956904D01*
X218408809Y-99004523D01*
X218123095Y-99004523D01*
X218027857Y-98956904D01*
X217980238Y-98909285D01*
X217932619Y-98814047D01*
X217932619Y-98671190D01*
X217932619Y-99575952D02*
X217980238Y-99480714D01*
X218075476Y-99433095D01*
X218932619Y-99433095D01*
X217980238Y-100337857D02*
X217932619Y-100242619D01*
X217932619Y-100052142D01*
X217980238Y-99956904D01*
X218075476Y-99909285D01*
X218456428Y-99909285D01*
X218551666Y-99956904D01*
X218599285Y-100052142D01*
X218599285Y-100242619D01*
X218551666Y-100337857D01*
X218456428Y-100385476D01*
X218361190Y-100385476D01*
X218265952Y-99909285D01*
%TO.C,R8*%
X149614285Y-57272380D02*
X150233333Y-57272380D01*
X149900000Y-57653333D01*
X150042857Y-57653333D01*
X150138095Y-57700952D01*
X150185714Y-57748571D01*
X150233333Y-57843809D01*
X150233333Y-58081904D01*
X150185714Y-58177142D01*
X150138095Y-58224761D01*
X150042857Y-58272380D01*
X149757142Y-58272380D01*
X149661904Y-58224761D01*
X149614285Y-58177142D01*
X150852380Y-57272380D02*
X150947619Y-57272380D01*
X151042857Y-57320000D01*
X151090476Y-57367619D01*
X151138095Y-57462857D01*
X151185714Y-57653333D01*
X151185714Y-57891428D01*
X151138095Y-58081904D01*
X151090476Y-58177142D01*
X151042857Y-58224761D01*
X150947619Y-58272380D01*
X150852380Y-58272380D01*
X150757142Y-58224761D01*
X150709523Y-58177142D01*
X150661904Y-58081904D01*
X150614285Y-57891428D01*
X150614285Y-57653333D01*
X150661904Y-57462857D01*
X150709523Y-57367619D01*
X150757142Y-57320000D01*
X150852380Y-57272380D01*
X151804761Y-57272380D02*
X151900000Y-57272380D01*
X151995238Y-57320000D01*
X152042857Y-57367619D01*
X152090476Y-57462857D01*
X152138095Y-57653333D01*
X152138095Y-57891428D01*
X152090476Y-58081904D01*
X152042857Y-58177142D01*
X151995238Y-58224761D01*
X151900000Y-58272380D01*
X151804761Y-58272380D01*
X151709523Y-58224761D01*
X151661904Y-58177142D01*
X151614285Y-58081904D01*
X151566666Y-57891428D01*
X151566666Y-57653333D01*
X151614285Y-57462857D01*
X151661904Y-57367619D01*
X151709523Y-57320000D01*
X151804761Y-57272380D01*
X150733333Y-60992380D02*
X150400000Y-60516190D01*
X150161904Y-60992380D02*
X150161904Y-59992380D01*
X150542857Y-59992380D01*
X150638095Y-60040000D01*
X150685714Y-60087619D01*
X150733333Y-60182857D01*
X150733333Y-60325714D01*
X150685714Y-60420952D01*
X150638095Y-60468571D01*
X150542857Y-60516190D01*
X150161904Y-60516190D01*
X151304761Y-60420952D02*
X151209523Y-60373333D01*
X151161904Y-60325714D01*
X151114285Y-60230476D01*
X151114285Y-60182857D01*
X151161904Y-60087619D01*
X151209523Y-60040000D01*
X151304761Y-59992380D01*
X151495238Y-59992380D01*
X151590476Y-60040000D01*
X151638095Y-60087619D01*
X151685714Y-60182857D01*
X151685714Y-60230476D01*
X151638095Y-60325714D01*
X151590476Y-60373333D01*
X151495238Y-60420952D01*
X151304761Y-60420952D01*
X151209523Y-60468571D01*
X151161904Y-60516190D01*
X151114285Y-60611428D01*
X151114285Y-60801904D01*
X151161904Y-60897142D01*
X151209523Y-60944761D01*
X151304761Y-60992380D01*
X151495238Y-60992380D01*
X151590476Y-60944761D01*
X151638095Y-60897142D01*
X151685714Y-60801904D01*
X151685714Y-60611428D01*
X151638095Y-60516190D01*
X151590476Y-60468571D01*
X151495238Y-60420952D01*
%TO.C,R16*%
X72772380Y-39704047D02*
X72772380Y-40275476D01*
X72772380Y-39989761D02*
X71772380Y-39989761D01*
X71915238Y-40085000D01*
X72010476Y-40180238D01*
X72058095Y-40275476D01*
X72772380Y-39275476D02*
X71772380Y-39275476D01*
X72391428Y-39180238D02*
X72772380Y-38894523D01*
X72105714Y-38894523D02*
X72486666Y-39275476D01*
D14*
X71070952Y-39842142D02*
X70880476Y-39975476D01*
X71070952Y-40070714D02*
X70670952Y-40070714D01*
X70670952Y-39918333D01*
X70690000Y-39880238D01*
X70709047Y-39861190D01*
X70747142Y-39842142D01*
X70804285Y-39842142D01*
X70842380Y-39861190D01*
X70861428Y-39880238D01*
X70880476Y-39918333D01*
X70880476Y-40070714D01*
X71070952Y-39461190D02*
X71070952Y-39689761D01*
X71070952Y-39575476D02*
X70670952Y-39575476D01*
X70728095Y-39613571D01*
X70766190Y-39651666D01*
X70785238Y-39689761D01*
X70670952Y-39118333D02*
X70670952Y-39194523D01*
X70690000Y-39232619D01*
X70709047Y-39251666D01*
X70766190Y-39289761D01*
X70842380Y-39308809D01*
X70994761Y-39308809D01*
X71032857Y-39289761D01*
X71051904Y-39270714D01*
X71070952Y-39232619D01*
X71070952Y-39156428D01*
X71051904Y-39118333D01*
X71032857Y-39099285D01*
X70994761Y-39080238D01*
X70899523Y-39080238D01*
X70861428Y-39099285D01*
X70842380Y-39118333D01*
X70823333Y-39156428D01*
X70823333Y-39232619D01*
X70842380Y-39270714D01*
X70861428Y-39289761D01*
X70899523Y-39308809D01*
D11*
%TO.C,C8*%
X73253543Y-63837618D02*
X73301162Y-63789999D01*
X73396400Y-63742379D01*
X73634495Y-63742379D01*
X73729733Y-63789999D01*
X73777352Y-63837618D01*
X73824971Y-63932856D01*
X73824971Y-64028094D01*
X73777352Y-64170951D01*
X73205924Y-64742379D01*
X73824971Y-64742379D01*
X74205924Y-63837618D02*
X74253543Y-63789999D01*
X74348781Y-63742379D01*
X74586876Y-63742379D01*
X74682114Y-63789999D01*
X74729733Y-63837618D01*
X74777352Y-63932856D01*
X74777352Y-64028094D01*
X74729733Y-64170951D01*
X74158305Y-64742379D01*
X74777352Y-64742379D01*
X75634495Y-64075713D02*
X75634495Y-64742379D01*
X75205924Y-64075713D02*
X75205924Y-64599522D01*
X75253543Y-64694760D01*
X75348781Y-64742379D01*
X75491638Y-64742379D01*
X75586876Y-64694760D01*
X75634495Y-64647141D01*
X74301162Y-60897141D02*
X74253543Y-60944760D01*
X74110686Y-60992379D01*
X74015448Y-60992379D01*
X73872590Y-60944760D01*
X73777352Y-60849522D01*
X73729733Y-60754284D01*
X73682114Y-60563808D01*
X73682114Y-60420951D01*
X73729733Y-60230475D01*
X73777352Y-60135237D01*
X73872590Y-60039999D01*
X74015448Y-59992379D01*
X74110686Y-59992379D01*
X74253543Y-60039999D01*
X74301162Y-60087618D01*
X74872590Y-60420951D02*
X74777352Y-60373332D01*
X74729733Y-60325713D01*
X74682114Y-60230475D01*
X74682114Y-60182856D01*
X74729733Y-60087618D01*
X74777352Y-60039999D01*
X74872590Y-59992379D01*
X75063067Y-59992379D01*
X75158305Y-60039999D01*
X75205924Y-60087618D01*
X75253543Y-60182856D01*
X75253543Y-60230475D01*
X75205924Y-60325713D01*
X75158305Y-60373332D01*
X75063067Y-60420951D01*
X74872590Y-60420951D01*
X74777352Y-60468570D01*
X74729733Y-60516189D01*
X74682114Y-60611427D01*
X74682114Y-60801903D01*
X74729733Y-60897141D01*
X74777352Y-60944760D01*
X74872590Y-60992379D01*
X75063067Y-60992379D01*
X75158305Y-60944760D01*
X75205924Y-60897141D01*
X75253543Y-60801903D01*
X75253543Y-60611427D01*
X75205924Y-60516189D01*
X75158305Y-60468570D01*
X75063067Y-60420951D01*
%TO.C,C1*%
X132727619Y-97994173D02*
X132680000Y-97946554D01*
X132632380Y-97851316D01*
X132632380Y-97613221D01*
X132680000Y-97517983D01*
X132727619Y-97470364D01*
X132822857Y-97422745D01*
X132918095Y-97422745D01*
X133060952Y-97470364D01*
X133632380Y-98041792D01*
X133632380Y-97422745D01*
X132727619Y-97041792D02*
X132680000Y-96994173D01*
X132632380Y-96898935D01*
X132632380Y-96660840D01*
X132680000Y-96565602D01*
X132727619Y-96517983D01*
X132822857Y-96470364D01*
X132918095Y-96470364D01*
X133060952Y-96517983D01*
X133632380Y-97089411D01*
X133632380Y-96470364D01*
X132965714Y-95613221D02*
X133632380Y-95613221D01*
X132965714Y-96041792D02*
X133489523Y-96041792D01*
X133584761Y-95994173D01*
X133632380Y-95898935D01*
X133632380Y-95756078D01*
X133584761Y-95660840D01*
X133537142Y-95613221D01*
X137287142Y-96946554D02*
X137334761Y-96994173D01*
X137382380Y-97137030D01*
X137382380Y-97232268D01*
X137334761Y-97375126D01*
X137239523Y-97470364D01*
X137144285Y-97517983D01*
X136953809Y-97565602D01*
X136810952Y-97565602D01*
X136620476Y-97517983D01*
X136525238Y-97470364D01*
X136430000Y-97375126D01*
X136382380Y-97232268D01*
X136382380Y-97137030D01*
X136430000Y-96994173D01*
X136477619Y-96946554D01*
X137382380Y-95994173D02*
X137382380Y-96565602D01*
X137382380Y-96279888D02*
X136382380Y-96279888D01*
X136525238Y-96375126D01*
X136620476Y-96470364D01*
X136668095Y-96565602D01*
%TO.C,C29*%
X188222380Y-78804047D02*
X188222380Y-79375476D01*
X188222380Y-79089761D02*
X187222380Y-79089761D01*
X187365238Y-79185000D01*
X187460476Y-79280238D01*
X187508095Y-79375476D01*
X187222380Y-78185000D02*
X187222380Y-78089761D01*
X187270000Y-77994523D01*
X187317619Y-77946904D01*
X187412857Y-77899285D01*
X187603333Y-77851666D01*
X187841428Y-77851666D01*
X188031904Y-77899285D01*
X188127142Y-77946904D01*
X188174761Y-77994523D01*
X188222380Y-78089761D01*
X188222380Y-78185000D01*
X188174761Y-78280238D01*
X188127142Y-78327857D01*
X188031904Y-78375476D01*
X187841428Y-78423095D01*
X187603333Y-78423095D01*
X187412857Y-78375476D01*
X187317619Y-78327857D01*
X187270000Y-78280238D01*
X187222380Y-78185000D01*
X187222380Y-77232619D02*
X187222380Y-77137380D01*
X187270000Y-77042142D01*
X187317619Y-76994523D01*
X187412857Y-76946904D01*
X187603333Y-76899285D01*
X187841428Y-76899285D01*
X188031904Y-76946904D01*
X188127142Y-76994523D01*
X188174761Y-77042142D01*
X188222380Y-77137380D01*
X188222380Y-77232619D01*
X188174761Y-77327857D01*
X188127142Y-77375476D01*
X188031904Y-77423095D01*
X187841428Y-77470714D01*
X187603333Y-77470714D01*
X187412857Y-77423095D01*
X187317619Y-77375476D01*
X187270000Y-77327857D01*
X187222380Y-77232619D01*
X187555714Y-76470714D02*
X188222380Y-76470714D01*
X187650952Y-76470714D02*
X187603333Y-76423095D01*
X187555714Y-76327857D01*
X187555714Y-76185000D01*
X187603333Y-76089761D01*
X187698571Y-76042142D01*
X188222380Y-76042142D01*
D12*
X190605714Y-78289285D02*
X190650476Y-78334047D01*
X190695238Y-78468333D01*
X190695238Y-78557857D01*
X190650476Y-78692142D01*
X190560952Y-78781666D01*
X190471428Y-78826428D01*
X190292380Y-78871190D01*
X190158095Y-78871190D01*
X189979047Y-78826428D01*
X189889523Y-78781666D01*
X189800000Y-78692142D01*
X189755238Y-78557857D01*
X189755238Y-78468333D01*
X189800000Y-78334047D01*
X189844761Y-78289285D01*
X189844761Y-77931190D02*
X189800000Y-77886428D01*
X189755238Y-77796904D01*
X189755238Y-77573095D01*
X189800000Y-77483571D01*
X189844761Y-77438809D01*
X189934285Y-77394047D01*
X190023809Y-77394047D01*
X190158095Y-77438809D01*
X190695238Y-77975952D01*
X190695238Y-77394047D01*
X190695238Y-76946428D02*
X190695238Y-76767380D01*
X190650476Y-76677857D01*
X190605714Y-76633095D01*
X190471428Y-76543571D01*
X190292380Y-76498809D01*
X189934285Y-76498809D01*
X189844761Y-76543571D01*
X189800000Y-76588333D01*
X189755238Y-76677857D01*
X189755238Y-76856904D01*
X189800000Y-76946428D01*
X189844761Y-76991190D01*
X189934285Y-77035952D01*
X190158095Y-77035952D01*
X190247619Y-76991190D01*
X190292380Y-76946428D01*
X190337142Y-76856904D01*
X190337142Y-76677857D01*
X190292380Y-76588333D01*
X190247619Y-76543571D01*
X190158095Y-76498809D01*
D11*
%TO.C,R5*%
X118856428Y-59235714D02*
X118856428Y-59902380D01*
X118618333Y-58854761D02*
X118380238Y-59569047D01*
X118999285Y-59569047D01*
X119380238Y-59807142D02*
X119427857Y-59854761D01*
X119380238Y-59902380D01*
X119332619Y-59854761D01*
X119380238Y-59807142D01*
X119380238Y-59902380D01*
X119761190Y-58902380D02*
X120427857Y-58902380D01*
X119999285Y-59902380D01*
X120808809Y-59902380D02*
X120808809Y-58902380D01*
X120904047Y-59521428D02*
X121189761Y-59902380D01*
X121189761Y-59235714D02*
X120808809Y-59616666D01*
X119618333Y-57182380D02*
X119285000Y-56706190D01*
X119046904Y-57182380D02*
X119046904Y-56182380D01*
X119427857Y-56182380D01*
X119523095Y-56230000D01*
X119570714Y-56277619D01*
X119618333Y-56372857D01*
X119618333Y-56515714D01*
X119570714Y-56610952D01*
X119523095Y-56658571D01*
X119427857Y-56706190D01*
X119046904Y-56706190D01*
X120523095Y-56182380D02*
X120046904Y-56182380D01*
X119999285Y-56658571D01*
X120046904Y-56610952D01*
X120142142Y-56563333D01*
X120380238Y-56563333D01*
X120475476Y-56610952D01*
X120523095Y-56658571D01*
X120570714Y-56753809D01*
X120570714Y-56991904D01*
X120523095Y-57087142D01*
X120475476Y-57134761D01*
X120380238Y-57182380D01*
X120142142Y-57182380D01*
X120046904Y-57134761D01*
X119999285Y-57087142D01*
%TO.C,C25*%
X188055714Y-56310445D02*
X188103333Y-56262826D01*
X188198571Y-56215206D01*
X188436666Y-56215206D01*
X188531904Y-56262826D01*
X188579523Y-56310445D01*
X188627142Y-56405683D01*
X188627142Y-56500921D01*
X188579523Y-56643778D01*
X188008095Y-57215206D01*
X188627142Y-57215206D01*
X189008095Y-56310445D02*
X189055714Y-56262826D01*
X189150952Y-56215206D01*
X189389047Y-56215206D01*
X189484285Y-56262826D01*
X189531904Y-56310445D01*
X189579523Y-56405683D01*
X189579523Y-56500921D01*
X189531904Y-56643778D01*
X188960476Y-57215206D01*
X189579523Y-57215206D01*
X190436666Y-56548540D02*
X190436666Y-57215206D01*
X190008095Y-56548540D02*
X190008095Y-57072349D01*
X190055714Y-57167587D01*
X190150952Y-57215206D01*
X190293809Y-57215206D01*
X190389047Y-57167587D01*
X190436666Y-57119968D01*
X188627142Y-60869968D02*
X188579523Y-60917587D01*
X188436666Y-60965206D01*
X188341428Y-60965206D01*
X188198571Y-60917587D01*
X188103333Y-60822349D01*
X188055714Y-60727111D01*
X188008095Y-60536635D01*
X188008095Y-60393778D01*
X188055714Y-60203302D01*
X188103333Y-60108064D01*
X188198571Y-60012826D01*
X188341428Y-59965206D01*
X188436666Y-59965206D01*
X188579523Y-60012826D01*
X188627142Y-60060445D01*
X189008095Y-60060445D02*
X189055714Y-60012826D01*
X189150952Y-59965206D01*
X189389047Y-59965206D01*
X189484285Y-60012826D01*
X189531904Y-60060445D01*
X189579523Y-60155683D01*
X189579523Y-60250921D01*
X189531904Y-60393778D01*
X188960476Y-60965206D01*
X189579523Y-60965206D01*
X190484285Y-59965206D02*
X190008095Y-59965206D01*
X189960476Y-60441397D01*
X190008095Y-60393778D01*
X190103333Y-60346159D01*
X190341428Y-60346159D01*
X190436666Y-60393778D01*
X190484285Y-60441397D01*
X190531904Y-60536635D01*
X190531904Y-60774730D01*
X190484285Y-60869968D01*
X190436666Y-60917587D01*
X190341428Y-60965206D01*
X190103333Y-60965206D01*
X190008095Y-60917587D01*
X189960476Y-60869968D01*
%TO.C,C27*%
X132727619Y-79074397D02*
X132680000Y-79026778D01*
X132632380Y-78931540D01*
X132632380Y-78693445D01*
X132680000Y-78598207D01*
X132727619Y-78550588D01*
X132822857Y-78502969D01*
X132918095Y-78502969D01*
X133060952Y-78550588D01*
X133632380Y-79122016D01*
X133632380Y-78502969D01*
X132727619Y-78122016D02*
X132680000Y-78074397D01*
X132632380Y-77979159D01*
X132632380Y-77741064D01*
X132680000Y-77645826D01*
X132727619Y-77598207D01*
X132822857Y-77550588D01*
X132918095Y-77550588D01*
X133060952Y-77598207D01*
X133632380Y-78169635D01*
X133632380Y-77550588D01*
X132965714Y-76693445D02*
X133632380Y-76693445D01*
X132965714Y-77122016D02*
X133489523Y-77122016D01*
X133584761Y-77074397D01*
X133632380Y-76979159D01*
X133632380Y-76836302D01*
X133584761Y-76741064D01*
X133537142Y-76693445D01*
X137287142Y-78597857D02*
X137334761Y-78645476D01*
X137382380Y-78788333D01*
X137382380Y-78883571D01*
X137334761Y-79026428D01*
X137239523Y-79121666D01*
X137144285Y-79169285D01*
X136953809Y-79216904D01*
X136810952Y-79216904D01*
X136620476Y-79169285D01*
X136525238Y-79121666D01*
X136430000Y-79026428D01*
X136382380Y-78883571D01*
X136382380Y-78788333D01*
X136430000Y-78645476D01*
X136477619Y-78597857D01*
X136477619Y-78216904D02*
X136430000Y-78169285D01*
X136382380Y-78074047D01*
X136382380Y-77835952D01*
X136430000Y-77740714D01*
X136477619Y-77693095D01*
X136572857Y-77645476D01*
X136668095Y-77645476D01*
X136810952Y-77693095D01*
X137382380Y-78264523D01*
X137382380Y-77645476D01*
X136382380Y-77312142D02*
X136382380Y-76645476D01*
X137382380Y-77074047D01*
%TO.C,C17*%
X84166919Y-97929351D02*
X84166919Y-98500780D01*
X84166919Y-98215065D02*
X83166919Y-98215065D01*
X83309777Y-98310304D01*
X83405015Y-98405542D01*
X83452634Y-98500780D01*
X83166919Y-97310304D02*
X83166919Y-97215065D01*
X83214539Y-97119827D01*
X83262158Y-97072208D01*
X83357396Y-97024589D01*
X83547872Y-96976970D01*
X83785967Y-96976970D01*
X83976443Y-97024589D01*
X84071681Y-97072208D01*
X84119300Y-97119827D01*
X84166919Y-97215065D01*
X84166919Y-97310304D01*
X84119300Y-97405542D01*
X84071681Y-97453161D01*
X83976443Y-97500780D01*
X83785967Y-97548399D01*
X83547872Y-97548399D01*
X83357396Y-97500780D01*
X83262158Y-97453161D01*
X83214539Y-97405542D01*
X83166919Y-97310304D01*
X83166919Y-96357923D02*
X83166919Y-96262684D01*
X83214539Y-96167446D01*
X83262158Y-96119827D01*
X83357396Y-96072208D01*
X83547872Y-96024589D01*
X83785967Y-96024589D01*
X83976443Y-96072208D01*
X84071681Y-96119827D01*
X84119300Y-96167446D01*
X84166919Y-96262684D01*
X84166919Y-96357923D01*
X84119300Y-96453161D01*
X84071681Y-96500780D01*
X83976443Y-96548399D01*
X83785967Y-96596018D01*
X83547872Y-96596018D01*
X83357396Y-96548399D01*
X83262158Y-96500780D01*
X83214539Y-96453161D01*
X83166919Y-96357923D01*
X83500253Y-95596018D02*
X84166919Y-95596018D01*
X83595491Y-95596018D02*
X83547872Y-95548399D01*
X83500253Y-95453161D01*
X83500253Y-95310304D01*
X83547872Y-95215065D01*
X83643110Y-95167446D01*
X84166919Y-95167446D01*
D12*
X86550253Y-97414589D02*
X86595015Y-97459351D01*
X86639777Y-97593637D01*
X86639777Y-97683161D01*
X86595015Y-97817446D01*
X86505491Y-97906970D01*
X86415967Y-97951732D01*
X86236919Y-97996494D01*
X86102634Y-97996494D01*
X85923586Y-97951732D01*
X85834062Y-97906970D01*
X85744539Y-97817446D01*
X85699777Y-97683161D01*
X85699777Y-97593637D01*
X85744539Y-97459351D01*
X85789300Y-97414589D01*
X86639777Y-96519351D02*
X86639777Y-97056494D01*
X86639777Y-96787923D02*
X85699777Y-96787923D01*
X85834062Y-96877446D01*
X85923586Y-96966970D01*
X85968348Y-97056494D01*
X85699777Y-96206018D02*
X85699777Y-95579351D01*
X86639777Y-95982208D01*
D11*
%TO.C,H5*%
X217936963Y-36849702D02*
X218936963Y-36849702D01*
X218222677Y-37183036D01*
X218936963Y-37516369D01*
X217936963Y-37516369D01*
X217936963Y-38135417D02*
X217984582Y-38040179D01*
X218032201Y-37992560D01*
X218127439Y-37944940D01*
X218413153Y-37944940D01*
X218508391Y-37992560D01*
X218556010Y-38040179D01*
X218603629Y-38135417D01*
X218603629Y-38278274D01*
X218556010Y-38373512D01*
X218508391Y-38421131D01*
X218413153Y-38468750D01*
X218127439Y-38468750D01*
X218032201Y-38421131D01*
X217984582Y-38373512D01*
X217936963Y-38278274D01*
X217936963Y-38135417D01*
X218603629Y-39325893D02*
X217936963Y-39325893D01*
X218603629Y-38897321D02*
X218079820Y-38897321D01*
X217984582Y-38944940D01*
X217936963Y-39040179D01*
X217936963Y-39183036D01*
X217984582Y-39278274D01*
X218032201Y-39325893D01*
X218603629Y-39802083D02*
X217936963Y-39802083D01*
X218508391Y-39802083D02*
X218556010Y-39849702D01*
X218603629Y-39944940D01*
X218603629Y-40087798D01*
X218556010Y-40183036D01*
X218460772Y-40230655D01*
X217936963Y-40230655D01*
X218603629Y-40563988D02*
X218603629Y-40944940D01*
X218936963Y-40706845D02*
X218079820Y-40706845D01*
X217984582Y-40754464D01*
X217936963Y-40849702D01*
X217936963Y-40944940D01*
X217936963Y-41278274D02*
X218936963Y-41278274D01*
X218460772Y-41278274D02*
X218460772Y-41849702D01*
X217936963Y-41849702D02*
X218936963Y-41849702D01*
X217936963Y-42468750D02*
X217984582Y-42373512D01*
X218032201Y-42325893D01*
X218127439Y-42278274D01*
X218413153Y-42278274D01*
X218508391Y-42325893D01*
X218556010Y-42373512D01*
X218603629Y-42468750D01*
X218603629Y-42611607D01*
X218556010Y-42706845D01*
X218508391Y-42754464D01*
X218413153Y-42802083D01*
X218127439Y-42802083D01*
X218032201Y-42754464D01*
X217984582Y-42706845D01*
X217936963Y-42611607D01*
X217936963Y-42468750D01*
X217936963Y-43373512D02*
X217984582Y-43278274D01*
X218079820Y-43230655D01*
X218936963Y-43230655D01*
X217984582Y-44135417D02*
X217936963Y-44040179D01*
X217936963Y-43849702D01*
X217984582Y-43754464D01*
X218079820Y-43706845D01*
X218460772Y-43706845D01*
X218556010Y-43754464D01*
X218603629Y-43849702D01*
X218603629Y-44040179D01*
X218556010Y-44135417D01*
X218460772Y-44183036D01*
X218365534Y-44183036D01*
X218270296Y-43706845D01*
%TO.C,H4*%
X50839906Y-118254830D02*
X49839906Y-118254830D01*
X50554192Y-117921496D01*
X49839906Y-117588163D01*
X50839906Y-117588163D01*
X50839906Y-116969115D02*
X50792287Y-117064353D01*
X50744668Y-117111973D01*
X50649430Y-117159592D01*
X50363716Y-117159592D01*
X50268478Y-117111973D01*
X50220859Y-117064353D01*
X50173240Y-116969115D01*
X50173240Y-116826258D01*
X50220859Y-116731020D01*
X50268478Y-116683401D01*
X50363716Y-116635782D01*
X50649430Y-116635782D01*
X50744668Y-116683401D01*
X50792287Y-116731020D01*
X50839906Y-116826258D01*
X50839906Y-116969115D01*
X50173240Y-115778639D02*
X50839906Y-115778639D01*
X50173240Y-116207211D02*
X50697049Y-116207211D01*
X50792287Y-116159592D01*
X50839906Y-116064353D01*
X50839906Y-115921496D01*
X50792287Y-115826258D01*
X50744668Y-115778639D01*
X50173240Y-115302449D02*
X50839906Y-115302449D01*
X50268478Y-115302449D02*
X50220859Y-115254830D01*
X50173240Y-115159592D01*
X50173240Y-115016734D01*
X50220859Y-114921496D01*
X50316097Y-114873877D01*
X50839906Y-114873877D01*
X50173240Y-114540544D02*
X50173240Y-114159592D01*
X49839906Y-114397687D02*
X50697049Y-114397687D01*
X50792287Y-114350068D01*
X50839906Y-114254830D01*
X50839906Y-114159592D01*
X50839906Y-113826258D02*
X49839906Y-113826258D01*
X50316097Y-113826258D02*
X50316097Y-113254830D01*
X50839906Y-113254830D02*
X49839906Y-113254830D01*
X50839906Y-112635782D02*
X50792287Y-112731020D01*
X50744668Y-112778639D01*
X50649430Y-112826258D01*
X50363716Y-112826258D01*
X50268478Y-112778639D01*
X50220859Y-112731020D01*
X50173240Y-112635782D01*
X50173240Y-112492925D01*
X50220859Y-112397687D01*
X50268478Y-112350068D01*
X50363716Y-112302449D01*
X50649430Y-112302449D01*
X50744668Y-112350068D01*
X50792287Y-112397687D01*
X50839906Y-112492925D01*
X50839906Y-112635782D01*
X50839906Y-111731020D02*
X50792287Y-111826258D01*
X50697049Y-111873877D01*
X49839906Y-111873877D01*
X50792287Y-110969115D02*
X50839906Y-111064353D01*
X50839906Y-111254830D01*
X50792287Y-111350068D01*
X50697049Y-111397687D01*
X50316097Y-111397687D01*
X50220859Y-111350068D01*
X50173240Y-111254830D01*
X50173240Y-111064353D01*
X50220859Y-110969115D01*
X50316097Y-110921496D01*
X50411335Y-110921496D01*
X50506573Y-111397687D01*
%TO.C,H2*%
X50847380Y-81327857D02*
X49847380Y-81327857D01*
X50561666Y-80994523D01*
X49847380Y-80661190D01*
X50847380Y-80661190D01*
X50847380Y-80042142D02*
X50799761Y-80137380D01*
X50752142Y-80185000D01*
X50656904Y-80232619D01*
X50371190Y-80232619D01*
X50275952Y-80185000D01*
X50228333Y-80137380D01*
X50180714Y-80042142D01*
X50180714Y-79899285D01*
X50228333Y-79804047D01*
X50275952Y-79756428D01*
X50371190Y-79708809D01*
X50656904Y-79708809D01*
X50752142Y-79756428D01*
X50799761Y-79804047D01*
X50847380Y-79899285D01*
X50847380Y-80042142D01*
X50180714Y-78851666D02*
X50847380Y-78851666D01*
X50180714Y-79280238D02*
X50704523Y-79280238D01*
X50799761Y-79232619D01*
X50847380Y-79137380D01*
X50847380Y-78994523D01*
X50799761Y-78899285D01*
X50752142Y-78851666D01*
X50180714Y-78375476D02*
X50847380Y-78375476D01*
X50275952Y-78375476D02*
X50228333Y-78327857D01*
X50180714Y-78232619D01*
X50180714Y-78089761D01*
X50228333Y-77994523D01*
X50323571Y-77946904D01*
X50847380Y-77946904D01*
X50180714Y-77613571D02*
X50180714Y-77232619D01*
X49847380Y-77470714D02*
X50704523Y-77470714D01*
X50799761Y-77423095D01*
X50847380Y-77327857D01*
X50847380Y-77232619D01*
X50847380Y-76899285D02*
X49847380Y-76899285D01*
X50323571Y-76899285D02*
X50323571Y-76327857D01*
X50847380Y-76327857D02*
X49847380Y-76327857D01*
X50847380Y-75708809D02*
X50799761Y-75804047D01*
X50752142Y-75851666D01*
X50656904Y-75899285D01*
X50371190Y-75899285D01*
X50275952Y-75851666D01*
X50228333Y-75804047D01*
X50180714Y-75708809D01*
X50180714Y-75565952D01*
X50228333Y-75470714D01*
X50275952Y-75423095D01*
X50371190Y-75375476D01*
X50656904Y-75375476D01*
X50752142Y-75423095D01*
X50799761Y-75470714D01*
X50847380Y-75565952D01*
X50847380Y-75708809D01*
X50847380Y-74804047D02*
X50799761Y-74899285D01*
X50704523Y-74946904D01*
X49847380Y-74946904D01*
X50799761Y-74042142D02*
X50847380Y-74137380D01*
X50847380Y-74327857D01*
X50799761Y-74423095D01*
X50704523Y-74470714D01*
X50323571Y-74470714D01*
X50228333Y-74423095D01*
X50180714Y-74327857D01*
X50180714Y-74137380D01*
X50228333Y-74042142D01*
X50323571Y-73994523D01*
X50418809Y-73994523D01*
X50514047Y-74470714D01*
%TO.C,H6*%
X217882554Y-74042142D02*
X218882554Y-74042142D01*
X218168268Y-74375476D01*
X218882554Y-74708809D01*
X217882554Y-74708809D01*
X217882554Y-75327857D02*
X217930173Y-75232619D01*
X217977792Y-75185000D01*
X218073030Y-75137380D01*
X218358744Y-75137380D01*
X218453982Y-75185000D01*
X218501601Y-75232619D01*
X218549220Y-75327857D01*
X218549220Y-75470714D01*
X218501601Y-75565952D01*
X218453982Y-75613571D01*
X218358744Y-75661190D01*
X218073030Y-75661190D01*
X217977792Y-75613571D01*
X217930173Y-75565952D01*
X217882554Y-75470714D01*
X217882554Y-75327857D01*
X218549220Y-76518333D02*
X217882554Y-76518333D01*
X218549220Y-76089761D02*
X218025411Y-76089761D01*
X217930173Y-76137380D01*
X217882554Y-76232619D01*
X217882554Y-76375476D01*
X217930173Y-76470714D01*
X217977792Y-76518333D01*
X218549220Y-76994523D02*
X217882554Y-76994523D01*
X218453982Y-76994523D02*
X218501601Y-77042142D01*
X218549220Y-77137380D01*
X218549220Y-77280238D01*
X218501601Y-77375476D01*
X218406363Y-77423095D01*
X217882554Y-77423095D01*
X218549220Y-77756428D02*
X218549220Y-78137380D01*
X218882554Y-77899285D02*
X218025411Y-77899285D01*
X217930173Y-77946904D01*
X217882554Y-78042142D01*
X217882554Y-78137380D01*
X217882554Y-78470714D02*
X218882554Y-78470714D01*
X218406363Y-78470714D02*
X218406363Y-79042142D01*
X217882554Y-79042142D02*
X218882554Y-79042142D01*
X217882554Y-79661190D02*
X217930173Y-79565952D01*
X217977792Y-79518333D01*
X218073030Y-79470714D01*
X218358744Y-79470714D01*
X218453982Y-79518333D01*
X218501601Y-79565952D01*
X218549220Y-79661190D01*
X218549220Y-79804047D01*
X218501601Y-79899285D01*
X218453982Y-79946904D01*
X218358744Y-79994523D01*
X218073030Y-79994523D01*
X217977792Y-79946904D01*
X217930173Y-79899285D01*
X217882554Y-79804047D01*
X217882554Y-79661190D01*
X217882554Y-80565952D02*
X217930173Y-80470714D01*
X218025411Y-80423095D01*
X218882554Y-80423095D01*
X217930173Y-81327857D02*
X217882554Y-81232619D01*
X217882554Y-81042142D01*
X217930173Y-80946904D01*
X218025411Y-80899285D01*
X218406363Y-80899285D01*
X218501601Y-80946904D01*
X218549220Y-81042142D01*
X218549220Y-81232619D01*
X218501601Y-81327857D01*
X218406363Y-81375476D01*
X218311125Y-81375476D01*
X218215887Y-80899285D01*
%TO.C,C4*%
X188222380Y-97814047D02*
X188222380Y-98385476D01*
X188222380Y-98099761D02*
X187222380Y-98099761D01*
X187365238Y-98195000D01*
X187460476Y-98290238D01*
X187508095Y-98385476D01*
X187222380Y-97195000D02*
X187222380Y-97099761D01*
X187270000Y-97004523D01*
X187317619Y-96956904D01*
X187412857Y-96909285D01*
X187603333Y-96861666D01*
X187841428Y-96861666D01*
X188031904Y-96909285D01*
X188127142Y-96956904D01*
X188174761Y-97004523D01*
X188222380Y-97099761D01*
X188222380Y-97195000D01*
X188174761Y-97290238D01*
X188127142Y-97337857D01*
X188031904Y-97385476D01*
X187841428Y-97433095D01*
X187603333Y-97433095D01*
X187412857Y-97385476D01*
X187317619Y-97337857D01*
X187270000Y-97290238D01*
X187222380Y-97195000D01*
X187222380Y-96242619D02*
X187222380Y-96147380D01*
X187270000Y-96052142D01*
X187317619Y-96004523D01*
X187412857Y-95956904D01*
X187603333Y-95909285D01*
X187841428Y-95909285D01*
X188031904Y-95956904D01*
X188127142Y-96004523D01*
X188174761Y-96052142D01*
X188222380Y-96147380D01*
X188222380Y-96242619D01*
X188174761Y-96337857D01*
X188127142Y-96385476D01*
X188031904Y-96433095D01*
X187841428Y-96480714D01*
X187603333Y-96480714D01*
X187412857Y-96433095D01*
X187317619Y-96385476D01*
X187270000Y-96337857D01*
X187222380Y-96242619D01*
X187555714Y-95480714D02*
X188222380Y-95480714D01*
X187650952Y-95480714D02*
X187603333Y-95433095D01*
X187555714Y-95337857D01*
X187555714Y-95195000D01*
X187603333Y-95099761D01*
X187698571Y-95052142D01*
X188222380Y-95052142D01*
D12*
X190605714Y-96851666D02*
X190650476Y-96896428D01*
X190695238Y-97030714D01*
X190695238Y-97120238D01*
X190650476Y-97254523D01*
X190560952Y-97344047D01*
X190471428Y-97388809D01*
X190292380Y-97433571D01*
X190158095Y-97433571D01*
X189979047Y-97388809D01*
X189889523Y-97344047D01*
X189800000Y-97254523D01*
X189755238Y-97120238D01*
X189755238Y-97030714D01*
X189800000Y-96896428D01*
X189844761Y-96851666D01*
X190068571Y-96045952D02*
X190695238Y-96045952D01*
X189710476Y-96269761D02*
X190381904Y-96493571D01*
X190381904Y-95911666D01*
D11*
%TO.C,D2*%
X78582380Y-44672857D02*
X78582380Y-45149047D01*
X77582380Y-45149047D01*
X78058571Y-44339523D02*
X78058571Y-44006190D01*
X78582380Y-43863333D02*
X78582380Y-44339523D01*
X77582380Y-44339523D01*
X77582380Y-43863333D01*
X78582380Y-43434761D02*
X77582380Y-43434761D01*
X77582380Y-43196666D01*
X77630000Y-43053809D01*
X77725238Y-42958571D01*
X77820476Y-42910952D01*
X78010952Y-42863333D01*
X78153809Y-42863333D01*
X78344285Y-42910952D01*
X78439523Y-42958571D01*
X78534761Y-43053809D01*
X78582380Y-43196666D01*
X78582380Y-43434761D01*
D13*
X80006190Y-44399047D02*
X79506190Y-44399047D01*
X79506190Y-44280000D01*
X79530000Y-44208571D01*
X79577619Y-44160952D01*
X79625238Y-44137142D01*
X79720476Y-44113333D01*
X79791904Y-44113333D01*
X79887142Y-44137142D01*
X79934761Y-44160952D01*
X79982380Y-44208571D01*
X80006190Y-44280000D01*
X80006190Y-44399047D01*
X79553809Y-43922857D02*
X79530000Y-43899047D01*
X79506190Y-43851428D01*
X79506190Y-43732380D01*
X79530000Y-43684761D01*
X79553809Y-43660952D01*
X79601428Y-43637142D01*
X79649047Y-43637142D01*
X79720476Y-43660952D01*
X80006190Y-43946666D01*
X80006190Y-43637142D01*
D11*
%TO.C,C9*%
X73530601Y-117177619D02*
X73578220Y-117130000D01*
X73673458Y-117082380D01*
X73911553Y-117082380D01*
X74006791Y-117130000D01*
X74054410Y-117177619D01*
X74102029Y-117272857D01*
X74102029Y-117368095D01*
X74054410Y-117510952D01*
X73482982Y-118082380D01*
X74102029Y-118082380D01*
X74482982Y-117177619D02*
X74530601Y-117130000D01*
X74625839Y-117082380D01*
X74863934Y-117082380D01*
X74959172Y-117130000D01*
X75006791Y-117177619D01*
X75054410Y-117272857D01*
X75054410Y-117368095D01*
X75006791Y-117510952D01*
X74435363Y-118082380D01*
X75054410Y-118082380D01*
X75911553Y-117415714D02*
X75911553Y-118082380D01*
X75482982Y-117415714D02*
X75482982Y-117939523D01*
X75530601Y-118034761D01*
X75625839Y-118082380D01*
X75768696Y-118082380D01*
X75863934Y-118034761D01*
X75911553Y-117987142D01*
X74578220Y-114237142D02*
X74530601Y-114284761D01*
X74387744Y-114332380D01*
X74292506Y-114332380D01*
X74149648Y-114284761D01*
X74054410Y-114189523D01*
X74006791Y-114094285D01*
X73959172Y-113903809D01*
X73959172Y-113760952D01*
X74006791Y-113570476D01*
X74054410Y-113475238D01*
X74149648Y-113380000D01*
X74292506Y-113332380D01*
X74387744Y-113332380D01*
X74530601Y-113380000D01*
X74578220Y-113427619D01*
X75054410Y-114332380D02*
X75244887Y-114332380D01*
X75340125Y-114284761D01*
X75387744Y-114237142D01*
X75482982Y-114094285D01*
X75530601Y-113903809D01*
X75530601Y-113522857D01*
X75482982Y-113427619D01*
X75435363Y-113380000D01*
X75340125Y-113332380D01*
X75149648Y-113332380D01*
X75054410Y-113380000D01*
X75006791Y-113427619D01*
X74959172Y-113522857D01*
X74959172Y-113760952D01*
X75006791Y-113856190D01*
X75054410Y-113903809D01*
X75149648Y-113951428D01*
X75340125Y-113951428D01*
X75435363Y-113903809D01*
X75482982Y-113856190D01*
X75530601Y-113760952D01*
%TO.C,C19*%
X79245601Y-117177619D02*
X79293220Y-117130000D01*
X79388458Y-117082380D01*
X79626553Y-117082380D01*
X79721791Y-117130000D01*
X79769410Y-117177619D01*
X79817029Y-117272857D01*
X79817029Y-117368095D01*
X79769410Y-117510952D01*
X79197982Y-118082380D01*
X79817029Y-118082380D01*
X80197982Y-117177619D02*
X80245601Y-117130000D01*
X80340839Y-117082380D01*
X80578934Y-117082380D01*
X80674172Y-117130000D01*
X80721791Y-117177619D01*
X80769410Y-117272857D01*
X80769410Y-117368095D01*
X80721791Y-117510952D01*
X80150363Y-118082380D01*
X80769410Y-118082380D01*
X81626553Y-117415714D02*
X81626553Y-118082380D01*
X81197982Y-117415714D02*
X81197982Y-117939523D01*
X81245601Y-118034761D01*
X81340839Y-118082380D01*
X81483696Y-118082380D01*
X81578934Y-118034761D01*
X81626553Y-117987142D01*
X79817029Y-114237142D02*
X79769410Y-114284761D01*
X79626553Y-114332380D01*
X79531315Y-114332380D01*
X79388458Y-114284761D01*
X79293220Y-114189523D01*
X79245601Y-114094285D01*
X79197982Y-113903809D01*
X79197982Y-113760952D01*
X79245601Y-113570476D01*
X79293220Y-113475238D01*
X79388458Y-113380000D01*
X79531315Y-113332380D01*
X79626553Y-113332380D01*
X79769410Y-113380000D01*
X79817029Y-113427619D01*
X80769410Y-114332380D02*
X80197982Y-114332380D01*
X80483696Y-114332380D02*
X80483696Y-113332380D01*
X80388458Y-113475238D01*
X80293220Y-113570476D01*
X80197982Y-113618095D01*
X81245601Y-114332380D02*
X81436077Y-114332380D01*
X81531315Y-114284761D01*
X81578934Y-114237142D01*
X81674172Y-114094285D01*
X81721791Y-113903809D01*
X81721791Y-113522857D01*
X81674172Y-113427619D01*
X81626553Y-113380000D01*
X81531315Y-113332380D01*
X81340839Y-113332380D01*
X81245601Y-113380000D01*
X81197982Y-113427619D01*
X81150363Y-113522857D01*
X81150363Y-113760952D01*
X81197982Y-113856190D01*
X81245601Y-113903809D01*
X81340839Y-113951428D01*
X81531315Y-113951428D01*
X81626553Y-113903809D01*
X81674172Y-113856190D01*
X81721791Y-113760952D01*
%TO.C,C30*%
X136152380Y-115634047D02*
X136152380Y-116205476D01*
X136152380Y-115919761D02*
X135152380Y-115919761D01*
X135295238Y-116015000D01*
X135390476Y-116110238D01*
X135438095Y-116205476D01*
X135152380Y-115015000D02*
X135152380Y-114919761D01*
X135200000Y-114824523D01*
X135247619Y-114776904D01*
X135342857Y-114729285D01*
X135533333Y-114681666D01*
X135771428Y-114681666D01*
X135961904Y-114729285D01*
X136057142Y-114776904D01*
X136104761Y-114824523D01*
X136152380Y-114919761D01*
X136152380Y-115015000D01*
X136104761Y-115110238D01*
X136057142Y-115157857D01*
X135961904Y-115205476D01*
X135771428Y-115253095D01*
X135533333Y-115253095D01*
X135342857Y-115205476D01*
X135247619Y-115157857D01*
X135200000Y-115110238D01*
X135152380Y-115015000D01*
X135152380Y-114062619D02*
X135152380Y-113967380D01*
X135200000Y-113872142D01*
X135247619Y-113824523D01*
X135342857Y-113776904D01*
X135533333Y-113729285D01*
X135771428Y-113729285D01*
X135961904Y-113776904D01*
X136057142Y-113824523D01*
X136104761Y-113872142D01*
X136152380Y-113967380D01*
X136152380Y-114062619D01*
X136104761Y-114157857D01*
X136057142Y-114205476D01*
X135961904Y-114253095D01*
X135771428Y-114300714D01*
X135533333Y-114300714D01*
X135342857Y-114253095D01*
X135247619Y-114205476D01*
X135200000Y-114157857D01*
X135152380Y-114062619D01*
X135485714Y-113300714D02*
X136152380Y-113300714D01*
X135580952Y-113300714D02*
X135533333Y-113253095D01*
X135485714Y-113157857D01*
X135485714Y-113015000D01*
X135533333Y-112919761D01*
X135628571Y-112872142D01*
X136152380Y-112872142D01*
D12*
X138535714Y-115119285D02*
X138580476Y-115164047D01*
X138625238Y-115298333D01*
X138625238Y-115387857D01*
X138580476Y-115522142D01*
X138490952Y-115611666D01*
X138401428Y-115656428D01*
X138222380Y-115701190D01*
X138088095Y-115701190D01*
X137909047Y-115656428D01*
X137819523Y-115611666D01*
X137730000Y-115522142D01*
X137685238Y-115387857D01*
X137685238Y-115298333D01*
X137730000Y-115164047D01*
X137774761Y-115119285D01*
X137685238Y-114805952D02*
X137685238Y-114224047D01*
X138043333Y-114537380D01*
X138043333Y-114403095D01*
X138088095Y-114313571D01*
X138132857Y-114268809D01*
X138222380Y-114224047D01*
X138446190Y-114224047D01*
X138535714Y-114268809D01*
X138580476Y-114313571D01*
X138625238Y-114403095D01*
X138625238Y-114671666D01*
X138580476Y-114761190D01*
X138535714Y-114805952D01*
X137685238Y-113642142D02*
X137685238Y-113552619D01*
X137730000Y-113463095D01*
X137774761Y-113418333D01*
X137864285Y-113373571D01*
X138043333Y-113328809D01*
X138267142Y-113328809D01*
X138446190Y-113373571D01*
X138535714Y-113418333D01*
X138580476Y-113463095D01*
X138625238Y-113552619D01*
X138625238Y-113642142D01*
X138580476Y-113731666D01*
X138535714Y-113776428D01*
X138446190Y-113821190D01*
X138267142Y-113865952D01*
X138043333Y-113865952D01*
X137864285Y-113821190D01*
X137774761Y-113776428D01*
X137730000Y-113731666D01*
X137685238Y-113642142D01*
D11*
%TO.C,C3*%
X67815601Y-117177619D02*
X67863220Y-117130000D01*
X67958458Y-117082380D01*
X68196553Y-117082380D01*
X68291791Y-117130000D01*
X68339410Y-117177619D01*
X68387029Y-117272857D01*
X68387029Y-117368095D01*
X68339410Y-117510952D01*
X67767982Y-118082380D01*
X68387029Y-118082380D01*
X68767982Y-117177619D02*
X68815601Y-117130000D01*
X68910839Y-117082380D01*
X69148934Y-117082380D01*
X69244172Y-117130000D01*
X69291791Y-117177619D01*
X69339410Y-117272857D01*
X69339410Y-117368095D01*
X69291791Y-117510952D01*
X68720363Y-118082380D01*
X69339410Y-118082380D01*
X70196553Y-117415714D02*
X70196553Y-118082380D01*
X69767982Y-117415714D02*
X69767982Y-117939523D01*
X69815601Y-118034761D01*
X69910839Y-118082380D01*
X70053696Y-118082380D01*
X70148934Y-118034761D01*
X70196553Y-117987142D01*
X68863220Y-114237142D02*
X68815601Y-114284761D01*
X68672744Y-114332380D01*
X68577506Y-114332380D01*
X68434648Y-114284761D01*
X68339410Y-114189523D01*
X68291791Y-114094285D01*
X68244172Y-113903809D01*
X68244172Y-113760952D01*
X68291791Y-113570476D01*
X68339410Y-113475238D01*
X68434648Y-113380000D01*
X68577506Y-113332380D01*
X68672744Y-113332380D01*
X68815601Y-113380000D01*
X68863220Y-113427619D01*
X69196553Y-113332380D02*
X69815601Y-113332380D01*
X69482267Y-113713333D01*
X69625125Y-113713333D01*
X69720363Y-113760952D01*
X69767982Y-113808571D01*
X69815601Y-113903809D01*
X69815601Y-114141904D01*
X69767982Y-114237142D01*
X69720363Y-114284761D01*
X69625125Y-114332380D01*
X69339410Y-114332380D01*
X69244172Y-114284761D01*
X69196553Y-114237142D01*
%TO.C,C24*%
X79002380Y-97854047D02*
X79002380Y-98425476D01*
X79002380Y-98139761D02*
X78002380Y-98139761D01*
X78145238Y-98235000D01*
X78240476Y-98330238D01*
X78288095Y-98425476D01*
X78002380Y-97235000D02*
X78002380Y-97139761D01*
X78050000Y-97044523D01*
X78097619Y-96996904D01*
X78192857Y-96949285D01*
X78383333Y-96901666D01*
X78621428Y-96901666D01*
X78811904Y-96949285D01*
X78907142Y-96996904D01*
X78954761Y-97044523D01*
X79002380Y-97139761D01*
X79002380Y-97235000D01*
X78954761Y-97330238D01*
X78907142Y-97377857D01*
X78811904Y-97425476D01*
X78621428Y-97473095D01*
X78383333Y-97473095D01*
X78192857Y-97425476D01*
X78097619Y-97377857D01*
X78050000Y-97330238D01*
X78002380Y-97235000D01*
X78002380Y-96282619D02*
X78002380Y-96187380D01*
X78050000Y-96092142D01*
X78097619Y-96044523D01*
X78192857Y-95996904D01*
X78383333Y-95949285D01*
X78621428Y-95949285D01*
X78811904Y-95996904D01*
X78907142Y-96044523D01*
X78954761Y-96092142D01*
X79002380Y-96187380D01*
X79002380Y-96282619D01*
X78954761Y-96377857D01*
X78907142Y-96425476D01*
X78811904Y-96473095D01*
X78621428Y-96520714D01*
X78383333Y-96520714D01*
X78192857Y-96473095D01*
X78097619Y-96425476D01*
X78050000Y-96377857D01*
X78002380Y-96282619D01*
X78335714Y-95520714D02*
X79002380Y-95520714D01*
X78430952Y-95520714D02*
X78383333Y-95473095D01*
X78335714Y-95377857D01*
X78335714Y-95235000D01*
X78383333Y-95139761D01*
X78478571Y-95092142D01*
X79002380Y-95092142D01*
D12*
X81385714Y-97339285D02*
X81430476Y-97384047D01*
X81475238Y-97518333D01*
X81475238Y-97607857D01*
X81430476Y-97742142D01*
X81340952Y-97831666D01*
X81251428Y-97876428D01*
X81072380Y-97921190D01*
X80938095Y-97921190D01*
X80759047Y-97876428D01*
X80669523Y-97831666D01*
X80580000Y-97742142D01*
X80535238Y-97607857D01*
X80535238Y-97518333D01*
X80580000Y-97384047D01*
X80624761Y-97339285D01*
X80624761Y-96981190D02*
X80580000Y-96936428D01*
X80535238Y-96846904D01*
X80535238Y-96623095D01*
X80580000Y-96533571D01*
X80624761Y-96488809D01*
X80714285Y-96444047D01*
X80803809Y-96444047D01*
X80938095Y-96488809D01*
X81475238Y-97025952D01*
X81475238Y-96444047D01*
X80848571Y-95638333D02*
X81475238Y-95638333D01*
X80490476Y-95862142D02*
X81161904Y-96085952D01*
X81161904Y-95504047D01*
D11*
%TO.C,C5*%
X68842380Y-78804047D02*
X68842380Y-79375476D01*
X68842380Y-79089761D02*
X67842380Y-79089761D01*
X67985238Y-79185000D01*
X68080476Y-79280238D01*
X68128095Y-79375476D01*
X67842380Y-78185000D02*
X67842380Y-78089761D01*
X67890000Y-77994523D01*
X67937619Y-77946904D01*
X68032857Y-77899285D01*
X68223333Y-77851666D01*
X68461428Y-77851666D01*
X68651904Y-77899285D01*
X68747142Y-77946904D01*
X68794761Y-77994523D01*
X68842380Y-78089761D01*
X68842380Y-78185000D01*
X68794761Y-78280238D01*
X68747142Y-78327857D01*
X68651904Y-78375476D01*
X68461428Y-78423095D01*
X68223333Y-78423095D01*
X68032857Y-78375476D01*
X67937619Y-78327857D01*
X67890000Y-78280238D01*
X67842380Y-78185000D01*
X67842380Y-77232619D02*
X67842380Y-77137380D01*
X67890000Y-77042142D01*
X67937619Y-76994523D01*
X68032857Y-76946904D01*
X68223333Y-76899285D01*
X68461428Y-76899285D01*
X68651904Y-76946904D01*
X68747142Y-76994523D01*
X68794761Y-77042142D01*
X68842380Y-77137380D01*
X68842380Y-77232619D01*
X68794761Y-77327857D01*
X68747142Y-77375476D01*
X68651904Y-77423095D01*
X68461428Y-77470714D01*
X68223333Y-77470714D01*
X68032857Y-77423095D01*
X67937619Y-77375476D01*
X67890000Y-77327857D01*
X67842380Y-77232619D01*
X68175714Y-76470714D02*
X68842380Y-76470714D01*
X68270952Y-76470714D02*
X68223333Y-76423095D01*
X68175714Y-76327857D01*
X68175714Y-76185000D01*
X68223333Y-76089761D01*
X68318571Y-76042142D01*
X68842380Y-76042142D01*
D12*
X71225714Y-77841666D02*
X71270476Y-77886428D01*
X71315238Y-78020714D01*
X71315238Y-78110238D01*
X71270476Y-78244523D01*
X71180952Y-78334047D01*
X71091428Y-78378809D01*
X70912380Y-78423571D01*
X70778095Y-78423571D01*
X70599047Y-78378809D01*
X70509523Y-78334047D01*
X70420000Y-78244523D01*
X70375238Y-78110238D01*
X70375238Y-78020714D01*
X70420000Y-77886428D01*
X70464761Y-77841666D01*
X70375238Y-76991190D02*
X70375238Y-77438809D01*
X70822857Y-77483571D01*
X70778095Y-77438809D01*
X70733333Y-77349285D01*
X70733333Y-77125476D01*
X70778095Y-77035952D01*
X70822857Y-76991190D01*
X70912380Y-76946428D01*
X71136190Y-76946428D01*
X71225714Y-76991190D01*
X71270476Y-77035952D01*
X71315238Y-77125476D01*
X71315238Y-77349285D01*
X71270476Y-77438809D01*
X71225714Y-77483571D01*
D11*
%TO.C,R3*%
X100441428Y-63045714D02*
X100441428Y-63712380D01*
X100203333Y-62664761D02*
X99965238Y-63379047D01*
X100584285Y-63379047D01*
X100965238Y-63617142D02*
X101012857Y-63664761D01*
X100965238Y-63712380D01*
X100917619Y-63664761D01*
X100965238Y-63617142D01*
X100965238Y-63712380D01*
X101346190Y-62712380D02*
X102012857Y-62712380D01*
X101584285Y-63712380D01*
X102393809Y-63712380D02*
X102393809Y-62712380D01*
X102489047Y-63331428D02*
X102774761Y-63712380D01*
X102774761Y-63045714D02*
X102393809Y-63426666D01*
X101203333Y-60992380D02*
X100870000Y-60516190D01*
X100631904Y-60992380D02*
X100631904Y-59992380D01*
X101012857Y-59992380D01*
X101108095Y-60040000D01*
X101155714Y-60087619D01*
X101203333Y-60182857D01*
X101203333Y-60325714D01*
X101155714Y-60420952D01*
X101108095Y-60468571D01*
X101012857Y-60516190D01*
X100631904Y-60516190D01*
X101536666Y-59992380D02*
X102155714Y-59992380D01*
X101822380Y-60373333D01*
X101965238Y-60373333D01*
X102060476Y-60420952D01*
X102108095Y-60468571D01*
X102155714Y-60563809D01*
X102155714Y-60801904D01*
X102108095Y-60897142D01*
X102060476Y-60944761D01*
X101965238Y-60992380D01*
X101679523Y-60992380D01*
X101584285Y-60944761D01*
X101536666Y-60897142D01*
%TO.C,J3*%
X64992380Y-71540952D02*
X63992380Y-71540952D01*
X64944761Y-71112380D02*
X64992380Y-70969523D01*
X64992380Y-70731428D01*
X64944761Y-70636190D01*
X64897142Y-70588571D01*
X64801904Y-70540952D01*
X64706666Y-70540952D01*
X64611428Y-70588571D01*
X64563809Y-70636190D01*
X64516190Y-70731428D01*
X64468571Y-70921904D01*
X64420952Y-71017142D01*
X64373333Y-71064761D01*
X64278095Y-71112380D01*
X64182857Y-71112380D01*
X64087619Y-71064761D01*
X64040000Y-71017142D01*
X63992380Y-70921904D01*
X63992380Y-70683809D01*
X64040000Y-70540952D01*
X64706666Y-70160000D02*
X64706666Y-69683809D01*
X64992380Y-70255238D02*
X63992380Y-69921904D01*
X64992380Y-69588571D01*
X65087619Y-69493333D02*
X65087619Y-68731428D01*
X64992380Y-68445714D02*
X64992380Y-68255238D01*
X64944761Y-68160000D01*
X64897142Y-68112380D01*
X64754285Y-68017142D01*
X64563809Y-67969523D01*
X64182857Y-67969523D01*
X64087619Y-68017142D01*
X64040000Y-68064761D01*
X63992380Y-68160000D01*
X63992380Y-68350476D01*
X64040000Y-68445714D01*
X64087619Y-68493333D01*
X64182857Y-68540952D01*
X64420952Y-68540952D01*
X64516190Y-68493333D01*
X64563809Y-68445714D01*
X64611428Y-68350476D01*
X64611428Y-68160000D01*
X64563809Y-68064761D01*
X64516190Y-68017142D01*
X64420952Y-67969523D01*
X64325714Y-67112380D02*
X64992380Y-67112380D01*
X63944761Y-67350476D02*
X64659047Y-67588571D01*
X64659047Y-66969523D01*
X64325714Y-66588571D02*
X65325714Y-66588571D01*
X64373333Y-66588571D02*
X64325714Y-66493333D01*
X64325714Y-66302857D01*
X64373333Y-66207619D01*
X64420952Y-66160000D01*
X64516190Y-66112380D01*
X64801904Y-66112380D01*
X64897142Y-66160000D01*
X64944761Y-66207619D01*
X64992380Y-66302857D01*
X64992380Y-66493333D01*
X64944761Y-66588571D01*
X64992380Y-65683809D02*
X64325714Y-65683809D01*
X63992380Y-65683809D02*
X64040000Y-65731428D01*
X64087619Y-65683809D01*
X64040000Y-65636190D01*
X63992380Y-65683809D01*
X64087619Y-65683809D01*
X64325714Y-65207619D02*
X64992380Y-65207619D01*
X64420952Y-65207619D02*
X64373333Y-65160000D01*
X64325714Y-65064761D01*
X64325714Y-64921904D01*
X64373333Y-64826666D01*
X64468571Y-64779047D01*
X64992380Y-64779047D01*
%TO.C,C28*%
X133330952Y-58862380D02*
X132759523Y-58862380D01*
X133045238Y-58862380D02*
X133045238Y-57862380D01*
X132950000Y-58005238D01*
X132854761Y-58100476D01*
X132759523Y-58148095D01*
X133950000Y-57862380D02*
X134045238Y-57862380D01*
X134140476Y-57910000D01*
X134188095Y-57957619D01*
X134235714Y-58052857D01*
X134283333Y-58243333D01*
X134283333Y-58481428D01*
X134235714Y-58671904D01*
X134188095Y-58767142D01*
X134140476Y-58814761D01*
X134045238Y-58862380D01*
X133950000Y-58862380D01*
X133854761Y-58814761D01*
X133807142Y-58767142D01*
X133759523Y-58671904D01*
X133711904Y-58481428D01*
X133711904Y-58243333D01*
X133759523Y-58052857D01*
X133807142Y-57957619D01*
X133854761Y-57910000D01*
X133950000Y-57862380D01*
X134902380Y-57862380D02*
X134997619Y-57862380D01*
X135092857Y-57910000D01*
X135140476Y-57957619D01*
X135188095Y-58052857D01*
X135235714Y-58243333D01*
X135235714Y-58481428D01*
X135188095Y-58671904D01*
X135140476Y-58767142D01*
X135092857Y-58814761D01*
X134997619Y-58862380D01*
X134902380Y-58862380D01*
X134807142Y-58814761D01*
X134759523Y-58767142D01*
X134711904Y-58671904D01*
X134664285Y-58481428D01*
X134664285Y-58243333D01*
X134711904Y-58052857D01*
X134759523Y-57957619D01*
X134807142Y-57910000D01*
X134902380Y-57862380D01*
X135664285Y-58195714D02*
X135664285Y-58862380D01*
X135664285Y-58290952D02*
X135711904Y-58243333D01*
X135807142Y-58195714D01*
X135950000Y-58195714D01*
X136045238Y-58243333D01*
X136092857Y-58338571D01*
X136092857Y-58862380D01*
D12*
X133845714Y-61245714D02*
X133800952Y-61290476D01*
X133666666Y-61335238D01*
X133577142Y-61335238D01*
X133442857Y-61290476D01*
X133353333Y-61200952D01*
X133308571Y-61111428D01*
X133263809Y-60932380D01*
X133263809Y-60798095D01*
X133308571Y-60619047D01*
X133353333Y-60529523D01*
X133442857Y-60440000D01*
X133577142Y-60395238D01*
X133666666Y-60395238D01*
X133800952Y-60440000D01*
X133845714Y-60484761D01*
X134203809Y-60484761D02*
X134248571Y-60440000D01*
X134338095Y-60395238D01*
X134561904Y-60395238D01*
X134651428Y-60440000D01*
X134696190Y-60484761D01*
X134740952Y-60574285D01*
X134740952Y-60663809D01*
X134696190Y-60798095D01*
X134159047Y-61335238D01*
X134740952Y-61335238D01*
X135278095Y-60798095D02*
X135188571Y-60753333D01*
X135143809Y-60708571D01*
X135099047Y-60619047D01*
X135099047Y-60574285D01*
X135143809Y-60484761D01*
X135188571Y-60440000D01*
X135278095Y-60395238D01*
X135457142Y-60395238D01*
X135546666Y-60440000D01*
X135591428Y-60484761D01*
X135636190Y-60574285D01*
X135636190Y-60619047D01*
X135591428Y-60708571D01*
X135546666Y-60753333D01*
X135457142Y-60798095D01*
X135278095Y-60798095D01*
X135188571Y-60842857D01*
X135143809Y-60887619D01*
X135099047Y-60977142D01*
X135099047Y-61156190D01*
X135143809Y-61245714D01*
X135188571Y-61290476D01*
X135278095Y-61335238D01*
X135457142Y-61335238D01*
X135546666Y-61290476D01*
X135591428Y-61245714D01*
X135636190Y-61156190D01*
X135636190Y-60977142D01*
X135591428Y-60887619D01*
X135546666Y-60842857D01*
X135457142Y-60798095D01*
D11*
%TO.C,R17*%
X86107380Y-39704047D02*
X86107380Y-40275476D01*
X86107380Y-39989761D02*
X85107380Y-39989761D01*
X85250238Y-40085000D01*
X85345476Y-40180238D01*
X85393095Y-40275476D01*
X86107380Y-39275476D02*
X85107380Y-39275476D01*
X85726428Y-39180238D02*
X86107380Y-38894523D01*
X85440714Y-38894523D02*
X85821666Y-39275476D01*
D14*
X84405952Y-39842142D02*
X84215476Y-39975476D01*
X84405952Y-40070714D02*
X84005952Y-40070714D01*
X84005952Y-39918333D01*
X84025000Y-39880238D01*
X84044047Y-39861190D01*
X84082142Y-39842142D01*
X84139285Y-39842142D01*
X84177380Y-39861190D01*
X84196428Y-39880238D01*
X84215476Y-39918333D01*
X84215476Y-40070714D01*
X84405952Y-39461190D02*
X84405952Y-39689761D01*
X84405952Y-39575476D02*
X84005952Y-39575476D01*
X84063095Y-39613571D01*
X84101190Y-39651666D01*
X84120238Y-39689761D01*
X84005952Y-39327857D02*
X84005952Y-39061190D01*
X84405952Y-39232619D01*
D11*
%TO.C,C10*%
X73922380Y-97854047D02*
X73922380Y-98425476D01*
X73922380Y-98139761D02*
X72922380Y-98139761D01*
X73065238Y-98235000D01*
X73160476Y-98330238D01*
X73208095Y-98425476D01*
X72922380Y-97235000D02*
X72922380Y-97139761D01*
X72970000Y-97044523D01*
X73017619Y-96996904D01*
X73112857Y-96949285D01*
X73303333Y-96901666D01*
X73541428Y-96901666D01*
X73731904Y-96949285D01*
X73827142Y-96996904D01*
X73874761Y-97044523D01*
X73922380Y-97139761D01*
X73922380Y-97235000D01*
X73874761Y-97330238D01*
X73827142Y-97377857D01*
X73731904Y-97425476D01*
X73541428Y-97473095D01*
X73303333Y-97473095D01*
X73112857Y-97425476D01*
X73017619Y-97377857D01*
X72970000Y-97330238D01*
X72922380Y-97235000D01*
X72922380Y-96282619D02*
X72922380Y-96187380D01*
X72970000Y-96092142D01*
X73017619Y-96044523D01*
X73112857Y-95996904D01*
X73303333Y-95949285D01*
X73541428Y-95949285D01*
X73731904Y-95996904D01*
X73827142Y-96044523D01*
X73874761Y-96092142D01*
X73922380Y-96187380D01*
X73922380Y-96282619D01*
X73874761Y-96377857D01*
X73827142Y-96425476D01*
X73731904Y-96473095D01*
X73541428Y-96520714D01*
X73303333Y-96520714D01*
X73112857Y-96473095D01*
X73017619Y-96425476D01*
X72970000Y-96377857D01*
X72922380Y-96282619D01*
X73255714Y-95520714D02*
X73922380Y-95520714D01*
X73350952Y-95520714D02*
X73303333Y-95473095D01*
X73255714Y-95377857D01*
X73255714Y-95235000D01*
X73303333Y-95139761D01*
X73398571Y-95092142D01*
X73922380Y-95092142D01*
D12*
X76305714Y-97339285D02*
X76350476Y-97384047D01*
X76395238Y-97518333D01*
X76395238Y-97607857D01*
X76350476Y-97742142D01*
X76260952Y-97831666D01*
X76171428Y-97876428D01*
X75992380Y-97921190D01*
X75858095Y-97921190D01*
X75679047Y-97876428D01*
X75589523Y-97831666D01*
X75500000Y-97742142D01*
X75455238Y-97607857D01*
X75455238Y-97518333D01*
X75500000Y-97384047D01*
X75544761Y-97339285D01*
X76395238Y-96444047D02*
X76395238Y-96981190D01*
X76395238Y-96712619D02*
X75455238Y-96712619D01*
X75589523Y-96802142D01*
X75679047Y-96891666D01*
X75723809Y-96981190D01*
X75455238Y-95862142D02*
X75455238Y-95772619D01*
X75500000Y-95683095D01*
X75544761Y-95638333D01*
X75634285Y-95593571D01*
X75813333Y-95548809D01*
X76037142Y-95548809D01*
X76216190Y-95593571D01*
X76305714Y-95638333D01*
X76350476Y-95683095D01*
X76395238Y-95772619D01*
X76395238Y-95862142D01*
X76350476Y-95951666D01*
X76305714Y-95996428D01*
X76216190Y-96041190D01*
X76037142Y-96085952D01*
X75813333Y-96085952D01*
X75634285Y-96041190D01*
X75544761Y-95996428D01*
X75500000Y-95951666D01*
X75455238Y-95862142D01*
D11*
%TO.C,R14*%
X75947380Y-42879047D02*
X75947380Y-43450476D01*
X75947380Y-43164761D02*
X74947380Y-43164761D01*
X75090238Y-43260000D01*
X75185476Y-43355238D01*
X75233095Y-43450476D01*
X75947380Y-42450476D02*
X74947380Y-42450476D01*
X75566428Y-42355238D02*
X75947380Y-42069523D01*
X75280714Y-42069523D02*
X75661666Y-42450476D01*
D14*
X74245952Y-43017142D02*
X74055476Y-43150476D01*
X74245952Y-43245714D02*
X73845952Y-43245714D01*
X73845952Y-43093333D01*
X73865000Y-43055238D01*
X73884047Y-43036190D01*
X73922142Y-43017142D01*
X73979285Y-43017142D01*
X74017380Y-43036190D01*
X74036428Y-43055238D01*
X74055476Y-43093333D01*
X74055476Y-43245714D01*
X74245952Y-42636190D02*
X74245952Y-42864761D01*
X74245952Y-42750476D02*
X73845952Y-42750476D01*
X73903095Y-42788571D01*
X73941190Y-42826666D01*
X73960238Y-42864761D01*
X73979285Y-42293333D02*
X74245952Y-42293333D01*
X73826904Y-42388571D02*
X74112619Y-42483809D01*
X74112619Y-42236190D01*
D11*
%TO.C,R9*%
X149614285Y-53462380D02*
X150233333Y-53462380D01*
X149900000Y-53843333D01*
X150042857Y-53843333D01*
X150138095Y-53890952D01*
X150185714Y-53938571D01*
X150233333Y-54033809D01*
X150233333Y-54271904D01*
X150185714Y-54367142D01*
X150138095Y-54414761D01*
X150042857Y-54462380D01*
X149757142Y-54462380D01*
X149661904Y-54414761D01*
X149614285Y-54367142D01*
X150852380Y-53462380D02*
X150947619Y-53462380D01*
X151042857Y-53510000D01*
X151090476Y-53557619D01*
X151138095Y-53652857D01*
X151185714Y-53843333D01*
X151185714Y-54081428D01*
X151138095Y-54271904D01*
X151090476Y-54367142D01*
X151042857Y-54414761D01*
X150947619Y-54462380D01*
X150852380Y-54462380D01*
X150757142Y-54414761D01*
X150709523Y-54367142D01*
X150661904Y-54271904D01*
X150614285Y-54081428D01*
X150614285Y-53843333D01*
X150661904Y-53652857D01*
X150709523Y-53557619D01*
X150757142Y-53510000D01*
X150852380Y-53462380D01*
X151804761Y-53462380D02*
X151900000Y-53462380D01*
X151995238Y-53510000D01*
X152042857Y-53557619D01*
X152090476Y-53652857D01*
X152138095Y-53843333D01*
X152138095Y-54081428D01*
X152090476Y-54271904D01*
X152042857Y-54367142D01*
X151995238Y-54414761D01*
X151900000Y-54462380D01*
X151804761Y-54462380D01*
X151709523Y-54414761D01*
X151661904Y-54367142D01*
X151614285Y-54271904D01*
X151566666Y-54081428D01*
X151566666Y-53843333D01*
X151614285Y-53652857D01*
X151661904Y-53557619D01*
X151709523Y-53510000D01*
X151804761Y-53462380D01*
X150733333Y-57182380D02*
X150400000Y-56706190D01*
X150161904Y-57182380D02*
X150161904Y-56182380D01*
X150542857Y-56182380D01*
X150638095Y-56230000D01*
X150685714Y-56277619D01*
X150733333Y-56372857D01*
X150733333Y-56515714D01*
X150685714Y-56610952D01*
X150638095Y-56658571D01*
X150542857Y-56706190D01*
X150161904Y-56706190D01*
X151209523Y-57182380D02*
X151400000Y-57182380D01*
X151495238Y-57134761D01*
X151542857Y-57087142D01*
X151638095Y-56944285D01*
X151685714Y-56753809D01*
X151685714Y-56372857D01*
X151638095Y-56277619D01*
X151590476Y-56230000D01*
X151495238Y-56182380D01*
X151304761Y-56182380D01*
X151209523Y-56230000D01*
X151161904Y-56277619D01*
X151114285Y-56372857D01*
X151114285Y-56610952D01*
X151161904Y-56706190D01*
X151209523Y-56753809D01*
X151304761Y-56801428D01*
X151495238Y-56801428D01*
X151590476Y-56753809D01*
X151638095Y-56706190D01*
X151685714Y-56610952D01*
%TO.C,R7*%
X169656428Y-50620714D02*
X169656428Y-51287380D01*
X169418333Y-50239761D02*
X169180238Y-50954047D01*
X169799285Y-50954047D01*
X170180238Y-51192142D02*
X170227857Y-51239761D01*
X170180238Y-51287380D01*
X170132619Y-51239761D01*
X170180238Y-51192142D01*
X170180238Y-51287380D01*
X170561190Y-50287380D02*
X171227857Y-50287380D01*
X170799285Y-51287380D01*
X171608809Y-51287380D02*
X171608809Y-50287380D01*
X171704047Y-50906428D02*
X171989761Y-51287380D01*
X171989761Y-50620714D02*
X171608809Y-51001666D01*
X170418333Y-54007380D02*
X170085000Y-53531190D01*
X169846904Y-54007380D02*
X169846904Y-53007380D01*
X170227857Y-53007380D01*
X170323095Y-53055000D01*
X170370714Y-53102619D01*
X170418333Y-53197857D01*
X170418333Y-53340714D01*
X170370714Y-53435952D01*
X170323095Y-53483571D01*
X170227857Y-53531190D01*
X169846904Y-53531190D01*
X170751666Y-53007380D02*
X171418333Y-53007380D01*
X170989761Y-54007380D01*
%TO.C,R10*%
X169299285Y-54097380D02*
X169918333Y-54097380D01*
X169585000Y-54478333D01*
X169727857Y-54478333D01*
X169823095Y-54525952D01*
X169870714Y-54573571D01*
X169918333Y-54668809D01*
X169918333Y-54906904D01*
X169870714Y-55002142D01*
X169823095Y-55049761D01*
X169727857Y-55097380D01*
X169442142Y-55097380D01*
X169346904Y-55049761D01*
X169299285Y-55002142D01*
X170537380Y-54097380D02*
X170632619Y-54097380D01*
X170727857Y-54145000D01*
X170775476Y-54192619D01*
X170823095Y-54287857D01*
X170870714Y-54478333D01*
X170870714Y-54716428D01*
X170823095Y-54906904D01*
X170775476Y-55002142D01*
X170727857Y-55049761D01*
X170632619Y-55097380D01*
X170537380Y-55097380D01*
X170442142Y-55049761D01*
X170394523Y-55002142D01*
X170346904Y-54906904D01*
X170299285Y-54716428D01*
X170299285Y-54478333D01*
X170346904Y-54287857D01*
X170394523Y-54192619D01*
X170442142Y-54145000D01*
X170537380Y-54097380D01*
X171489761Y-54097380D02*
X171585000Y-54097380D01*
X171680238Y-54145000D01*
X171727857Y-54192619D01*
X171775476Y-54287857D01*
X171823095Y-54478333D01*
X171823095Y-54716428D01*
X171775476Y-54906904D01*
X171727857Y-55002142D01*
X171680238Y-55049761D01*
X171585000Y-55097380D01*
X171489761Y-55097380D01*
X171394523Y-55049761D01*
X171346904Y-55002142D01*
X171299285Y-54906904D01*
X171251666Y-54716428D01*
X171251666Y-54478333D01*
X171299285Y-54287857D01*
X171346904Y-54192619D01*
X171394523Y-54145000D01*
X171489761Y-54097380D01*
X169942142Y-57817380D02*
X169608809Y-57341190D01*
X169370714Y-57817380D02*
X169370714Y-56817380D01*
X169751666Y-56817380D01*
X169846904Y-56865000D01*
X169894523Y-56912619D01*
X169942142Y-57007857D01*
X169942142Y-57150714D01*
X169894523Y-57245952D01*
X169846904Y-57293571D01*
X169751666Y-57341190D01*
X169370714Y-57341190D01*
X170894523Y-57817380D02*
X170323095Y-57817380D01*
X170608809Y-57817380D02*
X170608809Y-56817380D01*
X170513571Y-56960238D01*
X170418333Y-57055476D01*
X170323095Y-57103095D01*
X171513571Y-56817380D02*
X171608809Y-56817380D01*
X171704047Y-56865000D01*
X171751666Y-56912619D01*
X171799285Y-57007857D01*
X171846904Y-57198333D01*
X171846904Y-57436428D01*
X171799285Y-57626904D01*
X171751666Y-57722142D01*
X171704047Y-57769761D01*
X171608809Y-57817380D01*
X171513571Y-57817380D01*
X171418333Y-57769761D01*
X171370714Y-57722142D01*
X171323095Y-57626904D01*
X171275476Y-57436428D01*
X171275476Y-57198333D01*
X171323095Y-57007857D01*
X171370714Y-56912619D01*
X171418333Y-56865000D01*
X171513571Y-56817380D01*
%TO.C,C26*%
X189381978Y-109619698D02*
X189429597Y-109572079D01*
X189524835Y-109524459D01*
X189762930Y-109524459D01*
X189858168Y-109572079D01*
X189905787Y-109619698D01*
X189953406Y-109714936D01*
X189953406Y-109810174D01*
X189905787Y-109953031D01*
X189334359Y-110524459D01*
X189953406Y-110524459D01*
X190334359Y-109619698D02*
X190381978Y-109572079D01*
X190477216Y-109524459D01*
X190715311Y-109524459D01*
X190810549Y-109572079D01*
X190858168Y-109619698D01*
X190905787Y-109714936D01*
X190905787Y-109810174D01*
X190858168Y-109953031D01*
X190286740Y-110524459D01*
X190905787Y-110524459D01*
X191762930Y-109857793D02*
X191762930Y-110524459D01*
X191334359Y-109857793D02*
X191334359Y-110381602D01*
X191381978Y-110476840D01*
X191477216Y-110524459D01*
X191620073Y-110524459D01*
X191715311Y-110476840D01*
X191762930Y-110429221D01*
X189953406Y-114179221D02*
X189905787Y-114226840D01*
X189762930Y-114274459D01*
X189667692Y-114274459D01*
X189524835Y-114226840D01*
X189429597Y-114131602D01*
X189381978Y-114036364D01*
X189334359Y-113845888D01*
X189334359Y-113703031D01*
X189381978Y-113512555D01*
X189429597Y-113417317D01*
X189524835Y-113322079D01*
X189667692Y-113274459D01*
X189762930Y-113274459D01*
X189905787Y-113322079D01*
X189953406Y-113369698D01*
X190334359Y-113369698D02*
X190381978Y-113322079D01*
X190477216Y-113274459D01*
X190715311Y-113274459D01*
X190810549Y-113322079D01*
X190858168Y-113369698D01*
X190905787Y-113464936D01*
X190905787Y-113560174D01*
X190858168Y-113703031D01*
X190286740Y-114274459D01*
X190905787Y-114274459D01*
X191762930Y-113274459D02*
X191572454Y-113274459D01*
X191477216Y-113322079D01*
X191429597Y-113369698D01*
X191334359Y-113512555D01*
X191286740Y-113703031D01*
X191286740Y-114083983D01*
X191334359Y-114179221D01*
X191381978Y-114226840D01*
X191477216Y-114274459D01*
X191667692Y-114274459D01*
X191762930Y-114226840D01*
X191810549Y-114179221D01*
X191858168Y-114083983D01*
X191858168Y-113845888D01*
X191810549Y-113750650D01*
X191762930Y-113703031D01*
X191667692Y-113655412D01*
X191477216Y-113655412D01*
X191381978Y-113703031D01*
X191334359Y-113750650D01*
X191286740Y-113845888D01*
%TO.C,J2*%
X64992380Y-90590952D02*
X63992380Y-90590952D01*
X64944761Y-90162380D02*
X64992380Y-90019523D01*
X64992380Y-89781428D01*
X64944761Y-89686190D01*
X64897142Y-89638571D01*
X64801904Y-89590952D01*
X64706666Y-89590952D01*
X64611428Y-89638571D01*
X64563809Y-89686190D01*
X64516190Y-89781428D01*
X64468571Y-89971904D01*
X64420952Y-90067142D01*
X64373333Y-90114761D01*
X64278095Y-90162380D01*
X64182857Y-90162380D01*
X64087619Y-90114761D01*
X64040000Y-90067142D01*
X63992380Y-89971904D01*
X63992380Y-89733809D01*
X64040000Y-89590952D01*
X64706666Y-89210000D02*
X64706666Y-88733809D01*
X64992380Y-89305238D02*
X63992380Y-88971904D01*
X64992380Y-88638571D01*
X65087619Y-88543333D02*
X65087619Y-87781428D01*
X64992380Y-87495714D02*
X64992380Y-87305238D01*
X64944761Y-87210000D01*
X64897142Y-87162380D01*
X64754285Y-87067142D01*
X64563809Y-87019523D01*
X64182857Y-87019523D01*
X64087619Y-87067142D01*
X64040000Y-87114761D01*
X63992380Y-87210000D01*
X63992380Y-87400476D01*
X64040000Y-87495714D01*
X64087619Y-87543333D01*
X64182857Y-87590952D01*
X64420952Y-87590952D01*
X64516190Y-87543333D01*
X64563809Y-87495714D01*
X64611428Y-87400476D01*
X64611428Y-87210000D01*
X64563809Y-87114761D01*
X64516190Y-87067142D01*
X64420952Y-87019523D01*
X64325714Y-86162380D02*
X64992380Y-86162380D01*
X63944761Y-86400476D02*
X64659047Y-86638571D01*
X64659047Y-86019523D01*
X64325714Y-85638571D02*
X65325714Y-85638571D01*
X64373333Y-85638571D02*
X64325714Y-85543333D01*
X64325714Y-85352857D01*
X64373333Y-85257619D01*
X64420952Y-85210000D01*
X64516190Y-85162380D01*
X64801904Y-85162380D01*
X64897142Y-85210000D01*
X64944761Y-85257619D01*
X64992380Y-85352857D01*
X64992380Y-85543333D01*
X64944761Y-85638571D01*
X64992380Y-84733809D02*
X64325714Y-84733809D01*
X63992380Y-84733809D02*
X64040000Y-84781428D01*
X64087619Y-84733809D01*
X64040000Y-84686190D01*
X63992380Y-84733809D01*
X64087619Y-84733809D01*
X64325714Y-84257619D02*
X64992380Y-84257619D01*
X64420952Y-84257619D02*
X64373333Y-84210000D01*
X64325714Y-84114761D01*
X64325714Y-83971904D01*
X64373333Y-83876666D01*
X64468571Y-83829047D01*
X64992380Y-83829047D01*
%TO.C,R13*%
X101250952Y-56092380D02*
X100679523Y-56092380D01*
X100965238Y-56092380D02*
X100965238Y-55092380D01*
X100870000Y-55235238D01*
X100774761Y-55330476D01*
X100679523Y-55378095D01*
X101679523Y-56092380D02*
X101679523Y-55092380D01*
X101774761Y-55711428D02*
X102060476Y-56092380D01*
X102060476Y-55425714D02*
X101679523Y-55806666D01*
X100727142Y-53372380D02*
X100393809Y-52896190D01*
X100155714Y-53372380D02*
X100155714Y-52372380D01*
X100536666Y-52372380D01*
X100631904Y-52420000D01*
X100679523Y-52467619D01*
X100727142Y-52562857D01*
X100727142Y-52705714D01*
X100679523Y-52800952D01*
X100631904Y-52848571D01*
X100536666Y-52896190D01*
X100155714Y-52896190D01*
X101679523Y-53372380D02*
X101108095Y-53372380D01*
X101393809Y-53372380D02*
X101393809Y-52372380D01*
X101298571Y-52515238D01*
X101203333Y-52610476D01*
X101108095Y-52658095D01*
X102012857Y-52372380D02*
X102631904Y-52372380D01*
X102298571Y-52753333D01*
X102441428Y-52753333D01*
X102536666Y-52800952D01*
X102584285Y-52848571D01*
X102631904Y-52943809D01*
X102631904Y-53181904D01*
X102584285Y-53277142D01*
X102536666Y-53324761D01*
X102441428Y-53372380D01*
X102155714Y-53372380D01*
X102060476Y-53324761D01*
X102012857Y-53277142D01*
%TO.C,R11*%
X118499285Y-62712380D02*
X119118333Y-62712380D01*
X118785000Y-63093333D01*
X118927857Y-63093333D01*
X119023095Y-63140952D01*
X119070714Y-63188571D01*
X119118333Y-63283809D01*
X119118333Y-63521904D01*
X119070714Y-63617142D01*
X119023095Y-63664761D01*
X118927857Y-63712380D01*
X118642142Y-63712380D01*
X118546904Y-63664761D01*
X118499285Y-63617142D01*
X119737380Y-62712380D02*
X119832619Y-62712380D01*
X119927857Y-62760000D01*
X119975476Y-62807619D01*
X120023095Y-62902857D01*
X120070714Y-63093333D01*
X120070714Y-63331428D01*
X120023095Y-63521904D01*
X119975476Y-63617142D01*
X119927857Y-63664761D01*
X119832619Y-63712380D01*
X119737380Y-63712380D01*
X119642142Y-63664761D01*
X119594523Y-63617142D01*
X119546904Y-63521904D01*
X119499285Y-63331428D01*
X119499285Y-63093333D01*
X119546904Y-62902857D01*
X119594523Y-62807619D01*
X119642142Y-62760000D01*
X119737380Y-62712380D01*
X120689761Y-62712380D02*
X120785000Y-62712380D01*
X120880238Y-62760000D01*
X120927857Y-62807619D01*
X120975476Y-62902857D01*
X121023095Y-63093333D01*
X121023095Y-63331428D01*
X120975476Y-63521904D01*
X120927857Y-63617142D01*
X120880238Y-63664761D01*
X120785000Y-63712380D01*
X120689761Y-63712380D01*
X120594523Y-63664761D01*
X120546904Y-63617142D01*
X120499285Y-63521904D01*
X120451666Y-63331428D01*
X120451666Y-63093333D01*
X120499285Y-62902857D01*
X120546904Y-62807619D01*
X120594523Y-62760000D01*
X120689761Y-62712380D01*
X119142142Y-60992380D02*
X118808809Y-60516190D01*
X118570714Y-60992380D02*
X118570714Y-59992380D01*
X118951666Y-59992380D01*
X119046904Y-60040000D01*
X119094523Y-60087619D01*
X119142142Y-60182857D01*
X119142142Y-60325714D01*
X119094523Y-60420952D01*
X119046904Y-60468571D01*
X118951666Y-60516190D01*
X118570714Y-60516190D01*
X120094523Y-60992380D02*
X119523095Y-60992380D01*
X119808809Y-60992380D02*
X119808809Y-59992380D01*
X119713571Y-60135238D01*
X119618333Y-60230476D01*
X119523095Y-60278095D01*
X121046904Y-60992380D02*
X120475476Y-60992380D01*
X120761190Y-60992380D02*
X120761190Y-59992380D01*
X120665952Y-60135238D01*
X120570714Y-60230476D01*
X120475476Y-60278095D01*
%TO.C,C21*%
X79140643Y-56337619D02*
X79188262Y-56290000D01*
X79283500Y-56242380D01*
X79521595Y-56242380D01*
X79616833Y-56290000D01*
X79664452Y-56337619D01*
X79712071Y-56432857D01*
X79712071Y-56528095D01*
X79664452Y-56670952D01*
X79093024Y-57242380D01*
X79712071Y-57242380D01*
X80093024Y-56337619D02*
X80140643Y-56290000D01*
X80235881Y-56242380D01*
X80473976Y-56242380D01*
X80569214Y-56290000D01*
X80616833Y-56337619D01*
X80664452Y-56432857D01*
X80664452Y-56528095D01*
X80616833Y-56670952D01*
X80045405Y-57242380D01*
X80664452Y-57242380D01*
X81521595Y-56575714D02*
X81521595Y-57242380D01*
X81093024Y-56575714D02*
X81093024Y-57099523D01*
X81140643Y-57194761D01*
X81235881Y-57242380D01*
X81378738Y-57242380D01*
X81473976Y-57194761D01*
X81521595Y-57147142D01*
X79712071Y-60897142D02*
X79664452Y-60944761D01*
X79521595Y-60992380D01*
X79426357Y-60992380D01*
X79283500Y-60944761D01*
X79188262Y-60849523D01*
X79140643Y-60754285D01*
X79093024Y-60563809D01*
X79093024Y-60420952D01*
X79140643Y-60230476D01*
X79188262Y-60135238D01*
X79283500Y-60040000D01*
X79426357Y-59992380D01*
X79521595Y-59992380D01*
X79664452Y-60040000D01*
X79712071Y-60087619D01*
X80093024Y-60087619D02*
X80140643Y-60040000D01*
X80235881Y-59992380D01*
X80473976Y-59992380D01*
X80569214Y-60040000D01*
X80616833Y-60087619D01*
X80664452Y-60182857D01*
X80664452Y-60278095D01*
X80616833Y-60420952D01*
X80045405Y-60992380D01*
X80664452Y-60992380D01*
X81616833Y-60992380D02*
X81045405Y-60992380D01*
X81331119Y-60992380D02*
X81331119Y-59992380D01*
X81235881Y-60135238D01*
X81140643Y-60230476D01*
X81045405Y-60278095D01*
%TO.C,C22*%
X79002380Y-78804047D02*
X79002380Y-79375476D01*
X79002380Y-79089761D02*
X78002380Y-79089761D01*
X78145238Y-79185000D01*
X78240476Y-79280238D01*
X78288095Y-79375476D01*
X78002380Y-78185000D02*
X78002380Y-78089761D01*
X78050000Y-77994523D01*
X78097619Y-77946904D01*
X78192857Y-77899285D01*
X78383333Y-77851666D01*
X78621428Y-77851666D01*
X78811904Y-77899285D01*
X78907142Y-77946904D01*
X78954761Y-77994523D01*
X79002380Y-78089761D01*
X79002380Y-78185000D01*
X78954761Y-78280238D01*
X78907142Y-78327857D01*
X78811904Y-78375476D01*
X78621428Y-78423095D01*
X78383333Y-78423095D01*
X78192857Y-78375476D01*
X78097619Y-78327857D01*
X78050000Y-78280238D01*
X78002380Y-78185000D01*
X78002380Y-77232619D02*
X78002380Y-77137380D01*
X78050000Y-77042142D01*
X78097619Y-76994523D01*
X78192857Y-76946904D01*
X78383333Y-76899285D01*
X78621428Y-76899285D01*
X78811904Y-76946904D01*
X78907142Y-76994523D01*
X78954761Y-77042142D01*
X79002380Y-77137380D01*
X79002380Y-77232619D01*
X78954761Y-77327857D01*
X78907142Y-77375476D01*
X78811904Y-77423095D01*
X78621428Y-77470714D01*
X78383333Y-77470714D01*
X78192857Y-77423095D01*
X78097619Y-77375476D01*
X78050000Y-77327857D01*
X78002380Y-77232619D01*
X78335714Y-76470714D02*
X79002380Y-76470714D01*
X78430952Y-76470714D02*
X78383333Y-76423095D01*
X78335714Y-76327857D01*
X78335714Y-76185000D01*
X78383333Y-76089761D01*
X78478571Y-76042142D01*
X79002380Y-76042142D01*
D12*
X81385714Y-78289285D02*
X81430476Y-78334047D01*
X81475238Y-78468333D01*
X81475238Y-78557857D01*
X81430476Y-78692142D01*
X81340952Y-78781666D01*
X81251428Y-78826428D01*
X81072380Y-78871190D01*
X80938095Y-78871190D01*
X80759047Y-78826428D01*
X80669523Y-78781666D01*
X80580000Y-78692142D01*
X80535238Y-78557857D01*
X80535238Y-78468333D01*
X80580000Y-78334047D01*
X80624761Y-78289285D01*
X80624761Y-77931190D02*
X80580000Y-77886428D01*
X80535238Y-77796904D01*
X80535238Y-77573095D01*
X80580000Y-77483571D01*
X80624761Y-77438809D01*
X80714285Y-77394047D01*
X80803809Y-77394047D01*
X80938095Y-77438809D01*
X81475238Y-77975952D01*
X81475238Y-77394047D01*
X80624761Y-77035952D02*
X80580000Y-76991190D01*
X80535238Y-76901666D01*
X80535238Y-76677857D01*
X80580000Y-76588333D01*
X80624761Y-76543571D01*
X80714285Y-76498809D01*
X80803809Y-76498809D01*
X80938095Y-76543571D01*
X81475238Y-77080714D01*
X81475238Y-76498809D01*
D11*
%TO.C,H1*%
X50852818Y-44152087D02*
X49852818Y-44152087D01*
X50567104Y-43818753D01*
X49852818Y-43485420D01*
X50852818Y-43485420D01*
X50852818Y-42866372D02*
X50805199Y-42961610D01*
X50757580Y-43009230D01*
X50662342Y-43056849D01*
X50376628Y-43056849D01*
X50281390Y-43009230D01*
X50233771Y-42961610D01*
X50186152Y-42866372D01*
X50186152Y-42723515D01*
X50233771Y-42628277D01*
X50281390Y-42580658D01*
X50376628Y-42533039D01*
X50662342Y-42533039D01*
X50757580Y-42580658D01*
X50805199Y-42628277D01*
X50852818Y-42723515D01*
X50852818Y-42866372D01*
X50186152Y-41675896D02*
X50852818Y-41675896D01*
X50186152Y-42104468D02*
X50709961Y-42104468D01*
X50805199Y-42056849D01*
X50852818Y-41961610D01*
X50852818Y-41818753D01*
X50805199Y-41723515D01*
X50757580Y-41675896D01*
X50186152Y-41199706D02*
X50852818Y-41199706D01*
X50281390Y-41199706D02*
X50233771Y-41152087D01*
X50186152Y-41056849D01*
X50186152Y-40913991D01*
X50233771Y-40818753D01*
X50329009Y-40771134D01*
X50852818Y-40771134D01*
X50186152Y-40437801D02*
X50186152Y-40056849D01*
X49852818Y-40294944D02*
X50709961Y-40294944D01*
X50805199Y-40247325D01*
X50852818Y-40152087D01*
X50852818Y-40056849D01*
X50852818Y-39723515D02*
X49852818Y-39723515D01*
X50329009Y-39723515D02*
X50329009Y-39152087D01*
X50852818Y-39152087D02*
X49852818Y-39152087D01*
X50852818Y-38533039D02*
X50805199Y-38628277D01*
X50757580Y-38675896D01*
X50662342Y-38723515D01*
X50376628Y-38723515D01*
X50281390Y-38675896D01*
X50233771Y-38628277D01*
X50186152Y-38533039D01*
X50186152Y-38390182D01*
X50233771Y-38294944D01*
X50281390Y-38247325D01*
X50376628Y-38199706D01*
X50662342Y-38199706D01*
X50757580Y-38247325D01*
X50805199Y-38294944D01*
X50852818Y-38390182D01*
X50852818Y-38533039D01*
X50852818Y-37628277D02*
X50805199Y-37723515D01*
X50709961Y-37771134D01*
X49852818Y-37771134D01*
X50805199Y-36866372D02*
X50852818Y-36961610D01*
X50852818Y-37152087D01*
X50805199Y-37247325D01*
X50709961Y-37294944D01*
X50329009Y-37294944D01*
X50233771Y-37247325D01*
X50186152Y-37152087D01*
X50186152Y-36961610D01*
X50233771Y-36866372D01*
X50329009Y-36818753D01*
X50424247Y-36818753D01*
X50519485Y-37294944D01*
%TO.C,D4*%
X83027380Y-44672857D02*
X83027380Y-45149047D01*
X82027380Y-45149047D01*
X82503571Y-44339523D02*
X82503571Y-44006190D01*
X83027380Y-43863333D02*
X83027380Y-44339523D01*
X82027380Y-44339523D01*
X82027380Y-43863333D01*
X83027380Y-43434761D02*
X82027380Y-43434761D01*
X82027380Y-43196666D01*
X82075000Y-43053809D01*
X82170238Y-42958571D01*
X82265476Y-42910952D01*
X82455952Y-42863333D01*
X82598809Y-42863333D01*
X82789285Y-42910952D01*
X82884523Y-42958571D01*
X82979761Y-43053809D01*
X83027380Y-43196666D01*
X83027380Y-43434761D01*
D13*
X84451190Y-44399047D02*
X83951190Y-44399047D01*
X83951190Y-44280000D01*
X83975000Y-44208571D01*
X84022619Y-44160952D01*
X84070238Y-44137142D01*
X84165476Y-44113333D01*
X84236904Y-44113333D01*
X84332142Y-44137142D01*
X84379761Y-44160952D01*
X84427380Y-44208571D01*
X84451190Y-44280000D01*
X84451190Y-44399047D01*
X84117857Y-43684761D02*
X84451190Y-43684761D01*
X83927380Y-43803809D02*
X84284523Y-43922857D01*
X84284523Y-43613333D01*
D11*
%TO.C,C16*%
X84082380Y-78804047D02*
X84082380Y-79375476D01*
X84082380Y-79089761D02*
X83082380Y-79089761D01*
X83225238Y-79185000D01*
X83320476Y-79280238D01*
X83368095Y-79375476D01*
X83082380Y-78185000D02*
X83082380Y-78089761D01*
X83130000Y-77994523D01*
X83177619Y-77946904D01*
X83272857Y-77899285D01*
X83463333Y-77851666D01*
X83701428Y-77851666D01*
X83891904Y-77899285D01*
X83987142Y-77946904D01*
X84034761Y-77994523D01*
X84082380Y-78089761D01*
X84082380Y-78185000D01*
X84034761Y-78280238D01*
X83987142Y-78327857D01*
X83891904Y-78375476D01*
X83701428Y-78423095D01*
X83463333Y-78423095D01*
X83272857Y-78375476D01*
X83177619Y-78327857D01*
X83130000Y-78280238D01*
X83082380Y-78185000D01*
X83082380Y-77232619D02*
X83082380Y-77137380D01*
X83130000Y-77042142D01*
X83177619Y-76994523D01*
X83272857Y-76946904D01*
X83463333Y-76899285D01*
X83701428Y-76899285D01*
X83891904Y-76946904D01*
X83987142Y-76994523D01*
X84034761Y-77042142D01*
X84082380Y-77137380D01*
X84082380Y-77232619D01*
X84034761Y-77327857D01*
X83987142Y-77375476D01*
X83891904Y-77423095D01*
X83701428Y-77470714D01*
X83463333Y-77470714D01*
X83272857Y-77423095D01*
X83177619Y-77375476D01*
X83130000Y-77327857D01*
X83082380Y-77232619D01*
X83415714Y-76470714D02*
X84082380Y-76470714D01*
X83510952Y-76470714D02*
X83463333Y-76423095D01*
X83415714Y-76327857D01*
X83415714Y-76185000D01*
X83463333Y-76089761D01*
X83558571Y-76042142D01*
X84082380Y-76042142D01*
D12*
X86465714Y-78289285D02*
X86510476Y-78334047D01*
X86555238Y-78468333D01*
X86555238Y-78557857D01*
X86510476Y-78692142D01*
X86420952Y-78781666D01*
X86331428Y-78826428D01*
X86152380Y-78871190D01*
X86018095Y-78871190D01*
X85839047Y-78826428D01*
X85749523Y-78781666D01*
X85660000Y-78692142D01*
X85615238Y-78557857D01*
X85615238Y-78468333D01*
X85660000Y-78334047D01*
X85704761Y-78289285D01*
X86555238Y-77394047D02*
X86555238Y-77931190D01*
X86555238Y-77662619D02*
X85615238Y-77662619D01*
X85749523Y-77752142D01*
X85839047Y-77841666D01*
X85883809Y-77931190D01*
X85615238Y-76588333D02*
X85615238Y-76767380D01*
X85660000Y-76856904D01*
X85704761Y-76901666D01*
X85839047Y-76991190D01*
X86018095Y-77035952D01*
X86376190Y-77035952D01*
X86465714Y-76991190D01*
X86510476Y-76946428D01*
X86555238Y-76856904D01*
X86555238Y-76677857D01*
X86510476Y-76588333D01*
X86465714Y-76543571D01*
X86376190Y-76498809D01*
X86152380Y-76498809D01*
X86062857Y-76543571D01*
X86018095Y-76588333D01*
X85973333Y-76677857D01*
X85973333Y-76856904D01*
X86018095Y-76946428D01*
X86062857Y-76991190D01*
X86152380Y-77035952D01*
D11*
%TO.C,H8*%
X217926087Y-111073296D02*
X218926087Y-111073296D01*
X218211801Y-111406630D01*
X218926087Y-111739963D01*
X217926087Y-111739963D01*
X217926087Y-112359011D02*
X217973706Y-112263773D01*
X218021325Y-112216154D01*
X218116563Y-112168534D01*
X218402277Y-112168534D01*
X218497515Y-112216154D01*
X218545134Y-112263773D01*
X218592753Y-112359011D01*
X218592753Y-112501868D01*
X218545134Y-112597106D01*
X218497515Y-112644725D01*
X218402277Y-112692344D01*
X218116563Y-112692344D01*
X218021325Y-112644725D01*
X217973706Y-112597106D01*
X217926087Y-112501868D01*
X217926087Y-112359011D01*
X218592753Y-113549487D02*
X217926087Y-113549487D01*
X218592753Y-113120915D02*
X218068944Y-113120915D01*
X217973706Y-113168534D01*
X217926087Y-113263773D01*
X217926087Y-113406630D01*
X217973706Y-113501868D01*
X218021325Y-113549487D01*
X218592753Y-114025677D02*
X217926087Y-114025677D01*
X218497515Y-114025677D02*
X218545134Y-114073296D01*
X218592753Y-114168534D01*
X218592753Y-114311392D01*
X218545134Y-114406630D01*
X218449896Y-114454249D01*
X217926087Y-114454249D01*
X218592753Y-114787582D02*
X218592753Y-115168534D01*
X218926087Y-114930439D02*
X218068944Y-114930439D01*
X217973706Y-114978058D01*
X217926087Y-115073296D01*
X217926087Y-115168534D01*
X217926087Y-115501868D02*
X218926087Y-115501868D01*
X218449896Y-115501868D02*
X218449896Y-116073296D01*
X217926087Y-116073296D02*
X218926087Y-116073296D01*
X217926087Y-116692344D02*
X217973706Y-116597106D01*
X218021325Y-116549487D01*
X218116563Y-116501868D01*
X218402277Y-116501868D01*
X218497515Y-116549487D01*
X218545134Y-116597106D01*
X218592753Y-116692344D01*
X218592753Y-116835201D01*
X218545134Y-116930439D01*
X218497515Y-116978058D01*
X218402277Y-117025677D01*
X218116563Y-117025677D01*
X218021325Y-116978058D01*
X217973706Y-116930439D01*
X217926087Y-116835201D01*
X217926087Y-116692344D01*
X217926087Y-117597106D02*
X217973706Y-117501868D01*
X218068944Y-117454249D01*
X218926087Y-117454249D01*
X217973706Y-118359011D02*
X217926087Y-118263773D01*
X217926087Y-118073296D01*
X217973706Y-117978058D01*
X218068944Y-117930439D01*
X218449896Y-117930439D01*
X218545134Y-117978058D01*
X218592753Y-118073296D01*
X218592753Y-118263773D01*
X218545134Y-118359011D01*
X218449896Y-118406630D01*
X218354658Y-118406630D01*
X218259420Y-117930439D01*
%TO.C,C2*%
X67405714Y-56337619D02*
X67453333Y-56290000D01*
X67548571Y-56242380D01*
X67786666Y-56242380D01*
X67881904Y-56290000D01*
X67929523Y-56337619D01*
X67977142Y-56432857D01*
X67977142Y-56528095D01*
X67929523Y-56670952D01*
X67358095Y-57242380D01*
X67977142Y-57242380D01*
X68358095Y-56337619D02*
X68405714Y-56290000D01*
X68500952Y-56242380D01*
X68739047Y-56242380D01*
X68834285Y-56290000D01*
X68881904Y-56337619D01*
X68929523Y-56432857D01*
X68929523Y-56528095D01*
X68881904Y-56670952D01*
X68310476Y-57242380D01*
X68929523Y-57242380D01*
X69786666Y-56575714D02*
X69786666Y-57242380D01*
X69358095Y-56575714D02*
X69358095Y-57099523D01*
X69405714Y-57194761D01*
X69500952Y-57242380D01*
X69643809Y-57242380D01*
X69739047Y-57194761D01*
X69786666Y-57147142D01*
X68453333Y-60897142D02*
X68405714Y-60944761D01*
X68262857Y-60992380D01*
X68167619Y-60992380D01*
X68024761Y-60944761D01*
X67929523Y-60849523D01*
X67881904Y-60754285D01*
X67834285Y-60563809D01*
X67834285Y-60420952D01*
X67881904Y-60230476D01*
X67929523Y-60135238D01*
X68024761Y-60040000D01*
X68167619Y-59992380D01*
X68262857Y-59992380D01*
X68405714Y-60040000D01*
X68453333Y-60087619D01*
X68834285Y-60087619D02*
X68881904Y-60040000D01*
X68977142Y-59992380D01*
X69215238Y-59992380D01*
X69310476Y-60040000D01*
X69358095Y-60087619D01*
X69405714Y-60182857D01*
X69405714Y-60278095D01*
X69358095Y-60420952D01*
X68786666Y-60992380D01*
X69405714Y-60992380D01*
%TO.C,J1*%
X64992380Y-109640952D02*
X63992380Y-109640952D01*
X64944761Y-109212380D02*
X64992380Y-109069523D01*
X64992380Y-108831428D01*
X64944761Y-108736190D01*
X64897142Y-108688571D01*
X64801904Y-108640952D01*
X64706666Y-108640952D01*
X64611428Y-108688571D01*
X64563809Y-108736190D01*
X64516190Y-108831428D01*
X64468571Y-109021904D01*
X64420952Y-109117142D01*
X64373333Y-109164761D01*
X64278095Y-109212380D01*
X64182857Y-109212380D01*
X64087619Y-109164761D01*
X64040000Y-109117142D01*
X63992380Y-109021904D01*
X63992380Y-108783809D01*
X64040000Y-108640952D01*
X64706666Y-108260000D02*
X64706666Y-107783809D01*
X64992380Y-108355238D02*
X63992380Y-108021904D01*
X64992380Y-107688571D01*
X65087619Y-107593333D02*
X65087619Y-106831428D01*
X64992380Y-106545714D02*
X64992380Y-106355238D01*
X64944761Y-106260000D01*
X64897142Y-106212380D01*
X64754285Y-106117142D01*
X64563809Y-106069523D01*
X64182857Y-106069523D01*
X64087619Y-106117142D01*
X64040000Y-106164761D01*
X63992380Y-106260000D01*
X63992380Y-106450476D01*
X64040000Y-106545714D01*
X64087619Y-106593333D01*
X64182857Y-106640952D01*
X64420952Y-106640952D01*
X64516190Y-106593333D01*
X64563809Y-106545714D01*
X64611428Y-106450476D01*
X64611428Y-106260000D01*
X64563809Y-106164761D01*
X64516190Y-106117142D01*
X64420952Y-106069523D01*
X64325714Y-105212380D02*
X64992380Y-105212380D01*
X63944761Y-105450476D02*
X64659047Y-105688571D01*
X64659047Y-105069523D01*
X64325714Y-104688571D02*
X65325714Y-104688571D01*
X64373333Y-104688571D02*
X64325714Y-104593333D01*
X64325714Y-104402857D01*
X64373333Y-104307619D01*
X64420952Y-104260000D01*
X64516190Y-104212380D01*
X64801904Y-104212380D01*
X64897142Y-104260000D01*
X64944761Y-104307619D01*
X64992380Y-104402857D01*
X64992380Y-104593333D01*
X64944761Y-104688571D01*
X64992380Y-103783809D02*
X64325714Y-103783809D01*
X63992380Y-103783809D02*
X64040000Y-103831428D01*
X64087619Y-103783809D01*
X64040000Y-103736190D01*
X63992380Y-103783809D01*
X64087619Y-103783809D01*
X64325714Y-103307619D02*
X64992380Y-103307619D01*
X64420952Y-103307619D02*
X64373333Y-103260000D01*
X64325714Y-103164761D01*
X64325714Y-103021904D01*
X64373333Y-102926666D01*
X64468571Y-102879047D01*
X64992380Y-102879047D01*
%TO.C,R2*%
X100441428Y-59235714D02*
X100441428Y-59902380D01*
X100203333Y-58854761D02*
X99965238Y-59569047D01*
X100584285Y-59569047D01*
X100965238Y-59807142D02*
X101012857Y-59854761D01*
X100965238Y-59902380D01*
X100917619Y-59854761D01*
X100965238Y-59807142D01*
X100965238Y-59902380D01*
X101346190Y-58902380D02*
X102012857Y-58902380D01*
X101584285Y-59902380D01*
X102393809Y-59902380D02*
X102393809Y-58902380D01*
X102489047Y-59521428D02*
X102774761Y-59902380D01*
X102774761Y-59235714D02*
X102393809Y-59616666D01*
X101203333Y-57182380D02*
X100870000Y-56706190D01*
X100631904Y-57182380D02*
X100631904Y-56182380D01*
X101012857Y-56182380D01*
X101108095Y-56230000D01*
X101155714Y-56277619D01*
X101203333Y-56372857D01*
X101203333Y-56515714D01*
X101155714Y-56610952D01*
X101108095Y-56658571D01*
X101012857Y-56706190D01*
X100631904Y-56706190D01*
X101584285Y-56277619D02*
X101631904Y-56230000D01*
X101727142Y-56182380D01*
X101965238Y-56182380D01*
X102060476Y-56230000D01*
X102108095Y-56277619D01*
X102155714Y-56372857D01*
X102155714Y-56468095D01*
X102108095Y-56610952D01*
X101536666Y-57182380D01*
X102155714Y-57182380D01*
%TO.C,C15*%
X84960602Y-63801387D02*
X85008221Y-63753768D01*
X85103459Y-63706148D01*
X85341554Y-63706148D01*
X85436792Y-63753768D01*
X85484411Y-63801387D01*
X85532030Y-63896625D01*
X85532030Y-63991863D01*
X85484411Y-64134720D01*
X84912983Y-64706148D01*
X85532030Y-64706148D01*
X85912983Y-63801387D02*
X85960602Y-63753768D01*
X86055840Y-63706148D01*
X86293935Y-63706148D01*
X86389173Y-63753768D01*
X86436792Y-63801387D01*
X86484411Y-63896625D01*
X86484411Y-63991863D01*
X86436792Y-64134720D01*
X85865364Y-64706148D01*
X86484411Y-64706148D01*
X87341554Y-64039482D02*
X87341554Y-64706148D01*
X86912983Y-64039482D02*
X86912983Y-64563291D01*
X86960602Y-64658529D01*
X87055840Y-64706148D01*
X87198697Y-64706148D01*
X87293935Y-64658529D01*
X87341554Y-64610910D01*
X85532030Y-60860910D02*
X85484411Y-60908529D01*
X85341554Y-60956148D01*
X85246316Y-60956148D01*
X85103459Y-60908529D01*
X85008221Y-60813291D01*
X84960602Y-60718053D01*
X84912983Y-60527577D01*
X84912983Y-60384720D01*
X84960602Y-60194244D01*
X85008221Y-60099006D01*
X85103459Y-60003768D01*
X85246316Y-59956148D01*
X85341554Y-59956148D01*
X85484411Y-60003768D01*
X85532030Y-60051387D01*
X86484411Y-60956148D02*
X85912983Y-60956148D01*
X86198697Y-60956148D02*
X86198697Y-59956148D01*
X86103459Y-60099006D01*
X86008221Y-60194244D01*
X85912983Y-60241863D01*
X87389173Y-59956148D02*
X86912983Y-59956148D01*
X86865364Y-60432339D01*
X86912983Y-60384720D01*
X87008221Y-60337101D01*
X87246316Y-60337101D01*
X87341554Y-60384720D01*
X87389173Y-60432339D01*
X87436792Y-60527577D01*
X87436792Y-60765672D01*
X87389173Y-60860910D01*
X87341554Y-60908529D01*
X87246316Y-60956148D01*
X87008221Y-60956148D01*
X86912983Y-60908529D01*
X86865364Y-60860910D01*
%TO.C,C6*%
X68852380Y-97854047D02*
X68852380Y-98425476D01*
X68852380Y-98139761D02*
X67852380Y-98139761D01*
X67995238Y-98235000D01*
X68090476Y-98330238D01*
X68138095Y-98425476D01*
X67852380Y-97235000D02*
X67852380Y-97139761D01*
X67900000Y-97044523D01*
X67947619Y-96996904D01*
X68042857Y-96949285D01*
X68233333Y-96901666D01*
X68471428Y-96901666D01*
X68661904Y-96949285D01*
X68757142Y-96996904D01*
X68804761Y-97044523D01*
X68852380Y-97139761D01*
X68852380Y-97235000D01*
X68804761Y-97330238D01*
X68757142Y-97377857D01*
X68661904Y-97425476D01*
X68471428Y-97473095D01*
X68233333Y-97473095D01*
X68042857Y-97425476D01*
X67947619Y-97377857D01*
X67900000Y-97330238D01*
X67852380Y-97235000D01*
X67852380Y-96282619D02*
X67852380Y-96187380D01*
X67900000Y-96092142D01*
X67947619Y-96044523D01*
X68042857Y-95996904D01*
X68233333Y-95949285D01*
X68471428Y-95949285D01*
X68661904Y-95996904D01*
X68757142Y-96044523D01*
X68804761Y-96092142D01*
X68852380Y-96187380D01*
X68852380Y-96282619D01*
X68804761Y-96377857D01*
X68757142Y-96425476D01*
X68661904Y-96473095D01*
X68471428Y-96520714D01*
X68233333Y-96520714D01*
X68042857Y-96473095D01*
X67947619Y-96425476D01*
X67900000Y-96377857D01*
X67852380Y-96282619D01*
X68185714Y-95520714D02*
X68852380Y-95520714D01*
X68280952Y-95520714D02*
X68233333Y-95473095D01*
X68185714Y-95377857D01*
X68185714Y-95235000D01*
X68233333Y-95139761D01*
X68328571Y-95092142D01*
X68852380Y-95092142D01*
D12*
X71225714Y-96891666D02*
X71270476Y-96936428D01*
X71315238Y-97070714D01*
X71315238Y-97160238D01*
X71270476Y-97294523D01*
X71180952Y-97384047D01*
X71091428Y-97428809D01*
X70912380Y-97473571D01*
X70778095Y-97473571D01*
X70599047Y-97428809D01*
X70509523Y-97384047D01*
X70420000Y-97294523D01*
X70375238Y-97160238D01*
X70375238Y-97070714D01*
X70420000Y-96936428D01*
X70464761Y-96891666D01*
X70375238Y-96085952D02*
X70375238Y-96265000D01*
X70420000Y-96354523D01*
X70464761Y-96399285D01*
X70599047Y-96488809D01*
X70778095Y-96533571D01*
X71136190Y-96533571D01*
X71225714Y-96488809D01*
X71270476Y-96444047D01*
X71315238Y-96354523D01*
X71315238Y-96175476D01*
X71270476Y-96085952D01*
X71225714Y-96041190D01*
X71136190Y-95996428D01*
X70912380Y-95996428D01*
X70822857Y-96041190D01*
X70778095Y-96085952D01*
X70733333Y-96175476D01*
X70733333Y-96354523D01*
X70778095Y-96444047D01*
X70822857Y-96488809D01*
X70912380Y-96533571D01*
D11*
%TO.C,J5*%
X128111904Y-48407142D02*
X128064285Y-48454761D01*
X127921428Y-48502380D01*
X127826190Y-48502380D01*
X127683333Y-48454761D01*
X127588095Y-48359523D01*
X127540476Y-48264285D01*
X127492857Y-48073809D01*
X127492857Y-47930952D01*
X127540476Y-47740476D01*
X127588095Y-47645238D01*
X127683333Y-47550000D01*
X127826190Y-47502380D01*
X127921428Y-47502380D01*
X128064285Y-47550000D01*
X128111904Y-47597619D01*
X128683333Y-48502380D02*
X128588095Y-48454761D01*
X128540476Y-48407142D01*
X128492857Y-48311904D01*
X128492857Y-48026190D01*
X128540476Y-47930952D01*
X128588095Y-47883333D01*
X128683333Y-47835714D01*
X128826190Y-47835714D01*
X128921428Y-47883333D01*
X128969047Y-47930952D01*
X129016666Y-48026190D01*
X129016666Y-48311904D01*
X128969047Y-48407142D01*
X128921428Y-48454761D01*
X128826190Y-48502380D01*
X128683333Y-48502380D01*
X129445238Y-47835714D02*
X129445238Y-48502380D01*
X129445238Y-47930952D02*
X129492857Y-47883333D01*
X129588095Y-47835714D01*
X129730952Y-47835714D01*
X129826190Y-47883333D01*
X129873809Y-47978571D01*
X129873809Y-48502380D01*
X130350000Y-47835714D02*
X130350000Y-48502380D01*
X130350000Y-47930952D02*
X130397619Y-47883333D01*
X130492857Y-47835714D01*
X130635714Y-47835714D01*
X130730952Y-47883333D01*
X130778571Y-47978571D01*
X130778571Y-48502380D01*
X131016666Y-48597619D02*
X131778571Y-48597619D01*
X132207142Y-47502380D02*
X132302380Y-47502380D01*
X132397619Y-47550000D01*
X132445238Y-47597619D01*
X132492857Y-47692857D01*
X132540476Y-47883333D01*
X132540476Y-48121428D01*
X132492857Y-48311904D01*
X132445238Y-48407142D01*
X132397619Y-48454761D01*
X132302380Y-48502380D01*
X132207142Y-48502380D01*
X132111904Y-48454761D01*
X132064285Y-48407142D01*
X132016666Y-48311904D01*
X131969047Y-48121428D01*
X131969047Y-47883333D01*
X132016666Y-47692857D01*
X132064285Y-47597619D01*
X132111904Y-47550000D01*
X132207142Y-47502380D01*
X133492857Y-48502380D02*
X132921428Y-48502380D01*
X133207142Y-48502380D02*
X133207142Y-47502380D01*
X133111904Y-47645238D01*
X133016666Y-47740476D01*
X132921428Y-47788095D01*
X133826190Y-48502380D02*
X134350000Y-47835714D01*
X133826190Y-47835714D02*
X134350000Y-48502380D01*
X134921428Y-47502380D02*
X135016666Y-47502380D01*
X135111904Y-47550000D01*
X135159523Y-47597619D01*
X135207142Y-47692857D01*
X135254761Y-47883333D01*
X135254761Y-48121428D01*
X135207142Y-48311904D01*
X135159523Y-48407142D01*
X135111904Y-48454761D01*
X135016666Y-48502380D01*
X134921428Y-48502380D01*
X134826190Y-48454761D01*
X134778571Y-48407142D01*
X134730952Y-48311904D01*
X134683333Y-48121428D01*
X134683333Y-47883333D01*
X134730952Y-47692857D01*
X134778571Y-47597619D01*
X134826190Y-47550000D01*
X134921428Y-47502380D01*
X135588095Y-47502380D02*
X136207142Y-47502380D01*
X135873809Y-47883333D01*
X136016666Y-47883333D01*
X136111904Y-47930952D01*
X136159523Y-47978571D01*
X136207142Y-48073809D01*
X136207142Y-48311904D01*
X136159523Y-48407142D01*
X136111904Y-48454761D01*
X136016666Y-48502380D01*
X135730952Y-48502380D01*
X135635714Y-48454761D01*
X135588095Y-48407142D01*
X131302380Y-53253333D02*
X132016666Y-53253333D01*
X132159523Y-53300952D01*
X132254761Y-53396190D01*
X132302380Y-53539047D01*
X132302380Y-53634285D01*
X131302380Y-52300952D02*
X131302380Y-52777142D01*
X131778571Y-52824761D01*
X131730952Y-52777142D01*
X131683333Y-52681904D01*
X131683333Y-52443809D01*
X131730952Y-52348571D01*
X131778571Y-52300952D01*
X131873809Y-52253333D01*
X132111904Y-52253333D01*
X132207142Y-52300952D01*
X132254761Y-52348571D01*
X132302380Y-52443809D01*
X132302380Y-52681904D01*
X132254761Y-52777142D01*
X132207142Y-52824761D01*
%TO.C,R6*%
X149971428Y-49985714D02*
X149971428Y-50652380D01*
X149733333Y-49604761D02*
X149495238Y-50319047D01*
X150114285Y-50319047D01*
X150495238Y-50557142D02*
X150542857Y-50604761D01*
X150495238Y-50652380D01*
X150447619Y-50604761D01*
X150495238Y-50557142D01*
X150495238Y-50652380D01*
X150876190Y-49652380D02*
X151542857Y-49652380D01*
X151114285Y-50652380D01*
X151923809Y-50652380D02*
X151923809Y-49652380D01*
X152019047Y-50271428D02*
X152304761Y-50652380D01*
X152304761Y-49985714D02*
X151923809Y-50366666D01*
X150733333Y-53372380D02*
X150400000Y-52896190D01*
X150161904Y-53372380D02*
X150161904Y-52372380D01*
X150542857Y-52372380D01*
X150638095Y-52420000D01*
X150685714Y-52467619D01*
X150733333Y-52562857D01*
X150733333Y-52705714D01*
X150685714Y-52800952D01*
X150638095Y-52848571D01*
X150542857Y-52896190D01*
X150161904Y-52896190D01*
X151590476Y-52372380D02*
X151400000Y-52372380D01*
X151304761Y-52420000D01*
X151257142Y-52467619D01*
X151161904Y-52610476D01*
X151114285Y-52800952D01*
X151114285Y-53181904D01*
X151161904Y-53277142D01*
X151209523Y-53324761D01*
X151304761Y-53372380D01*
X151495238Y-53372380D01*
X151590476Y-53324761D01*
X151638095Y-53277142D01*
X151685714Y-53181904D01*
X151685714Y-52943809D01*
X151638095Y-52848571D01*
X151590476Y-52800952D01*
X151495238Y-52753333D01*
X151304761Y-52753333D01*
X151209523Y-52800952D01*
X151161904Y-52848571D01*
X151114285Y-52943809D01*
%TO.C,R15*%
X81662380Y-39704047D02*
X81662380Y-40275476D01*
X81662380Y-39989761D02*
X80662380Y-39989761D01*
X80805238Y-40085000D01*
X80900476Y-40180238D01*
X80948095Y-40275476D01*
X81662380Y-39275476D02*
X80662380Y-39275476D01*
X81281428Y-39180238D02*
X81662380Y-38894523D01*
X80995714Y-38894523D02*
X81376666Y-39275476D01*
D14*
X79960952Y-39842142D02*
X79770476Y-39975476D01*
X79960952Y-40070714D02*
X79560952Y-40070714D01*
X79560952Y-39918333D01*
X79580000Y-39880238D01*
X79599047Y-39861190D01*
X79637142Y-39842142D01*
X79694285Y-39842142D01*
X79732380Y-39861190D01*
X79751428Y-39880238D01*
X79770476Y-39918333D01*
X79770476Y-40070714D01*
X79960952Y-39461190D02*
X79960952Y-39689761D01*
X79960952Y-39575476D02*
X79560952Y-39575476D01*
X79618095Y-39613571D01*
X79656190Y-39651666D01*
X79675238Y-39689761D01*
X79560952Y-39099285D02*
X79560952Y-39289761D01*
X79751428Y-39308809D01*
X79732380Y-39289761D01*
X79713333Y-39251666D01*
X79713333Y-39156428D01*
X79732380Y-39118333D01*
X79751428Y-39099285D01*
X79789523Y-39080238D01*
X79884761Y-39080238D01*
X79922857Y-39099285D01*
X79941904Y-39118333D01*
X79960952Y-39156428D01*
X79960952Y-39251666D01*
X79941904Y-39289761D01*
X79922857Y-39308809D01*
D11*
%TO.C,R4*%
X118856428Y-55425714D02*
X118856428Y-56092380D01*
X118618333Y-55044761D02*
X118380238Y-55759047D01*
X118999285Y-55759047D01*
X119380238Y-55997142D02*
X119427857Y-56044761D01*
X119380238Y-56092380D01*
X119332619Y-56044761D01*
X119380238Y-55997142D01*
X119380238Y-56092380D01*
X119761190Y-55092380D02*
X120427857Y-55092380D01*
X119999285Y-56092380D01*
X120808809Y-56092380D02*
X120808809Y-55092380D01*
X120904047Y-55711428D02*
X121189761Y-56092380D01*
X121189761Y-55425714D02*
X120808809Y-55806666D01*
X119618333Y-53372380D02*
X119285000Y-52896190D01*
X119046904Y-53372380D02*
X119046904Y-52372380D01*
X119427857Y-52372380D01*
X119523095Y-52420000D01*
X119570714Y-52467619D01*
X119618333Y-52562857D01*
X119618333Y-52705714D01*
X119570714Y-52800952D01*
X119523095Y-52848571D01*
X119427857Y-52896190D01*
X119046904Y-52896190D01*
X120475476Y-52705714D02*
X120475476Y-53372380D01*
X120237380Y-52324761D02*
X119999285Y-53039047D01*
X120618333Y-53039047D01*
%TO.C,R12*%
X72144285Y-50922380D02*
X72763333Y-50922380D01*
X72430000Y-51303333D01*
X72572857Y-51303333D01*
X72668095Y-51350952D01*
X72715714Y-51398571D01*
X72763333Y-51493809D01*
X72763333Y-51731904D01*
X72715714Y-51827142D01*
X72668095Y-51874761D01*
X72572857Y-51922380D01*
X72287142Y-51922380D01*
X72191904Y-51874761D01*
X72144285Y-51827142D01*
X73382380Y-50922380D02*
X73477619Y-50922380D01*
X73572857Y-50970000D01*
X73620476Y-51017619D01*
X73668095Y-51112857D01*
X73715714Y-51303333D01*
X73715714Y-51541428D01*
X73668095Y-51731904D01*
X73620476Y-51827142D01*
X73572857Y-51874761D01*
X73477619Y-51922380D01*
X73382380Y-51922380D01*
X73287142Y-51874761D01*
X73239523Y-51827142D01*
X73191904Y-51731904D01*
X73144285Y-51541428D01*
X73144285Y-51303333D01*
X73191904Y-51112857D01*
X73239523Y-51017619D01*
X73287142Y-50970000D01*
X73382380Y-50922380D01*
X74334761Y-50922380D02*
X74430000Y-50922380D01*
X74525238Y-50970000D01*
X74572857Y-51017619D01*
X74620476Y-51112857D01*
X74668095Y-51303333D01*
X74668095Y-51541428D01*
X74620476Y-51731904D01*
X74572857Y-51827142D01*
X74525238Y-51874761D01*
X74430000Y-51922380D01*
X74334761Y-51922380D01*
X74239523Y-51874761D01*
X74191904Y-51827142D01*
X74144285Y-51731904D01*
X74096666Y-51541428D01*
X74096666Y-51303333D01*
X74144285Y-51112857D01*
X74191904Y-51017619D01*
X74239523Y-50970000D01*
X74334761Y-50922380D01*
X72787142Y-54642380D02*
X72453809Y-54166190D01*
X72215714Y-54642380D02*
X72215714Y-53642380D01*
X72596666Y-53642380D01*
X72691904Y-53690000D01*
X72739523Y-53737619D01*
X72787142Y-53832857D01*
X72787142Y-53975714D01*
X72739523Y-54070952D01*
X72691904Y-54118571D01*
X72596666Y-54166190D01*
X72215714Y-54166190D01*
X73739523Y-54642380D02*
X73168095Y-54642380D01*
X73453809Y-54642380D02*
X73453809Y-53642380D01*
X73358571Y-53785238D01*
X73263333Y-53880476D01*
X73168095Y-53928095D01*
X74120476Y-53737619D02*
X74168095Y-53690000D01*
X74263333Y-53642380D01*
X74501428Y-53642380D01*
X74596666Y-53690000D01*
X74644285Y-53737619D01*
X74691904Y-53832857D01*
X74691904Y-53928095D01*
X74644285Y-54070952D01*
X74072857Y-54642380D01*
X74691904Y-54642380D01*
%TO.C,U1*%
X162451830Y-41590000D02*
X162689926Y-41590000D01*
X162594688Y-41828095D02*
X162689926Y-41590000D01*
X162594688Y-41351904D01*
X162880402Y-41732857D02*
X162689926Y-41590000D01*
X162880402Y-41447142D01*
X169599730Y-41490000D02*
X169837826Y-41490000D01*
X169742588Y-41728095D02*
X169837826Y-41490000D01*
X169742588Y-41251904D01*
X170028302Y-41632857D02*
X169837826Y-41490000D01*
X170028302Y-41347142D01*
D15*
%TO.C,C14*%
X84266395Y-112792500D02*
X84766395Y-112792500D01*
X84516395Y-112542500D02*
X84516395Y-113042500D01*
X88900000Y-113880000D02*
G75*
G03*
X88900000Y-113880000I-2500000J0D01*
G01*
%TO.C,C11*%
X77220000Y-75335000D02*
X74720000Y-75335000D01*
X77220000Y-80035000D02*
X77220000Y-75335000D01*
X74720000Y-80035000D02*
X77220000Y-80035000D01*
X74720000Y-75335000D02*
X74720000Y-80035000D01*
%TO.C,D3*%
X70290000Y-45030000D02*
X71490000Y-45030000D01*
X71190000Y-43030000D02*
X70290000Y-43030000D01*
X70290000Y-43030000D02*
X70290000Y-45030000D01*
X71490000Y-45030000D02*
X71490000Y-43330000D01*
X71490000Y-43330000D02*
X71190000Y-43030000D01*
%TO.C,D1*%
X74735000Y-43030000D02*
X74735000Y-45030000D01*
X75635000Y-43030000D02*
X74735000Y-43030000D01*
X74735000Y-45030000D02*
X75935000Y-45030000D01*
X75935000Y-45030000D02*
X75935000Y-43330000D01*
X75935000Y-43330000D02*
X75635000Y-43030000D01*
%TO.C,R1*%
X77930000Y-48780000D02*
X68930000Y-48780000D01*
X68930000Y-51980000D02*
X77930000Y-51980000D01*
X79780000Y-50380000D02*
X77930000Y-50380000D01*
X77930000Y-51980000D02*
X77930000Y-48780000D01*
X67080000Y-50380000D02*
X68930000Y-50380000D01*
X68930000Y-48780000D02*
X68930000Y-51980000D01*
%TO.C,R8*%
X155400000Y-62140000D02*
X155400000Y-58940000D01*
X157250000Y-60540000D02*
X155400000Y-60540000D01*
X155400000Y-58940000D02*
X146400000Y-58940000D01*
X146400000Y-58940000D02*
X146400000Y-62140000D01*
X144550000Y-60540000D02*
X146400000Y-60540000D01*
X146400000Y-62140000D02*
X155400000Y-62140000D01*
%TO.C,R16*%
X71302500Y-38785000D02*
X71302500Y-40385000D01*
X71302500Y-40385000D02*
X70477500Y-40385000D01*
X70477500Y-38785000D02*
X71302500Y-38785000D01*
X70477500Y-40385000D02*
X70477500Y-38785000D01*
%TO.C,C8*%
X72584224Y-59202499D02*
X72584224Y-59702499D01*
X72334224Y-59452499D02*
X72834224Y-59452499D01*
X76967829Y-60539999D02*
G75*
G03*
X76967829Y-60539999I-2500000J0D01*
G01*
%TO.C,C1*%
X138267500Y-94896283D02*
X137767500Y-94896283D01*
X138017500Y-94646283D02*
X138017500Y-95146283D01*
X139430000Y-96779888D02*
G75*
G03*
X139430000Y-96779888I-2500000J0D01*
G01*
%TO.C,C29*%
X191520000Y-80035000D02*
X191520000Y-75335000D01*
X189020000Y-75335000D02*
X189020000Y-80035000D01*
X189020000Y-80035000D02*
X191520000Y-80035000D01*
X191520000Y-75335000D02*
X189020000Y-75335000D01*
%TO.C,R5*%
X115285000Y-58330000D02*
X124285000Y-58330000D01*
X124285000Y-58330000D02*
X124285000Y-55130000D01*
X124285000Y-55130000D02*
X115285000Y-55130000D01*
X113435000Y-56730000D02*
X115285000Y-56730000D01*
X126135000Y-56730000D02*
X124285000Y-56730000D01*
X115285000Y-55130000D02*
X115285000Y-58330000D01*
%TO.C,C25*%
X191403605Y-61600326D02*
X190903605Y-61600326D01*
X191153605Y-61850326D02*
X191153605Y-61350326D01*
X191770000Y-60512826D02*
G75*
G03*
X191770000Y-60512826I-2500000J0D01*
G01*
%TO.C,C27*%
X138267500Y-76071395D02*
X137767500Y-76071395D01*
X138017500Y-75821395D02*
X138017500Y-76321395D01*
X139430000Y-77955000D02*
G75*
G03*
X139430000Y-77955000I-2500000J0D01*
G01*
%TO.C,C17*%
X87464539Y-94460304D02*
X84964539Y-94460304D01*
X87464539Y-99160304D02*
X87464539Y-94460304D01*
X84964539Y-99160304D02*
X87464539Y-99160304D01*
X84964539Y-94460304D02*
X84964539Y-99160304D01*
%TO.C,C4*%
X191520000Y-99045000D02*
X191520000Y-94345000D01*
X191520000Y-94345000D02*
X189020000Y-94345000D01*
X189020000Y-94345000D02*
X189020000Y-99045000D01*
X189020000Y-99045000D02*
X191520000Y-99045000D01*
%TO.C,D2*%
X80380000Y-45030000D02*
X80380000Y-43330000D01*
X79180000Y-43030000D02*
X79180000Y-45030000D01*
X79180000Y-45030000D02*
X80380000Y-45030000D01*
X80080000Y-43030000D02*
X79180000Y-43030000D01*
X80380000Y-43330000D02*
X80080000Y-43030000D01*
%TO.C,C9*%
X72861282Y-112542500D02*
X72861282Y-113042500D01*
X72611282Y-112792500D02*
X73111282Y-112792500D01*
X77244887Y-113880000D02*
G75*
G03*
X77244887Y-113880000I-2500000J0D01*
G01*
%TO.C,C19*%
X78326282Y-112792500D02*
X78826282Y-112792500D01*
X78576282Y-112542500D02*
X78576282Y-113042500D01*
X82959887Y-113880000D02*
G75*
G03*
X82959887Y-113880000I-2500000J0D01*
G01*
%TO.C,C30*%
X136950000Y-116865000D02*
X139450000Y-116865000D01*
X139450000Y-112165000D02*
X136950000Y-112165000D01*
X136950000Y-112165000D02*
X136950000Y-116865000D01*
X139450000Y-116865000D02*
X139450000Y-112165000D01*
%TO.C,C3*%
X67146282Y-112542500D02*
X67146282Y-113042500D01*
X66896282Y-112792500D02*
X67396282Y-112792500D01*
X71529887Y-113880000D02*
G75*
G03*
X71529887Y-113880000I-2500000J0D01*
G01*
%TO.C,C24*%
X82300000Y-94385000D02*
X79800000Y-94385000D01*
X82300000Y-99085000D02*
X82300000Y-94385000D01*
X79800000Y-94385000D02*
X79800000Y-99085000D01*
X79800000Y-99085000D02*
X82300000Y-99085000D01*
%TO.C,C5*%
X69640000Y-80035000D02*
X72140000Y-80035000D01*
X69640000Y-75335000D02*
X69640000Y-80035000D01*
X72140000Y-75335000D02*
X69640000Y-75335000D01*
X72140000Y-80035000D02*
X72140000Y-75335000D01*
%TO.C,R3*%
X96870000Y-58940000D02*
X96870000Y-62140000D01*
X95020000Y-60540000D02*
X96870000Y-60540000D01*
X105870000Y-58940000D02*
X96870000Y-58940000D01*
X96870000Y-62140000D02*
X105870000Y-62140000D01*
X105870000Y-62140000D02*
X105870000Y-58940000D01*
X107720000Y-60540000D02*
X105870000Y-60540000D01*
%TO.C,C28*%
X132100000Y-62160000D02*
X136800000Y-62160000D01*
X136800000Y-62160000D02*
X136800000Y-59660000D01*
X136800000Y-59660000D02*
X132100000Y-59660000D01*
X132100000Y-59660000D02*
X132100000Y-62160000D01*
%TO.C,R17*%
X84637500Y-38785000D02*
X84637500Y-40385000D01*
X84637500Y-40385000D02*
X83812500Y-40385000D01*
X83812500Y-38785000D02*
X84637500Y-38785000D01*
X83812500Y-40385000D02*
X83812500Y-38785000D01*
%TO.C,C10*%
X74720000Y-99085000D02*
X77220000Y-99085000D01*
X74720000Y-94385000D02*
X74720000Y-99085000D01*
X77220000Y-94385000D02*
X74720000Y-94385000D01*
X77220000Y-99085000D02*
X77220000Y-94385000D01*
%TO.C,R14*%
X74922500Y-40385000D02*
X74922500Y-38785000D01*
X75747500Y-38785000D02*
X75747500Y-40385000D01*
X75747500Y-40385000D02*
X74922500Y-40385000D01*
X74922500Y-38785000D02*
X75747500Y-38785000D01*
%TO.C,R9*%
X146400000Y-55130000D02*
X146400000Y-58330000D01*
X157250000Y-56730000D02*
X155400000Y-56730000D01*
X155400000Y-55130000D02*
X146400000Y-55130000D01*
X155400000Y-58330000D02*
X155400000Y-55130000D01*
X146400000Y-58330000D02*
X155400000Y-58330000D01*
X144550000Y-56730000D02*
X146400000Y-56730000D01*
%TO.C,R7*%
X175085000Y-55155000D02*
X175085000Y-51955000D01*
X166085000Y-55155000D02*
X175085000Y-55155000D01*
X164235000Y-53555000D02*
X166085000Y-53555000D01*
X166085000Y-51955000D02*
X166085000Y-55155000D01*
X175085000Y-51955000D02*
X166085000Y-51955000D01*
X176935000Y-53555000D02*
X175085000Y-53555000D01*
%TO.C,R10*%
X166085000Y-55765000D02*
X166085000Y-58965000D01*
X166085000Y-58965000D02*
X175085000Y-58965000D01*
X175085000Y-58965000D02*
X175085000Y-55765000D01*
X176935000Y-57365000D02*
X175085000Y-57365000D01*
X164235000Y-57365000D02*
X166085000Y-57365000D01*
X175085000Y-55765000D02*
X166085000Y-55765000D01*
%TO.C,C26*%
X192729869Y-114909579D02*
X192229869Y-114909579D01*
X192479869Y-115159579D02*
X192479869Y-114659579D01*
X193096264Y-113822079D02*
G75*
G03*
X193096264Y-113822079I-2500000J0D01*
G01*
%TO.C,R13*%
X107720000Y-52920000D02*
X105870000Y-52920000D01*
X96870000Y-51320000D02*
X96870000Y-54520000D01*
X95020000Y-52920000D02*
X96870000Y-52920000D01*
X105870000Y-51320000D02*
X96870000Y-51320000D01*
X96870000Y-54520000D02*
X105870000Y-54520000D01*
X105870000Y-54520000D02*
X105870000Y-51320000D01*
%TO.C,R11*%
X124285000Y-58940000D02*
X115285000Y-58940000D01*
X115285000Y-62140000D02*
X124285000Y-62140000D01*
X113435000Y-60540000D02*
X115285000Y-60540000D01*
X115285000Y-58940000D02*
X115285000Y-62140000D01*
X124285000Y-62140000D02*
X124285000Y-58940000D01*
X126135000Y-60540000D02*
X124285000Y-60540000D01*
%TO.C,C21*%
X82238534Y-61877500D02*
X82238534Y-61377500D01*
X82488534Y-61627500D02*
X81988534Y-61627500D01*
X82854929Y-60540000D02*
G75*
G03*
X82854929Y-60540000I-2500000J0D01*
G01*
%TO.C,C22*%
X82300000Y-75335000D02*
X79800000Y-75335000D01*
X79800000Y-80035000D02*
X82300000Y-80035000D01*
X82300000Y-80035000D02*
X82300000Y-75335000D01*
X79800000Y-75335000D02*
X79800000Y-80035000D01*
%TO.C,D4*%
X83625000Y-43030000D02*
X83625000Y-45030000D01*
X84825000Y-43330000D02*
X84525000Y-43030000D01*
X84825000Y-45030000D02*
X84825000Y-43330000D01*
X84525000Y-43030000D02*
X83625000Y-43030000D01*
X83625000Y-45030000D02*
X84825000Y-45030000D01*
%TO.C,C16*%
X84880000Y-80035000D02*
X87380000Y-80035000D01*
X84880000Y-75335000D02*
X84880000Y-80035000D01*
X87380000Y-75335000D02*
X84880000Y-75335000D01*
X87380000Y-80035000D02*
X87380000Y-75335000D01*
%TO.C,C2*%
X70503605Y-61877500D02*
X70503605Y-61377500D01*
X70753605Y-61627500D02*
X70253605Y-61627500D01*
X71120000Y-60540000D02*
G75*
G03*
X71120000Y-60540000I-2500000J0D01*
G01*
%TO.C,R2*%
X105870000Y-55130000D02*
X96870000Y-55130000D01*
X107720000Y-56730000D02*
X105870000Y-56730000D01*
X95020000Y-56730000D02*
X96870000Y-56730000D01*
X96870000Y-58330000D02*
X105870000Y-58330000D01*
X96870000Y-55130000D02*
X96870000Y-58330000D01*
X105870000Y-58330000D02*
X105870000Y-55130000D01*
%TO.C,C15*%
X84291283Y-59166268D02*
X84291283Y-59666268D01*
X84041283Y-59416268D02*
X84541283Y-59416268D01*
X88674888Y-60503768D02*
G75*
G03*
X88674888Y-60503768I-2500000J0D01*
G01*
%TO.C,C6*%
X69650000Y-99085000D02*
X72150000Y-99085000D01*
X69650000Y-94385000D02*
X69650000Y-99085000D01*
X72150000Y-99085000D02*
X72150000Y-94385000D01*
X72150000Y-94385000D02*
X69650000Y-94385000D01*
%TO.C,J5*%
X133120000Y-49110000D02*
X133120000Y-56095000D01*
X130580000Y-56730000D02*
X130580000Y-49110000D01*
X130580000Y-49110000D02*
X133120000Y-49110000D01*
X132485000Y-56730000D02*
X130580000Y-56730000D01*
X133120000Y-56095000D02*
X132485000Y-56730000D01*
%TO.C,R6*%
X146400000Y-51320000D02*
X146400000Y-54520000D01*
X144550000Y-52920000D02*
X146400000Y-52920000D01*
X155400000Y-54520000D02*
X155400000Y-51320000D01*
X146400000Y-54520000D02*
X155400000Y-54520000D01*
X157250000Y-52920000D02*
X155400000Y-52920000D01*
X155400000Y-51320000D02*
X146400000Y-51320000D01*
%TO.C,R15*%
X79367500Y-38785000D02*
X80192500Y-38785000D01*
X79367500Y-40385000D02*
X79367500Y-38785000D01*
X80192500Y-38785000D02*
X80192500Y-40385000D01*
X80192500Y-40385000D02*
X79367500Y-40385000D01*
%TO.C,R4*%
X126135000Y-52920000D02*
X124285000Y-52920000D01*
X115285000Y-54520000D02*
X124285000Y-54520000D01*
X124285000Y-54520000D02*
X124285000Y-51320000D01*
X124285000Y-51320000D02*
X115285000Y-51320000D01*
X115285000Y-51320000D02*
X115285000Y-54520000D01*
X113435000Y-52920000D02*
X115285000Y-52920000D01*
%TO.C,R12*%
X68930000Y-52590000D02*
X68930000Y-55790000D01*
X77930000Y-52590000D02*
X68930000Y-52590000D01*
X77930000Y-55790000D02*
X77930000Y-52590000D01*
X68930000Y-55790000D02*
X77930000Y-55790000D01*
X67080000Y-54190000D02*
X68930000Y-54190000D01*
X79780000Y-54190000D02*
X77930000Y-54190000D01*
%TO.C,U1*%
X157513050Y-47139900D02*
X162745450Y-47139900D01*
X162745450Y-44980900D02*
X162745450Y-43279100D01*
X172092650Y-38986500D02*
X162745450Y-38986500D01*
X160992850Y-43279100D02*
X160992850Y-44980900D01*
X162745450Y-47139900D02*
X162745450Y-46200100D01*
X162745450Y-38986500D02*
X162745450Y-49273500D01*
X157513050Y-41120100D02*
X157513050Y-42059900D01*
X162745450Y-42059900D02*
X162745450Y-41120100D01*
X172092650Y-49273500D02*
X172092650Y-38986500D01*
X162745450Y-46200100D02*
X157513050Y-46200100D01*
X162745450Y-49273500D02*
X172092650Y-49273500D01*
X162745450Y-41120100D02*
X157513050Y-41120100D01*
X157513050Y-42059900D02*
X162745450Y-42059900D01*
X157513050Y-46200100D02*
X157513050Y-47139900D01*
X160992850Y-44980900D02*
X162745450Y-44980900D01*
X162745450Y-43279100D02*
X160992850Y-43279100D01*
%TD*%
M02*
