%TF.GenerationSoftware,KiCad,Pcbnew,(6.0.7)*%
%TF.CreationDate,2022-08-07T08:27:23-07:00*%
%TF.ProjectId,isa_board,6973615f-626f-4617-9264-2e6b69636164,rev?*%
%TF.SameCoordinates,Original*%
%TF.FileFunction,Soldermask,Top*%
%TF.FilePolarity,Negative*%
%FSLAX46Y46*%
G04 Gerber Fmt 4.6, Leading zero omitted, Abs format (unit mm)*
G04 Created by KiCad (PCBNEW (6.0.7)) date 2022-08-07 08:27:23*
%MOMM*%
%LPD*%
G01*
G04 APERTURE LIST*
G04 Aperture macros list*
%AMRoundRect*
0 Rectangle with rounded corners*
0 $1 Rounding radius*
0 $2 $3 $4 $5 $6 $7 $8 $9 X,Y pos of 4 corners*
0 Add a 4 corners polygon primitive as box body*
4,1,4,$2,$3,$4,$5,$6,$7,$8,$9,$2,$3,0*
0 Add four circle primitives for the rounded corners*
1,1,$1+$1,$2,$3*
1,1,$1+$1,$4,$5*
1,1,$1+$1,$6,$7*
1,1,$1+$1,$8,$9*
0 Add four rect primitives between the rounded corners*
20,1,$1+$1,$2,$3,$4,$5,0*
20,1,$1+$1,$4,$5,$6,$7,0*
20,1,$1+$1,$6,$7,$8,$9,0*
20,1,$1+$1,$8,$9,$2,$3,0*%
G04 Aperture macros list end*
%ADD10C,3.000000*%
%ADD11C,2.000000*%
%ADD12R,1.600000X1.600000*%
%ADD13C,1.600000*%
%ADD14R,10.000000X7.000000*%
%ADD15RoundRect,0.250000X-0.450000X0.325000X-0.450000X-0.325000X0.450000X-0.325000X0.450000X0.325000X0*%
%ADD16O,1.600000X1.600000*%
%ADD17RoundRect,0.237500X0.237500X-0.250000X0.237500X0.250000X-0.237500X0.250000X-0.237500X-0.250000X0*%
%ADD18C,1.400000*%
%ADD19R,1.700000X1.700000*%
%ADD20O,1.700000X1.700000*%
%ADD21R,3.500000X1.600000*%
%ADD22R,9.750000X12.200000*%
G04 APERTURE END LIST*
D10*
%TO.C,J4*%
X92364178Y-44141803D03*
D11*
X97064178Y-44601803D03*
X101264178Y-44601803D03*
X105464178Y-44601803D03*
X109664178Y-44601803D03*
X113864178Y-44601803D03*
X118064178Y-44601803D03*
X122264178Y-44601803D03*
X126464178Y-44601803D03*
X130664178Y-44601803D03*
X134864178Y-44601803D03*
X139064178Y-44601803D03*
X143264178Y-44601803D03*
X97064178Y-39101803D03*
X101264178Y-39101803D03*
X105464178Y-39101803D03*
X109664178Y-39101803D03*
X113864178Y-39101803D03*
X118064178Y-39101803D03*
X122264178Y-39101803D03*
X126464178Y-39101803D03*
X130664178Y-39101803D03*
X134864178Y-39101803D03*
X139064178Y-39101803D03*
X143264178Y-39101803D03*
%TD*%
D12*
%TO.C,C14*%
X85400000Y-113880000D03*
D13*
X87400000Y-113880000D03*
%TD*%
D14*
%TO.C,H3*%
X47395000Y-96695000D03*
%TD*%
D13*
%TO.C,C11*%
X75970000Y-75185000D03*
X75970000Y-80185000D03*
%TD*%
D15*
%TO.C,D3*%
X70890000Y-43005000D03*
X70890000Y-45055000D03*
%TD*%
%TO.C,D1*%
X75335000Y-43005000D03*
X75335000Y-45055000D03*
%TD*%
D13*
%TO.C,R1*%
X67080000Y-50380000D03*
D16*
X79780000Y-50380000D03*
%TD*%
D14*
%TO.C,H7*%
X221385000Y-96695000D03*
%TD*%
D13*
%TO.C,R8*%
X157250000Y-60540000D03*
D16*
X144550000Y-60540000D03*
%TD*%
D17*
%TO.C,R16*%
X70890000Y-40497500D03*
X70890000Y-38672500D03*
%TD*%
D12*
%TO.C,C8*%
X73467829Y-60539999D03*
D13*
X75467829Y-60539999D03*
%TD*%
D12*
%TO.C,C1*%
X136930000Y-95779888D03*
D13*
X136930000Y-97779888D03*
%TD*%
%TO.C,C29*%
X190270000Y-75185000D03*
X190270000Y-80185000D03*
%TD*%
%TO.C,R5*%
X113435000Y-56730000D03*
D16*
X126135000Y-56730000D03*
%TD*%
D12*
%TO.C,C25*%
X190270000Y-60512826D03*
D13*
X188270000Y-60512826D03*
%TD*%
D12*
%TO.C,C27*%
X136930000Y-76955000D03*
D13*
X136930000Y-78955000D03*
%TD*%
%TO.C,C17*%
X86214539Y-94310304D03*
X86214539Y-99310304D03*
%TD*%
D14*
%TO.C,H5*%
X221389344Y-40492560D03*
%TD*%
%TO.C,H4*%
X47387526Y-114611973D03*
%TD*%
%TO.C,H2*%
X47395000Y-77685000D03*
%TD*%
%TO.C,H6*%
X221334935Y-77685000D03*
%TD*%
D13*
%TO.C,C4*%
X190270000Y-94195000D03*
X190270000Y-99195000D03*
%TD*%
D15*
%TO.C,D2*%
X79780000Y-43005000D03*
X79780000Y-45055000D03*
%TD*%
D12*
%TO.C,C9*%
X73744887Y-113880000D03*
D13*
X75744887Y-113880000D03*
%TD*%
D12*
%TO.C,C19*%
X79459887Y-113880000D03*
D13*
X81459887Y-113880000D03*
%TD*%
%TO.C,C30*%
X138200000Y-112015000D03*
X138200000Y-117015000D03*
%TD*%
D12*
%TO.C,C3*%
X68029887Y-113880000D03*
D13*
X70029887Y-113880000D03*
%TD*%
%TO.C,C24*%
X81050000Y-94235000D03*
X81050000Y-99235000D03*
%TD*%
%TO.C,C5*%
X70890000Y-75185000D03*
X70890000Y-80185000D03*
%TD*%
%TO.C,R3*%
X95020000Y-60540000D03*
D16*
X107720000Y-60540000D03*
%TD*%
D18*
%TO.C,J3*%
X67080000Y-70700000D03*
X69620000Y-70700000D03*
X72160000Y-70700000D03*
X74700000Y-70700000D03*
X77240000Y-70700000D03*
X79780000Y-70700000D03*
X82320000Y-70700000D03*
X84860000Y-70700000D03*
X87400000Y-70700000D03*
X89940000Y-70700000D03*
X92480000Y-70700000D03*
X95020000Y-70700000D03*
X97560000Y-70700000D03*
X100100000Y-70700000D03*
X102640000Y-70700000D03*
X105180000Y-70700000D03*
X107720000Y-70700000D03*
X110260000Y-70700000D03*
X112800000Y-70700000D03*
X115340000Y-70700000D03*
X117880000Y-70700000D03*
X120420000Y-70700000D03*
X122960000Y-70700000D03*
X125500000Y-70700000D03*
X128040000Y-70700000D03*
X130580000Y-70700000D03*
X133120000Y-70700000D03*
X135660000Y-70700000D03*
X138200000Y-70700000D03*
X140740000Y-70700000D03*
X143280000Y-70700000D03*
X67080000Y-65620000D03*
X69620000Y-65620000D03*
X72160000Y-65620000D03*
X74700000Y-65620000D03*
X77240000Y-65620000D03*
X79780000Y-65620000D03*
X82320000Y-65620000D03*
X84860000Y-65620000D03*
X87400000Y-65620000D03*
X89940000Y-65620000D03*
X92480000Y-65620000D03*
X95020000Y-65620000D03*
X97560000Y-65620000D03*
X100100000Y-65620000D03*
X102640000Y-65620000D03*
X105180000Y-65620000D03*
X107720000Y-65620000D03*
X110260000Y-65620000D03*
X112800000Y-65620000D03*
X115340000Y-65620000D03*
X117880000Y-65620000D03*
X120420000Y-65620000D03*
X122960000Y-65620000D03*
X125500000Y-65620000D03*
X128040000Y-65620000D03*
X130580000Y-65620000D03*
X133120000Y-65620000D03*
X135660000Y-65620000D03*
X138200000Y-65620000D03*
X140740000Y-65620000D03*
X143280000Y-65620000D03*
X153440000Y-70700000D03*
X155980000Y-70700000D03*
X158520000Y-70700000D03*
X161060000Y-70700000D03*
X163600000Y-70700000D03*
X166140000Y-70700000D03*
X168680000Y-70700000D03*
X171220000Y-70700000D03*
X173760000Y-70700000D03*
X176300000Y-70700000D03*
X178840000Y-70700000D03*
X181380000Y-70700000D03*
X183920000Y-70700000D03*
X186460000Y-70700000D03*
X189000000Y-70700000D03*
X191540000Y-70700000D03*
X194080000Y-70700000D03*
X196620000Y-70700000D03*
X153440000Y-65620000D03*
X155980000Y-65620000D03*
X158520000Y-65620000D03*
X161060000Y-65620000D03*
X163600000Y-65620000D03*
X166140000Y-65620000D03*
X168680000Y-65620000D03*
X171220000Y-65620000D03*
X173760000Y-65620000D03*
X176300000Y-65620000D03*
X178840000Y-65620000D03*
X181380000Y-65620000D03*
X183920000Y-65620000D03*
X186460000Y-65620000D03*
X189000000Y-65620000D03*
X191540000Y-65620000D03*
X194080000Y-65620000D03*
X196620000Y-65620000D03*
%TD*%
D13*
%TO.C,C28*%
X136950000Y-60910000D03*
X131950000Y-60910000D03*
%TD*%
D17*
%TO.C,R17*%
X84225000Y-40497500D03*
X84225000Y-38672500D03*
%TD*%
D13*
%TO.C,C10*%
X75970000Y-94235000D03*
X75970000Y-99235000D03*
%TD*%
D17*
%TO.C,R14*%
X75335000Y-40497500D03*
X75335000Y-38672500D03*
%TD*%
D13*
%TO.C,R9*%
X157250000Y-56730000D03*
D16*
X144550000Y-56730000D03*
%TD*%
D13*
%TO.C,R7*%
X176935000Y-53555000D03*
D16*
X164235000Y-53555000D03*
%TD*%
D13*
%TO.C,R10*%
X176935000Y-57365000D03*
D16*
X164235000Y-57365000D03*
%TD*%
D12*
%TO.C,C26*%
X191596264Y-113822079D03*
D13*
X189596264Y-113822079D03*
%TD*%
D18*
%TO.C,J2*%
X67080000Y-89750000D03*
X69620000Y-89750000D03*
X72160000Y-89750000D03*
X74700000Y-89750000D03*
X77240000Y-89750000D03*
X79780000Y-89750000D03*
X82320000Y-89750000D03*
X84860000Y-89750000D03*
X87400000Y-89750000D03*
X89940000Y-89750000D03*
X92480000Y-89750000D03*
X95020000Y-89750000D03*
X97560000Y-89750000D03*
X100100000Y-89750000D03*
X102640000Y-89750000D03*
X105180000Y-89750000D03*
X107720000Y-89750000D03*
X110260000Y-89750000D03*
X112800000Y-89750000D03*
X115340000Y-89750000D03*
X117880000Y-89750000D03*
X120420000Y-89750000D03*
X122960000Y-89750000D03*
X125500000Y-89750000D03*
X128040000Y-89750000D03*
X130580000Y-89750000D03*
X133120000Y-89750000D03*
X135660000Y-89750000D03*
X138200000Y-89750000D03*
X140740000Y-89750000D03*
X143280000Y-89750000D03*
X67080000Y-84670000D03*
X69620000Y-84670000D03*
X72160000Y-84670000D03*
X74700000Y-84670000D03*
X77240000Y-84670000D03*
X79780000Y-84670000D03*
X82320000Y-84670000D03*
X84860000Y-84670000D03*
X87400000Y-84670000D03*
X89940000Y-84670000D03*
X92480000Y-84670000D03*
X95020000Y-84670000D03*
X97560000Y-84670000D03*
X100100000Y-84670000D03*
X102640000Y-84670000D03*
X105180000Y-84670000D03*
X107720000Y-84670000D03*
X110260000Y-84670000D03*
X112800000Y-84670000D03*
X115340000Y-84670000D03*
X117880000Y-84670000D03*
X120420000Y-84670000D03*
X122960000Y-84670000D03*
X125500000Y-84670000D03*
X128040000Y-84670000D03*
X130580000Y-84670000D03*
X133120000Y-84670000D03*
X135660000Y-84670000D03*
X138200000Y-84670000D03*
X140740000Y-84670000D03*
X143280000Y-84670000D03*
X153440000Y-89750000D03*
X155980000Y-89750000D03*
X158520000Y-89750000D03*
X161060000Y-89750000D03*
X163600000Y-89750000D03*
X166140000Y-89750000D03*
X168680000Y-89750000D03*
X171220000Y-89750000D03*
X173760000Y-89750000D03*
X176300000Y-89750000D03*
X178840000Y-89750000D03*
X181380000Y-89750000D03*
X183920000Y-89750000D03*
X186460000Y-89750000D03*
X189000000Y-89750000D03*
X191540000Y-89750000D03*
X194080000Y-89750000D03*
X196620000Y-89750000D03*
X153440000Y-84670000D03*
X155980000Y-84670000D03*
X158520000Y-84670000D03*
X161060000Y-84670000D03*
X163600000Y-84670000D03*
X166140000Y-84670000D03*
X168680000Y-84670000D03*
X171220000Y-84670000D03*
X173760000Y-84670000D03*
X176300000Y-84670000D03*
X178840000Y-84670000D03*
X181380000Y-84670000D03*
X183920000Y-84670000D03*
X186460000Y-84670000D03*
X189000000Y-84670000D03*
X191540000Y-84670000D03*
X194080000Y-84670000D03*
X196620000Y-84670000D03*
%TD*%
D13*
%TO.C,R13*%
X95020000Y-52920000D03*
D16*
X107720000Y-52920000D03*
%TD*%
D13*
%TO.C,R11*%
X113435000Y-60540000D03*
D16*
X126135000Y-60540000D03*
%TD*%
D12*
%TO.C,C21*%
X81354929Y-60540000D03*
D13*
X79354929Y-60540000D03*
%TD*%
%TO.C,C22*%
X81050000Y-75185000D03*
X81050000Y-80185000D03*
%TD*%
D14*
%TO.C,H1*%
X47400438Y-40509230D03*
%TD*%
D15*
%TO.C,D4*%
X84225000Y-43005000D03*
X84225000Y-45055000D03*
%TD*%
D13*
%TO.C,C16*%
X86130000Y-75185000D03*
X86130000Y-80185000D03*
%TD*%
D14*
%TO.C,H8*%
X221378468Y-114716154D03*
%TD*%
D12*
%TO.C,C2*%
X69620000Y-60540000D03*
D13*
X67620000Y-60540000D03*
%TD*%
D18*
%TO.C,J1*%
X67080000Y-108800000D03*
X69620000Y-108800000D03*
X72160000Y-108800000D03*
X74700000Y-108800000D03*
X77240000Y-108800000D03*
X79780000Y-108800000D03*
X82320000Y-108800000D03*
X84860000Y-108800000D03*
X87400000Y-108800000D03*
X89940000Y-108800000D03*
X92480000Y-108800000D03*
X95020000Y-108800000D03*
X97560000Y-108800000D03*
X100100000Y-108800000D03*
X102640000Y-108800000D03*
X105180000Y-108800000D03*
X107720000Y-108800000D03*
X110260000Y-108800000D03*
X112800000Y-108800000D03*
X115340000Y-108800000D03*
X117880000Y-108800000D03*
X120420000Y-108800000D03*
X122960000Y-108800000D03*
X125500000Y-108800000D03*
X128040000Y-108800000D03*
X130580000Y-108800000D03*
X133120000Y-108800000D03*
X135660000Y-108800000D03*
X138200000Y-108800000D03*
X140740000Y-108800000D03*
X143280000Y-108800000D03*
X67080000Y-103720000D03*
X69620000Y-103720000D03*
X72160000Y-103720000D03*
X74700000Y-103720000D03*
X77240000Y-103720000D03*
X79780000Y-103720000D03*
X82320000Y-103720000D03*
X84860000Y-103720000D03*
X87400000Y-103720000D03*
X89940000Y-103720000D03*
X92480000Y-103720000D03*
X95020000Y-103720000D03*
X97560000Y-103720000D03*
X100100000Y-103720000D03*
X102640000Y-103720000D03*
X105180000Y-103720000D03*
X107720000Y-103720000D03*
X110260000Y-103720000D03*
X112800000Y-103720000D03*
X115340000Y-103720000D03*
X117880000Y-103720000D03*
X120420000Y-103720000D03*
X122960000Y-103720000D03*
X125500000Y-103720000D03*
X128040000Y-103720000D03*
X130580000Y-103720000D03*
X133120000Y-103720000D03*
X135660000Y-103720000D03*
X138200000Y-103720000D03*
X140740000Y-103720000D03*
X143280000Y-103720000D03*
X153440000Y-108800000D03*
X155980000Y-108800000D03*
X158520000Y-108800000D03*
X161060000Y-108800000D03*
X163600000Y-108800000D03*
X166140000Y-108800000D03*
X168680000Y-108800000D03*
X171220000Y-108800000D03*
X173760000Y-108800000D03*
X176300000Y-108800000D03*
X178840000Y-108800000D03*
X181380000Y-108800000D03*
X183920000Y-108800000D03*
X186460000Y-108800000D03*
X189000000Y-108800000D03*
X191540000Y-108800000D03*
X194080000Y-108800000D03*
X196620000Y-108800000D03*
X153440000Y-103720000D03*
X155980000Y-103720000D03*
X158520000Y-103720000D03*
X161060000Y-103720000D03*
X163600000Y-103720000D03*
X166140000Y-103720000D03*
X168680000Y-103720000D03*
X171220000Y-103720000D03*
X173760000Y-103720000D03*
X176300000Y-103720000D03*
X178840000Y-103720000D03*
X181380000Y-103720000D03*
X183920000Y-103720000D03*
X186460000Y-103720000D03*
X189000000Y-103720000D03*
X191540000Y-103720000D03*
X194080000Y-103720000D03*
X196620000Y-103720000D03*
%TD*%
D13*
%TO.C,R2*%
X95020000Y-56730000D03*
D16*
X107720000Y-56730000D03*
%TD*%
D12*
%TO.C,C15*%
X85174888Y-60503768D03*
D13*
X87174888Y-60503768D03*
%TD*%
%TO.C,C6*%
X70900000Y-94235000D03*
X70900000Y-99235000D03*
%TD*%
D19*
%TO.C,J5*%
X131850000Y-55460000D03*
D20*
X131850000Y-52920000D03*
X131850000Y-50380000D03*
%TD*%
D13*
%TO.C,R6*%
X157250000Y-52920000D03*
D16*
X144550000Y-52920000D03*
%TD*%
D17*
%TO.C,R15*%
X79780000Y-40497500D03*
X79780000Y-38672500D03*
%TD*%
D13*
%TO.C,R4*%
X113435000Y-52920000D03*
D16*
X126135000Y-52920000D03*
%TD*%
D13*
%TO.C,R12*%
X79780000Y-54190000D03*
D16*
X67080000Y-54190000D03*
%TD*%
D21*
%TO.C,U1*%
X159416950Y-41490000D03*
D22*
X169666950Y-44030000D03*
D21*
X159416950Y-46570000D03*
%TD*%
M02*
